<?xml version="1.0" encoding="utf-8"?>
<!-- Generator: Adobe Illustrator 19.1.0, SVG Export Plug-In . SVG Version: 6.00 Build 0)  -->
<svg version="1.1" id="gulliver" xmlns="http://www.w3.org/2000/svg" xmlns:xlink="http://www.w3.org/1999/xlink" x="0px" y="0px"
	 viewBox="0 0 2706 600" style="enable-background:new 0 0 2706 600;" xml:space="preserve">
<style type="text/css">
	.st0{fill:#5AC5C4;}
	.st1{fill:#111D2A;}
	.st2{fill-rule:evenodd;clip-rule:evenodd;fill:none;stroke:#1D1D1B;stroke-width:0.5141;stroke-miterlimit:3.8637;}
	.st3{fill-rule:evenodd;clip-rule:evenodd;fill:#FFFFFF;}
	.st4{fill:#087678;}
</style>
<g>
	<g>
		<polygon class="st0" points="0,0 2706,0 2706,600 0,600 0,0 		"/>
		<path class="st0" d="M1353,300"/>
	</g>
	<g>
		<g>
			<g>
				<g>
					<path class="st1" d="M2379.3,47.7l35,17.9l35.4-18.1l33.6,31.3l-40,40.9l26.2,364.2c0,0.1-0.2,1-0.3,1.1l-50.3,77.1
						c-0.8,1.2-2.1,1.2-2.9,0.1l-53.4-73.8c-0.1-0.1-0.3-1-0.3-1.1l22.9-367.5l-38.4-41.8L2379.3,47.7z"/>
				</g>
				<g>
					<path class="st2" d="M2564.8,125"/>
				</g>
				<g>
					<path class="st3" d="M2538.1,0v121.7c0,3.5-3.4,4.9-5.9,2.6L2414.5,14.6c-7.6,7.2-32.2,30.4-56.9,53.3
						c-14.8,13.8-57.3,52-58.2,52.7c-0.5,0.3-1,0.7-1.5,1c-4,2.1-5.5-1.6-5.5-3.1c0-2.6-0.5-85-0.7-118.4L2538.1,0z"/>
				</g>
			</g>
		</g>
	</g>
</g>
<g>
	<path class="st4" d="M2370.2,360l-168.3-142.5c-0.6-0.5-1.2-1.9-1.2-2.7v-47.9c0-2.8,2.5-4.4,5-3.2l171.7,80.8L2370.2,360z"/>
</g>
<g>
	<path class="st4" d="M2452.8,251l175.7-82.7c2.5-1.2,5,0.4,5,3.2v47.9c0,0.7-0.7,2.2-1.2,2.7L2461,367.1L2452.8,251z"/>
</g>
</svg>
