<?xml version="1.0" encoding="utf-8"?>
<!-- Generator: Adobe Illustrator 19.1.0, SVG Export Plug-In . SVG Version: 6.00 Build 0)  -->
<svg version="1.1" id="Layer_10_1_" xmlns="http://www.w3.org/2000/svg" xmlns:xlink="http://www.w3.org/1999/xlink" x="0px"
	 y="0px" viewBox="22 -166.1 640 1172" style="enable-background:new 22 -166.1 640 1172;" xml:space="preserve">
<style type="text/css">
	.st0{fill:#5F95B8;}
	.st1{fill:#FFFFFF;}
	.st2{fill:#111D2A;}
	.st3{fill:#F6B51D;}
	.st4{fill:#F3913E;}
	.st5{fill:#F5E100;}
</style>
<g id="graphic_detail">
	<g>
		<rect x="22" y="-165.8" class="st0" width="639.5" height="1171.7"/>
		<g>
			<g>
				<g>
					<g>
						<g>
							<g>
								<polygon class="st1" points="475.8,244.2 405.8,244.2 405.8,-41 436.4,-24.8 436.4,76.5 475.8,76.5 								"/>
								<polygon class="st2" points="661.5,-54.4 661.5,244.2 618.2,244.2 618.2,-91.9 								"/>
								<rect x="194.9" y="149.9" class="st2" width="68.5" height="94.3"/>
								<rect x="263.4" y="53.8" class="st1" width="70.3" height="190.4"/>
								<polygon class="st2" points="405.8,-41 405.8,244.2 333.8,244.2 333.8,-41 								"/>
								<polygon class="st2" points="546.5,-3.3 546.5,244.2 475.8,244.2 475.8,-3.3 								"/>
								<polygon class="st1" points="618.2,-91.9 618.2,244.2 546.5,244.2 546.5,-91.9 								"/>
							</g>
						</g>
					</g>
				</g>
				<g>
					<g>
						<g>
							<polygon class="st0" points="273,67.1 281.5,67.1 281.5,75.6 273,75.6 							"/>
							<path class="st0" d="M277.3,71.3"/>
						</g>
					</g>
					<g>
						<g>
							<polygon class="st0" points="290.2,67.1 298.7,67.1 298.7,75.6 290.2,75.6 							"/>
							<path class="st0" d="M294.5,71.3"/>
						</g>
					</g>
					<g>
						<g>
							<polygon class="st0" points="273,83.6 281.5,83.6 281.5,92.1 273,92.1 							"/>
							<path class="st0" d="M277.3,87.9"/>
						</g>
					</g>
					<g>
						<g>
							<polygon class="st0" points="290.2,83.6 298.7,83.6 298.7,92.1 290.2,92.1 							"/>
							<path class="st0" d="M294.5,87.9"/>
						</g>
					</g>
					<g>
						<g>
							<polygon class="st0" points="273.3,100.8 281.8,100.8 281.8,109.2 273.3,109.2 							"/>
							<path class="st0" d="M277.5,105"/>
						</g>
					</g>
				</g>
				<g>
					<g>
						<g>
							<polygon class="st0" points="342.8,-30.6 351.3,-30.6 351.3,-22.2 342.8,-22.2 							"/>
							<path class="st0" d="M347-26.4"/>
						</g>
					</g>
					<g>
						<g>
							<polygon class="st0" points="342.8,-14.1 351.3,-14.1 351.3,-5.7 342.8,-5.7 							"/>
							<path class="st0" d="M347-9.9"/>
						</g>
					</g>
				</g>
				<g>
					<g>
						<g>
							<polygon class="st0" points="414.7,87.7 423.2,87.7 423.2,96.2 414.7,96.2 							"/>
							<path class="st0" d="M418.9,91.9"/>
						</g>
					</g>
					<g>
						<g>
							<polygon class="st0" points="414.7,104.2 423.2,104.2 423.2,112.7 414.7,112.7 							"/>
							<path class="st0" d="M418.9,108.5"/>
						</g>
					</g>
				</g>
				<g>
					<g>
						<g>
							<polygon class="st0" points="414.7,132.1 423.2,132.1 423.2,140.6 414.7,140.6 							"/>
							<path class="st0" d="M418.9,136.3"/>
						</g>
					</g>
				</g>
				<g>
					<g>
						<g>
							<g>
								<polygon class="st0" points="487.1,9 495.6,9 495.6,17.5 487.1,17.5 								"/>
								<path class="st0" d="M491.3,13.2"/>
							</g>
						</g>
						<g>
							<g>
								<polygon class="st0" points="504.3,9 512.7,9 512.7,17.5 504.3,17.5 								"/>
								<path class="st0" d="M508.5,13.2"/>
							</g>
						</g>
						<g>
							<g>
								<polygon class="st0" points="487.1,27.1 495.6,27.1 495.6,35.6 487.1,35.6 								"/>
								<path class="st0" d="M491.3,31.3"/>
							</g>
						</g>
						<g>
							<g>
								<polygon class="st0" points="504.3,27.1 512.7,27.1 512.7,35.6 504.3,35.6 								"/>
								<path class="st0" d="M508.5,31.3"/>
							</g>
						</g>
						<g>
							<g>
								<polygon class="st0" points="487.1,45.2 495.6,45.2 495.6,53.6 487.1,53.6 								"/>
								<path class="st0" d="M491.3,49.4"/>
							</g>
						</g>
					</g>
					<g>
						<g>
							<polygon class="st0" points="521.6,9 530.1,9 530.1,17.5 521.6,17.5 							"/>
							<path class="st0" d="M525.8,13.2"/>
						</g>
					</g>
				</g>
				<g>
					<g>
						<g>
							<g>
								<polygon class="st0" points="559,-79.7 567.5,-79.7 567.5,-71.3 559,-71.3 								"/>
								<path class="st0" d="M563.2-75.5"/>
							</g>
						</g>
						<g>
							<g>
								<polygon class="st0" points="576.2,-79.7 584.6,-79.7 584.6,-71.3 576.2,-71.3 								"/>
								<path class="st0" d="M580.4-75.5"/>
							</g>
						</g>
						<g>
							<g>
								<polygon class="st0" points="559,-61.7 567.5,-61.7 567.5,-53.2 559,-53.2 								"/>
								<path class="st0" d="M563.2-57.4"/>
							</g>
						</g>
						<g>
							<g>
								<polygon class="st0" points="559,-43.6 567.5,-43.6 567.5,-35.1 559,-35.1 								"/>
								<path class="st0" d="M563.2-39.3"/>
							</g>
						</g>
					</g>
				</g>
				<g>
					<g>
						<g>
							<g>
								<polygon class="st0" points="559,-26.9 567.5,-26.9 567.5,-18.5 559,-18.5 								"/>
								<path class="st0" d="M563.2-22.7"/>
							</g>
						</g>
						<g>
							<g>
								<polygon class="st0" points="576.2,-26.9 584.6,-26.9 584.6,-18.5 576.2,-18.5 								"/>
								<path class="st0" d="M580.4-22.7"/>
							</g>
						</g>
						<g>
							<g>
								<polygon class="st0" points="559,-8.8 567.5,-8.8 567.5,-0.4 559,-0.4 								"/>
								<path class="st0" d="M563.2-4.6"/>
							</g>
						</g>
						<g>
							<g>
								<polygon class="st0" points="559,9.3 567.5,9.3 567.5,17.7 559,17.7 								"/>
								<path class="st0" d="M563.2,13.5"/>
							</g>
						</g>
					</g>
				</g>
				<g>
					<g>
						<g>
							<polygon class="st0" points="203.6,161.2 212.1,161.2 212.1,169.6 203.6,169.6 							"/>
							<path class="st0" d="M207.8,165.4"/>
						</g>
					</g>
					<g>
						<g>
							<polygon class="st0" points="220.8,161.2 229.2,161.2 229.2,169.6 220.8,169.6 							"/>
							<path class="st0" d="M225,165.4"/>
						</g>
					</g>
					<g>
						<g>
							<polygon class="st0" points="203.6,177.7 212.1,177.7 212.1,186.1 203.6,186.1 							"/>
							<path class="st0" d="M207.8,181.9"/>
						</g>
					</g>
					<g>
						<g>
							<polygon class="st0" points="220.8,177.7 229.2,177.7 229.2,186.1 220.8,186.1 							"/>
							<path class="st0" d="M225,181.9"/>
						</g>
					</g>
					<g>
						<g>
							<polygon class="st0" points="203.6,194.5 212.1,194.5 212.1,203 203.6,203 							"/>
							<path class="st0" d="M207.8,198.8"/>
						</g>
					</g>
				</g>
			</g>
			<g>
				<ellipse class="st3" cx="131.7" cy="-61.3" rx="65.3" ry="65.2"/>
				<path class="st3" d="M131.7-61.3"/>
			</g>
			<path class="st4" d="M131.5-126.5c-36,0-65.5,29.2-65.5,65.2v-0.1v0.3h65.7L98.2-5.2C108,0.7,119.5,4,131.7,4
				c36,0,65.2-29.2,65.2-65.2S167.5-126.5,131.5-126.5z"/>
			<path class="st5" d="M131.7-61.3H66.4c0-23.8,12.7-44.6,31.8-56"/>
		</g>
	</g>
</g>
</svg>
