<?xml version="1.0" encoding="utf-8"?>
<!-- Generator: Adobe Illustrator 19.1.0, SVG Export Plug-In . SVG Version: 6.00 Build 0)  -->
<svg version="1.1" id="Layer_11" xmlns="http://www.w3.org/2000/svg" xmlns:xlink="http://www.w3.org/1999/xlink" x="0px" y="0px"
	 viewBox="22 -166.1 640 1172" style="enable-background:new 22 -166.1 640 1172;" xml:space="preserve">
<style type="text/css">
	.st0{fill:#5E9732;}
	.st1{fill:none;}
	.st2{fill:#FFFFFF;}
</style>
<g id="game_theory">
	<g>
		<polygon class="st0" points="22.3,-166.1 662.3,-166.1 662.3,1005.9 22.3,1005.9 		"/>
		<path class="st0" d="M342.3,419.9"/>
	</g>
	<g>
		<path d="M340.9-152.9c7.8,5.5,15.6,11.3,23.5,17.2C356.5-141.7,348.7-147.4,340.9-152.9L340.9-152.9z"/>
		<path d="M406.2-130.5L406.2-130.5c-2.8,0-5.6,0-8.4,0.1C400.7-130.5,403.5-130.5,406.2-130.5z"/>
		<path d="M301.2-123.6c-6.3,0.8-12.5,1.6-18.7,2.6C288.7-122,295-122.8,301.2-123.6z"/>
		<path d="M397.8-130.5c-5.6,0.1-11.3,0.2-17,0.4C386.5-130.2,392.2-130.4,397.8-130.5z"/>
		<polygon class="st1" points="398.7,-166.1 407.3,-166.1 407.3,-166.1 		"/>
		<polygon class="st1" points="258,-166.1 266.4,-166.1 266.4,-166.1 		"/>
		<polygon class="st1" points="507.6,-166.1 516.5,-166.1 516.5,-166.1 		"/>
		<polygon class="st1" points="136.8,-166.1 145.7,-166.1 145.7,-166.1 		"/>
		<polygon class="st1" points="306.4,-166.1 321.7,-166.1 321.7,-166.1 		"/>
		<polygon class="st1" points="342.5,-166.1 354.6,-166.1 354.6,-166.1 		"/>
		<path d="M311.2-134.5c-2.2,2.4-4.4,4.8-6.7,7.2C306.8-129.7,309-132.1,311.2-134.5z"/>
		<path d="M74.4-20.8c2.5,28.5,47.5,48.4,113.3,57.4c-29.7,58.3-38.8,105.8-17.1,124.1c9.2,7.8,22.7,9.1,39.2,5
			c0.4,0.7,0.8,1.4,1.2,2.1c8.2,13.1,25.5,17.1,38.6,8.9c11.7-7.3,16.1-21.9,11-34.2c9.4-5.8,19.1-12.5,29.1-20
			c20.3,63,47.6,103.7,76.1,101.2c28.7-2.5,48.7-48.2,57.6-114.7c59.3,30.6,107.9,40.3,126.4,18.3c6.9-8.2,8.7-19.8,6.2-33.8
			c10.1-5.6,16.4-16.8,15.1-29c-1.7-16.3-16.3-28.1-32.6-26.4c-2,0.2-3.9,0.6-5.7,1.2c-6.2-10.1-13.4-20.7-21.6-31.5
			c61.8-20.2,101.5-47.2,99.1-75.4c-2.5-28.4-47-48.2-112.1-57.3c7.5-14.5,13.7-28.3,18.5-41.2h-8.9c-4.8,12.4-10.9,25.8-18.4,40
			c-22.8-2.8-48-4.3-74.5-4.4c-2.2-12.2-4.7-24.1-7.4-35.6h-8.6c2.7,11.3,5.2,23.2,7.5,35.6l0,0l0,0l0,0c-2.8,0-5.6,0-8.4,0.1
			c-5.6,0.1-11.3,0.2-17,0.4c-2.9,0.1-5.7,0.2-8.6,0.3c-2.6-2-5.2-4-7.8-6c-7.8-6-15.7-11.7-23.5-17.2l0,0l0,0l0,0
			c4.6-4.5,9.2-8.9,13.7-13.2h-12.1c-2.8,2.7-5.7,5.5-8.6,8.3c-4.1-2.8-8.2-5.6-12.3-8.3h-15.3c7.1,4.5,14.3,9.3,21.6,14.3
			c-5.6,5.6-11.2,11.4-16.7,17.4c-2.2,2.4-4.4,4.8-6.7,7.2c-1.1,1.2-2.2,2.4-3.3,3.7c-6.3,0.8-12.5,1.6-18.7,2.6
			c-3.1,0.5-6.1,0.9-9.2,1.4c-3,0.5-6.1,1-9.1,1.5c3-0.5,6-1,9.1-1.5c-3,0.5-6.1,1-9.1,1.5c0.1-16.8,0.8-32.9,2-48H258
			c-1.2,15.7-1.9,32.3-2,49.5c-25.1,4.4-48.7,10-70.1,16.4c-18.9-24.6-32.6-47.2-40.2-66h-8.9c7.6,20.1,21.6,43.6,40.6,68.6
			C113.4-77.1,71.9-49.6,74.4-20.8z M227.6,173.1c-1.1-0.4-2.2-0.9-3.2-1.4c-3.1-1.7-5.8-4.2-7.9-7.4c-2.9-4.6-3.8-9.9-3-14.9
			c0.9,0.2,1.8,0.5,2.6,0.8c1.7,0.7,3.3,1.6,4.8,2.7c1.7,1.3,3.2,3,4.5,4.9c0.4,0.6,0.7,1.2,1,1.8c0.5,0.9,0.8,1.9,1.1,2.8
			c0.1,0.3,0.2,0.6,0.3,1c0.2,0.6,0.3,1.3,0.4,1.9c0.1,0.7,0.1,1.3,0.2,2c0,0.3,0,0.7,0,1C228.3,170,228.1,171.6,227.6,173.1z
			 M243.7,172.4c-0.9,0.4-1.9,0.8-2.9,1.1c-1.9,0.6-3.9,0.8-5.9,0.9c-1,0-2-0.1-2.9-0.2l0,0l0,0c0.5-1.9,0.8-3.9,0.8-5.9
			c0-0.4,0-0.8,0-1.2c-0.1-4-1.3-8-3.6-11.6c-1.5-2.4-3.3-4.4-5.4-6c-1.8-1.4-3.8-2.5-5.8-3.3c-1-0.4-2.1-0.7-3.2-1l0,0l0,0
			c0.3-0.9,0.8-1.8,1.2-2.6c0.7-1.3,1.5-2.4,2.5-3.6c0.6-0.7,1.3-1.4,2.1-2.1c0.4-0.3,0.8-0.6,1.2-0.9L243.7,172.4L243.7,172.4
			L243.7,172.4z M254.9,160.2c-0.2,0.5-0.4,1-0.6,1.4c-0.6,1.4-1.4,2.8-2.3,4.1c-0.6,0.8-1.3,1.7-2.1,2.4c-0.8,0.8-1.6,1.5-2.5,2.1
			l-22-36.5c0.5-0.2,1-0.4,1.5-0.6c1-0.4,2-0.7,3-0.9c2-0.4,4.1-0.6,6.1-0.4c0.5,0,1,0.1,1.5,0.2l0,0l0,0c-0.4,1.5-0.6,3-0.6,4.5
			c0,0.4,0,0.8,0,1.1s0,0.8,0,1.1c0,0.8,0.1,1.5,0.2,2.3c0.1,0.8,0.3,1.5,0.5,2.3c0.3,1.1,0.7,2.3,1.2,3.4c0.3,0.7,0.7,1.5,1.1,2.2
			c0.2,0.4,0.4,0.7,0.6,1.1c1.9,3,4.4,5.5,7.2,7.3c0.6,0.4,1.3,0.8,1.9,1.1c1,0.5,2,0.9,3.1,1.3C253.5,159.8,254.2,160,254.9,160.2
			L254.9,160.2L254.9,160.2z M256,155.8c-0.6-0.1-1.1-0.3-1.7-0.5s-1.1-0.4-1.7-0.7c-0.5-0.2-1.1-0.5-1.6-0.8
			c-0.8-0.5-1.5-1-2.2-1.5c-1.7-1.3-3.2-2.9-4.3-4.8c-0.2-0.3-0.3-0.6-0.5-0.9c-0.3-0.6-0.6-1.2-0.9-1.7c-0.1-0.3-0.2-0.6-0.4-0.9
			c-0.2-0.6-0.4-1.2-0.6-1.8c-0.2-0.6-0.3-1.2-0.4-1.8c-0.1-0.9-0.2-1.9-0.2-2.8c0-1.5,0.2-3.1,0.5-4.6c0.5,0.2,1.1,0.4,1.6,0.7
			c1.1,0.5,2.1,1,3,1.7s1.9,1.4,2.8,2.2c1.3,1.2,2.5,2.6,3.5,4.2C255.6,146.1,256.6,151.1,256,155.8z M283,117
			c-2.6,2-5.3,3.9-7.9,5.7c-6.5,4.6-12.8,8.8-18.9,12.6c-3.3-4-7.6-6.9-12.2-8.6c-1.2-0.4-2.4-0.8-3.6-1c-0.4-0.1-0.8-0.2-1.2-0.2
			c-1.2-0.2-2.5-0.3-3.7-0.4c-3.7-0.1-7.5,0.5-11.1,1.9c-0.8,0.3-1.6,0.7-2.4,1c-0.8,0.4-1.5,0.8-2.3,1.3c-0.6,0.4-1.2,0.8-1.8,1.2
			c-0.6,0.4-1.1,0.9-1.7,1.3c-0.3,0.2-0.5,0.5-0.8,0.7c-0.8,0.7-1.5,1.5-2.2,2.3c-2.7,3.2-4.6,6.9-5.7,10.8c-0.2,0.7-0.3,1.3-0.5,2
			c-0.6,3.3-0.7,6.8-0.1,10.2c-1.7,0.4-3.3,0.7-5,1c-0.8,0.1-1.6,0.3-2.4,0.4c-3.1,0.4-6,0.5-8.8,0.4c-0.7,0-1.3-0.1-2-0.2
			c-2-0.2-3.8-0.6-5.5-1.1c-1.1-0.4-2.2-0.8-3.3-1.3c-1.6-0.8-3-1.7-4.3-2.8c-6-5.1-9-13.6-9.1-25c0-1.6,0-3.2,0.1-4.8
			c0.2-2.8,0.5-5.7,0.9-8.7c0.3-1.8,0.6-3.7,1-5.6c0.1-0.6,0.3-1.3,0.4-1.9c0.4-1.9,0.9-3.9,1.4-6c1.7-6.8,4-14.1,6.8-21.8
			c0.6-1.5,1.1-3.1,1.8-4.7c0.6-1.6,1.2-3.2,1.9-4.8c0.3-0.8,0.7-1.6,1-2.4c2-4.9,4.2-9.9,6.6-15c2.4-5.1,5-10.4,7.8-15.8
			c2.8,0.3,5.7,0.7,8.5,0.9c8.6,0.9,17.6,1.6,26.8,2.1c3.1,0.2,6.2,0.3,9.3,0.5c3.1,0.1,6.3,0.3,9.4,0.4c6.3,0.2,12.8,0.3,19.3,0.4
			c0.3,1.6,0.6,3.2,0.9,4.8c0.6,3.2,1.2,6.4,1.9,9.5c0.3,1.6,0.6,3.1,1,4.7c0.7,3.1,1.3,6.2,2,9.3c0.3,1.5,0.7,3.1,1,4.6
			c2.1,9.1,4.3,17.9,6.7,26.5c0.4,1.4,0.8,2.8,1.2,4.2c0.8,2.8,1.6,5.6,2.4,8.3C285.7,115,284.3,116,283,117z M272.1,2.6
			c3,2.6,5.9,5.2,9,7.8c3,2.6,6.1,5.2,9.1,7.8c1.5,1.3,3,2.5,4.5,3.8c3,2.5,6,5,9.1,7.4c1.5,1.2,3,2.4,4.5,3.6
			c-2.7,0.1-5.3,0.2-8,0.3c-8,0.3-15.8,0.4-23.4,0.4c-0.9-5-1.7-10.2-2.5-15.3C273.6,13.2,272.8,7.9,272.1,2.6L272.1,2.6L272.1,2.6z
			 M291.9,100.9c-0.7-2.6-1.4-5.2-2.1-7.8c-1.1-4-2.1-8-3.1-12.1s-2-8.3-2.9-12.6c-1.9-8.5-3.7-17.3-5.4-26.4l0,0l0,0
			c13.1-0.1,26.4-0.4,40-1.1c4.7,3.6,9.4,7.2,14.1,10.7s9.4,6.9,14.1,10.2l0,0l0,0c-5.6,5.6-11.2,10.9-16.8,16c-1.1,1-2.2,2-3.3,3.1
			c-2.2,2-4.4,4-6.6,6c-2.2,1.9-4.4,3.9-6.6,5.7c-1.1,0.9-2.2,1.9-3.3,2.8c-2.2,1.8-4.3,3.6-6.5,5.4c-3.2,2.7-6.4,5.2-9.5,7.7
			C293.3,106,292.6,103.5,291.9,100.9z M331.1,40.1c3.1-0.2,6.1-0.4,9.2-0.7c3.1-0.2,6.2-0.5,9.2-0.8c3.6-0.3,7.2-0.7,10.8-1
			c3.6-0.4,7.2-0.7,10.7-1.1c-3.1,3.3-6.2,6.6-9.3,9.8c-3.1,3.2-6.2,6.4-9.2,9.4c-3.5-2.5-7.1-5.1-10.7-7.7
			C338.3,45.5,334.7,42.9,331.1,40.1z M365,215.3c-2.5,0.2-5.1,0-7.6-0.8c-0.7-0.2-1.5-0.4-2.2-0.7c-0.7-0.3-1.5-0.6-2.2-0.9
			c-0.4-0.2-0.7-0.4-1.1-0.6c-1.8-1-3.7-2.2-5.6-3.6c-1.1-0.8-2.2-1.8-3.3-2.8c-4.5-4-8.9-9.3-13.3-15.7c-1.1-1.6-2.2-3.3-3.3-5
			c-0.4-0.6-0.7-1.2-1.1-1.8c-3.3-5.3-6.5-11.3-9.7-17.8c-0.7-1.5-1.4-2.9-2.1-4.4s-1.4-3-2.1-4.6s-1.4-3.2-2.1-4.8
			c-1-2.4-2-4.9-3-7.5c-0.7-1.7-1.3-3.4-2-5.2c-0.7-1.8-1.3-3.5-2-5.3c-0.6-1.8-1.3-3.6-1.9-5.5c-1.3-3.7-2.5-7.5-3.8-11.4
			c18.4-14.4,37.6-31.4,56.9-50.4c21.2,14.7,42.1,27.5,61.9,38.2C407,170.8,388.2,213.3,365,215.3z M420,42.9
			c-0.1,2.9-0.2,5.8-0.3,8.6c-0.2,5.7-0.5,11.3-0.8,16.8c-0.2,2.7-0.4,5.4-0.6,8.1c-0.2,2.7-0.4,5.3-0.7,8
			c-0.4,3.9-0.7,7.8-1.2,11.6c-1.1-0.6-2.3-1.2-3.4-1.9c-4.5-2.5-9.1-5.2-13.8-7.9c-3.5-2.1-7-4.2-10.6-6.4
			c-9.5-5.9-19.3-12.2-29.2-19.1c2-2,4.1-4.1,6.1-6.2c6.1-6.3,12.2-12.7,18.2-19.4c6.2-0.8,12.3-1.6,18.4-2.5s12.1-1.9,18-2.9
			C420.2,34.1,420.1,38.5,420,42.9z M420.3,21.2c-4.5,0.8-9.1,1.5-13.8,2.3c-4.6,0.7-9.4,1.4-14.1,2.1c3.7-4.2,7.5-8.5,11.2-12.9
			c1.2-1.5,2.5-2.9,3.7-4.4c2.1-2.5,4.2-5,6.3-7.6c2.1-2.5,4.1-5,6.1-7.6c0.3,7.2,0.4,14.2,0.5,21.2
			C420.2,16.6,420.3,18.9,420.3,21.2L420.3,21.2L420.3,21.2z M422.8-75.8L422.8-75.8L422.8-75.8c1.9,1.8,3.9,3.6,5.8,5.4
			c5.7,5.3,11.2,10.7,16.6,16l0,0l0,0c-2.9,4.1-5.8,8.2-8.9,12.4c-3,4.1-6.1,8.3-9.3,12.5c-0.5-7.2-1-14.5-1.6-21.8
			c-0.5-6.1-1.1-12.2-1.8-18.3C423.3-71.8,423-73.8,422.8-75.8z M445.4-40.6c1.9-2.6,3.8-5.3,5.6-7.9c3.3,3.3,6.5,6.7,9.6,10
			c2.1,2.2,4.2,4.4,6.2,6.6c1,1.1,2,2.2,3,3.3c2,2.2,4,4.4,5.9,6.5c1.9,2.2,3.8,4.3,5.7,6.5c3.7,4.3,7.3,8.5,10.7,12.7
			c1.7,2.1,3.4,4.2,5,6.3c-2.6,0.8-5.2,1.5-7.8,2.3c-2.6,0.8-5.3,1.5-8.1,2.2c-1.4,0.4-2.7,0.7-4.1,1.1c-2.8,0.7-5.6,1.4-8.4,2.1
			c-1.4,0.3-2.8,0.7-4.3,1c-2.9,0.7-5.8,1.4-8.7,2c-8.8,2-17.9,3.8-27.3,5.6c-0.1-12-0.4-24.2-1-36.6c4.1-5.3,8.1-10.6,12-15.8
			C441.6-35.4,443.5-38,445.4-40.6z M558.4,83.8c-0.7,0.7-1.5,1.4-2.3,2s-1.6,1.2-2.5,1.7s-1.8,1-2.7,1.4c-0.5,0.2-1,0.4-1.5,0.6
			l-0.8-0.5l-0.8-0.5l-2.4-1.5l-0.3-3.3l-0.4-4.1l-0.2-1.4l0,0l0,0l5.9-5.1l7.6,2.6l0.5,2.2l1,4.8C559.1,83,558.7,83.4,558.4,83.8z
			 M556.9,53.8h3.9c1.1,1.6,2.1,3.3,2.8,5.2c0.4,0.9,0.7,1.9,0.9,2.9s0.4,2,0.5,3c0.1,0.9,0.1,1.8,0.1,2.7l-2.8,1.7l-1.6,0.9
			l-1.6,0.9l-7-2.4l-3.2-7.5l4.9-7.3L556.9,53.8z M530,47.2c0.7-0.4,1.4-0.8,2.1-1.1c2.2-1,4.6-1.7,7.1-1.9c1.9-0.2,3.7-0.2,5.5,0.1
			c0.7,0.1,1.4,0.2,2.1,0.4c0.3,0.1,0.7,0.2,1,0.3l2.1,6.1l-2.4,3.6l-2.4,3.7l-8.8,0.8l-6.4-5.7l0.1-3.6V47.2L530,47.2L530,47.2z
			 M540.9,87.2l-2.3,2.1l-1.2,1c-0.5-0.1-1.1-0.2-1.6-0.4c-1.1-0.3-2.1-0.6-3.1-1.1c-0.5-0.2-1-0.4-1.5-0.7
			c-0.7-0.3-1.3-0.7-1.9-1.1c-1.2-0.8-2.4-1.6-3.4-2.6l0.4-3.3l0.1-2.8l6.6-3.9l7,4.2l0.4,4.3L540.9,87.2L540.9,87.2L540.9,87.2z
			 M532.9,62l-1.9,8.3l-6.7,4L522,73l-3.2-1.6c0-0.3-0.1-0.5-0.1-0.8s-0.1-0.5-0.1-0.8c0-0.5-0.1-0.9-0.1-1.4
			c-0.1-2.3,0.1-4.5,0.6-6.6c0.2-0.8,0.5-1.7,0.8-2.5l4.8-1.7l2.4-0.8L532.9,62z M525.1,42.8L525.1,42.8L525.1,42.8
			c-2.8,1.8-5.2,4.1-7.2,6.8c-1.2,1.6-2.2,3.3-3.1,5.1c-0.6,1.2-1.1,2.4-1.5,3.7c-0.2,0.6-0.4,1.3-0.6,1.9c-0.5,2-0.8,4-0.8,6.1
			c0,1.4,0,2.8,0.2,4.2c0.4,3.6,1.4,6.9,2.9,9.9c0.4,0.9,0.9,1.7,1.4,2.5c0.3,0.4,0.5,0.8,0.8,1.2c0.8,1.2,1.7,2.3,2.7,3.3
			c0.6,0.7,1.3,1.4,2,2c1.8,1.6,3.7,2.9,5.8,4.1c0.8,0.4,1.7,0.9,2.6,1.2s1.8,0.7,2.7,1s1.9,0.5,2.8,0.7c2.9,0.6,5.8,0.7,8.9,0.4
			c1.1-0.1,2.3-0.3,3.4-0.5c0.2,1.4,0.4,2.7,0.5,4c0.4,4.5,0.2,8.6-0.7,12.2c-0.5,2.1-1.2,4-2.1,5.7c-0.7,1.3-1.5,2.5-2.4,3.6
			c-5.6,6.7-15.5,9.6-28.7,9c-0.6,0-1.1-0.1-1.7-0.1c-4.5-0.3-9.4-1-14.6-2c-2-0.4-4-0.8-6-1.3c-3.4-0.8-7-1.8-10.6-2.9
			c-3.7-1.1-7.4-2.4-11.3-3.8c-0.8-0.3-1.6-0.6-2.3-0.9c-1.6-0.6-3.2-1.2-4.8-1.8c-1.6-0.6-3.2-1.3-4.9-2c-2.5-1-5-2.1-7.5-3.2
			c-1.7-0.7-3.4-1.5-5.1-2.3c-6.9-3.1-14-6.6-21.3-10.5l0,0l0,0c0.5-4.2,0.9-8.4,1.3-12.7c0.7-7.2,1.2-14.5,1.7-22
			c0.3-4.5,0.5-9.1,0.7-13.7c0.2-4.6,0.3-9.3,0.4-14c0.1-3.2,0.1-6.3,0.1-9.5c16.7-3.1,32.7-6.5,47.9-10.4c4.5-1.2,9-2.4,13.4-3.6
			c4.4-1.2,8.7-2.5,12.9-3.8c1.7,2.2,3.3,4.4,5,6.6c0.9,1.2,1.7,2.3,2.6,3.5C515.7,28.2,520.7,35.7,525.1,42.8z M493.9-117.1
			c22.2,3,41.6,7.1,57.7,12.2c1.5,0.5,2.9,0.9,4.3,1.4c0.7,0.2,1.4,0.5,2.1,0.7c1.4,0.5,2.7,1,4,1.5c3.3,1.3,6.4,2.6,9.3,3.9
			c1.8,0.8,3.4,1.6,5,2.5c3.2,1.7,6.2,3.4,8.8,5.2c1.3,0.9,2.6,1.8,3.7,2.7c2.3,1.8,4.4,3.7,6.1,5.7c0.9,1,1.7,2,2.4,3
			c0.5,0.7,0.9,1.3,1.3,2c0.6,1,1.1,2,1.6,3.1c0.3,0.7,0.5,1.4,0.8,2.1c0.4,1.4,0.7,2.8,0.8,4.2c0.2,2.1,0,4.3-0.5,6.4
			c-0.2,1.1-0.6,2.2-1,3.3c-0.3,0.7-0.6,1.5-0.9,2.2c-0.3,0.7-0.7,1.5-1.1,2.2c-0.4,0.7-0.9,1.5-1.3,2.2c-1.2,1.8-2.6,3.7-4.3,5.5
			c-1,1.1-2,2.2-3.2,3.3c-1.1,1.1-2.3,2.2-3.6,3.3c-1.7,1.5-3.5,2.9-5.5,4.4c-1,0.7-2,1.5-3,2.2s-2.1,1.5-3.2,2.2
			c-1.1,0.7-2.2,1.4-3.4,2.2c-1.2,0.7-2.4,1.4-3.6,2.2c-2.4,1.4-5,2.9-7.7,4.3c-1.3,0.7-2.7,1.4-4.1,2.1c-0.7,0.3-1.4,0.7-2.1,1
			c-1.4,0.7-2.9,1.4-4.3,2.1c-12.6,5.9-27.1,11.5-43.3,16.7c-0.9-1.1-1.8-2.3-2.7-3.4c-1.8-2.3-3.7-4.6-5.6-6.9
			c-0.9-1.2-1.9-2.3-2.9-3.5c-2.9-3.5-5.9-7-9-10.5c-2-2.3-4.1-4.7-6.2-7c-7.4-8.2-15.2-16.5-23.5-24.9c1.8-2.6,3.6-5.3,5.4-7.9
			c4.4-6.6,8.7-13.1,12.7-19.6c1.6-2.6,3.2-5.2,4.8-7.7C484.2-99.6,489.3-108.5,493.9-117.1z M434.5-121.8c3,0.1,6,0.2,8.9,0.3
			c4.4,0.2,8.7,0.4,13,0.7c4.3,0.3,8.5,0.6,12.6,1c5.5,0.5,10.9,1,16.1,1.6l0,0l0,0c-1.8,3.4-3.7,6.8-5.7,10.2
			c-1.3,2.3-2.7,4.6-4,6.9c-1.4,2.3-2.8,4.7-4.2,7c-1.4,2.4-2.9,4.7-4.4,7.1c-4.5,7.1-9.2,14.4-14.2,21.8c-0.8,1.2-1.7,2.5-2.5,3.7
			c-4.6-4.5-9.3-9.1-14-13.6c-2.4-2.3-4.8-4.5-7.3-6.8c-2.4-2.3-4.9-4.5-7.4-6.8c-1.1-8.6-2.3-17-3.7-25.4c-0.4-2.8-0.9-5.5-1.4-8.3
			C422.4-122.1,428.5-122,434.5-121.8z M395.1-122.1c4.2-0.1,8.5-0.1,12.6-0.1c0.4,2,0.7,4.1,1,6.2c1,6.2,2,12.6,2.9,19l0,0l0,0
			c-2.4-2.1-4.7-4.1-7.1-6.2s-4.8-4.1-7.3-6.2c-1.3-1-2.5-2.1-3.8-3.1c-3.8-3.1-7.5-6.2-11.3-9.2C386.6-121.9,390.9-122,395.1-122.1
			z M313.9-125.1c3.5-3.8,7-7.5,10.5-11.2c3.5-3.6,7-7.2,10.5-10.7c4,2.8,8.1,5.8,12.2,8.8s8.2,6.1,12.3,9.2l0,0l0,0
			c-6,0.4-12.1,0.8-18.2,1.3c-2,0.2-4.1,0.3-6.1,0.5c-3.5,0.3-7.1,0.6-10.6,1C320.9-125.9,317.4-125.5,313.9-125.1L313.9-125.1
			L313.9-125.1z M305.4-115.7c9.9-1.2,20.1-2.3,30.4-3.2c2.9-0.3,5.7-0.5,8.5-0.7c5.7-0.4,11.3-0.8,16.9-1.2
			c2.8-0.2,5.6-0.3,8.3-0.4c7.4,5.8,14.9,11.9,22.4,18.2c5.5,4.6,10.9,9.3,16.2,13.9c1.8,1.5,3.5,3.1,5.2,4.6c0.3,2.7,0.7,5.5,1,8.3
			c1,8.3,1.8,16.8,2.6,25.4c0.2,2.6,0.4,5.3,0.7,7.9c0.6,7.9,1.1,15.6,1.5,23.3l0,0l0,0c-4.4,5.6-8.9,11.2-13.6,16.8
			c-1.5,1.9-3.1,3.8-4.7,5.6C399,4.9,397.3,7,395.5,9c-5.3,6.2-10.6,12.2-15.9,18.1c-10.1,1.2-20.4,2.3-30.9,3.2
			c-9.4,0.8-18.7,1.5-27.8,2c-7.4-5.7-14.8-11.7-22.3-17.9c-1.1-0.9-2.1-1.8-3.2-2.7c-2.2-1.8-4.3-3.6-6.4-5.4
			c-6.4-5.5-12.6-10.9-18.6-16.4c-0.3-2.3-0.5-4.5-0.8-6.8c-0.5-4.6-1-9.2-1.4-13.9c-0.2-2.3-0.4-4.7-0.6-7
			c-0.9-10.3-1.6-20.4-2.1-30.3c3.3-4.2,6.6-8.4,10.1-12.7c3.4-4.2,6.9-8.5,10.5-12.7c3.2-3.8,6.4-7.6,9.6-11.3
			C298.9-108.5,302.1-112.1,305.4-115.7z M264.3-109.7c2.3-0.4,4.6-0.8,7-1.2c2.3-0.4,4.7-0.8,7.1-1.1c4.7-0.7,9.5-1.4,14.4-2.1l0,0
			l0,0c-2.2,2.5-4.4,5-6.6,7.6c-2.2,2.5-4.4,5.1-6.5,7.7c-2.5,3-5,6-7.5,9s-4.9,6-7.3,9c-0.3-7.4-0.5-14.6-0.5-21.8
			C264.3-105,264.3-107.3,264.3-109.7L264.3-109.7L264.3-109.7z M263.9,4.2c1.4,10,2.9,19.9,4.5,29.5c-1.5,0-3,0-4.5-0.1
			c-4.5-0.1-9-0.2-13.4-0.3c-2.9-0.1-5.9-0.2-8.7-0.3c-2.9-0.1-5.7-0.3-8.6-0.4c-2.8-0.2-5.6-0.3-8.4-0.5
			c-5.5-0.4-10.9-0.9-16.2-1.4c-2.6-0.3-5.3-0.5-7.8-0.8c1.3-2.3,2.6-4.7,3.9-7.1c2-3.6,4.1-7.2,6.2-10.9c1.4-2.4,2.9-4.9,4.4-7.4
			c3-4.9,6.1-10,9.4-15c3.3-5.1,6.7-10.2,10.2-15.4c0.9-1.3,1.8-2.6,2.7-3.9c2,2,4,4,6.1,6c4.1,4,8.3,8,12.6,12c2.1,2,4.3,4,6.5,6
			C263-2.5,263.4,0.8,263.9,4.2z M258.5-47.5c0.3,3.5,0.5,7,0.9,10.5c0.5,6.2,1.1,12.3,1.8,18.4c-3.3-3-6.5-6.1-9.6-9.1
			s-6.2-6-9.3-9c2.5-3.5,5-7,7.6-10.5c1.3-1.8,2.6-3.5,3.9-5.3c1.3-1.8,2.6-3.5,4-5.3C258-54.5,258.2-51,258.5-47.5z M198.9-95.1
			c6.3-1.7,12.7-3.4,19.4-5c4-1,8.1-1.9,12.2-2.8c8.3-1.8,16.8-3.6,25.6-5.2c0,3.1,0,6.1,0.1,9.2c0,3.1,0.1,6.2,0.2,9.3
			c0.2,6.2,0.4,12.6,0.7,18.9l0,0l0,0c-0.9,1.2-1.8,2.3-2.7,3.5c-6.2,8.2-12.3,16.3-18,24.5c-3.2-3.2-6.3-6.5-9.3-9.7
			c-4.1-4.3-8-8.5-11.8-12.7c-2.9-3.2-5.6-6.3-8.4-9.4c-2.7-3.1-5.3-6.2-7.9-9.3c-1.7-2.1-3.4-4.1-5-6.1c-0.8-1-1.6-2-2.4-3
			C193.9-93.7,196.4-94.4,198.9-95.1z M188.2-83.8c1.8,2.2,3.7,4.5,5.6,6.7c1.9,2.3,3.8,4.5,5.8,6.8s4,4.5,6,6.8
			c3,3.4,6.2,6.9,9.4,10.3c2.1,2.3,4.3,4.6,6.5,6.9c3.3,3.5,6.6,6.9,10.1,10.4l0,0l0,0c-2.9,4.2-5.7,8.3-8.4,12.4
			c-2.7,4.1-5.4,8.2-8,12.3c-1.7,2.7-3.4,5.4-5.1,8.1c-6.6,10.8-12.7,21.4-18.2,31.7c-35.6-4.7-64.3-12.4-83.3-22.2
			c-1.6-0.8-3.2-1.7-4.7-2.6c-2-1.2-3.8-2.3-5.6-3.6c-0.9-0.6-1.7-1.2-2.5-1.8c-1.2-0.9-2.3-1.9-3.3-2.8c-3.8-3.5-6.5-7.2-8.1-11
			c-0.9-2.1-1.4-4.2-1.6-6.4c-0.1-0.7-0.1-1.5-0.1-2.2c0.1-4.4,1.6-8.8,4.4-13.3c0.5-0.7,1-1.5,1.5-2.2c0.3-0.4,0.6-0.8,0.8-1.1
			c0.9-1.1,1.8-2.3,2.8-3.4c0.3-0.4,0.7-0.8,1.1-1.1c1.1-1.1,2.2-2.3,3.5-3.4c0.8-0.7,1.7-1.5,2.6-2.2c1.3-1.1,2.7-2.2,4.2-3.4
			c2-1.5,4.1-3,6.3-4.5c1.1-0.7,2.3-1.5,3.4-2.2c1.8-1.1,3.6-2.2,5.5-3.3c0.6-0.4,1.3-0.7,1.9-1.1c2-1.1,4-2.2,6.1-3.2
			c2.1-1,4.2-2.1,6.5-3.2s4.5-2.1,6.9-3.2c0.8-0.3,1.6-0.7,2.4-1c1.6-0.7,3.2-1.4,4.9-2.1c1.6-0.7,3.3-1.4,5-2c2.6-1,5.2-2,7.8-3
			c0.9-0.3,1.8-0.7,2.7-1c1.8-0.7,3.6-1.3,5.5-2c4.7-1.6,9.5-3.2,14.4-4.7C184.6-88.2,186.4-86,188.2-83.8z"/>
		<path d="M399.3,86.1c-3.5-2.1-7-4.2-10.6-6.4C392.3,81.9,395.8,84,399.3,86.1z"/>
		<path d="M413.5,0.7c-2.1,2.5-4.2,5-6.3,7.6c-1.2,1.5-2.5,2.9-3.7,4.4c1.2-1.5,2.5-2.9,3.7-4.4C409.4,5.7,411.5,3.2,413.5,0.7z"/>
		<path d="M420.3,21.2L420.3,21.2c-4.5,0.8-9.1,1.5-13.8,2.3C411.2,22.7,415.7,22,420.3,21.2z"/>
		<path d="M485-118.2L485-118.2c-1.8,3.4-3.7,6.8-5.7,10.2C481.3-111.4,483.2-114.8,485-118.2z"/>
		<path d="M479.3-108c-1.3,2.3-2.7,4.6-4,6.9C476.7-103.4,478-105.7,479.3-108z"/>
		<path d="M435.9-75c4.8,4.5,9.5,9,14,13.6c0.8-1.2,1.7-2.5,2.5-3.7c-0.8,1.2-1.7,2.5-2.5,3.7C445.4-66,440.7-70.5,435.9-75z"/>
		<path d="M417.6-113.9c1.3,8.3,2.6,16.8,3.7,25.4c2.5,2.2,5,4.5,7.4,6.8c-2.4-2.3-4.9-4.5-7.4-6.8
			C420.1-97.1,418.9-105.6,417.6-113.9z"/>
		<path d="M435.9-75c-2.4-2.3-4.8-4.5-7.3-6.8C431.1-79.5,433.5-77.3,435.9-75z"/>
		<path d="M422.8-75.8L422.8-75.8c1.9,1.8,3.9,3.6,5.8,5.4C426.7-72.3,424.7-74.1,422.8-75.8z"/>
		<path d="M445.1-54.5c-5.3-5.3-10.9-10.6-16.6-16C434.2-65.1,439.8-59.8,445.1-54.5L445.1-54.5z"/>
		<path d="M533,95.8c0.9,0.3,1.9,0.5,2.8,0.7C534.9,96.3,533.9,96.1,533,95.8z"/>
		<path d="M527.7,93.6c0.8,0.4,1.7,0.9,2.6,1.2C529.4,94.5,528.6,94.1,527.7,93.6z"/>
		<path d="M530.3,94.9c0.9,0.4,1.8,0.7,2.7,1C532.1,95.5,531.2,95.2,530.3,94.9z"/>
		<path d="M517.2,84.2c0.8,1.2,1.7,2.3,2.7,3.3C518.9,86.5,518,85.4,517.2,84.2z"/>
		<path d="M515,80.5c0.4,0.9,0.9,1.7,1.4,2.5C515.9,82.2,515.4,81.4,515,80.5z"/>
		<path d="M424.4,100.1L424.4,100.1c0.5-4.2,0.9-8.4,1.3-12.7C425.4,91.8,424.9,96,424.4,100.1z"/>
		<path d="M548.6,100.4c-0.1-1.3-0.3-2.6-0.5-4c-1.1,0.2-2.2,0.4-3.4,0.5c1.1-0.1,2.3-0.3,3.4-0.5
			C548.3,97.8,548.5,99.1,548.6,100.4z"/>
		<path d="M507.6,17c0.9,1.2,1.7,2.3,2.6,3.5C509.4,19.4,508.5,18.2,507.6,17z"/>
		<path d="M518,49.6c2-2.6,4.4-4.9,7.2-6.8l0,0C522.4,44.7,519.9,47,518,49.6z"/>
		<path d="M521.9,89.6c-0.7-0.6-1.4-1.3-2-2C520.5,88.3,521.2,88.9,521.9,89.6z"/>
		<path d="M476.4,17.7c4.5-1.2,9-2.4,13.4-3.6C485.4,15.4,481,16.6,476.4,17.7z"/>
		<path d="M464.6,12.1c-2.9,0.7-5.8,1.4-8.7,2C458.8,13.5,461.7,12.8,464.6,12.1z"/>
		<path d="M460.7-38.5c2.1,2.2,4.2,4.4,6.2,6.6C464.9-34.1,462.8-36.3,460.7-38.5z"/>
		<path d="M477.2,8.9c-2.8,0.7-5.6,1.4-8.4,2.1C471.7,10.4,474.5,9.7,477.2,8.9z"/>
		<path d="M489.4,5.6c-2.6,0.8-5.3,1.5-8.1,2.2C484,7.1,486.7,6.4,489.4,5.6z"/>
		<path d="M460.7-38.5c-3.1-3.3-6.4-6.6-9.6-10c-1.9,2.6-3.7,5.2-5.6,7.9c1.9-2.6,3.8-5.3,5.6-7.9C454.4-45.2,457.6-41.9,460.7-38.5
			z"/>
		<path d="M395.6,9.1c1.8-2.1,3.5-4.1,5.3-6.2c1.6-1.9,3.1-3.8,4.7-5.6c-1.5,1.9-3.1,3.8-4.7,5.6C399.1,5,397.4,7,395.6,9.1z"/>
		<path d="M289.1,6.4c2.1,1.8,4.3,3.6,6.4,5.4c1.1,0.9,2.1,1.8,3.2,2.7c-1.1-0.9-2.1-1.8-3.2-2.7C293.4,10,291.3,8.2,289.1,6.4z"/>
		<path d="M419.1-19.6c-0.4-7.6-0.9-15.4-1.5-23.3C418.2-35,418.7-27.3,419.1-19.6L419.1-19.6z"/>
		<path d="M344.3-119.6c5.7-0.4,11.3-0.8,16.9-1.2C355.6-120.4,350-120,344.3-119.6z"/>
		<path d="M169.3,108.2c0.4-1.9,0.9-3.9,1.4-6C170.2,104.3,169.7,106.3,169.3,108.2z"/>
		<path d="M207.1,157.9c-1.7,0.4-3.3,0.7-5,1C203.8,158.6,205.4,158.3,207.1,157.9z"/>
		<path d="M189.1,159.5c-2-0.2-3.8-0.6-5.5-1.1C185.3,158.9,187.1,159.2,189.1,159.5z"/>
		<path d="M166.9,129.3c0-1.6,0-3.2,0.1-4.8C166.9,126.1,166.9,127.7,166.9,129.3z"/>
		<path d="M167.9,115.7c0.3-1.8,0.6-3.7,1-5.6C168.5,112.1,168.2,113.9,167.9,115.7z"/>
		<path d="M218,130.5c-0.6,0.4-1.1,0.9-1.7,1.3C216.9,131.4,217.4,131,218,130.5z"/>
		<path d="M244.1,126.7c-1.2-0.4-2.4-0.8-3.6-1C241.7,126,242.9,126.3,244.1,126.7z"/>
		<path d="M283,117c-2.6,2-5.3,3.9-7.9,5.7C277.8,120.9,280.4,119,283,117z"/>
		<path d="M224.5,127c-0.8,0.3-1.6,0.7-2.4,1C222.9,127.6,223.7,127.3,224.5,127z"/>
		<path d="M191.1,159.6c2.7,0.1,5.6,0,8.8-0.4C196.7,159.6,193.8,159.8,191.1,159.6z"/>
		<path d="M239.3,125.5c-1.2-0.2-2.5-0.3-3.7-0.4C236.8,125.2,238,125.3,239.3,125.5z"/>
		<path d="M213.4,134.9c0.7-0.8,1.4-1.6,2.2-2.3C214.8,133.3,214,134.1,213.4,134.9z"/>
		<path d="M326.5,80.9c-2.2,2-4.4,4-6.6,6C322.1,84.9,324.3,82.9,326.5,80.9z"/>
		<path d="M278.4,42L278.4,42c13.1-0.1,26.4-0.4,40-1.1C304.8,41.6,291.4,42,278.4,42z"/>
		<path d="M319.9,86.8c-2.2,1.9-4.4,3.9-6.6,5.7C315.5,90.7,317.7,88.8,319.9,86.8z"/>
		<path d="M310.1,95.4c-2.2,1.8-4.3,3.6-6.5,5.4C305.8,99,307.9,97.2,310.1,95.4z"/>
		<path d="M346.6,61.8L346.6,61.8c-5.6,5.6-11.2,10.9-16.8,16C335.4,72.7,341,67.3,346.6,61.8z"/>
		<path d="M324.4-126.2c-3.5,0.4-7,0.7-10.5,1.1l0,0C317.4-125.5,320.9-125.9,324.4-126.2z"/>
		<path d="M359.4-129L359.4-129c-6,0.4-12.1,0.8-18.2,1.3C347.3-128.2,353.4-128.6,359.4-129z"/>
		<path d="M382.2-121.7c3.8,3,7.5,6.1,11.3,9.2C389.8-115.6,386-118.7,382.2-121.7z"/>
		<path d="M411.7-97c-0.9-6.4-1.9-12.8-2.9-19C409.8-109.8,410.8-103.5,411.7-97L411.7-97z"/>
		<path d="M360.4,37.7c-3.6,0.4-7.2,0.7-10.8,1c-3.1,0.3-6.2,0.5-9.2,0.8c3.1-0.2,6.2-0.5,9.2-0.8C353.2,38.4,356.8,38.1,360.4,37.7
			z"/>
		<path d="M274.4,18.4c-0.8-5.2-1.6-10.4-2.3-15.8l0,0C272.8,7.9,273.6,13.2,274.4,18.4z"/>
		<path d="M294.7,22c3,2.5,6,5,9.1,7.4C300.8,27,297.7,24.5,294.7,22z"/>
		<path d="M294.7,22c-1.5-1.2-3-2.5-4.5-3.8c-3.1-2.6-6.1-5.2-9.1-7.8c3,2.6,6.1,5.2,9.1,7.8C291.7,19.5,293.2,20.7,294.7,22z"/>
		<path d="M218.3-100.2c4-1,8.1-1.9,12.2-2.8C226.3-102.1,222.3-101.1,218.3-100.2z"/>
		<path d="M191.4-93c2.4-0.7,4.9-1.4,7.4-2.1C196.4-94.4,193.9-93.7,191.4-93z"/>
		<path d="M215.2-65.1c-2.9-3.2-5.6-6.3-8.4-9.4C209.5-71.5,212.3-68.3,215.2-65.1z"/>
		<path d="M257-70.7L257-70.7c-0.9,1.2-1.8,2.3-2.7,3.5C255.2-68.4,256.1-69.5,257-70.7z"/>
		<path d="M198.9-83.9c-1.7-2.1-3.4-4.1-5-6.1C195.5-88,197.2-85.9,198.9-83.9z"/>
		<path d="M256.1-99c0-3.1-0.1-6.2-0.1-9.2c-8.8,1.6-17.3,3.4-25.6,5.2c8.3-1.8,16.8-3.6,25.6-5.2C256-105.1,256.1-102,256.1-99z"/>
		<path d="M233.2,32.6c-2.8-0.2-5.6-0.3-8.4-0.5C227.5,32.2,230.3,32.4,233.2,32.6z"/>
		<path d="M250.5,33.3c-2.9-0.1-5.9-0.2-8.7-0.3C244.6,33.1,247.5,33.3,250.5,33.3z"/>
		<path d="M241.7,33c-2.9-0.1-5.7-0.3-8.6-0.4C236,32.7,238.8,32.9,241.7,33z"/>
		<path d="M263.9,33.7c-4.5-0.1-9-0.2-13.4-0.3C254.9,33.5,259.3,33.6,263.9,33.7z"/>
		<path d="M208.5,30.7c-2.6-0.3-5.3-0.5-7.8-0.8C203.3,30.1,205.9,30.4,208.5,30.7z"/>
		<path d="M262.6-5.9c0.4,3.4,0.8,6.7,1.3,10.1C263.4,0.8,263-2.5,262.6-5.9c-2.2-2-4.3-4-6.5-6C258.3-9.9,260.4-7.9,262.6-5.9z"/>
		<path d="M243.6-23.8c-2.1-2-4.1-4-6.1-6c-0.9,1.3-1.8,2.6-2.7,3.9c0.9-1.3,1.8-2.6,2.7-3.9C239.5-27.8,241.5-25.8,243.6-23.8z"/>
		<path d="M264.4-102.6c0-2.4,0-4.7-0.1-7.1l0,0C264.3-107.3,264.3-105,264.4-102.6z"/>
		<path d="M272.2-89.8c2.5-3,4.9-6,7.5-9c2.2-2.6,4.3-5.1,6.5-7.7c-2.2,2.5-4.4,5.1-6.5,7.7C277.2-95.8,274.7-92.8,272.2-89.8z"/>
		<path d="M292.7-114.1c-4.9,0.7-9.7,1.4-14.4,2.1C283.1-112.7,287.9-113.4,292.7-114.1L292.7-114.1z"/>
		<path d="M98.3,0.4c-0.9-0.6-1.7-1.2-2.5-1.8C96.6-0.8,97.4-0.2,98.3,0.4z"/>
		<path d="M231.5-35.8L231.5-35.8c-2.9,4.2-5.7,8.3-8.4,12.4C225.8-27.5,228.6-31.6,231.5-35.8z"/>
		<path d="M95.8-1.4c-1.2-0.9-2.3-1.9-3.3-2.8C93.5-3.3,94.6-2.3,95.8-1.4z"/>
		<path d="M108.5,6.6c-1.6-0.8-3.2-1.7-4.7-2.6C105.3,4.9,106.9,5.7,108.5,6.6z"/>
		<path d="M82.6-23.7c0,0.7,0,1.5,0.1,2.2c0.2,2.2,0.7,4.3,1.6,6.4c-0.9-2.1-1.4-4.2-1.6-6.4C82.7-22.3,82.6-23,82.6-23.7z"/>
		<path d="M84.3-15.2c1.6,3.8,4.3,7.5,8.1,11C88.7-7.7,85.9-11.4,84.3-15.2z"/>
		<path d="M251.5-27.7c-3.1-3-6.2-6-9.3-9C245.3-33.7,248.4-30.7,251.5-27.7z"/>
		<path d="M580.5-34.2c-1,0.7-2,1.5-3,2.2C578.5-32.7,579.5-33.4,580.5-34.2z"/>
		<path d="M586-38.5c-1.7,1.5-3.5,2.9-5.5,4.4C582.5-35.6,584.3-37.1,586-38.5z"/>
		<path d="M598.4-52.9c-0.4,0.7-0.9,1.5-1.3,2.2C597.5-51.4,598-52.1,598.4-52.9z"/>
		<path d="M589.6-41.8c-1.1,1.1-2.3,2.2-3.6,3.3C587.3-39.6,588.5-40.7,589.6-41.8z"/>
		<path d="M601.4-60.5c-0.2,1.1-0.6,2.2-1,3.3C600.9-58.3,601.2-59.4,601.4-60.5z"/>
		<path d="M599.5-55.1c-0.3,0.7-0.7,1.5-1.1,2.2C598.8-53.6,599.2-54.3,599.5-55.1z"/>
		<path d="M474-82.9c1.6-2.6,3.2-5.2,4.8-7.7C477.2-88.1,475.6-85.5,474-82.9z"/>
		<path d="M553.4-18.1c-1.4,0.7-2.9,1.4-4.3,2.1C550.5-16.7,552-17.4,553.4-18.1z"/>
		<path d="M589.6-41.8c1.1-1.1,2.2-2.2,3.2-3.3C591.8-44,590.7-42.9,589.6-41.8z"/>
		<path d="M461.3-63.4C465.7-70,470-76.5,474-83C470-76.5,465.7-69.9,461.3-63.4z"/>
		<path d="M574.3-29.8c-1.1,0.7-2.2,1.4-3.4,2.2C572-28.4,573.2-29.1,574.3-29.8z"/>
		<path d="M570.9-27.6c-1.2,0.7-2.4,1.4-3.6,2.2C568.5-26.2,569.7-26.9,570.9-27.6z"/>
		<path d="M559.6-21.2c-1.3,0.7-2.7,1.4-4.1,2.1C556.9-19.8,558.3-20.5,559.6-21.2z"/>
		<path class="st2" d="M232.8,168.3c0,2-0.3,4-0.8,5.9l0,0C232.5,172.3,232.8,170.3,232.8,168.3z"/>
		<polygon class="st2" points="221.7,135.9 243.7,172.4 243.7,172.4 		"/>
		<path class="st2" d="M214.7,145.1L214.7,145.1c0.3-0.9,0.8-1.8,1.2-2.6C215.5,143.4,215.1,144.2,214.7,145.1z"/>
		<path class="st2" d="M237,138.7c0-0.4,0-0.8,0-1.1C237,137.9,237,138.3,237,138.7z"/>
		<path class="st2" d="M238.9,146.6c0.3,0.7,0.7,1.5,1.1,2.2C239.6,148.1,239.2,147.3,238.9,146.6z"/>
		<path class="st2" d="M237.6,131.9c-0.5-0.1-1-0.1-1.5-0.2C236.6,131.7,237.1,131.8,237.6,131.9L237.6,131.9z"/>
		<path class="st2" d="M254.9,160.2L254.9,160.2c-0.2,0.5-0.4,1-0.6,1.4C254.6,161.1,254.8,160.7,254.9,160.2z"/>
		<path class="st2" d="M237.7,143.3c0.3,1.1,0.7,2.3,1.2,3.4C238.4,145.5,238,144.4,237.7,143.3z"/>
		<path class="st2" d="M237,138.7c0,0.8,0.1,1.5,0.2,2.3C237.1,140.2,237.1,139.5,237,138.7z"/>
		<path class="st2" d="M242.7,144c-0.2-0.6-0.4-1.2-0.6-1.8C242.2,142.8,242.4,143.4,242.7,144z"/>
		<path class="st2" d="M249.4,137.5c1.3,1.2,2.5,2.6,3.5,4.2C251.8,140.2,250.7,138.7,249.4,137.5z"/>
		<path class="st2" d="M243.9,146.6c-0.3-0.6-0.6-1.2-0.9-1.7C243.3,145.4,243.6,146,243.9,146.6z"/>
		<path class="st2" d="M216.2,150.2c1.7,0.7,3.3,1.6,4.8,2.7C219.5,151.8,217.9,150.9,216.2,150.2z"/>
		<path class="st2" d="M224.4,171.7c1,0.6,2.1,1,3.2,1.4c0.4-1.6,0.7-3.2,0.7-4.8c0,1.6-0.3,3.2-0.7,4.8
			C226.5,172.7,225.4,172.3,224.4,171.7z"/>
		<polygon class="st2" points="522,73 524.3,74.3 531,70.3 524.3,74.3 		"/>
		<path class="st2" d="M524.6,57.5l-4.8,1.7c-0.3,0.8-0.6,1.6-0.8,2.5c0.2-0.8,0.5-1.7,0.8-2.5L524.6,57.5z"/>
		<path class="st2" d="M518.6,70.6c0,0.3,0.1,0.5,0.1,0.8l3.2,1.6l-3.2-1.6C518.7,71.1,518.7,70.8,518.6,70.6z"/>
		<polygon class="st2" points="527,56.7 532.9,62 527,56.7 524.6,57.5 		"/>
		<path class="st2" d="M556.1,85.8c-0.8,0.6-1.6,1.2-2.5,1.7C554.5,87,555.3,86.4,556.1,85.8z"/>
		<polygon class="st2" points="544.7,79.6 545.2,83.7 545.5,87 545.2,83.7 		"/>
		<path class="st2" d="M548.6,89l0.8,0.5c0.5-0.2,1-0.4,1.5-0.6c-0.5,0.2-1,0.4-1.5,0.6L548.6,89z"/>
		<polygon class="st2" points="558,75.6 550.4,73.1 544.5,78.2 544.5,78.2 550.4,73.1 		"/>
		<path class="st2" d="M558.4,83.8c-0.7,0.7-1.5,1.4-2.3,2C556.9,85.2,557.7,84.5,558.4,83.8z"/>
		<path class="st2" d="M535.8,89.9c-1.1-0.3-2.1-0.6-3.1-1.1C533.7,89.3,534.7,89.6,535.8,89.9z"/>
		<polygon class="st2" points="540.5,83 540.9,87.2 540.9,87.2 		"/>
		<path class="st2" d="M531.2,88.2c-0.7-0.3-1.3-0.7-1.9-1.1C529.9,87.5,530.6,87.8,531.2,88.2z"/>
		<polygon class="st2" points="553.7,53.9 556.9,53.8 560.7,53.9 556.9,53.8 553.7,53.9 548.8,61.2 		"/>
		<polygon class="st2" points="560.6,70.2 562.2,69.3 565.1,67.7 562.2,69.3 		"/>
		<path class="st2" d="M564.9,65c0.1,0.9,0.1,1.8,0.1,2.7C565.1,66.8,565,65.9,564.9,65z"/>
		<polygon class="st2" points="530,49.9 530,47.2 530,47.2 		"/>
		<path d="M286.7,81c-1-4.1-2-8.3-2.9-12.6C284.7,72.7,285.7,76.8,286.7,81z"/>
		<path d="M278.4,42c1.7,9.1,3.5,17.8,5.4,26.4C281.8,59.9,280,51.1,278.4,42L278.4,42z"/>
		<path d="M346.6,61.8c-4.7-3.3-9.4-6.7-14.1-10.2C337.2,55.1,341.9,58.5,346.6,61.8L346.6,61.8z"/>
		<path d="M291.9,100.9c-0.7-2.6-1.4-5.2-2.1-7.8C290.4,95.7,291.2,98.3,291.9,100.9z"/>
		<path d="M313.5,161.3c-0.7-1.5-1.4-3-2.1-4.6C312.1,158.3,312.8,159.8,313.5,161.3z"/>
		<path d="M329.6,190.3c4.4,6.4,8.9,11.6,13.3,15.7C338.5,202,334,196.7,329.6,190.3z"/>
		<path d="M355.2,213.9c-0.7-0.3-1.5-0.6-2.2-0.9C353.7,213.3,354.4,213.6,355.2,213.9z"/>
		<path d="M357.4,214.6c-0.7-0.2-1.5-0.4-2.2-0.7C355.9,214.1,356.7,214.4,357.4,214.6z"/>
		<path d="M346.3,208.8c-1.1-0.8-2.2-1.8-3.3-2.8C344.1,207,345.2,207.9,346.3,208.8z"/>
		<path d="M351.9,212.4c-1.8-1-3.7-2.2-5.6-3.6C348.2,210.2,350,211.4,351.9,212.4z"/>
		<path d="M329.6,190.3c-1.1-1.6-2.2-3.3-3.3-5C327.4,187.1,328.5,188.8,329.6,190.3z"/>
		<path d="M309.4,151.9c-1-2.4-2-4.9-3-7.5C307.3,147,308.3,149.5,309.4,151.9z"/>
		<path d="M302.4,133.9c-0.6-1.8-1.3-3.6-1.9-5.5C301.1,130.3,301.7,132.1,302.4,133.9z"/>
		<path d="M325.2,183.6c-3.3-5.3-6.5-11.3-9.7-17.8C318.7,172.3,322,178.2,325.2,183.6z"/>
		<path d="M304.3,139.3c-0.7-1.8-1.3-3.5-2-5.3C303,135.7,303.7,137.5,304.3,139.3z"/>
		<path d="M420.2,14.3c0,2.3,0,4.6,0.1,6.9l0,0C420.3,18.9,420.2,16.6,420.2,14.3z"/>
		<path d="M392.4,25.5c3.7-4.2,7.5-8.5,11.2-12.9C399.9,17,396.1,21.3,392.4,25.5z"/>
		<path d="M243.6,133.6c1.1,0.5,2.1,1,3,1.7C245.7,134.7,244.6,134.1,243.6,133.6z"/>
		<path d="M254.2,155.3c-0.6-0.2-1.1-0.4-1.7-0.7C253.1,154.9,253.7,155.1,254.2,155.3z"/>
		<path d="M251,153.8c-0.8-0.5-1.5-1-2.2-1.5C249.5,152.8,250.2,153.4,251,153.8z"/>
		<path d="M252.6,154.6c-0.5-0.2-1.1-0.5-1.6-0.8C251.5,154.1,252,154.4,252.6,154.6z"/>
		<path d="M241.7,140.3c-0.1-0.9-0.2-1.9-0.2-2.8C241.5,138.5,241.5,139.4,241.7,140.3z"/>
		<path class="st2" d="M249.4,137.5c-0.9-0.8-1.8-1.6-2.8-2.2s-2-1.2-3-1.7c-0.5-0.2-1.1-0.5-1.6-0.7c-0.4,1.5-0.5,3-0.5,4.6
			c0,0.9,0.1,1.9,0.2,2.8c0.1,0.6,0.2,1.2,0.4,1.8c0.2,0.6,0.4,1.2,0.6,1.8c0.1,0.3,0.2,0.6,0.4,0.9c0.3,0.6,0.5,1.2,0.9,1.7
			c0.2,0.3,0.3,0.6,0.5,0.9c1.2,1.9,2.7,3.5,4.3,4.8c0.7,0.6,1.5,1.1,2.2,1.5c0.5,0.3,1.1,0.6,1.6,0.8c0.5,0.2,1.1,0.5,1.7,0.7
			c0.6,0.2,1.1,0.4,1.7,0.5c0.6-4.7-0.4-9.7-3.1-14.1C251.8,140.2,250.7,138.7,249.4,137.5z"/>
		<path d="M420,42.9c-0.1,2.9-0.2,5.8-0.3,8.6C419.9,48.6,420,45.8,420,42.9z"/>
		<path d="M402.2,32.5c-6.1,0.9-12.2,1.8-18.4,2.5c-6,6.6-12.1,13.1-18.2,19.4c6.1-6.3,12.2-12.7,18.2-19.4
			C390,34.3,396.2,33.4,402.2,32.5z"/>
		<path d="M418.9,68.2c-0.2,2.7-0.4,5.4-0.6,8.1C418.5,73.7,418.7,71,418.9,68.2z"/>
		<path d="M413.1,94c1.1,0.6,2.3,1.3,3.4,1.9c0.4-3.8,0.8-7.7,1.2-11.6c-0.4,3.9-0.7,7.8-1.2,11.6C415.4,95.3,414.3,94.7,413.1,94z"
			/>
		<path d="M182.1,68.6c2-4.9,4.2-9.9,6.6-15C186.3,58.7,184.1,63.7,182.1,68.6z"/>
		<path d="M179.2,75.8c0.6-1.6,1.2-3.2,1.9-4.8C180.5,72.6,179.8,74.2,179.2,75.8z"/>
		<path d="M177.5,80.4c0.6-1.5,1.1-3.1,1.8-4.7C178.6,77.3,178,78.9,177.5,80.4z"/>
		<path d="M270.8,46.9c-0.3-1.6-0.6-3.2-0.9-4.8c-6.5,0-13-0.2-19.3-0.4c6.3,0.2,12.8,0.3,19.3,0.4
			C270.2,43.7,270.5,45.3,270.8,46.9z"/>
		<path d="M166.9,129.3c0.1,11.4,3.1,20,9.1,25c1.3,1.1,2.7,2,4.3,2.8c-1.6-0.8-3-1.7-4.3-2.8C170,149.2,167,140.7,166.9,129.3z"/>
		<path d="M287,114c-0.8-2.7-1.6-5.5-2.4-8.3C285.4,108.5,286.2,111.3,287,114z"/>
		<path d="M205.1,38.7c-2.9-0.3-5.7-0.6-8.5-0.9c-2.8,5.4-5.4,10.7-7.8,15.8c2.4-5.1,5-10.4,7.8-15.8
			C199.3,38.1,202.2,38.4,205.1,38.7z"/>
		<path d="M270.8,46.9c0.6,3.2,1.2,6.4,1.9,9.5C272,53.3,271.4,50.1,270.8,46.9z"/>
		<path d="M276.7,75c2.1,9.1,4.3,17.9,6.7,26.5C281,92.9,278.8,84.1,276.7,75z"/>
		<path d="M241.1,41.3c3.1,0.1,6.3,0.3,9.4,0.4C247.4,41.6,244.3,41.5,241.1,41.3z"/>
		<path d="M231.9,40.8c3.1,0.2,6.2,0.3,9.3,0.5C238,41.2,234.9,41,231.9,40.8z"/>
		<path d="M273.6,61.1c0.7,3.1,1.3,6.2,2,9.3C275,67.3,274.3,64.2,273.6,61.1z"/>
		<path d="M205.1,38.7c8.6,0.9,17.6,1.6,26.8,2.1C222.7,40.3,213.7,39.6,205.1,38.7z"/>
		<path d="M207.7,145.7c-0.2,0.7-0.3,1.3-0.5,2C207.3,147,207.5,146.3,207.7,145.7z"/>
		<path d="M456.3-120.8c4.3,0.3,8.5,0.6,12.6,1C464.8-120.2,460.6-120.5,456.3-120.8z"/>
		<path d="M471.1-94c-1.4,2.4-2.9,4.7-4.4,7.1C468.2-89.3,469.6-91.7,471.1-94z"/>
		<path d="M485-118.2c-5.2-0.6-10.6-1.1-16.1-1.6C474.4-119.3,479.8-118.8,485-118.2L485-118.2z"/>
		<path d="M434.5-121.8c3,0.1,6,0.2,8.9,0.3C440.4-121.6,437.4-121.7,434.5-121.8z"/>
		<path d="M257-70.7c-0.3-6.4-0.6-12.7-0.7-18.9C256.5-83.4,256.7-77.1,257-70.7L257-70.7z"/>
		<path d="M227-52.4c3,3.2,6.2,6.4,9.3,9.7c5.8-8.1,11.8-16.3,18-24.5c-6.2,8.2-12.3,16.3-18,24.5C233.1-46,230-49.2,227-52.4z"/>
		<path d="M226.4,159.7c0.5,0.9,0.8,1.9,1.1,2.8C227.2,161.6,226.9,160.6,226.4,159.7z"/>
		<path d="M227.8,163.5c0.2,0.6,0.3,1.3,0.4,1.9C228.1,164.8,228,164.1,227.8,163.5z"/>
		<path d="M228.2,165.4c0.1,0.7,0.1,1.3,0.2,2C228.3,166.7,228.3,166.1,228.2,165.4z"/>
		<path d="M228.3,167.4c0,0.3,0,0.7,0,1C228.3,168,228.3,167.7,228.3,167.4z"/>
		<path class="st2" d="M228.2,165.4c-0.1-0.7-0.2-1.3-0.4-1.9c-0.1-0.3-0.2-0.6-0.3-1c-0.3-1-0.7-1.9-1.1-2.8
			c-0.3-0.6-0.6-1.2-1-1.8c-1.2-1.9-2.7-3.6-4.5-4.9c-1.5-1.1-3.1-2-4.8-2.7c-0.9-0.3-1.7-0.6-2.6-0.8c-0.8,5,0.1,10.2,3,14.9
			c2,3.2,4.7,5.7,7.9,7.4c1,0.6,2.1,1,3.2,1.4c0.4-1.6,0.7-3.2,0.7-4.8c0-0.3,0-0.7,0-1C228.3,166.7,228.3,166.1,228.2,165.4z"/>
		<path d="M227,133c1-0.4,2-0.7,3-0.9C229,132.4,228,132.7,227,133z"/>
		<path d="M252.8,159.5c0.7,0.2,1.4,0.5,2.1,0.6l0,0C254.2,160,253.5,159.8,252.8,159.5z"/>
		<path d="M237.6,131.9L237.6,131.9c-0.4,1.5-0.6,3-0.6,4.5C237.1,134.9,237.3,133.4,237.6,131.9z"/>
		<path d="M247.8,157.1c0.6,0.4,1.3,0.8,1.9,1.1C249.1,157.9,248.4,157.5,247.8,157.1z"/>
		<path d="M252,165.7c-0.6,0.8-1.3,1.7-2.1,2.4C250.7,167.3,251.4,166.5,252,165.7z"/>
		<path d="M237,137.5c0-0.4,0-0.8,0-1.1C237,136.8,237,137.2,237,137.5z"/>
		<path d="M249.7,158.2c1,0.5,2,0.9,3.1,1.3C251.8,159.2,250.7,158.7,249.7,158.2z"/>
		<path class="st2" d="M249.7,158.2c-0.7-0.3-1.3-0.7-1.9-1.1c-2.8-1.8-5.3-4.3-7.2-7.3c-0.2-0.3-0.4-0.7-0.6-1.1
			c-0.4-0.7-0.8-1.4-1.1-2.2c-0.5-1.1-0.9-2.2-1.2-3.4c-0.2-0.8-0.4-1.5-0.5-2.3s-0.2-1.5-0.2-2.3c0-0.4,0-0.8,0-1.1
			c0-0.4,0-0.8,0-1.1c0.1-1.5,0.3-3,0.6-4.5c-0.5-0.1-1-0.1-1.5-0.2c-2-0.1-4.1,0-6.1,0.4c-1,0.2-2,0.5-3,0.9
			c-0.5,0.2-1,0.4-1.5,0.6l22,36.5c0.9-0.6,1.7-1.4,2.5-2.1c0.8-0.8,1.4-1.6,2.1-2.4c0.9-1.3,1.7-2.6,2.3-4.1c0.2-0.5,0.4-1,0.6-1.4
			c-0.7-0.2-1.4-0.4-2.1-0.6C251.8,159.2,250.7,158.7,249.7,158.2z"/>
		<path d="M223.8,149.5c-1.8-1.4-3.8-2.5-5.8-3.3C220,147,222,148.1,223.8,149.5z"/>
		<path d="M214.7,145.1c1.1,0.3,2.1,0.6,3.2,1C216.9,145.7,215.8,145.4,214.7,145.1L214.7,145.1z"/>
		<path d="M220.6,136.9c-0.8,0.7-1.4,1.4-2.1,2.1C219.1,138.2,219.8,137.5,220.6,136.9z"/>
		<path d="M243.7,172.4L243.7,172.4c-0.9,0.4-1.9,0.8-2.9,1.1C241.8,173.2,242.7,172.9,243.7,172.4z"/>
		<path d="M232,174.2c1,0.1,2,0.2,2.9,0.2C233.9,174.4,232.9,174.3,232,174.2L232,174.2z"/>
		<path d="M232.8,167.1c0,0.4,0,0.8,0,1.2C232.8,167.9,232.8,167.5,232.8,167.1z"/>
		<path class="st2" d="M220.6,136.9c-0.8,0.7-1.4,1.4-2.1,2.1c-1,1.1-1.8,2.3-2.5,3.6c-0.5,0.8-0.9,1.7-1.2,2.6
			c1.1,0.3,2.1,0.6,3.2,1c2.1,0.8,4,1.9,5.8,3.3c2.1,1.6,3.9,3.6,5.4,6c2.3,3.6,3.5,7.6,3.6,11.6c0,0.4,0,0.8,0,1.2
			c0,2-0.3,4-0.8,5.9c1,0.1,2,0.2,2.9,0.2c2,0,4-0.3,5.9-0.9c1-0.3,1.9-0.6,2.9-1.1l-22-36.5C221.3,136.3,220.9,136.6,220.6,136.9z"
			/>
		<path d="M204.6,22.7c2-3.6,4.1-7.2,6.2-10.9C208.7,15.5,206.6,19.1,204.6,22.7z"/>
		<path d="M210.8,11.9c1.4-2.4,2.9-4.9,4.4-7.4C213.7,6.9,212.3,9.4,210.8,11.9z"/>
		<path d="M215.2,4.5c3-4.9,6.1-10,9.4-15C221.4-5.5,218.2-0.5,215.2,4.5z"/>
		<path d="M422.8-75.8c0.2,2,0.5,4,0.7,6C423.3-71.8,423-73.8,422.8-75.8L422.8-75.8z"/>
		<path d="M445.1-54.5L445.1-54.5c-2.9,4.1-5.8,8.2-8.9,12.4C439.3-46.3,442.2-50.4,445.1-54.5z"/>
		<path d="M475.8-22.1c1.9,2.2,3.8,4.3,5.7,6.5C479.6-17.8,477.7-20,475.8-22.1z"/>
		<path d="M445.4-40.6c-1.9,2.6-3.8,5.3-5.8,7.9C441.6-35.4,443.5-38,445.4-40.6z"/>
		<path d="M469.9-28.7c2,2.2,4,4.4,5.9,6.5C473.9-24.3,471.9-26.5,469.9-28.7z"/>
		<path d="M481.4-15.7c3.7,4.3,7.3,8.5,10.7,12.7C488.7-7.1,485.2-11.4,481.4-15.7z"/>
		<path d="M331.1,40.1c3.6,2.7,7.2,5.4,10.8,8C338.3,45.5,334.7,42.9,331.1,40.1z"/>
		<path d="M361.8,46.4c-3.1,3.2-6.2,6.4-9.2,9.4C355.7,52.7,358.8,49.6,361.8,46.4z"/>
		<path d="M274.4,18.4c0.8,5.2,1.6,10.3,2.5,15.3c7.7,0,15.5-0.2,23.4-0.4c-8,0.3-15.8,0.4-23.4,0.4C276,28.7,275.2,23.6,274.4,18.4
			z"/>
		<path d="M272.1,2.6L272.1,2.6c3,2.6,5.9,5.2,9,7.8C278,7.9,275.1,5.2,272.1,2.6z"/>
		<path d="M526.3,81.2l0.1-2.8L526.3,81.2l-0.4,3.3c1,1,2.2,1.8,3.4,2.6c-1.2-0.8-2.4-1.6-3.4-2.6L526.3,81.2z"/>
		<polygon points="537.4,90.3 538.5,89.3 540.9,87.2 540.9,87.2 538.5,89.3 		"/>
		<polygon points="540.5,83 540.1,78.7 533.1,74.5 540.1,78.7 		"/>
		<path class="st2" d="M540.1,78.7l-7-4.2l-6.6,3.9l-0.1,2.8l-0.4,3.3c1,1,2.2,1.8,3.4,2.6c0.6,0.4,1.2,0.8,1.9,1.1
			c0.5,0.2,1,0.5,1.5,0.7c1,0.4,2,0.8,3.1,1.1c0.5,0.1,1.1,0.3,1.6,0.4l1.2-1l2.3-2.1l-0.4-4.3L540.1,78.7z"/>
		<path d="M544.5,78.2l0.2,1.4L544.5,78.2z"/>
		<polygon points="545.5,87 547.8,88.5 548.6,89 547.8,88.5 		"/>
		<path class="st2" d="M558,75.6l-7.6-2.6l-5.9,5.1l0.2,1.4l0.4,4.1l0.3,3.3l2.4,1.5l0.8,0.5l0.8,0.5c0.5-0.2,1-0.4,1.5-0.6
			c1-0.4,1.9-0.9,2.7-1.4c0.9-0.5,1.7-1.1,2.5-1.7s1.5-1.3,2.3-2c0.4-0.4,0.7-0.7,1-1.1l-1-4.8L558,75.6z"/>
		<path d="M463.2,118c-1.6-0.6-3.2-1.3-4.9-2C460,116.8,461.6,117.4,463.2,118z"/>
		<path d="M468,119.9c-1.6-0.6-3.2-1.2-4.8-1.8C464.9,118.7,466.4,119.3,468,119.9z"/>
		<path d="M512.8,60.3c-0.5,2-0.8,4-0.8,6.1C512.1,64.3,512.4,62.3,512.8,60.3z"/>
		<path d="M547.9,112.6c-0.5,2.1-1.2,4-2.1,5.7C546.7,116.6,547.4,114.7,547.9,112.6z"/>
		<path d="M481.7,124.5c-3.7-1.1-7.4-2.4-11.3-3.8C474.3,122.1,478,123.4,481.7,124.5z"/>
		<path d="M513,130.8c-4.5-0.3-9.4-1-14.6-2C503.6,129.9,508.4,130.5,513,130.8z"/>
		<path d="M498.3,128.8c-2-0.4-4-0.8-6-1.3C494.4,128,496.4,128.4,498.3,128.8z"/>
		<path d="M458.4,116.1c-2.5-1-5-2.1-7.5-3.2C453.4,114,455.9,115.1,458.4,116.1z"/>
		<path d="M492.3,127.5c-3.4-0.8-7-1.8-10.6-2.9C485.4,125.7,488.9,126.6,492.3,127.5z"/>
		<path d="M514.6,130.9c13.3,0.6,23.1-2.3,28.7-9c0.9-1.1,1.7-2.3,2.4-3.6c-0.7,1.3-1.5,2.5-2.4,3.6
			C537.8,128.6,527.9,131.5,514.6,130.9z"/>
		<path d="M525.1,42.8L525.1,42.8c-4.4-7.2-9.4-14.6-15-22.3C515.7,28.2,520.7,35.7,525.1,42.8z"/>
		<path d="M502.7,10.4c1.7,2.2,3.3,4.4,5,6.6C506,14.8,504.4,12.6,502.7,10.4z"/>
		<path d="M428.1,51.7c0.2-4.6,0.3-9.3,0.4-14C428.4,42.4,428.2,47.1,428.1,51.7z"/>
		<path d="M450.9,112.9c-1.7-0.7-3.4-1.5-5.1-2.3C447.5,111.4,449.2,112.2,450.9,112.9z"/>
		<path d="M424.4,100.1c7.3,3.8,14.4,7.3,21.3,10.5C438.9,107.5,431.8,104,424.4,100.1L424.4,100.1z"/>
		<path d="M427.4,65.4c0.3-4.5,0.5-9.1,0.7-13.7C427.9,56.4,427.7,60.9,427.4,65.4z"/>
		<path d="M514.9,54.7c-0.6,1.2-1.1,2.4-1.5,3.7C513.8,57.1,514.3,55.9,514.9,54.7z"/>
		<polygon points="552,68.8 548.8,61.2 552,68.8 559,71.1 560.6,70.2 559,71.1 		"/>
		<path d="M563.5,59.1c0.4,0.9,0.7,1.9,0.9,2.9C564.2,60.9,563.9,60,563.5,59.1z"/>
		<path class="st2" d="M553.7,53.9l-4.9,7.3l3.2,7.5l7,2.4l1.6-0.9l1.6-0.9l2.8-1.7c0-0.9,0-1.8-0.1-2.7c-0.1-1-0.3-2-0.5-3
			s-0.5-1.9-0.9-2.9c-0.7-1.9-1.7-3.6-2.8-5.2h-3.9L553.7,53.9z"/>
		<path d="M518.4,68.4c0,0.5,0.1,0.9,0.1,1.4c0,0.3,0.1,0.5,0.1,0.8c0-0.3-0.1-0.5-0.1-0.8C518.5,69.3,518.4,68.8,518.4,68.4z"/>
		<path class="st2" d="M524.6,57.5l-4.8,1.7c-0.3,0.8-0.6,1.6-0.8,2.5c-0.5,2.1-0.7,4.4-0.6,6.6c0,0.5,0.1,0.9,0.1,1.4
			c0,0.3,0.1,0.5,0.1,0.8s0.1,0.5,0.1,0.8l3.2,1.6l2.3,1.3l6.7-4l1.9-8.3l-5.9-5.3L524.6,57.5z"/>
		<path d="M530,47.2L530,47.2c0.7-0.4,1.4-0.8,2.1-1.1C531.4,46.4,530.7,46.8,530,47.2z"/>
		<path d="M550.1,51l-2.1-6.1c-0.3-0.1-0.7-0.2-1-0.3c0.3,0.1,0.7,0.2,1,0.3L550.1,51z"/>
		<polygon points="530,49.9 530.1,53.3 536.5,59 530.1,53.3 		"/>
		<path d="M544.8,44.2c0.7,0.1,1.4,0.2,2.1,0.4C546.2,44.5,545.5,44.3,544.8,44.2z"/>
		<path class="st2" d="M530.1,53.3l6.4,5.7l8.8-0.8l2.4-3.7l2.4-3.6l-2.1-6.1c-0.3-0.1-0.7-0.2-1-0.3c-0.7-0.2-1.4-0.3-2.1-0.4
			c-1.8-0.2-3.6-0.3-5.5-0.1c-2.5,0.3-4.9,0.9-7.1,1.9c-0.7,0.3-1.4,0.7-2.1,1.1v2.7L530.1,53.3z"/>
		<path d="M411.7-97L411.7-97c-2.4-2.1-4.7-4.1-7.1-6.2C406.9-101.2,409.3-99.1,411.7-97z"/>
		<path d="M408.8-116c-0.3-2.1-0.7-4.1-1-6.2c-4.2,0-8.4,0.1-12.6,0.1c4.2-0.1,8.5-0.1,12.6-0.1C408.1-120.2,408.4-118.1,408.8-116z
			"/>
		<path d="M393.5-112.5c1.3,1,2.5,2.1,3.8,3.1c2.4,2,4.9,4.1,7.3,6.2c-2.4-2.1-4.8-4.1-7.3-6.2C396-110.4,394.8-111.5,393.5-112.5z"
			/>
		<path d="M257.7-57.9c0.2,3.5,0.5,6.9,0.7,10.4C258.2-51,258-54.5,257.7-57.9c-1.3,1.8-2.7,3.6-4,5.3
			C255.1-54.4,256.4-56.1,257.7-57.9z"/>
		<path d="M242.3-36.7c2.5-3.5,5-7,7.6-10.5C247.3-43.8,244.8-40.2,242.3-36.7z"/>
		<path d="M96.8-48.3c-1.2,1.1-2.4,2.3-3.5,3.4C94.4-46.1,95.5-47.2,96.8-48.3z"/>
		<path d="M142.5-75.6c1.6-0.7,3.2-1.4,4.9-2.1C145.7-77,144.1-76.3,142.5-75.6z"/>
		<path d="M133.3-71.4c2.2-1.1,4.5-2.1,6.9-3.2C137.8-73.5,135.5-72.5,133.3-71.4z"/>
		<path d="M120.8-65c2-1.1,4-2.2,6.1-3.2C124.7-67.2,122.7-66.1,120.8-65z"/>
		<path d="M162.9-83.7c1.8-0.7,3.6-1.3,5.5-2C166.6-85.1,164.7-84.4,162.9-83.7z"/>
		<path d="M152.4-79.7c2.6-1,5.2-2,7.8-3C157.6-81.8,154.9-80.8,152.4-79.7z"/>
		<path d="M99.3-50.6c1.3-1.1,2.7-2.2,4.2-3.4C102.1-52.8,100.7-51.7,99.3-50.6z"/>
		<path d="M87.1-37.1c0.5-0.7,1-1.5,1.5-2.2C88-38.6,87.5-37.8,87.1-37.1z"/>
		<path d="M113.3-60.6c1.8-1.1,3.6-2.2,5.5-3.3C116.9-62.8,115.1-61.7,113.3-60.6z"/>
		<path d="M89.4-40.4c0.9-1.1,1.8-2.3,2.8-3.4C91.2-42.7,90.3-41.6,89.4-40.4z"/>
		<path d="M96.8-48.3c0.8-0.7,1.7-1.5,2.6-2.2C98.4-49.8,97.6-49.1,96.8-48.3z"/>
		<path d="M109.9-58.4c1.1-0.7,2.3-1.5,3.4-2.2C112.1-59.9,111-59.1,109.9-58.4z"/>
		<path d="M126.8-68.2c2.1-1.1,4.2-2.1,6.5-3.2C131.1-70.4,128.9-69.3,126.8-68.2z"/>
		<path d="M199.6-70.2c2,2.3,4,4.5,6,6.8C203.5-65.7,201.5-68,199.6-70.2z"/>
		<path d="M214.9-53.1c2.1,2.3,4.3,4.6,6.5,6.9C219.2-48.5,217.1-50.8,214.9-53.1z"/>
		<path d="M82.6-23.7c0.1-4.4,1.6-8.8,4.4-13.3C84.2-32.6,82.7-28.1,82.6-23.7z"/>
		<path d="M188.2-83.8c1.8,2.2,3.7,4.5,5.6,6.7C191.9-79.3,190-81.5,188.2-83.8z"/>
		<path d="M231.5-35.8c-3.4-3.5-6.8-6.9-10.1-10.4C224.7-42.7,228-39.3,231.5-35.8L231.5-35.8z"/>
		<path d="M215.1-11.1c-1.7,2.7-3.4,5.4-5.1,8.1C211.6-5.6,213.3-8.3,215.1-11.1z"/>
		<path d="M359.4-129c-4.1-3.1-8.2-6.2-12.3-9.2C351.2-135.2,355.3-132.1,359.4-129L359.4-129z"/>
		<path d="M313.9-125.1L313.9-125.1c3.5-3.8,7-7.5,10.5-11.2C320.9-132.6,317.4-128.9,313.9-125.1z"/>
		<path d="M264.3-109.7L264.3-109.7c2.3-0.4,4.6-0.8,7-1.2C269-110.5,266.6-110.1,264.3-109.7z"/>
		<path d="M292.7-114.1L292.7-114.1c-2.2,2.5-4.4,5-6.6,7.6C288.4-109.1,290.6-111.6,292.7-114.1z"/>
		<path d="M272.2-89.8c-2.5,3-4.9,6-7.3,9C267.3-83.8,269.8-86.8,272.2-89.8z"/>
		<path d="M597.4-78.4c0.5,0.7,0.9,1.3,1.3,2C598.3-77,597.9-77.7,597.4-78.4z"/>
		<path d="M551.6-104.9c1.5,0.5,2.9,0.9,4.3,1.4C554.5-104,553-104.4,551.6-104.9z"/>
		<path d="M571.3-97.4c1.8,0.8,3.4,1.6,5,2.5C574.8-95.8,573.1-96.6,571.3-97.4z"/>
		<path d="M503-2.7c-1.8-2.3-3.7-4.6-5.6-6.9C499.3-7.3,501.2-5,503-2.7z"/>
		<path d="M585.2-89.7c1.3,0.9,2.6,1.8,3.7,2.7C587.8-87.9,586.5-88.8,585.2-89.7z"/>
		<path d="M558-102.8c1.4,0.5,2.7,1,4,1.5C560.7-101.8,559.3-102.3,558-102.8z"/>
		<path d="M600.3-73.3c0.3,0.7,0.5,1.4,0.8,2.1C600.8-71.9,600.6-72.6,600.3-73.3z"/>
		<path d="M595.1-81.3c-1.7-1.9-3.8-3.8-6.1-5.7C591.3-85.1,593.3-83.3,595.1-81.3z"/>
		<path d="M485.6-23.6c-2-2.3-4.1-4.7-6.2-7C481.5-28.3,483.6-25.9,485.6-23.6z"/>
		<path d="M494.6-13.1c-2.9-3.5-5.9-7-9-10.5C488.7-20.1,491.7-16.6,494.6-13.1z"/>
		<path d="M414.4-76.1c-0.3-2.8-0.7-5.5-1-8.3c-1.7-1.5-3.5-3.1-5.2-4.6c1.8,1.5,3.5,3.1,5.2,4.6C413.7-81.7,414-78.9,414.4-76.1z"
			/>
		<path d="M269.7-16.8c-0.5-4.6-1-9.2-1.4-13.9C268.7-26,269.2-21.4,269.7-16.8z"/>
		<path d="M419.1-19.6L419.1-19.6c-4.4,5.6-8.9,11.2-13.6,16.8C410.2-8.4,414.7-14,419.1-19.6z"/>
		<path d="M265.5-68.1c3.3-4.2,6.6-8.4,10.1-12.7C272.1-76.5,268.8-72.3,265.5-68.1z"/>
		<path d="M275.6-80.7c3.4-4.2,6.9-8.5,10.5-12.7c3.2-3.8,6.4-7.6,9.6-11.3c-3.2,3.7-6.4,7.5-9.6,11.3C282.5-89.2,279-85,275.6-80.7
			z"/>
		<path d="M298.8,14.5c7.5,6.2,14.9,12.2,22.3,17.9c9.1-0.5,18.4-1.2,27.8-2c-9.4,0.8-18.7,1.5-27.8,2
			C313.6,26.7,306.2,20.7,298.8,14.5z"/>
	</g>
</g>
</svg>
