<?xml version="1.0" encoding="utf-8"?>
<!-- Generator: Adobe Illustrator 19.1.0, SVG Export Plug-In . SVG Version: 6.00 Build 0)  -->
<svg version="1.1" id="Layer_8" xmlns="http://www.w3.org/2000/svg" xmlns:xlink="http://www.w3.org/1999/xlink" x="0px" y="0px"
	 viewBox="22 -166.1 640 1172" style="enable-background:new 22 -166.1 640 1172;" xml:space="preserve">
<style type="text/css">
	.st0{fill:#695F4B;}
	.st1{fill:#111D2A;}
	.st2{fill:#29343F;}
	.st3{fill:#D3B02A;}
</style>
<g id="free_exchange">
	<g>
		<rect x="22" y="-166.1" class="st0" width="640" height="1172"/>
		<g>
			<g>
				<path class="st1" d="M204.1-51l-54.5,169.5h38.5h71.1L204.1-51z M480.9-51l-55.1,169.5h109.5L480.9-51z M309.1,243.9
					c3.7-4.9,16.5-12.9,18.3-29c2-17.4-8.8-78.1-16.6-134.4c-5.5-39.8-1.6-45,5.9-68.2c5.1-15.7,1.5-67.4-17.1-66.2
					c-1,0.1-2,0.2-2.8,0.3c-15.4,2.1-24.5,7.9-51.5,9.7c-14.9,1-26.1-0.9-34-3.7l53.5,166.1h3.8c0,37.3-26.7,67.5-64,67.5
					s-64.8-30.2-64.8-67.5h4.1l55.6-172.8c-9.2-9.6,9.9-22.9,15.1-3.9c3.8,1.8,14.4,4.2,26.7,2.9c23.3-2.5,28.1-9,51.1-16.5
					c14.7-4.8,25-6,34.9-6.4c7.1-0.2,7.7-6.1,6.4-13.8c-0.5-2.8-7.5-0.8-10.2-2.7c-2.7-1.9-3-10.1-2.2-16.7s1.8-21,11.9-25.1
					c5.8-2.3,11.6-1.7,13.8-1.3c1.4,0.2,3,0.6,4.8,1.3c10,4.1,11.1,18.5,11.9,25.1c0.8,6.6,0.5,14.7-2.2,16.7
					c-2.7,1.9-9.7-0.1-10.2,2.7c-1.4,7.7-0.8,13.6,6.4,13.8c9.9,0.4,20.2,1.7,34.9,6.4c23,7.5,27.8,14,51.1,16.5
					c12.4,1.3,22.9-1.1,26.7-2.9c5.2-19,24.3-5.7,15.1,3.9L541,118.4h4.1c0,37.3-27.5,67.5-64.8,67.5s-64-30.2-64-67.5h3.8
					l53.5-166.1c-8,2.9-19.2,4.7-34,3.7c-27-1.8-36.1-7.6-51.5-9.7c-0.8-0.1-1.8-0.2-2.8-0.3c-19.2-0.9-22.2,50.5-17.1,66.2
					c7.5,23.2,11.4,28.4,5.9,68.2c-7.8,56.3-18.6,117-16.6,134.4c1.9,16.1,14.7,24.1,18.3,29L309.1,243.9z"/>
			</g>
			<g>
				<path class="st2" d="M463,123.4c0.1,5.3,0.5,10.5,1.2,15.5c4.9-0.5,9.4-0.8,14.6-0.9v-14.6H463z M516.9,142.2
					c1.7-5.5,2.9-12.4,3-18.8H503c0,5.1-0.5,10.7-1.2,16C507,140.1,512,141,516.9,142.2z M498.6,177.5c4.9-1.5,9.5-3.7,13.7-6.4
					c-1.5-0.9-3.1-1.8-4.8-2.5C504.8,171.9,501.8,174.9,498.6,177.5z M533.6,147.4c3.7-7.3,5.8-15.4,6.1-24h-15.5
					c-0.2,6.9-1.3,13.6-3.1,19.8C525.4,144.5,529.6,145.8,533.6,147.4z M501.1,143.6c-0.8,5.1-2.6,12.3-4.2,16.8
					c3.2,0.8,6.4,1.8,9.4,3.1c3.8-5.1,7-10.9,9.3-17.2C510.9,145.1,506.1,144.2,501.1,143.6z M488.2,179.7
					c5.8-3.3,10.9-7.7,15.3-12.8c-2.6-1-5-1.8-8-2.5C493.4,169.8,491,174.9,488.2,179.7z M497.6,138.9c0.7-5,1.1-10.2,1.2-15.5H483
					V138C488.2,138.1,492.7,138.4,497.6,138.9z M483,180.1c3.2-5,6.4-11.5,8.3-16.6c-2.5-0.5-5.8-0.8-8.3-0.8V180.1z M483,158.4
					c3.2,0,7.1,0.5,9.8,1c1.6-4.5,3.3-11.1,4.2-16.4c-3.6-0.5-10-0.8-13.9-0.8v16.2H483z M441.9,123.4c0.1,6.4,1.3,13.3,3,18.8
					c4.9-1.2,9.9-2.1,15.2-2.8c-0.8-5.2-1.2-10.9-1.2-16H441.9z M449.5,171.1c4.2,2.7,8.8,4.8,13.7,6.4c-3.2-2.6-6.2-5.6-8.9-8.9
					C452.6,169.4,450.9,170.2,449.5,171.1z M428.1,147.4c4.1-1.5,8.3-2.9,12.7-4.1c-1.9-6.3-3-12.9-3.1-19.8h-15.5
					C422.4,132,424.5,140.1,428.1,147.4z M464.9,160.3c-1.6-4.4-3.4-11.6-4.2-16.8c-5,0.7-9.8,1.5-14.5,2.6
					c2.3,6.3,5.5,12.1,9.3,17.2C458.5,162.2,461.6,161.1,464.9,160.3z M473.6,179.7c-2.8-4.8-5.2-9.8-7.3-15.4
					c-3.1,0.8-5.4,1.5-8,2.5C462.7,172,467.8,176.3,473.6,179.7z M470.5,163.5c1.9,5.1,5.1,11.6,8.3,16.6v-17.4
					C476.3,162.7,473,163,470.5,163.5z M469,159.4c2.6-0.5,6.6-1,9.8-1v-16.2c-3.9,0-10.3,0.3-13.9,0.8
					C465.7,148.3,467.4,154.9,469,159.4z M510.2,165.2c2.1,1,4.2,2.2,5.9,3.3c5.5-4.1,11.8-10.7,15.6-17.4c-3.9-1.5-7.7-2.7-12-3.9
					C517.1,154.3,513.9,160.2,510.2,165.2z M451.6,165.2c-3.7-5-7-10.9-9.5-17.9c-4.2,1.1-8.1,2.4-12,3.9
					c3.8,6.7,10.1,13.3,15.6,17.4C447.4,167.4,449.5,166.2,451.6,165.2z"/>
			</g>
			<g>
				<path class="st2" d="M222,123.4c-0.1,5.3-0.5,10.5-1.2,15.5c-4.9-0.5-9.4-0.8-14.6-0.9v-14.6H222z M168.1,142.2
					c-1.7-5.5-2.9-12.4-3-18.8H182c0,5.1,0.5,10.7,1.2,16C178,140.1,173,141,168.1,142.2z M186.4,177.5c-4.9-1.5-9.5-3.7-13.7-6.4
					c1.5-0.9,3.1-1.8,4.8-2.5C180.2,171.9,183.2,174.9,186.4,177.5z M151.4,147.4c-3.7-7.3-5.8-15.4-6.1-24h15.5
					c0.2,6.9,1.3,13.6,3.1,19.8C159.6,144.5,155.4,145.8,151.4,147.4z M183.9,143.6c0.8,5.1,2.6,12.3,4.2,16.8
					c-3.2,0.8-6.4,1.8-9.4,3.1c-3.8-5.1-7-10.9-9.3-17.2C174.1,145.1,178.9,144.2,183.9,143.6z M196.8,179.7
					c-5.8-3.3-10.9-7.7-15.3-12.8c2.6-1,5-1.8,8-2.5C191.6,169.8,194,174.9,196.8,179.7z M187.4,138.9c-0.7-5-1.1-10.2-1.2-15.5H202
					V138C196.8,138.1,192.3,138.4,187.4,138.9z M202,180.1c-3.2-5-6.4-11.5-8.3-16.6c2.5-0.5,5.8-0.8,8.3-0.8V180.1z M202,158.4
					c-3.2,0-7.1,0.5-9.8,1c-1.6-4.5-3.3-11.1-4.2-16.4c3.6-0.5,10-0.8,13.9-0.8v16.2H202z M243.1,123.4c-0.1,6.4-1.3,13.3-3,18.8
					c-4.9-1.2-9.9-2.1-15.2-2.8c0.8-5.2,1.2-10.9,1.2-16H243.1z M235.5,171.1c-4.2,2.7-8.8,4.8-13.7,6.4c3.2-2.6,6.2-5.6,8.9-8.9
					C232.4,169.4,234.1,170.2,235.5,171.1z M256.9,147.4c-4.1-1.5-8.3-2.9-12.7-4.1c1.9-6.3,3-12.9,3.1-19.8h15.5
					C262.6,132,260.5,140.1,256.9,147.4z M220.1,160.3c1.6-4.4,3.4-11.6,4.2-16.8c5,0.7,9.8,1.5,14.5,2.6
					c-2.3,6.3-5.5,12.1-9.3,17.2C226.5,162.2,223.4,161.1,220.1,160.3z M211.4,179.7c2.8-4.8,5.2-9.8,7.3-15.4
					c3.1,0.8,5.4,1.5,8,2.5C222.3,172,217.2,176.3,211.4,179.7z M214.5,163.5c-1.9,5.1-5.1,11.6-8.3,16.6v-17.4
					C208.7,162.7,212,163,214.5,163.5z M216,159.4c-2.6-0.5-6.6-1-9.8-1v-16.2c3.9,0,10.3,0.3,13.9,0.8
					C219.3,148.3,217.6,154.9,216,159.4z M174.8,165.2c-2.1,1-4.2,2.2-5.9,3.3c-5.5-4.1-11.8-10.7-15.6-17.4c3.9-1.5,7.7-2.7,12-3.9
					C167.9,154.3,171.1,160.2,174.8,165.2z M233.4,165.2c3.7-5,7-10.9,9.5-17.9c4.2,1.1,8.1,2.4,12,3.9
					c-3.8,6.7-10.1,13.3-15.6,17.4C237.6,167.4,235.5,166.2,233.4,165.2z"/>
			</g>
			<g>
				<path class="st3" d="M472.1,78.8c0.9,0.3,1.2,1,1.5,1.7c0,0,3.2,12,4,16.1c0.3,1.5-0.1,2.4-0.9,2.9h7.8
					c-0.8-0.4-1.2-1.3-0.9-2.9c0.8-4.1,4-16.1,4-16.1c0.3-0.7,0.7-1.4,1.5-1.7L472.1,78.8L472.1,78.8z M437.8,118.4
					c0-0.3,0-0.6,0.1-0.9c0.8-4.1,4-16.1,4-16.1c0.4-1,0.9-1.9,2.7-1.9h7.5c-0.8-0.4-1.2-1.3-0.9-2.9c0.8-4.1,4-16.1,4-16.1
					c0.4-1,0.9-1.9,2.6-1.9h10.7c-1.1-0.3-1.9-1.2-1.5-3.1c0.8-4.1,4-16.1,4-16.1c0.4-1,0.9-1.9,2.6-1.9h13.1c1.7,0,2.2,0.9,2.7,1.9
					c0,0,3.2,12,4,16.1c0.4,1.9-0.4,2.8-1.5,3.1h11.4c1.7,0,2.2,0.9,2.6,1.9c0,0,3.2,12,4,16.1c0.3,1.5-0.1,2.4-0.9,2.9h7.3
					c1.7,0,2.2,0.9,2.7,1.9c0,0,3.2,12,4,16.1c0.1,0.3,0.1,0.6,0.1,0.9h-26.6c0-0.3,0-0.6,0.1-0.9c0.8-4.1,4-16.1,4-16.1
					c0.2-0.6,0.5-1.1,1-1.5h-13c0.5,0.4,0.8,0.9,1,1.5c0,0,3.2,12,4,16.1c0.1,0.3,0.1,0.6,0.1,0.9h-26.6c0-0.3,0-0.6,0.1-0.9
					c0.8-4.1,4-16.1,4-16.1c0.2-0.6,0.5-1.1,1-1.5h-13c0.5,0.4,0.8,0.9,1,1.5c0,0,3.2,12,4,16.1c0.1,0.3,0.1,0.6,0.1,0.9H437.8z"/>
			</g>
		</g>
		<g>
			<path class="st3" d="M290.2,78.8c-0.9,0.3-1.2,1-1.5,1.7c0,0-3.2,12-4,16.1c-0.3,1.5,0.1,2.4,0.9,2.9h-7.8
				c0.8-0.4,1.2-1.3,0.9-2.9c-0.8-4.1-4-16.1-4-16.1c-0.3-0.7-0.7-1.4-1.5-1.7L290.2,78.8L290.2,78.8z M324.5,118.4
				c0-0.3,0-0.6-0.1-0.9c-0.8-4.1-4-16.1-4-16.1c-0.4-1-0.9-1.9-2.7-1.9h-7.5c0.8-0.4,1.2-1.3,0.9-2.9c-0.8-4.1-4-16.1-4-16.1
				c-0.4-1-0.9-1.9-2.6-1.9h-10.7c1.1-0.3,1.9-1.2,1.5-3.1c-0.8-4.1-4-16.1-4-16.1c-0.4-1-0.9-1.9-2.6-1.9h-13.1
				c-1.7,0-2.2,0.9-2.7,1.9c0,0-3.2,12-4,16.1c-0.4,1.9,0.4,2.8,1.5,3.1H259c-1.7,0-2.2,0.9-2.6,1.9c0,0-3.2,12-4,16.1
				c-0.3,1.5,0.1,2.4,0.9,2.9H246c-1.7,0-2.2,0.9-2.7,1.9c0,0-3.2,12-4,16.1c-0.1,0.3-0.1,0.6-0.1,0.9l0,0h26.6c0-0.3,0-0.6-0.1-0.9
				c-0.8-4.1-4-16.1-4-16.1c-0.2-0.6-0.5-1.1-1-1.5h13c-0.5,0.4-0.8,0.9-1,1.5c0,0-3.2,12-4,16.1c-0.1,0.3-0.1,0.6-0.1,0.9l0,0h26.6
				c0-0.3,0-0.6-0.1-0.9c-0.8-4.1-4-16.1-4-16.1c-0.2-0.6-0.5-1.1-1-1.5h13c-0.5,0.4-0.8,0.9-1,1.5c0,0-3.2,12-4,16.1
				c-0.1,0.3-0.1,0.6-0.1,0.9l0,0H324.5z"/>
		</g>
	</g>
</g>
</svg>
