<?xml version="1.0" encoding="utf-8"?>
<!-- Generator: Adobe Illustrator 19.1.0, SVG Export Plug-In . SVG Version: 6.00 Build 0)  -->
<svg version="1.1" id="Layer_9" xmlns="http://www.w3.org/2000/svg" xmlns:xlink="http://www.w3.org/1999/xlink" x="0px" y="0px"
	 viewBox="22 -166.1 640 1172" style="enable-background:new 22 -166.1 640 1172;" xml:space="preserve">
<style type="text/css">
	.st0{fill:#5AC5C4;}
	.st1{fill:#111D2A;}
	.st2{fill:#FFFFFF;}
	.st3{fill:#087678;}
</style>
<g id="gulliver_1_">
	<g>
		<g>
			<polygon class="st0" points="22.2,-166.1 662.2,-166.1 662.2,1005.9 22.2,1005.9 			"/>
			<path class="st0" d="M342.2,419.9"/>
		</g>
		<g>
			<g>
				<g>
					<g>
						<g>
							<path class="st1" d="M316.4-133.5l23.9,12.2l24.2-12.4l23,21.4l-27.3,28l17.9,248.8c0,0.1-0.1,0.7-0.2,0.7l-34.4,52.7
								c-0.5,0.8-1.4,0.8-2,0L305,167.5c-0.1-0.1-0.2-0.7-0.2-0.8l15.7-251.1L294.3-113L316.4-133.5z"/>
						</g>
						<g>
							<path class="st2" d="M424.9-166.1v83.2c0,2.4-2.3,3.4-4,1.8l-80.4-75c-5.2,4.9-22,20.8-38.9,36.4
								c-10.1,9.4-39.2,35.5-39.8,36c-0.3,0.2-0.7,0.5-1,0.7c-2.7,1.4-3.7-1.1-3.7-2.1c0-1.8-0.4-58.1-0.5-80.9L424.9-166.1z"/>
						</g>
					</g>
				</g>
			</g>
			<g>
				<path class="st3" d="M310.2,79.9l-115-97.3c-0.4-0.3-0.8-1.3-0.8-1.8v-32.9c0-1.9,1.7-3,3.4-2.2L315.1,0.9L310.2,79.9z"/>
			</g>
			<g>
				<path class="st3" d="M366.6,5.4l120.1-56.5c1.7-0.8,3.4,0.3,3.4,2.2v32.8c0,0.5-0.5,1.5-0.8,1.8l-117,99L366.6,5.4z"/>
			</g>
		</g>
	</g>
</g>
</svg>
