<?xml version="1.0" encoding="utf-8"?>
<!-- Generator: Adobe Illustrator 19.1.0, SVG Export Plug-In . SVG Version: 6.00 Build 0)  -->
<svg version="1.1" id="Layer_10" xmlns="http://www.w3.org/2000/svg" xmlns:xlink="http://www.w3.org/1999/xlink" x="0px" y="0px"
	 viewBox="0 0 2706 600" style="enable-background:new 0 0 2706 600;" xml:space="preserve">
<style type="text/css">
	.st0{fill-rule:evenodd;clip-rule:evenodd;fill:#ECE8E1;}
	.st1{fill:#B51915;}
	.st2{fill-rule:evenodd;clip-rule:evenodd;fill:#B51915;}
	.st3{fill-rule:evenodd;clip-rule:evenodd;fill:#E30613;}
	.st4{fill-rule:evenodd;clip-rule:evenodd;fill:none;stroke:#B51C18;stroke-miterlimit:10;}
	.st5{fill-rule:evenodd;clip-rule:evenodd;fill:none;stroke:#B81917;stroke-width:1.222;stroke-miterlimit:3.8637;}
	.st6{fill-rule:evenodd;clip-rule:evenodd;fill:none;stroke:#BB1A18;stroke-width:1.222;stroke-miterlimit:3.8637;}
	.st7{fill-rule:evenodd;clip-rule:evenodd;fill:none;stroke:#E30613;stroke-miterlimit:3.8637;}
	.st8{fill-rule:evenodd;clip-rule:evenodd;fill:none;stroke:#E30613;stroke-width:1.222;stroke-miterlimit:3.8637;}
	.st9{fill:#E30613;}
	.st10{fill-rule:evenodd;clip-rule:evenodd;fill:none;stroke:#BE1A1A;stroke-width:1.222;stroke-miterlimit:3.8637;}
</style>
<g>
	<rect y="0" class="st0" width="2706" height="600"/>
	<path class="st1" d="M2415,320c0-6.4,4-11.8,10-13.6V0h8v306.1c6,1.5,10.8,7.1,10.8,13.9c0,7.9-6.5,14.2-14.4,14.2
		C2421.5,334.3,2415,327.9,2415,320z"/>
	<path class="st2" d="M2433,0l7.7,30.4c23.7,81.1,76.4,193.8,139,280.9c-54.6,122.4-52.7,258.9-52.7,258.9s7.9,7,21.6-0.1
		c3.6,0,7.6,0,7.6,0c17.5,10.2,34.9-0.2,34.9-0.2l7.5,0c16.2,12.2,34.9,0.2,34.9,0.2l7.6,0.1c16,14.5,34.7-0.1,34.7-0.1l7.6-0.1
		c5,4.9,13.7,6.6,22.7,1.7V0H2433z"/>
	<path class="st3" d="M2148,570.2c0,0,11.8,8,25.7-0.1c0,0,5.5,0,7.5,0c11.1,5.1,22.7,5.1,34.9,0c0,0,5.1,0,7.5,0
		c12.7,13.3,34.9,0.1,34.9,0.1s4.5,0,7.4-0.1c18.3,11.5,35,0.1,35,0.1s4.3,0,7.4-0.1c9.8,7.9,21.7,0.1,21.7,0.1
		s1.8-136.5-52.8-258.9c64-88.9,117.7-202.5,140.9-284.1L2425,0l-277,0V570.2z"/>
	<line class="st4" x1="2177.5" y1="0" x2="2177.5" y2="570"/>
	<g>
		<g>
			<path class="st5" d="M2219.8,570.2"/>
			<path class="st5" d="M2239.8,0"/>
		</g>
		<g>
			<path class="st6" d="M2262.3,570.2"/>
			<path class="st6" d="M2304,0"/>
		</g>
	</g>
	<path class="st1" d="M2277.4,311H2148v28h140.7C2285.2,330,2281.5,320,2277.4,311z"/>
	<path class="st1" d="M2277.4,311H2148v28h140.7C2285.2,330,2281.5,320,2277.4,311z"/>
	<g>
		<g>
			<line class="st7" x1="2679.5" y1="0" x2="2679.5" y2="570"/>
			<path class="st8" d="M2617.3,0c7.2,68.9,22.9,230.1,39.9,319.5c-13.5,80.9-19,208.4-19.9,250.7"/>
			<path class="st8" d="M2553.2,0c13.5,82.6,46.2,232.3,81.8,316.3c-28.1,89.3-38.8,207.8-40.1,253.6"/>
			<path class="st8" d="M2488.2,0c19,104.2,69.4,236.6,124.5,313.2c-43.5,97.5-59.1,203.5-60.2,256.9"/>
		</g>
	</g>
	<path class="st9" d="M2440.7,30.4c6,3.9,13,6.3,20.1,6.3c14.1,0,26.2-8.5,31.4-20.7c5.2,12.2,17.3,20.7,31.4,20.7
		c14.1,0,28.4-8.7,33.6-20.9c5.2,12.2,19,19.6,33.1,19.6c14.1,0,24.3-7.4,29.4-19.6c5.2,12.2,17.9,20.2,31.9,20.2h0.7
		c14.1,0,21.3-7.7,26.5-19.9c4.4,10.3,15.4,17.8,27.2,19.9V0l-273,0L2440.7,30.4z"/>
	<path class="st5" d="M2239.8,0c-7.2,68.9-22.9,230.1-39.9,319.5c13.5,80.9,18.9,208.2,19.9,250.7"/>
	<path class="st6" d="M2304,0c-13.5,82.6-46.2,232.3-81.8,316.3c28.1,89.4,38.8,208.2,40.1,253.8"/>
	<path class="st10" d="M2368.9,0c-19,104.2-69.4,236.6-124.5,313.2c43.5,97.5,59.1,203.6,60.2,257"/>
	<path class="st2" d="M2418.2,27.3L2425,0l-277,0v39.3c14-0.4,24.8-8.6,29.8-20.2c5.1,11.9,16.9,20.2,30.7,20.2
		c13.7,0,22.8-8.3,27.8-20.2c5.1,11.9,19.6,20.2,33.4,20.2c13.7,0,25.5-8.3,30.6-20.2c5.1,11.9,16.8,20.2,31.2,20.2
		c13.7,0,29.2-8.3,34.2-20.2c5.1,11.9,13,19.8,26.8,19.8h0.1c10.3,0,19.5-4.5,25.6-11.9L2425,0"/>
	<g>
		<path class="st9" d="M2579.5,311c0.1,0.1,0.2,0.2,0.2,0.3c-4.1,9.2-7.9,18.4-11.3,27.7H2706v-28h-126.3H2579.5z"/>
	</g>
</g>
</svg>
