<?xml version="1.0" encoding="utf-8"?>
<!-- Generator: Adobe Illustrator 19.1.0, SVG Export Plug-In . SVG Version: 6.00 Build 0)  -->
<svg version="1.1" id="graphic_detail" xmlns="http://www.w3.org/2000/svg" xmlns:xlink="http://www.w3.org/1999/xlink" x="0px"
	 y="0px" viewBox="0 0 2706 600" style="enable-background:new 0 0 2706 600;" xml:space="preserve">
<style type="text/css">
	.st0{fill-rule:evenodd;clip-rule:evenodd;fill:#5F95B8;}
	.st1{fill:#FFFFFF;}
	.st2{fill-rule:evenodd;clip-rule:evenodd;fill:#111D2A;}
	.st3{fill:#111D2A;}
	.st4{fill:#5F95B8;}
	.st5{fill:#F6B51D;}
	.st6{fill:#F3913E;}
	.st7{fill:#F5E100;}
</style>
<rect class="st0" width="2706.1" height="600"/>
<g>
	<g>
		<g>
			<g>
				<g>
					<polygon class="st1" points="2434.3,600 2332,600 2332,182.6 2376.7,206.3 2376.7,354.6 2434.3,354.6 					"/>
					<polygon class="st2" points="2706.1,163 2706.1,600 2642.7,600 2642.7,108.1 					"/>
					<rect x="2023.5" y="462" class="st3" width="100.2" height="138"/>
					<rect x="2123.8" y="321.3" class="st1" width="102.9" height="278.7"/>
					<polygon class="st3" points="2332,182.6 2332,600 2226.6,600 2226.6,182.6 					"/>
					<polygon class="st3" points="2537.7,237.8 2537.7,600 2434.3,600 2434.3,237.8 					"/>
					<polygon class="st1" points="2642.7,108.1 2642.7,600 2537.7,600 2537.7,108.1 					"/>
				</g>
			</g>
		</g>
	</g>
	<g>
		<g>
			<g>
				<polygon class="st4" points="2137.8,340.8 2150.2,340.8 2150.2,353.2 2137.8,353.2 2137.8,340.8 				"/>
				<path class="st4" d="M2144,347"/>
			</g>
		</g>
		<g>
			<g>
				<polygon class="st4" points="2162.9,340.8 2175.3,340.8 2175.3,353.2 2162.9,353.2 2162.9,340.8 				"/>
				<path class="st4" d="M2169.1,347"/>
			</g>
		</g>
		<g>
			<g>
				<polygon class="st4" points="2137.8,365 2150.2,365 2150.2,377.4 2137.8,377.4 2137.8,365 				"/>
				<path class="st4" d="M2144,371.2"/>
			</g>
		</g>
		<g>
			<g>
				<polygon class="st4" points="2162.9,365 2175.3,365 2175.3,377.4 2162.9,377.4 2162.9,365 				"/>
				<path class="st4" d="M2169.1,371.2"/>
			</g>
		</g>
		<g>
			<g>
				<polygon class="st4" points="2138.2,390.1 2150.6,390.1 2150.6,402.4 2138.2,402.4 2138.2,390.1 				"/>
				<path class="st4" d="M2144.4,396.3"/>
			</g>
		</g>
	</g>
	<g>
		<g>
			<g>
				<polygon class="st4" points="2239.9,197.8 2252.2,197.8 2252.2,210.2 2239.9,210.2 2239.9,197.8 				"/>
				<path class="st4" d="M2246.1,204"/>
			</g>
		</g>
		<g>
			<g>
				<polygon class="st4" points="2239.9,221.9 2252.2,221.9 2252.2,234.3 2239.9,234.3 2239.9,221.9 				"/>
				<path class="st4" d="M2246.1,228.1"/>
			</g>
		</g>
	</g>
	<g>
		<g>
			<g>
				<polygon class="st4" points="2345,371 2357.4,371 2357.4,383.3 2345,383.3 2345,371 				"/>
				<path class="st4" d="M2351.2,377.2"/>
			</g>
		</g>
		<g>
			<g>
				<polygon class="st4" points="2345,395.1 2357.4,395.1 2357.4,407.5 2345,407.5 2345,395.1 				"/>
				<path class="st4" d="M2351.2,401.3"/>
			</g>
		</g>
	</g>
	<g>
		<g>
			<g>
				<polygon class="st4" points="2345,435.9 2357.4,435.9 2357.4,448.3 2345,448.3 2345,435.9 				"/>
				<path class="st4" d="M2351.2,442.1"/>
			</g>
		</g>
	</g>
	<g>
		<g>
			<g>
				<g>
					<polygon class="st4" points="2450.9,255.8 2463.3,255.8 2463.3,268.1 2450.9,268.1 2450.9,255.8 					"/>
					<path class="st4" d="M2457.1,262"/>
				</g>
			</g>
			<g>
				<g>
					<polygon class="st4" points="2476.1,255.8 2488.4,255.8 2488.4,268.1 2476.1,268.1 2476.1,255.8 					"/>
					<path class="st4" d="M2482.2,262"/>
				</g>
			</g>
			<g>
				<g>
					<polygon class="st4" points="2450.9,282.3 2463.3,282.3 2463.3,294.6 2450.9,294.6 2450.9,282.3 					"/>
					<path class="st4" d="M2457.1,288.4"/>
				</g>
			</g>
			<g>
				<g>
					<polygon class="st4" points="2476.1,282.3 2488.4,282.3 2488.4,294.6 2476.1,294.6 2476.1,282.3 					"/>
					<path class="st4" d="M2482.2,288.4"/>
				</g>
			</g>
			<g>
				<g>
					<polygon class="st4" points="2450.9,308.7 2463.3,308.7 2463.3,321.1 2450.9,321.1 2450.9,308.7 					"/>
					<path class="st4" d="M2457.1,314.9"/>
				</g>
			</g>
		</g>
		<g>
			<g>
				<polygon class="st4" points="2501.4,255.8 2513.8,255.8 2513.8,268.1 2501.4,268.1 2501.4,255.8 				"/>
				<path class="st4" d="M2507.6,262"/>
			</g>
		</g>
	</g>
	<g>
		<g>
			<g>
				<g>
					<polygon class="st4" points="2556.1,125.9 2568.5,125.9 2568.5,138.3 2556.1,138.3 2556.1,125.9 					"/>
					<path class="st4" d="M2562.3,132.1"/>
				</g>
			</g>
			<g>
				<g>
					<polygon class="st4" points="2581.2,125.9 2593.6,125.9 2593.6,138.3 2581.2,138.3 2581.2,125.9 					"/>
					<path class="st4" d="M2587.4,132.1"/>
				</g>
			</g>
			<g>
				<g>
					<polygon class="st4" points="2556.1,152.4 2568.5,152.4 2568.5,164.7 2556.1,164.7 2556.1,152.4 					"/>
					<path class="st4" d="M2562.3,158.6"/>
				</g>
			</g>
			<g>
				<g>
					<polygon class="st4" points="2556.1,178.8 2568.5,178.8 2568.5,191.2 2556.1,191.2 2556.1,178.8 					"/>
					<path class="st4" d="M2562.3,185"/>
				</g>
			</g>
		</g>
	</g>
	<g>
		<g>
			<g>
				<g>
					<polygon class="st4" points="2556.1,203.2 2568.5,203.2 2568.5,215.6 2556.1,215.6 2556.1,203.2 					"/>
					<path class="st4" d="M2562.3,209.4"/>
				</g>
			</g>
			<g>
				<g>
					<polygon class="st4" points="2581.2,203.2 2593.6,203.2 2593.6,215.6 2581.2,215.6 2581.2,203.2 					"/>
					<path class="st4" d="M2587.4,209.4"/>
				</g>
			</g>
			<g>
				<g>
					<polygon class="st4" points="2556.1,229.7 2568.5,229.7 2568.5,242.1 2556.1,242.1 2556.1,229.7 					"/>
					<path class="st4" d="M2562.3,235.9"/>
				</g>
			</g>
			<g>
				<g>
					<polygon class="st4" points="2556.1,256.2 2568.5,256.2 2568.5,268.5 2556.1,268.5 2556.1,256.2 					"/>
					<path class="st4" d="M2562.3,262.3"/>
				</g>
			</g>
		</g>
	</g>
	<g>
		<g>
			<g>
				<polygon class="st4" points="2036.2,478.4 2048.6,478.4 2048.6,490.8 2036.2,490.8 2036.2,478.4 				"/>
				<path class="st4" d="M2042.4,484.6"/>
			</g>
		</g>
		<g>
			<g>
				<polygon class="st4" points="2061.3,478.4 2073.7,478.4 2073.7,490.8 2061.3,490.8 2061.3,478.4 				"/>
				<path class="st4" d="M2067.5,484.6"/>
			</g>
		</g>
		<g>
			<g>
				<polygon class="st4" points="2036.2,502.6 2048.6,502.6 2048.6,515 2036.2,515 2036.2,502.6 				"/>
				<path class="st4" d="M2042.4,508.8"/>
			</g>
		</g>
		<g>
			<g>
				<polygon class="st4" points="2061.3,502.6 2073.7,502.6 2073.7,515 2061.3,515 2061.3,502.6 				"/>
				<path class="st4" d="M2067.5,508.8"/>
			</g>
		</g>
		<g>
			<g>
				<polygon class="st4" points="2036.2,527.3 2048.6,527.3 2048.6,539.7 2036.2,539.7 2036.2,527.3 				"/>
				<path class="st4" d="M2042.4,533.5"/>
			</g>
		</g>
	</g>
</g>
<g>
	<circle class="st5" cx="2010" cy="150" r="95.5"/>
	<path class="st5" d="M2010,150"/>
</g>
<path class="st6" d="M2010,54.5c-52.7,0-95.5,42.7-95.5,95.5v0l0,0h95.5l-49,81.9c14.3,8.6,31.1,13.5,49,13.5
	c52.7,0,95.5-42.7,95.5-95.5S2062.7,54.5,2010,54.5z"/>
<path class="st7" d="M2010,150h-95.5c0-34.8,18.6-65.3,46.5-82"/>
</svg>
