<?xml version="1.0" encoding="utf-8"?>
<!-- Generator: Adobe Illustrator 19.1.0, SVG Export Plug-In . SVG Version: 6.00 Build 0)  -->
<svg version="1.1" id="Layer_6" xmlns="http://www.w3.org/2000/svg" xmlns:xlink="http://www.w3.org/1999/xlink" x="0px" y="0px"
	 viewBox="22 -166.1 640 1172" style="enable-background:new 22 -166.1 640 1172;" xml:space="preserve">
<style type="text/css">
	.st0{fill:#B51915;}
	.st1{fill:#111D2A;}
	.st2{fill:none;stroke:#1D1D1B;stroke-width:0.6317;stroke-miterlimit:3.8637;}
	.st3{fill:#FFFFFF;}
	.st4{fill:none;stroke:#1D1D1B;stroke-width:0.565;stroke-miterlimit:3.8637;}
	.st5{clip-path:url(#SVGID_2_);}
	.st6{fill:#1D1D1B;}
</style>
<g id="notebook">
	<g>
		<g>
			<polygon class="st0" points="22,-166.1 662,-166.1 662,1005.9 22,1005.9 			"/>
		</g>
		<g>
			<g>
				<g>
					<g>
						<g>
							<path class="st1" d="M154.2-87.2c0-29.1,18.9-35.8,36.9-35.8h274c14.1,0.2,20.4,7.4,20.4,18.6l7.3,26.3h5.7h15.7
								c10.9,0,16.4,5.8,16.4,16.7v305.3h-377L154.2-87.2z"/>
						</g>
						<g>
							<path class="st2" d="M480-121.7"/>
						</g>
						<g>
							<path class="st3" d="M485.5,243.9c0.3-20.9,0-320.2,0-346.5v-1.8c0,0,3.1,13.5,11.4,24.3c4.8,6.2,13.2,11.6,13.2,11.6v312.4
								H485.5z"/>
						</g>
						<g>
							<g>
								<path class="st4" d="M353.6-128.8"/>
							</g>
							<g>
								<path class="st3" d="M357.6-125.8h75.5V42.3l-36.9-76.5v-34c0-1.6-2.4-1.6-2.4,0v33.9l-36.2,76.6V-125.8z"/>
							</g>
							<g>
								<g>
									<g>
										<circle id="SVGID_3_" class="st3" cx="395.2" cy="70.2" r="22.6"/>
									</g>
									<g>
										<defs>
											<circle id="SVGID_1_" cx="395.2" cy="70.2" r="22.6"/>
										</defs>
										<clipPath id="SVGID_2_">
											<use xlink:href="#SVGID_1_"  style="overflow:visible;"/>
										</clipPath>
										<g class="st5">
											<path class="st6" d="M393.5,70c0.3-0.7,1-1,1.6-1.1l3-5.6c-0.3-0.6-0.3-1.6,0.2-2c0.2-0.2,0.9-0.7,1.2-1.3l1.4-1.9
												c0.4-0.6,1.1-0.5,0.7,0.8c0,0-0.5,1.5-0.7,1.9c-0.1,0.3-0.2,0.7-0.2,1v0.8c0,0.6-0.5,1.2-1.3,1.4l-2.9,5.7l0.2,0.4h8.8
												c0.6-0.7,1.5-0.7,2-0.5l0.6,0.2c0.2,0.1,0.6,0.2,0.9,0.2l2.4,0.2c1,0.1,2,0.2,2.6,0.3c0.8,0.1,0.9,0.9-0.1,1
												c-0.2,0-4,0.3-4.8,0.4c-0.4,0-0.7,0.1-0.9,0.2l-0.6,0.2c-0.6,0.2-1.4,0.2-2-0.5h-8.9c-0.5,0.9-1.6,1.2-2.5,0.8
												C393.4,72.1,393,71,393.5,70z"/>
										</g>
									</g>
								</g>
							</g>
						</g>
					</g>
				</g>
			</g>
		</g>
	</g>
</g>
</svg>
