<?xml version="1.0" encoding="utf-8"?>
<!-- Generator: Adobe Illustrator 19.1.0, SVG Export Plug-In . SVG Version: 6.00 Build 0)  -->
<svg version="1.1" id="econ" xmlns="http://www.w3.org/2000/svg" xmlns:xlink="http://www.w3.org/1999/xlink" x="0px" y="0px"
	 viewBox="22 -166.1 640 1172" style="enable-background:new 22 -166.1 640 1172;" xml:space="preserve">
<style type="text/css">
	.st0{fill:#916CAF;}
	.st1{fill:#111D2A;}
</style>
<polygon class="st0" points="22,-166.1 662,-166.1 662,1005.9 22,1005.9 "/>
<g id="explains">
	<g>
		<g>
			<path class="st0" d="M365.6,419.9"/>
		</g>
		<g>
			<path class="st1" d="M310.3,9.3c-26.2,1.3-64.6,2.3-90.8,3.1c-14.4-26.4-16.4-61.7-0.5-87.7c61.8-100.6,263.6-71,257.1,56.9
				c-4.2,84.2-79.8,67.4-80.3,129.9h-99.1c0-18.5-3-36.3,10.4-57.8c20.8-33.5,74.8-25.4,74.5-71.5c-0.1-10-3.8-19.5-11.2-26.7
				c-5.8-5.5-13.3-9.2-21.4-10.8v-12.1C300.7-65.7,278.6-23,310.3,9.3z"/>
			<path class="st1" d="M343,228.1v-12.5c-12.6-0.7-22.9-4.9-30.8-12.5c-8-7.6-11.9-17-11.9-28.3c0-11.9,4.3-21.8,12.9-29.9
				c8.4-8,19-12,31.5-12c12.2,0,22.5,4,30.8,12.1c8.3,8.1,12.5,18.1,12.5,30c0,12.4-3.7,24.3-11.8,33.9
				C368,218.6,356.7,224.2,343,228.1z"/>
		</g>
	</g>
</g>
</svg>
