<?xml version="1.0" encoding="utf-8"?>
<!-- Generator: Adobe Illustrator 19.1.0, SVG Export Plug-In . SVG Version: 6.00 Build 0)  -->
<svg version="1.1" id="wood_x27_s" xmlns="http://www.w3.org/2000/svg" xmlns:xlink="http://www.w3.org/1999/xlink" x="0px" y="0px"
	 viewBox="0 0 2706 600" style="enable-background:new 0 0 2706 600;" xml:space="preserve">
<style type="text/css">
	.st0{fill:#BFE7F1;}
	.st1{fill:#3A7224;}
	.st2{fill:#111D2A;}
</style>
<g>
	<g>
		<polygon class="st0" points="0,0 2706,0 2706,600 0,600 0,0 		"/>
	</g>
	<g>
		<path class="st1" d="M1666.8,0c-1.7,6-2.6,11.5-2.6,17.7c0,14.6,5.2,28,13.8,38.5c-1.9,5.9-2.9,12.1-2.9,18.6
			c0,26.3,16.8,48.8,40.3,57.1c2.6,31.1,28.7,55.5,60.4,55.5c3.3,0,6.5-0.3,9.6-0.8c11.1,14.5,28.5,23.8,48.2,23.8
			c15.6,0,28.2-6.7,37.9-16.6c0,0,3.8-11.5,12.4-11.3l10.5-0.2c30.1-0.1,57.1-15.7,67.4-44c10.3-33.1,5.8-68.7-17.3-93.9
			c-2.3-3.1,1.2-8.2,6.2-4.2c30.2,26.7,46.5,63.8,37.9,104.5c-4.2,16.4-20.2,42.6,7.2,50.4c3.6,1.3,6.9,2.5,9.9,3.9
			c29,10.8,52.3,40.5,60.2,46.4c28.9,25.7,92,37.9,119,18.8c7-5.7,9.6-11.7,10.5-18.2c0.8-4.8,2.9-4.5,4.2-4.5
			c12.3,0,23.7-3.6,33.2-9.9c10,7.2,22.2,11.5,35.5,11.5c14.1,0,27-4.8,37.3-12.8c4.6,1.1,9.5,1.7,14.4,1.7c3.9,0,10-0.7,13.7-1.4
			c5.7-1.6,5.3,2.6,5.6,5c2,19.4,6,30.9,16.7,38.5c24.1,17,84.8,20.7,114.6,7.9c23.5-10.1,29.5-19.1,45.2-28.3
			c12.8-7.5,32.8-3.5,41-11.4c15.8-15.4,28.1-34.9,53.7-39.9c37.8-7.6,49.4,28,54.5,35c5.2,10.9,26.4,17.4,40.9,20.7V0H1666.8z"/>
		<g>
			<g>
				<g>
					<g>
						<g>
							<path class="st2" d="M2706,268.8c-7.8-0.6-17.9-2.1-28.7-5.7c-35.5-11.8-38.4-38-65.8-29.7c-13.7,4.2-19.5,17.8-21.1,26.5
								c-1.6,8.6-5,13-13.1,14.6c-10.6,2.1-24.8,5.6-34.7,10.7c-20.9,10.8-13.6,28.6-60.9,45.6c-37.2,12.5-66.7,13.9-102.7,14.6
								c-17.7-0.1-25.3-3.8-22.4,26.8l7.8,66.3c0,0,9.1,46.8,44,61L2635.7,600l-781.6,0c45.6-26.9,83.8-54.5,95.6-64.4
								c14.3-9.9,25.6-7.6,31.5-6.7c70.8,10.2,118.6-29.3,135.3-46.8c4.9-5.1,10.9-5.2,13.9-5.3c54.8-1.9,55.1-35.6,56-76.5
								c0.9-15,0.7-37.4,0.1-56.8c-0.2-5.6-0.9-16.6-23.3-16.5c-26.2-1.1-69.9-7.6-104.2-36.4c-23.1-19.4-37.2-53.6-77.3-73
								c-37.1-18.9-89.8-19.5-110.1-23.7c0,0,3.8-11.5,12.4-11.3l10.5-0.2c30.1-0.1,57.1-15.7,67.4-44c10.3-33.1,5.8-68.7-17.3-93.9
								c-2.3-3.1,1.2-8.2,6.2-4.2c30.2,26.7,46.5,63.8,37.9,104.5c-4.2,16.4-20.2,42.6,7.2,50.4c3.6,1.3,6.9,2.5,9.9,3.9
								c29,10.8,52.3,40.5,60.2,46.4c28.9,25.7,92,37.9,119,18.8c7-5.7,9.6-11.7,10.5-18.2c0.8-4.8,2.9-4.5,4.2-4.5
								c12.3,0,23.7-3.6,33.2-9.9c10,7.2,22.2,11.5,35.5,11.5c14.1,0,27-4.8,37.3-12.8c4.6,1.1,9.5,1.7,14.4,1.7
								c3.9,0,10-0.7,13.7-1.4c5.7-1.6,5.3,2.6,5.6,5c2,19.4,6,30.9,16.7,38.5c24.1,17,84.8,20.7,114.6,7.9
								c23.5-10.1,29.5-19.1,45.2-28.3c12.8-7.5,32.8-3.5,41-11.4c15.8-15.4,28.1-34.9,53.7-39.9c37.8-7.6,49.4,28,54.5,35
								c5.2,10.9,26.4,17.4,40.9,20.7V268.8z"/>
						</g>
					</g>
				</g>
			</g>
			<g>
				<path class="st1" d="M2581.3,332.2c-7.1-1.4-14.7-7.7-24.5-8.9c-9.8-1.2-18.9,8.2-24.1,14.6c6.7,4.3,11.5,7.5,21.3,8.7
					C2563.8,347.8,2575.7,341.5,2581.3,332.2z"/>
			</g>
		</g>
	</g>
	<g>
		<path class="st1" d="M2166.9,344.5c-3.8,6.2-12.3,11.1-16.7,20c-4.5,8.8,1.2,20.6,5.4,27.7c6.5-11.4,12.7-8.3,17.1-17.1
			C2177.2,366.2,2173.7,353,2166.9,344.5z"/>
	</g>
	<g>
		<path class="st1" d="M2020.2,296.4c-23.2-4.2-27.6-22.2-43.4-29.9c-10.5-5.1-24.1-4.6-36,4.1c2.6,14.5,5.7,26,22.1,32.6
			C1979.3,309.7,2008.3,305,2020.2,296.4z"/>
	</g>
</g>
</svg>
