<?xml version="1.0" encoding="utf-8"?>
<!-- Generator: Adobe Illustrator 19.1.0, SVG Export Plug-In . SVG Version: 6.00 Build 0)  -->
<svg version="1.1" id="free_exchange" xmlns="http://www.w3.org/2000/svg" xmlns:xlink="http://www.w3.org/1999/xlink" x="0px"
	 y="0px" viewBox="0 0 2706 600" style="enable-background:new 0 0 2706 600;" xml:space="preserve">
<style type="text/css">
	.st0{fill-rule:evenodd;clip-rule:evenodd;fill:#695F4B;}
	.st1{fill:#111D2A;}
	.st2{fill:#29343F;}
	.st3{fill:#D3B02A;}
</style>
<g>
	<rect y="0" class="st0" width="2706" height="600"/>
	<g>
		<g>
			<path class="st1" d="M2149.1,168.4l-79.7,248l56.3,0l104,0L2149.1,168.4z M2554.1,168.4l-80.6,248l160.3,0L2554.1,168.4z
				 M2302.8,600c5.3-7.2,24.1-18.8,26.8-42.4c2.9-25.5-12.9-114.4-24.3-196.7c-8.1-58.3-2.3-65.9,8.7-99.9c7.5-23,2.2-98.6-25-96.9
				c-1.5,0.1-2.9,0.2-4.1,0.4c-22.5,3-35.8,11.5-75.4,14.1c-21.7,1.5-38.1-1.2-49.8-5.5l78.3,243.1l5.6,0
				c0,54.6-39.1,98.9-93.7,98.9c-54.6,0-94.8-44.3-94.8-98.8h5.9l81.3-252.9c-13.4-14,14.5-33.5,22.1-5.7c5.5,2.6,21,6.2,39.1,4.2
				c34.1-3.7,41.1-13.2,74.8-24.2c21.6-7,36.5-8.9,51.1-9.4c10.5-0.2,11.3-9,9.3-20.2c-0.7-4-10.9-1.1-14.9-4
				c-4-2.8-4.4-14.8-3.3-24.4c1.1-9.6,2.7-30.8,17.4-36.7c8.4-3.4,17-2.4,20.2-1.9c2.1,0.3,4.4,0.8,7,1.9
				c14.7,5.9,16.3,27.1,17.4,36.7c1.1,9.6,0.7,21.5-3.3,24.4c-4,2.8-14.2-0.1-14.9,4c-2,11.2-1.1,20,9.3,20.2
				c14.5,0.6,29.5,2.4,51.1,9.4c33.7,10.9,40.6,20.4,74.8,24.2c18.1,2,33.6-1.6,39.1-4.2c7.6-27.8,35.5-8.3,22.1,5.7l81.3,252.9h5.9
				c0,54.6-40.2,98.8-94.8,98.8c-54.6,0-93.7-44.3-93.7-98.9l5.6,0l78.3-243.1c-11.7,4.2-28.1,6.9-49.8,5.5
				c-39.5-2.6-52.9-11.1-75.4-14.1c-1.2-0.2-2.6-0.3-4.1-0.4c-28.2-1.3-32.5,73.8-25,96.9c11,33.9,16.7,41.6,8.7,99.9
				c-11.4,82.3-27.2,171.2-24.3,196.7c2.7,23.6,21.5,35.2,26.8,42.4L2302.8,600z"/>
		</g>
		<g>
			<path class="st2" d="M2527.9,423.7c0.1,7.8,0.7,15.3,1.8,22.7c7.1-0.7,13.7-1.2,21.4-1.3v-21.4H2527.9z M2606.8,451.2
				c2.5-8,4.2-18.1,4.4-27.5h-24.7c0,7.4-0.7,15.7-1.8,23.4C2592.3,448.1,2599.7,449.5,2606.8,451.2z M2580,502.8
				c7.1-2.2,13.9-5.4,20.1-9.3c-2.1-1.3-4.6-2.6-7-3.7C2589.1,494.6,2584.7,499,2580,502.8z M2631.3,458.8
				c5.4-10.7,8.5-22.6,8.9-35.1h-22.8c-0.3,10.1-1.9,19.9-4.6,29C2619.2,454.5,2625.4,456.5,2631.3,458.8z M2583.7,453.2
				c-1.2,7.5-3.9,18-6.2,24.5c4.7,1.2,9.3,2.7,13.7,4.5c5.6-7.5,10.3-16,13.6-25.2C2598.1,455.4,2591,454.1,2583.7,453.2z
				 M2564.8,506c8.5-4.9,16-11.2,22.4-18.8c-3.9-1.5-7.3-2.6-11.8-3.7C2572.4,491.6,2568.9,499,2564.8,506z M2578.5,446.3
				c1-7.4,1.7-14.9,1.8-22.7h-23.2v21.4C2564.8,445.2,2571.4,445.6,2578.5,446.3z M2557.2,506.6c4.8-7.3,9.4-16.9,12.2-24.3
				c-3.7-0.7-8.5-1.1-12.2-1.2V506.6z M2557.2,474.9c4.7,0.1,10.4,0.7,14.3,1.5c2.3-6.6,4.9-16.3,6.1-23.9
				c-5.3-0.7-14.6-1.1-20.4-1.2V474.9z M2497,423.7c0.2,9.4,1.9,19.5,4.4,27.5c7.1-1.7,14.6-3.1,22.2-4.1c-1.1-7.7-1.8-16-1.8-23.4
				H2497z M2508.1,493.5c6.2,3.9,12.9,7.1,20.1,9.3c-4.7-3.9-9.1-8.3-13.1-13C2512.7,491,2510.3,492.2,2508.1,493.5z M2476.8,458.7
				c6-2.2,12.2-4.3,18.6-6c-2.7-9.2-4.3-18.9-4.6-29h-22.8C2468.5,436.2,2471.6,448.1,2476.8,458.7z M2530.7,477.7
				c-2.3-6.5-5-17-6.2-24.5c-7.3,1-14.3,2.2-21.2,3.8c3.4,9.2,8,17.7,13.6,25.2C2521.4,480.4,2525.9,478.9,2530.7,477.7z
				 M2543.4,506c-4.1-7-7.6-14.4-10.7-22.5c-4.5,1.1-7.9,2.2-11.8,3.7C2527.5,494.8,2534.9,501.1,2543.4,506z M2538.9,482.3
				c2.8,7.4,7.4,17,12.2,24.3v-25.5C2547.4,481.2,2542.6,481.7,2538.9,482.3z M2536.8,476.4c3.9-0.8,9.6-1.4,14.3-1.5v-23.6
				c-5.8,0-15.1,0.5-20.4,1.2C2531.9,460.1,2534.4,469.8,2536.8,476.4z M2597,484.8c3.1,1.5,6.1,3.2,8.7,4.9
				c8-6,17.2-15.7,22.8-25.4c-5.7-2.2-11.3-4-17.5-5.7C2607.1,468.9,2602.4,477.4,2597,484.8z M2511.2,484.8
				c-5.4-7.3-10.2-15.9-13.9-26.2c-6.2,1.7-11.8,3.5-17.5,5.7c5.6,9.7,14.7,19.4,22.8,25.4C2505.1,488,2508.1,486.3,2511.2,484.8z"
				/>
		</g>
		<g>
			<path class="st2" d="M2175.3,423.7c-0.1,7.8-0.7,15.3-1.8,22.7c-7.1-0.7-13.7-1.2-21.4-1.3v-21.4H2175.3z M2096.4,451.2
				c-2.5-8-4.2-18.1-4.4-27.5h24.7c0,7.4,0.7,15.7,1.8,23.4C2111,448.1,2103.5,449.5,2096.4,451.2z M2123.2,502.8
				c-7.1-2.2-13.9-5.4-20.1-9.3c2.1-1.3,4.6-2.6,7-3.7C2114.1,494.6,2118.5,499,2123.2,502.8z M2072,458.8
				c-5.4-10.7-8.5-22.6-8.9-35.1h22.8c0.3,10.1,1.9,19.9,4.6,29C2084,454.5,2077.9,456.5,2072,458.8z M2119.5,453.2
				c1.2,7.5,3.9,18,6.2,24.5c-4.7,1.2-9.3,2.7-13.7,4.5c-5.6-7.5-10.3-16-13.6-25.2C2105.2,455.4,2112.2,454.1,2119.5,453.2z
				 M2138.4,506c-8.5-4.9-16-11.2-22.4-18.8c3.9-1.5,7.3-2.6,11.8-3.7C2130.8,491.6,2134.3,499,2138.4,506z M2124.7,446.3
				c-1-7.4-1.7-14.9-1.8-22.7h23.2v21.4C2138.4,445.2,2131.8,445.6,2124.7,446.3z M2146.1,506.6c-4.8-7.3-9.4-16.9-12.2-24.3
				c3.7-0.7,8.5-1.1,12.2-1.2V506.6z M2146.1,474.9c-4.7,0.1-10.4,0.7-14.3,1.5c-2.3-6.6-4.9-16.3-6.1-23.9
				c5.3-0.7,14.6-1.1,20.4-1.2V474.9z M2206.2,423.7c-0.2,9.4-1.9,19.5-4.4,27.5c-7.1-1.7-14.6-3.1-22.2-4.1
				c1.1-7.7,1.8-16,1.8-23.4H2206.2z M2195.1,493.5c-6.2,3.9-12.9,7.1-20.1,9.3c4.7-3.9,9.1-8.3,13.1-13
				C2190.5,491,2193,492.2,2195.1,493.5z M2226.4,458.7c-6-2.2-12.2-4.3-18.6-6c2.7-9.2,4.3-18.9,4.6-29h22.8
				C2234.7,436.2,2231.6,448.1,2226.4,458.7z M2172.5,477.7c2.3-6.5,5-17,6.2-24.5c7.3,1,14.3,2.2,21.2,3.8
				c-3.4,9.2-8,17.7-13.6,25.2C2181.9,480.4,2177.3,478.9,2172.5,477.7z M2159.8,506c4.1-7,7.6-14.4,10.7-22.5
				c4.5,1.1,7.9,2.2,11.8,3.7C2175.8,494.8,2168.3,501.1,2159.8,506z M2164.3,482.3c-2.8,7.4-7.4,17-12.2,24.3v-25.5
				C2155.9,481.2,2160.6,481.7,2164.3,482.3z M2166.5,476.4c-3.9-0.8-9.6-1.4-14.3-1.5v-23.6c5.8,0,15.1,0.5,20.4,1.2
				C2171.3,460.1,2168.8,469.8,2166.5,476.4z M2106.3,484.8c-3.1,1.5-6.1,3.2-8.7,4.9c-8-6-17.2-15.7-22.8-25.4
				c5.7-2.2,11.3-4,17.5-5.7C2096.1,468.9,2100.8,477.4,2106.3,484.8z M2192,484.8c5.4-7.3,10.2-15.9,13.9-26.2
				c6.2,1.7,11.8,3.5,17.5,5.7c-5.6,9.7-14.7,19.4-22.8,25.4C2198.1,488,2195.1,486.3,2192,484.8z"/>
		</g>
		<g>
			<path class="st3" d="M2541.3,358.4c1.3,0.4,1.8,1.4,2.2,2.5c0,0,4.7,17.6,5.9,23.6c0.5,2.3-0.2,3.5-1.4,4.2h11.4
				c-1.2-0.7-1.8-1.9-1.4-4.2c1.2-6,5.9-23.6,5.9-23.6c0.5-1,1-2,2.2-2.5H2541.3z M2491.1,416.4c0-0.4,0-0.8,0.1-1.3
				c1.2-6,5.9-23.6,5.9-23.6c0.6-1.4,1.3-2.7,3.9-2.7h11c-1.2-0.7-1.8-1.9-1.4-4.2c1.2-6,5.9-23.6,5.9-23.6c0.6-1.4,1.3-2.7,3.9-2.7
				l15.6,0c-1.7-0.5-2.8-1.8-2.2-4.5c1.2-6,5.9-23.6,5.9-23.6c0.6-1.4,1.3-2.7,3.9-2.7h19.2c2.6,0,3.3,1.3,3.9,2.7
				c0,0,4.7,17.6,5.9,23.6c0.6,2.8-0.6,4.1-2.2,4.5l16.7,0c2.6,0,3.3,1.3,3.9,2.7c0,0,4.7,17.6,5.9,23.6c0.5,2.3-0.2,3.5-1.4,4.2
				h10.6c2.6,0,3.3,1.3,3.9,2.7c0,0,4.7,17.6,5.9,23.6c0.1,0.5,0.1,0.9,0.1,1.3l-39,0c0-0.4,0-0.8,0.1-1.3c1.2-6,5.9-23.6,5.9-23.6
				c0.4-0.8,0.7-1.6,1.5-2.1h-19c0.8,0.5,1.1,1.3,1.5,2.1c0,0,4.7,17.6,5.9,23.6c0.1,0.5,0.1,0.9,0.1,1.3l-39,0c0-0.4,0-0.8,0.1-1.3
				c1.2-6,5.9-23.6,5.9-23.6c0.4-0.8,0.7-1.6,1.5-2.1h-19c0.8,0.5,1.1,1.3,1.5,2.1c0,0,4.7,17.6,5.9,23.6c0.1,0.5,0.2,0.9,0.2,1.3
				L2491.1,416.4z"/>
		</g>
	</g>
	<g>
		<path class="st3" d="M2162,358.4c-1.3,0.4-1.8,1.4-2.2,2.5c0,0-4.7,17.6-5.9,23.6c-0.5,2.3,0.2,3.5,1.4,4.2h-11.4
			c1.2-0.7,1.8-1.9,1.4-4.2c-1.2-6-5.9-23.6-5.9-23.6c-0.5-1-1-2-2.2-2.5H2162z M2212.1,416.4c0-0.4,0-0.8-0.1-1.3
			c-1.2-6-5.9-23.6-5.9-23.6c-0.6-1.4-1.3-2.7-3.9-2.7h-11c1.2-0.7,1.8-1.9,1.4-4.2c-1.2-6-5.9-23.6-5.9-23.6
			c-0.6-1.4-1.3-2.7-3.9-2.7l-15.6,0c1.7-0.5,2.8-1.8,2.2-4.5c-1.2-6-5.9-23.6-5.9-23.6c-0.6-1.4-1.3-2.7-3.9-2.7h-19.2
			c-2.6,0-3.3,1.3-3.9,2.7c0,0-4.7,17.6-5.9,23.6c-0.6,2.8,0.6,4.1,2.2,4.5l-16.7,0c-2.6,0-3.3,1.3-3.9,2.7c0,0-4.7,17.6-5.9,23.6
			c-0.5,2.3,0.2,3.5,1.4,4.2h-10.6c-2.6,0-3.3,1.3-3.9,2.7c0,0-4.7,17.6-5.9,23.6c-0.1,0.5-0.1,0.9-0.1,1.3c0,0,0,0,0,0l39,0
			c0-0.4,0-0.8-0.1-1.3c-1.2-6-5.9-23.6-5.9-23.6c-0.4-0.8-0.7-1.6-1.5-2.1h19c-0.8,0.5-1.1,1.3-1.5,2.1c0,0-4.7,17.6-5.9,23.6
			c-0.1,0.5-0.1,0.9-0.1,1.3c0,0,0,0,0,0l39,0c0-0.4,0-0.8-0.1-1.3c-1.2-6-5.9-23.6-5.9-23.6c-0.4-0.8-0.7-1.6-1.5-2.1h19
			c-0.8,0.5-1.1,1.3-1.5,2.1c0,0-4.7,17.6-5.9,23.6c-0.1,0.5-0.1,0.9-0.1,1.3c0,0,0,0,0,0L2212.1,416.4z"/>
	</g>
</g>
</svg>
