<?xml version="1.0" encoding="utf-8"?>
<!-- Generator: Adobe Illustrator 19.1.0, SVG Export Plug-In . SVG Version: 6.00 Build 0)  -->
<svg version="1.1" id="Layer_7" xmlns="http://www.w3.org/2000/svg" xmlns:xlink="http://www.w3.org/1999/xlink" x="0px" y="0px"
	 viewBox="22 -166.1 640 1172" style="enable-background:new 22 -166.1 640 1172;" xml:space="preserve">
<style type="text/css">
	.st0{fill:#BD902D;}
	.st1{fill:#111D2A;}
</style>
<g id="erasmus">
	<g>
		<g>
			<g>
				<polygon class="st0" points="22,-166.1 662,-166.1 662,1005.9 22,1005.9 				"/>
				<path class="st0" d="M325.4,427.4"/>
			</g>
			<g>
				<g>
					<path class="st1" d="M324.6-119.6c-0.9,0-1.7-0.4-2.3-1V-142c0.6-0.6,1.4-0.9,2.3-0.9c1,0,1.9,0.5,2.5,1.2v21
						C326.5-120.1,325.6-119.6,324.6-119.6z M317.8-137.8c0-1.5,1.1-2.7,2.7-3.1v19.1c-1.6-0.4-2.7-1.6-2.7-3V-137.8z M365-141.7
						v20.8c-0.6,0.8-1.5,1.3-2.6,1.3c-1,0-1.8-0.4-2.4-1.1v-21.1c0.6-0.7,1.5-1.1,2.4-1.1C363.5-142.9,364.4-142.4,365-141.7z
						 M370.2-124.8c0,1.7-1.6,3.1-3.5,3.2v-19.3c1.9,0,3.5,1.4,3.5,3.2V-124.8z M331.3,98.7v67.7h-45.9V98.7
						c0-14.3,10.3-25.9,23-25.9S331.3,84.3,331.3,98.7z M397.3,98.7v67.7h-45.9V98.7c0-14.3,10.3-25.9,23-25.9
						C387,72.8,397.3,84.3,397.3,98.7z M126.3,244.7C138.9,121.4,150.1,86.3,158,60.4C190.7-46.8,303.3-67.2,318.7-70.2
						c10.6-2,17.4,3.4,19.4,11.1l1.2-62.6h-10.6v-19.2h29.7v19.3h-10.5l0.7,61c3-6.3,10.1-10.9,19.3-9.2
						c15.5,3,127,24.4,159.8,131.5c7.9,25.8,19,60.7,31.5,182.9H418.8c0-27.9,0.3-114.4,1-147.2c0.5-23.8,18.9-26.1,28.4-23.6
						c11.5,3,15.2,13.6,16.3,38.2c0.7,16.6,0.4,42.3,1.5,64.6c0.3,5.7,7.4,6,7.4-3.3c0-3.4,0.2-65.6-5.2-84.9
						c-5.6-20.1-20-21.4-20-21.4s-1.8-76.1-87.8-105c-5.9-2-9.7-5.3-11.7-9.1v1.5c0,1.8-1.6,3.2-3.5,3.2h-3.8
						c-1.9,0-3.5-1.4-3.5-3.2l0.1-2.8c-1.6,3.3-5.4,6.3-12.7,9c-89.6,31.9-88,104.2-88,104.2S222,67.4,217,87.5
						c-4.8,19.4-4.7,81-4.7,84.4c0,9.3,7.1,9,7.4,3.3c1.1-22.3,0.7-48,1.5-64.6c1.1-24.6,8.3-36.9,20-39.2
						c10.9-2.2,24.3,0.8,24.8,24.6c0.5,25.8-0.9,97-3.3,148.6L126.3,244.7L126.3,244.7z"/>
				</g>
			</g>
		</g>
	</g>
</g>
</svg>
