<?xml version="1.0" encoding="utf-8"?>
<!-- Generator: Adobe Illustrator 19.1.0, SVG Export Plug-In . SVG Version: 6.00 Build 0)  -->
<svg version="1.1" id="prospero" xmlns="http://www.w3.org/2000/svg" xmlns:xlink="http://www.w3.org/1999/xlink" x="0px" y="0px"
	 viewBox="22 -166.1 640 1172" style="enable-background:new 22 -166.1 640 1172;" xml:space="preserve">
<style type="text/css">
	.st0{fill:#ECE8E1;}
	.st1{fill:#B51915;}
	.st2{fill:#E30613;}
	.st3{fill:none;stroke:#B51C18;stroke-miterlimit:10;}
	.st4{fill:none;stroke:#B81917;stroke-width:1.222;stroke-miterlimit:3.8637;}
	.st5{fill:none;stroke:#BB1A18;stroke-width:1.222;stroke-miterlimit:3.8637;}
	.st6{fill:none;stroke:#E30613;stroke-miterlimit:3.8637;}
	.st7{fill:none;stroke:#E30613;stroke-width:1.222;stroke-miterlimit:3.8637;}
	.st8{fill:none;stroke:#BE1A1A;stroke-width:1.222;stroke-miterlimit:3.8637;}
</style>
<g id="Layer_10">
	<rect x="23" y="-166.1" class="st0" width="639" height="1172"/>
	<g>
		<path class="st1" d="M333.8,52.6c0-4.4,2.7-8.1,6.7-9.3v-209.4h5V43.1c5,1,7.7,4.9,7.7,9.5c0,5.4-4.3,9.7-9.7,9.7
			S333.8,57.9,333.8,52.6z"/>
		<path class="st1" d="M346.2-166.1l5.3,20.8c16.2,55.4,52.1,132.4,94.9,192c-37.2,83.6-35.9,176.9-35.9,176.9s5.4,4.8,14.8,0
			c2.5,0,5.2,0,5.2,0c11.9,7,23.9-0.1,23.9-0.1h5.1c11,8.4,23.8,0.2,23.8,0.2l5.2,0.1c10.9,9.9,23.7,0,23.7,0l5-0.1
			c3.4,3.4,9.4,4.5,15.4,1.2v-391H346.2z"/>
		<path class="st2" d="M151.8,223.5c0,0,8,5.5,17.5,0c0,0,3.8,0,5.1,0c7.6,3.5,15.5,3.5,23.8,0c0,0,3.5,0,5.1,0
			c8.7,9.1,23.9,0.1,23.9,0.1s3.1,0,5.1-0.1c12.5,7.9,23.9,0.1,23.9,0.1s2.9,0,5.1,0c6.7,5.4,14.8,0,14.8,0s1.2-93.3-36-176.9
			c43.7-60.8,80.4-138.5,96.2-194.2l4.6-18.6H151.8V223.5z"/>
		<line class="st3" x1="171.3" y1="-166.1" x2="171.3" y2="222.9"/>
		<g>
			<g>
				<path class="st4" d="M200.7,223.5"/>
				<path class="st4" d="M214.4-166.1"/>
			</g>
			<g>
				<path class="st5" d="M229.7,223.5"/>
				<path class="st5" d="M258.2-166.1"/>
			</g>
		</g>
		<path class="st1" d="M240.1,46.9h-88.3v19h95.9C245.4,59.9,242.9,52.9,240.1,46.9z"/>
		<path class="st1" d="M240.1,46.9h-88.3v19h95.9C245.4,59.9,242.9,52.9,240.1,46.9z"/>
		<g>
			<g>
				<line class="st6" x1="513.7" y1="-166.1" x2="513.7" y2="222.9"/>
				<path class="st7" d="M472-166.1c5,47.1,15.7,157.2,27.3,218.3c-9.2,55.3-13,142.4-13.6,171.3"/>
				<path class="st7" d="M428.2-166.1c9.2,56.5,31.5,158.8,55.8,216.2c-19.2,61-26.5,142-27.4,173.3"/>
				<path class="st7" d="M383.8-166.1c13,71.2,47.3,161.7,84.9,214C439,114.5,428.4,187,427.6,223.5"/>
			</g>
		</g>
		<path class="st2" d="M351.5-145.3c4.1,2.7,8.9,4.3,13.7,4.3c9.6,0,17.9-5.8,21.4-14.2c3.6,8.3,11.9,14.1,21.5,14.1s19.4-6,23-14.3
			c3.5,8.3,13,13.4,22.6,13.4c9.6,0,16.6-5.1,20.1-13.4c3.5,8.3,12.2,13.8,21.8,13.8h0.5c9.6,0,14.5-5.2,18.1-13.6
			c3,7,10.5,12.2,18.6,13.6v-24.5H346.2L351.5-145.3z"/>
		<path class="st4" d="M214.4-166.1c-5,47.1-15.7,157.2-27.3,218.3c9.2,55.3,12.9,142.3,13.6,171.3"/>
		<path class="st5" d="M258.2-166.1C249-109.6,226.8-7.3,202.4,50.1c19.2,61.1,26.5,142.3,27.4,173.5"/>
		<path class="st8" d="M302.5-166.1c-13,71.2-47.3,161.7-84.9,214c29.7,66.6,40.3,139.1,41.1,175.6"/>
		<path class="st1" d="M336.1-147.5l4.6-18.6H151.8v26.9c9-0.3,17-5.9,20.3-13.8c3.5,8.1,11.6,13.8,20.9,13.8
			c9.4,0,15.6-5.7,19-13.8c3.5,8.1,13.4,13.8,22.8,13.8s17.4-5.7,20.9-13.8c3.5,8.1,11.5,13.8,21.3,13.8c9.4,0,19.9-5.5,23.4-13.6
			c3.5,8.1,8.9,13.7,18.3,13.7h0.1C325.6-139.1,331.9-142.4,336.1-147.5l4.7-18.5"/>
		<g>
			<path class="st2" d="M446.1,46.4c0.1,0.1,0.1,0.1,0.2,0.2c-2.8,6.3-5.4,12.6-7.7,18.9h93.9V46.4h-86.2L446.1,46.4L446.1,46.4z"/>
		</g>
	</g>
</g>
</svg>
