<?xml version="1.0" encoding="utf-8"?>
<!-- Generator: Adobe Illustrator 19.1.0, SVG Export Plug-In . SVG Version: 6.00 Build 0)  -->
<svg version="1.1" id="game_theory" xmlns="http://www.w3.org/2000/svg" xmlns:xlink="http://www.w3.org/1999/xlink" x="0px"
	 y="0px" viewBox="0 0 2706 600" style="enable-background:new 0 0 2706 600;" xml:space="preserve">
<style type="text/css">
	.st0{fill:#5E9732;}
	.st1{fill:none;}
	.st2{fill:#FFFFFF;}
</style>
<g>
	<polygon class="st0" points="2706,600 0,600 0,0 2706,0 2706,600 	"/>
	<path class="st0" d="M1353,300"/>
</g>
<g>
	<path d="M2282.7,19.4c11.5,8.1,23,16.6,34.5,25.3C2305.7,35.9,2294.2,27.5,2282.7,19.4L2282.7,19.4z"/>
	<path d="M2378.8,52.3L2378.8,52.3c-4.1,0-8.2,0.1-12.3,0.1C2370.6,52.4,2374.7,52.3,2378.8,52.3z"/>
	<path d="M2224.4,62.5c-9.2,1.2-18.4,2.4-27.4,3.8C2206,64.9,2215.2,63.7,2224.4,62.5z"/>
	<path d="M2366.5,52.4c-8.3,0.1-16.6,0.3-25,0.6C2349.9,52.7,2358.2,52.5,2366.5,52.4z"/>
	<rect x="2367.8" y="0" class="st1" width="12.6" height="0"/>
	<rect x="2160.8" y="0" class="st1" width="12.3" height="0"/>
	<rect x="2527.9" y="0" class="st1" width="13.1" height="0"/>
	<rect x="1982.6" y="0" class="st1" width="13.1" height="0"/>
	<rect x="2232" y="0" class="st1" width="22.5" height="0"/>
	<rect x="2285.1" y="0" class="st1" width="17.8" height="0"/>
	<path d="M2239.1,46.5c-3.3,3.5-6.5,7-9.8,10.6C2232.6,53.6,2235.8,50,2239.1,46.5z"/>
	<path d="M1890.9,213.7c3.7,42,69.9,71.2,166.6,84.4c-43.6,85.7-57.1,155.6-25.1,182.5c13.6,11.4,33.4,13.4,57.6,7.4
		c0.5,1,1.1,2,1.7,3c12.1,19.2,37.5,25.1,56.7,13.1c17.3-10.7,23.7-32.2,16.2-50.4c13.8-8.5,28.1-18.4,42.7-29.4
		c29.8,92.6,70,152.5,111.9,148.8c42.3-3.7,71.6-70.8,84.7-168.6c87.3,45,158.7,59.3,185.9,26.9c10.1-12.1,12.8-29.1,9.1-49.7
		c14.9-8.2,24.1-24.7,22.2-42.7c-2.6-23.9-24-41.3-47.9-38.8c-2.9,0.3-5.7,0.9-8.4,1.7c-9.1-14.9-19.7-30.4-31.8-46.3
		c90.8-29.7,149.3-69.5,145.7-110.9c-3.7-41.7-69.1-70.9-164.9-84.2C2524.8,39.3,2534,19,2541,0h-13.1c-7.1,18.2-16.1,38-27,58.8
		c-33.6-4.1-70.5-6.3-109.6-6.5c-3.3-18-6.9-35.5-10.9-52.3h-12.6c4,16.7,7.7,34.1,11,52.3l0,0l0,0l0,0c-4.1,0-8.2,0.1-12.3,0.1
		c-8.3,0.1-16.6,0.3-25,0.6c-4.2,0.1-8.4,0.3-12.7,0.5c-3.8-3-7.7-6-11.5-8.9c-11.5-8.8-23.1-17.2-34.5-25.3l0,0l0,0l0,0
		c6.8-6.7,13.5-13.1,20.2-19.4h-17.8c-4.2,4-8.4,8.1-12.6,12.2c-6-4.2-12.1-8.2-18.1-12.2H2232c10.4,6.6,21,13.6,31.7,21
		c-8.2,8.3-16.4,16.8-24.6,25.5c-3.3,3.5-6.5,7-9.8,10.6c-1.6,1.8-3.3,3.6-4.9,5.4c-9.2,1.2-18.4,2.4-27.4,3.8
		c-4.5,0.7-9,1.4-13.5,2.1c-4.5,0.7-8.9,1.5-13.3,2.2c4.4-0.8,8.9-1.5,13.3-2.2c-4.5,0.7-8.9,1.5-13.3,2.2
		c0.2-24.7,1.2-48.3,2.9-70.6h-12.3c-1.8,23.1-2.8,47.5-2.9,72.7c-37,6.8-71.7,15-103.1,24.3c-27.8-36.2-48-69.4-59.2-97.1h-13.1
		c11.1,29.6,31.7,64.1,59.7,100.9C1948.2,130.8,1887.2,171.4,1890.9,213.7z M2116.2,498.9c-1.6-0.6-3.2-1.3-4.7-2.1
		c-4.6-2.5-8.6-6.2-11.5-10.9c-4.3-6.8-5.6-14.5-4.4-21.8c1.3,0.3,2.6,0.7,3.8,1.2c2.5,1,4.9,2.3,7,4c2.5,2,4.8,4.4,6.5,7.2
		c0.5,0.9,1,1.8,1.5,2.7c0.7,1.4,1.2,2.7,1.6,4.2c0.1,0.5,0.3,0.9,0.4,1.4c0.2,0.9,0.4,1.9,0.5,2.9c0.1,1,0.2,1.9,0.2,2.9
		c0,0.5,0,1,0,1.4C2117.2,494.2,2116.8,496.6,2116.2,498.9z M2139.8,497.9c-1.4,0.6-2.8,1.1-4.2,1.6c-2.8,0.8-5.8,1.2-8.7,1.3
		c-1.5,0-2.9-0.1-4.3-0.3l0,0l0,0c0.8-2.8,1.2-5.7,1.2-8.6c0-0.6,0-1.2,0-1.8c-0.2-5.9-1.9-11.8-5.3-17.1c-2.2-3.5-4.9-6.4-8-8.8
		c-2.6-2.1-5.5-3.7-8.6-4.9c-1.5-0.6-3.1-1.1-4.7-1.5l0,0l0,0c0.5-1.3,1.1-2.6,1.8-3.8c1-1.8,2.3-3.6,3.7-5.2c0.9-1.1,2-2.1,3.1-3.1
		c0.6-0.5,1.1-0.9,1.7-1.4L2139.8,497.9L2139.8,497.9L2139.8,497.9z M2156.3,479.8c-0.3,0.7-0.5,1.4-0.8,2.1c-0.9,2.1-2.1,4.1-3.4,6
		c-0.9,1.2-1.9,2.4-3,3.5s-2.3,2.2-3.6,3.1l-32.3-53.7c0.7-0.3,1.4-0.6,2.1-0.9c1.4-0.5,2.9-1,4.4-1.3c3-0.6,6-0.9,9-0.6
		c0.7,0.1,1.5,0.1,2.2,0.2l0,0l0,0c-0.5,2.2-0.8,4.4-0.9,6.6c0,0.6,0,1.1,0,1.7s0,1.1,0.1,1.7c0.1,1.1,0.2,2.3,0.4,3.4
		c0.2,1.1,0.4,2.2,0.7,3.4c0.4,1.7,1,3.3,1.7,4.9c0.5,1.1,1,2.1,1.6,3.2c0.3,0.5,0.6,1,0.9,1.6c2.8,4.4,6.4,8,10.6,10.7
		c0.9,0.6,1.9,1.1,2.8,1.6c1.5,0.7,3,1.4,4.5,1.9C2154.2,479.2,2155.3,479.5,2156.3,479.8L2156.3,479.8L2156.3,479.8z M2157.8,473.4
		c-0.9-0.2-1.7-0.5-2.5-0.8s-1.6-0.6-2.4-1c-0.8-0.4-1.6-0.8-2.3-1.2c-1.1-0.7-2.3-1.4-3.3-2.2c-2.5-1.9-4.6-4.3-6.4-7.1
		c-0.3-0.4-0.5-0.8-0.7-1.3c-0.5-0.8-0.9-1.7-1.3-2.6c-0.2-0.4-0.4-0.9-0.5-1.3c-0.3-0.9-0.6-1.8-0.8-2.7c-0.2-0.9-0.4-1.8-0.6-2.7
		c-0.2-1.4-0.3-2.7-0.3-4.1c0-2.3,0.2-4.5,0.8-6.7c0.8,0.3,1.6,0.6,2.4,1c1.6,0.7,3,1.5,4.5,2.5s2.8,2,4.1,3.2
		c1.9,1.8,3.6,3.9,5.1,6.2C2157.3,459.1,2158.7,466.4,2157.8,473.4z M2197.6,416.3c-3.9,2.9-7.7,5.7-11.6,8.4
		c-9.5,6.8-18.8,13-27.8,18.5c-4.9-5.9-11.1-10.2-18-12.6c-1.7-0.6-3.5-1.1-5.2-1.5c-0.6-0.1-1.2-0.2-1.8-0.3
		c-1.8-0.3-3.6-0.5-5.4-0.6c-5.5-0.2-11,0.7-16.3,2.7c-1.2,0.5-2.3,1-3.5,1.5c-1.1,0.6-2.3,1.2-3.4,1.9c-0.9,0.6-1.8,1.2-2.7,1.8
		c-0.9,0.6-1.7,1.3-2.5,2c-0.4,0.3-0.8,0.7-1.2,1c-1.1,1.1-2.2,2.2-3.2,3.3c-4,4.7-6.8,10.1-8.4,15.9c-0.3,1-0.5,1.9-0.7,2.9
		c-0.9,4.9-1,10-0.1,15c-2.5,0.6-4.9,1.1-7.3,1.5c-1.2,0.2-2.3,0.4-3.5,0.5c-4.6,0.6-8.9,0.8-12.9,0.6c-1-0.1-2-0.1-2.9-0.2
		c-2.9-0.3-5.6-0.9-8.1-1.7c-1.7-0.5-3.3-1.2-4.8-1.9c-2.3-1.1-4.4-2.5-6.3-4c-8.9-7.4-13.2-20-13.4-36.8c0-2.3,0-4.6,0.2-7.1
		c0.2-4.1,0.7-8.3,1.3-12.8c0.4-2.7,0.9-5.4,1.4-8.3c0.2-0.9,0.4-1.9,0.6-2.8c0.6-2.9,1.3-5.8,2-8.8c2.5-10,5.8-20.7,10-32
		c0.8-2.3,1.7-4.6,2.6-6.9c0.9-2.3,1.8-4.7,2.8-7c0.5-1.2,1-2.4,1.5-3.6c3-7.2,6.2-14.5,9.8-22.1s7.4-15.3,11.4-23.2
		c4.1,0.5,8.3,1,12.6,1.4c12.7,1.3,25.9,2.4,39.4,3.2c4.5,0.3,9.1,0.5,13.6,0.7s9.2,0.4,13.9,0.5c9.3,0.3,18.8,0.5,28.4,0.5
		c0.4,2.4,0.9,4.7,1.3,7.1c0.9,4.7,1.8,9.4,2.7,14c0.5,2.3,0.9,4.6,1.4,6.9c1,4.6,1.9,9.2,3,13.7c0.5,2.3,1,4.5,1.5,6.7
		c3.1,13.4,6.4,26.4,9.8,38.9c0.6,2.1,1.2,4.2,1.7,6.2c1.2,4.1,2.4,8.2,3.6,12.2C2201.5,413.4,2199.6,414.9,2197.6,416.3z
		 M2181.6,248.1c4.3,3.8,8.7,7.7,13.2,11.5c4.4,3.8,8.9,7.6,13.4,11.4c2.2,1.9,4.4,3.7,6.6,5.5c4.4,3.7,8.9,7.3,13.3,10.9
		c2.2,1.8,4.4,3.6,6.7,5.3c-3.9,0.2-7.9,0.3-11.8,0.4c-11.7,0.4-23.2,0.6-34.5,0.6c-1.3-7.4-2.5-14.9-3.7-22.6
		C2183.7,263.7,2182.6,256,2181.6,248.1L2181.6,248.1L2181.6,248.1z M2210.7,392.6c-1.1-3.8-2.1-7.6-3.1-11.5
		c-1.5-5.8-3.1-11.8-4.5-17.8c-1.5-6-2.9-12.2-4.3-18.5c-2.8-12.5-5.4-25.4-7.9-38.8l0,0l0,0c19.2-0.1,38.9-0.6,58.8-1.7
		c6.9,5.4,13.9,10.6,20.8,15.7s13.8,10.1,20.7,15l0,0l0,0c-8.3,8.2-16.5,16-24.7,23.6c-1.6,1.5-3.3,3-4.9,4.5
		c-3.3,3-6.5,5.9-9.7,8.8c-3.2,2.9-6.4,5.7-9.6,8.4c-1.6,1.4-3.2,2.7-4.8,4.1c-3.2,2.7-6.3,5.4-9.5,8c-4.7,3.9-9.4,7.7-14,11.4
		C2212.8,400.1,2211.7,396.4,2210.7,392.6z M2268.4,303.3c4.5-0.3,9-0.6,13.5-1c4.5-0.3,9-0.7,13.6-1.1c5.3-0.5,10.6-1,15.9-1.5
		s10.5-1.1,15.8-1.7c-4.5,4.9-9.1,9.7-13.6,14.4s-9.1,9.3-13.6,13.9c-5.2-3.7-10.5-7.4-15.7-11.3S2273.7,307.3,2268.4,303.3z
		 M2318.2,560.9c-3.7,0.3-7.4-0.1-11.2-1.1c-1.1-0.3-2.2-0.7-3.2-1.1c-1.1-0.4-2.2-0.9-3.3-1.4c-0.5-0.3-1.1-0.5-1.6-0.8
		c-2.7-1.4-5.4-3.2-8.2-5.3c-1.6-1.2-3.3-2.6-4.9-4.1c-6.6-5.9-13.1-13.6-19.6-23c-1.6-2.3-3.2-4.8-4.8-7.3
		c-0.5-0.9-1.1-1.7-1.6-2.6c-4.8-7.9-9.6-16.6-14.2-26.2c-1-2.1-2.1-4.3-3.1-6.5c-1-2.2-2-4.5-3.1-6.8c-1-2.3-2-4.6-3-7
		c-1.5-3.6-3-7.2-4.5-11c-1-2.5-2-5-2.9-7.6s-1.9-5.2-2.9-7.8s-1.9-5.3-2.8-8.1c-1.9-5.4-3.7-11-5.5-16.8
		c27.1-21.2,55.3-46.1,83.6-74.1c31.2,21.6,61.9,40.5,91,56.2C2380,495.4,2352.3,557.9,2318.2,560.9z M2399.1,307.3
		c-0.1,4.3-0.2,8.5-0.4,12.7c-0.3,8.4-0.7,16.6-1.2,24.6c-0.3,4-0.5,8-0.8,12c-0.3,3.9-0.6,7.8-1,11.7c-0.5,5.8-1.1,11.5-1.7,17
		c-1.7-0.9-3.3-1.8-5-2.7c-6.7-3.7-13.5-7.6-20.3-11.7c-5.2-3-10.4-6.2-15.6-9.4c-14-8.7-28.3-18-42.9-28c3-3,6-6.1,8.9-9.1
		c8.9-9.2,17.9-18.7,26.8-28.5c9.1-1.2,18.2-2.4,27.1-3.7c8.9-1.3,17.8-2.7,26.5-4.2C2399.4,294.4,2399.3,300.9,2399.1,307.3z
		 M2399.5,275.4c-6.7,1.2-13.4,2.3-20.2,3.3c-6.8,1.1-13.8,2.1-20.8,3c5.5-6.2,11-12.6,16.4-19c1.8-2.1,3.6-4.3,5.4-6.4
		c3.1-3.7,6.2-7.4,9.2-11.1c3-3.7,6.1-7.4,9-11.1c0.4,10.5,0.6,20.9,0.8,31.2C2399.4,268.7,2399.5,272,2399.5,275.4L2399.5,275.4
		L2399.5,275.4z M2403.2,132.7L2403.2,132.7L2403.2,132.7c2.8,2.6,5.7,5.2,8.5,7.9c8.4,7.9,16.5,15.7,24.3,23.5l0,0l0,0
		c-4.2,6-8.6,12.1-13,18.2c-4.5,6.1-9,12.2-13.7,18.4c-0.7-10.6-1.5-21.3-2.4-32.1c-0.8-9-1.7-18-2.6-26.9
		C2403.9,138.6,2403.5,135.7,2403.2,132.7z M2436.5,184.5c2.8-3.9,5.6-7.7,8.3-11.6c4.8,4.9,9.6,9.8,14.2,14.7
		c3.1,3.2,6.1,6.5,9.1,9.7c1.5,1.6,3,3.2,4.4,4.8c2.9,3.2,5.8,6.4,8.6,9.6c2.8,3.2,5.6,6.4,8.3,9.5c5.5,6.3,10.7,12.6,15.8,18.7
		c2.5,3.1,5,6.2,7.4,9.2c-3.8,1.1-7.6,2.3-11.5,3.4c-3.9,1.1-7.8,2.2-11.8,3.3c-2,0.5-4,1.1-6,1.6c-4.1,1.1-8.2,2.1-12.3,3.1
		c-2.1,0.5-4.2,1-6.3,1.5c-4.2,1-8.5,2-12.8,3c-12.9,2.9-26.3,5.6-40.1,8.2c-0.1-17.6-0.6-35.6-1.4-53.9c6-7.8,11.9-15.5,17.7-23.3
		C2430.9,192.2,2433.7,188.4,2436.5,184.5z M2602.6,367.4c-1,1.1-2.1,2-3.3,3c-1.2,0.9-2.4,1.8-3.7,2.5c-1.3,0.8-2.6,1.4-4,2
		c-0.7,0.3-1.4,0.6-2.1,0.8l-1.2-0.7l-1.2-0.7l-3.5-2.2l-0.5-4.9l-0.6-6.1l-0.3-2l0,0l0,0l8.6-7.5l11.1,3.8l0.7,3.3l1.4,7.1
		C2603.6,366.4,2603.1,366.9,2602.6,367.4z M2600.4,323.4l5.7,0.1c1.7,2.3,3,4.9,4.1,7.6c0.5,1.4,1,2.8,1.3,4.2
		c0.4,1.4,0.6,2.9,0.8,4.5c0.1,1.3,0.2,2.7,0.2,4l-4.2,2.5l-2.4,1.3l-2.4,1.3l-10.3-3.5l-4.7-11.1l7.2-10.8L2600.4,323.4z
		 M2560.8,313.6c1-0.6,2.1-1.1,3.1-1.6c3.2-1.5,6.8-2.4,10.5-2.8c2.8-0.3,5.5-0.2,8.1,0.1c1.1,0.1,2.1,0.3,3.1,0.6
		c0.5,0.1,1,0.2,1.5,0.4l3.2,9l-3.5,5.2l-3.5,5.4l-12.9,1.1l-9.4-8.4l-0.2-4.9L2560.8,313.6L2560.8,313.6L2560.8,313.6z
		 M2576.8,372.6l-3.4,3l-1.7,1.4c-0.8-0.2-1.6-0.3-2.4-0.5c-1.6-0.4-3.1-0.9-4.5-1.6c-0.7-0.3-1.5-0.6-2.2-1c-1-0.5-1.9-1-2.8-1.6
		c-1.8-1.1-3.5-2.4-5-3.8l0.6-4.9l0.2-4.1l9.7-5.7l10.3,6.2l0.6,6.3L2576.8,372.6L2576.8,372.6L2576.8,372.6z M2565.1,335.4
		l-2.8,12.2l-9.9,5.8l-3.4-1.9l-4.7-2.4c-0.1-0.4-0.1-0.8-0.2-1.2s-0.1-0.8-0.2-1.2c-0.1-0.7-0.1-1.4-0.2-2
		c-0.2-3.4,0.2-6.6,0.9-9.8c0.3-1.2,0.7-2.5,1.1-3.7l7.1-2.5l3.5-1.2L2565.1,335.4z M2553.7,307.2L2553.7,307.2L2553.7,307.2
		c-4.1,2.7-7.6,6.1-10.6,10c-1.8,2.3-3.3,4.8-4.5,7.5c-0.8,1.8-1.6,3.6-2.2,5.4c-0.3,0.9-0.6,1.9-0.8,2.8c-0.7,2.9-1.1,5.9-1.2,8.9
		c-0.1,2,0,4.1,0.2,6.2c0.6,5.2,2,10.1,4.2,14.6c0.6,1.3,1.3,2.5,2.1,3.7c0.4,0.6,0.8,1.2,1.2,1.8c1.2,1.7,2.5,3.4,3.9,4.9
		c0.9,1,1.9,2,3,2.9c2.6,2.3,5.5,4.3,8.6,6c1.2,0.7,2.5,1.3,3.8,1.8s2.6,1,4,1.4c1.4,0.4,2.7,0.8,4.1,1c4.2,0.8,8.6,1.1,13.1,0.6
		c1.7-0.2,3.3-0.4,4.9-0.8c0.3,2,0.6,4,0.7,5.9c0.6,6.6,0.3,12.7-1,18c-0.7,3-1.8,5.8-3.1,8.4c-1,1.9-2.2,3.7-3.6,5.3
		c-8.2,9.8-22.8,14.1-42.3,13.3c-0.8,0-1.6-0.1-2.5-0.1c-6.6-0.4-13.8-1.4-21.5-3c-2.9-0.6-5.8-1.2-8.8-2c-5-1.2-10.2-2.7-15.6-4.3
		c-5.4-1.7-10.9-3.5-16.7-5.6c-1.1-0.4-2.3-0.8-3.5-1.3c-2.3-0.9-4.7-1.8-7-2.7s-4.8-1.9-7.2-2.9c-3.6-1.5-7.3-3.1-11-4.7
		c-2.5-1.1-5-2.2-7.5-3.4c-10.1-4.6-20.6-9.8-31.4-15.4l0,0l0,0c0.7-6.1,1.4-12.3,1.9-18.6c1-10.5,1.8-21.3,2.4-32.4
		c0.4-6.6,0.7-13.4,1-20.2c0.3-6.8,0.4-13.7,0.6-20.6c0.1-4.6,0.1-9.3,0.2-14c24.6-4.5,48.1-9.6,70.4-15.3
		c6.7-1.7,13.2-3.5,19.7-5.3c6.4-1.8,12.7-3.7,18.9-5.6c2.5,3.3,4.9,6.5,7.3,9.7c1.3,1.7,2.5,3.4,3.8,5.1
		C2539.9,285.7,2547.2,296.7,2553.7,307.2z M2507.8,72.1c32.6,4.3,61.2,10.4,84.8,17.9c2.1,0.7,4.3,1.4,6.3,2.1
		c1,0.4,2.1,0.7,3.1,1.1c2,0.7,4,1.4,5.9,2.2c4.8,1.8,9.4,3.8,13.7,5.7c2.6,1.2,5.1,2.4,7.4,3.6c4.7,2.5,9.1,5,13,7.6
		c1.9,1.3,3.8,2.7,5.5,4c3.5,2.7,6.5,5.5,9,8.4c1.3,1.4,2.4,2.9,3.5,4.3c0.7,1,1.3,2,1.9,3c0.9,1.5,1.6,3,2.3,4.5
		c0.4,1,0.8,2,1.1,3.1c0.6,2.1,1,4.1,1.2,6.2c0.3,3.1,0,6.3-0.7,9.5c-0.4,1.6-0.8,3.2-1.4,4.8c-0.4,1.1-0.9,2.1-1.4,3.2
		s-1.1,2.1-1.7,3.2c-0.6,1.1-1.3,2.2-2,3.2c-1.8,2.7-3.9,5.4-6.3,8.1c-1.4,1.6-3,3.2-4.7,4.9c-1.7,1.6-3.4,3.2-5.3,4.9
		c-2.5,2.2-5.2,4.3-8.1,6.5c-1.4,1.1-2.9,2.1-4.5,3.2s-3.1,2.1-4.7,3.2c-1.6,1.1-3.3,2.1-5,3.2c-1.7,1.1-3.5,2.1-5.3,3.2
		c-3.6,2.1-7.4,4.2-11.3,6.3c-2,1-4,2.1-6,3.1c-1,0.5-2.1,1-3.1,1.5c-2.1,1-4.2,2-6.4,3.1c-18.5,8.6-39.8,16.9-63.7,24.5
		c-1.3-1.7-2.6-3.4-4-5c-2.7-3.4-5.4-6.7-8.2-10.1c-1.4-1.7-2.8-3.4-4.2-5.1c-4.3-5.1-8.7-10.2-13.2-15.4c-3-3.4-6.1-6.9-9.2-10.4
		c-10.9-12.1-22.4-24.3-34.5-36.5c2.7-3.9,5.3-7.8,7.9-11.6c6.5-9.7,12.7-19.3,18.7-28.8c2.4-3.8,4.7-7.6,7-11.4
		C2493.5,97.7,2501,84.8,2507.8,72.1z M2420.3,65.1c4.4,0.1,8.8,0.3,13.1,0.5c6.5,0.3,12.8,0.6,19.1,1.1c6.3,0.4,12.4,0.9,18.5,1.4
		c8.1,0.7,16,1.5,23.7,2.4l0,0l0,0c-2.7,4.9-5.5,10-8.4,15c-1.9,3.4-3.9,6.8-5.9,10.2c-2,3.4-4.1,6.9-6.2,10.3
		c-2.1,3.5-4.3,6.9-6.5,10.5c-6.6,10.5-13.6,21.2-20.9,32c-1.2,1.8-2.5,3.6-3.7,5.4c-6.7-6.7-13.6-13.3-20.6-20
		c-3.5-3.3-7.1-6.6-10.7-10c-3.6-3.3-7.2-6.6-10.9-9.9c-1.6-12.6-3.5-25.1-5.4-37.3c-0.7-4.1-1.3-8.1-2-12.2
		C2402.6,64.6,2411.5,64.8,2420.3,65.1z M2362.5,64.7c6.2-0.1,12.4-0.2,18.6-0.2c0.5,3,1,6,1.5,9.1c1.5,9.1,2.9,18.5,4.3,27.9l0,0
		l0,0c-3.5-3-7-6.1-10.5-9.1c-3.5-3-7.1-6-10.7-9c-1.8-1.5-3.7-3.1-5.5-4.6c-5.5-4.6-11.1-9.1-16.6-13.6
		C2349.9,65,2356.2,64.9,2362.5,64.7z M2243.1,60.3c5.2-5.6,10.3-11.1,15.4-16.4s10.3-10.6,15.4-15.7c5.9,4.2,11.9,8.5,17.9,12.9
		c6,4.4,12.1,8.9,18.1,13.5l0,0l0,0c-8.9,0.5-17.8,1.2-26.8,1.9c-3,0.2-6,0.5-9,0.8c-5.2,0.5-10.4,0.9-15.6,1.5
		C2253.4,59.2,2248.2,59.7,2243.1,60.3L2243.1,60.3L2243.1,60.3z M2230.5,74.1c14.6-1.8,29.5-3.4,44.7-4.7c4.2-0.4,8.4-0.7,12.6-1
		c8.3-0.7,16.6-1.2,24.8-1.7c4.1-0.2,8.2-0.5,12.2-0.7c10.9,8.6,21.9,17.5,33,26.8c8.1,6.8,16.1,13.7,23.8,20.5
		c2.6,2.3,5.2,4.6,7.7,6.8c0.5,4,1,8.1,1.5,12.2c1.4,12.2,2.7,24.7,3.8,37.3c0.3,3.9,0.7,7.8,1,11.6c0.9,11.6,1.7,23,2.2,34.2l0,0
		l0,0c-6.5,8.2-13.1,16.5-19.9,24.8c-2.3,2.8-4.6,5.5-6.9,8.3c-2.6,3.1-5.2,6.1-7.8,9.2c-7.8,9.1-15.6,18-23.3,26.6
		c-14.8,1.8-30,3.4-45.4,4.8c-13.8,1.2-27.5,2.2-40.9,2.9c-10.9-8.4-21.8-17.3-32.7-26.4c-1.6-1.3-3.1-2.6-4.7-3.9
		c-3.2-2.7-6.3-5.3-9.5-8c-9.4-8-18.5-16.1-27.4-24.1c-0.4-3.3-0.8-6.7-1.2-10c-0.7-6.7-1.4-13.5-2.1-20.4
		c-0.3-3.4-0.6-6.9-0.9-10.3c-1.3-15.1-2.4-30-3.1-44.6c4.8-6.2,9.8-12.4,14.8-18.6c5-6.2,10.2-12.5,15.4-18.7
		c4.7-5.6,9.4-11.2,14.2-16.6S2225.8,79.4,2230.5,74.1z M2170.2,83c3.4-0.6,6.8-1.2,10.2-1.7c3.4-0.6,6.9-1.1,10.4-1.7
		c7-1.1,14-2.1,21.2-3.1l0,0l0,0c-3.2,3.7-6.4,7.4-9.6,11.1c-3.2,3.7-6.4,7.5-9.6,11.3c-3.7,4.4-7.4,8.8-11,13.2s-7.2,8.8-10.7,13.3
		c-0.4-10.8-0.7-21.5-0.8-32C2170.2,89.9,2170.2,86.4,2170.2,83L2170.2,83L2170.2,83z M2169.5,250.4c2,14.7,4.2,29.2,6.6,43.4
		c-2.2,0-4.5,0-6.7-0.1c-6.7-0.1-13.2-0.2-19.7-0.5c-4.3-0.1-8.6-0.3-12.8-0.5c-4.2-0.2-8.4-0.4-12.6-0.6s-8.3-0.5-12.3-0.8
		c-8.1-0.6-16.1-1.3-23.9-2c-3.9-0.4-7.7-0.8-11.5-1.2c1.9-3.5,3.8-6.9,5.7-10.5c2.9-5.3,6-10.6,9.2-16c2.1-3.6,4.3-7.2,6.5-10.8
		c4.4-7.3,9-14.7,13.8-22.1c4.8-7.5,9.8-15,15-22.6c1.3-1.9,2.6-3.8,3.9-5.7c3,2.9,6,5.9,9,8.8c6,5.9,12.2,11.7,18.5,17.6
		c3.1,2.9,6.3,5.8,9.5,8.8C2168.2,240.5,2168.9,245.5,2169.5,250.4z M2161.5,174.4c0.4,5.1,0.8,10.3,1.3,15.4
		c0.8,9.1,1.7,18.1,2.6,27c-4.8-4.5-9.5-8.9-14.1-13.4s-9.2-8.9-13.6-13.3c3.6-5.1,7.3-10.3,11.1-15.5c1.9-2.6,3.8-5.2,5.7-7.8
		c1.9-2.6,3.9-5.2,5.9-7.8C2160.8,164.2,2161.2,169.3,2161.5,174.4z M2073.9,104.3c9.2-2.6,18.7-5,28.5-7.4
		c5.9-1.4,11.9-2.8,17.9-4.2c12.1-2.7,24.7-5.2,37.6-7.6c0,4.5,0.1,9,0.1,13.6c0.1,4.5,0.2,9.1,0.3,13.7c0.2,9.2,0.6,18.5,1.1,27.8
		l0,0l0,0c-1.3,1.7-2.6,3.4-3.9,5.2c-9.2,12-18,24-26.5,36c-4.7-4.8-9.3-9.5-13.7-14.2c-6-6.3-11.8-12.5-17.4-18.7
		c-4.2-4.7-8.3-9.3-12.3-13.9c-4-4.6-7.9-9.2-11.6-13.7c-2.5-3-5-6-7.4-9c-1.2-1.5-2.4-3-3.6-4.5
		C2066.6,106.4,2070.2,105.4,2073.9,104.3z M2058.2,121.1c2.7,3.3,5.4,6.6,8.2,9.9c2.8,3.3,5.6,6.6,8.5,10c2.9,3.3,5.8,6.7,8.8,10
		c4.5,5,9.1,10.1,13.8,15.2c3.1,3.4,6.3,6.8,9.5,10.2c4.8,5.1,9.8,10.2,14.8,15.3l0,0l0,0c-4.2,6.1-8.4,12.2-12.4,18.3
		c-4,6.1-7.9,12.1-11.7,18.1c-2.5,4-5,8-7.5,12c-9.7,15.9-18.7,31.4-26.7,46.6c-52.4-6.9-94.6-18.2-122.5-32.6
		c-2.4-1.2-4.7-2.5-6.9-3.8c-2.9-1.7-5.6-3.4-8.2-5.2c-1.3-0.9-2.5-1.8-3.6-2.7c-1.7-1.4-3.4-2.7-4.9-4.1c-5.6-5.1-9.6-10.5-12-16.1
		c-1.3-3.1-2.1-6.2-2.4-9.3c-0.1-1.1-0.1-2.1-0.1-3.2c0.1-6.4,2.4-13,6.5-19.6c0.7-1.1,1.4-2.2,2.2-3.3c0.4-0.6,0.8-1.1,1.2-1.7
		c1.3-1.7,2.7-3.3,4.2-5c0.5-0.6,1-1.1,1.5-1.7c1.6-1.7,3.3-3.3,5.1-5c1.2-1.1,2.5-2.2,3.8-3.3c2-1.7,4-3.3,6.2-4.9
		c2.9-2.2,6-4.4,9.3-6.6c1.6-1.1,3.3-2.2,5.1-3.3c2.6-1.6,5.3-3.2,8.1-4.8c0.9-0.5,1.9-1.1,2.8-1.6c2.9-1.6,5.8-3.2,8.9-4.8
		s6.2-3.2,9.5-4.7s6.6-3.1,10.1-4.6c1.2-0.5,2.3-1,3.5-1.5c2.3-1,4.7-2,7.2-3c2.4-1,4.9-2,7.4-3c3.8-1.5,7.6-3,11.5-4.4
		c1.3-0.5,2.6-1,4-1.5c2.7-1,5.4-1.9,8.1-2.9c6.8-2.4,13.9-4.7,21.2-7C2052.9,114.5,2055.5,117.8,2058.2,121.1z"/>
	<path d="M2368.7,370.9c-5.2-3-10.4-6.2-15.6-9.4C2358.3,364.7,2363.5,367.9,2368.7,370.9z"/>
	<path d="M2389.6,245.2c-3,3.7-6.1,7.4-9.2,11.1c-1.8,2.2-3.6,4.3-5.4,6.4c1.8-2.1,3.6-4.3,5.4-6.4
		C2383.5,252.7,2386.6,249,2389.6,245.2z"/>
	<path d="M2399.5,275.4L2399.5,275.4c-6.7,1.2-13.4,2.3-20.2,3.3C2386.1,277.7,2392.8,276.6,2399.5,275.4z"/>
	<path d="M2494.7,70.5L2494.7,70.5c-2.7,4.9-5.5,10-8.4,15C2489.2,80.4,2492,75.4,2494.7,70.5z"/>
	<path d="M2486.3,85.5c-1.9,3.4-3.9,6.8-5.9,10.2C2482.4,92.2,2484.4,88.8,2486.3,85.5z"/>
	<path d="M2422.5,133.9c7,6.6,13.9,13.3,20.6,20c1.2-1.8,2.5-3.6,3.7-5.4c-1.2,1.8-2.5,3.6-3.7,5.4
		C2436.4,147.2,2429.5,140.6,2422.5,133.9z"/>
	<path d="M2395.5,76.7c2,12.2,3.8,24.7,5.4,37.3c3.7,3.3,7.3,6.6,10.9,9.9c-3.6-3.3-7.2-6.6-10.9-9.9
		C2399.3,101.4,2397.5,89,2395.5,76.7z"/>
	<path d="M2422.5,133.9c-3.5-3.3-7.1-6.6-10.7-10C2415.4,127.3,2418.9,130.6,2422.5,133.9z"/>
	<path d="M2403.2,132.7L2403.2,132.7c2.8,2.6,5.7,5.2,8.5,7.9C2408.9,138,2406,135.4,2403.2,132.7z"/>
	<path d="M2436,164.1c-7.9-7.8-16-15.6-24.3-23.5C2420,148.5,2428.2,156.3,2436,164.1L2436,164.1z"/>
	<path d="M2565.3,385.2c1.4,0.4,2.7,0.8,4.1,1C2568,385.9,2566.7,385.6,2565.3,385.2z"/>
	<path d="M2557.5,382c1.2,0.7,2.5,1.3,3.8,1.8C2560,383.2,2558.8,382.6,2557.5,382z"/>
	<path d="M2561.3,383.8c1.3,0.5,2.6,1,4,1.4C2563.9,384.8,2562.6,384.3,2561.3,383.8z"/>
	<path d="M2542,368.1c1.2,1.7,2.5,3.4,3.9,4.9C2544.5,371.5,2543.2,369.9,2542,368.1z"/>
	<path d="M2538.8,362.7c0.6,1.3,1.3,2.5,2.1,3.7C2540.1,365.2,2539.4,363.9,2538.8,362.7z"/>
	<path d="M2405.6,391.5L2405.6,391.5c0.7-6.1,1.4-12.3,1.9-18.6C2407,379.2,2406.3,385.4,2405.6,391.5z"/>
	<path d="M2588.2,391.9c-0.2-1.9-0.4-3.9-0.7-5.9c-1.6,0.4-3.3,0.6-4.9,0.8c1.7-0.2,3.3-0.4,4.9-0.8
		C2587.8,388,2588,390,2588.2,391.9z"/>
	<path d="M2528,269.3c1.3,1.7,2.5,3.4,3.8,5.1C2530.5,272.7,2529.2,271,2528,269.3z"/>
	<path d="M2543.1,317.2c2.9-3.9,6.5-7.2,10.6-10l0,0C2549.6,310,2546.1,313.3,2543.1,317.2z"/>
	<path d="M2548.9,376c-1-0.9-2-1.9-3-2.9C2546.9,374.1,2547.9,375.1,2548.9,376z"/>
	<path d="M2482.1,270.4c6.7-1.7,13.2-3.5,19.7-5.3C2495.3,266.9,2488.8,268.7,2482.1,270.4z"/>
	<path d="M2464.6,262.1c-4.2,1-8.5,2-12.8,3C2456.1,264.1,2460.4,263.1,2464.6,262.1z"/>
	<path d="M2458.9,187.6c3.1,3.2,6.1,6.5,9.1,9.7C2465.1,194.1,2462,190.8,2458.9,187.6z"/>
	<path d="M2483.2,257.4c-4.1,1.1-8.2,2.1-12.3,3.1C2475.1,259.5,2479.2,258.5,2483.2,257.4z"/>
	<path d="M2501.1,252.5c-3.9,1.1-7.8,2.2-11.8,3.3C2493.3,254.7,2497.2,253.7,2501.1,252.5z"/>
	<path d="M2458.9,187.6c-4.6-4.9-9.3-9.8-14.2-14.7c-2.7,3.9-5.5,7.7-8.3,11.6c2.8-3.9,5.6-7.7,8.3-11.6
		C2449.6,177.8,2454.3,182.7,2458.9,187.6z"/>
	<path d="M2363.2,257.6c2.6-3,5.2-6.1,7.8-9.2c2.3-2.8,4.6-5.5,6.9-8.3c-2.3,2.8-4.6,5.5-6.9,8.3
		C2368.4,251.5,2365.8,254.6,2363.2,257.6z"/>
	<path d="M2206.6,253.6c3.1,2.7,6.3,5.3,9.5,8c1.6,1.3,3.1,2.6,4.7,3.9c-1.6-1.3-3.1-2.6-4.7-3.9
		C2212.9,259,2209.8,256.3,2206.6,253.6z"/>
	<path d="M2397.8,215.4c-0.6-11.2-1.3-22.7-2.2-34.2C2396.5,192.8,2397.2,204.2,2397.8,215.4L2397.8,215.4z"/>
	<path d="M2287.8,68.4c8.3-0.7,16.6-1.2,24.8-1.7C2304.4,67.2,2296.1,67.7,2287.8,68.4z"/>
	<path d="M2030.4,403.4c0.6-2.9,1.3-5.8,2-8.8C2031.7,397.6,2031,400.5,2030.4,403.4z"/>
	<path d="M2086.1,476.4c-2.5,0.6-4.9,1.1-7.3,1.5C2081.1,477.5,2083.6,477,2086.1,476.4z"/>
	<path d="M2059.5,478.8c-2.9-0.3-5.6-0.9-8.1-1.7C2053.9,477.9,2056.6,478.4,2059.5,478.8z"/>
	<path d="M2026.9,434.4c0-2.3,0-4.6,0.2-7.1C2026.9,429.7,2026.9,432.1,2026.9,434.4z"/>
	<path d="M2028.4,414.5c0.4-2.7,0.9-5.4,1.4-8.3C2029.3,409,2028.8,411.8,2028.4,414.5z"/>
	<path d="M2102,436.2c-0.9,0.6-1.7,1.3-2.5,2C2100.4,437.5,2101.2,436.9,2102,436.2z"/>
	<path d="M2140.3,430.6c-1.7-0.6-3.5-1.1-5.2-1.5C2136.9,429.5,2138.6,430,2140.3,430.6z"/>
	<path d="M2197.6,416.3c-3.9,2.9-7.7,5.7-11.6,8.4C2189.9,422,2193.7,419.2,2197.6,416.3z"/>
	<path d="M2111.6,431c-1.2,0.5-2.3,1-3.5,1.5C2109.2,432,2110.4,431.5,2111.6,431z"/>
	<path d="M2062.4,479c4,0.2,8.3,0,12.9-0.6C2070.7,479,2066.4,479.2,2062.4,479z"/>
	<path d="M2133.3,428.8c-1.8-0.3-3.6-0.5-5.4-0.6C2129.7,428.3,2131.5,428.5,2133.3,428.8z"/>
	<path d="M2095.2,442.6c1-1.2,2.1-2.3,3.2-3.3C2097.3,440.3,2096.2,441.4,2095.2,442.6z"/>
	<path d="M2261.6,363.2c-3.3,3-6.5,5.9-9.7,8.8C2255.1,369.1,2258.3,366.2,2261.6,363.2z"/>
	<path d="M2190.8,306.1L2190.8,306.1c19.2-0.1,38.9-0.6,58.8-1.7C2229.6,305.5,2210,306,2190.8,306.1z"/>
	<path d="M2251.9,372c-3.2,2.9-6.4,5.7-9.6,8.4C2245.4,377.6,2248.6,374.8,2251.9,372z"/>
	<path d="M2237.4,384.5c-3.2,2.7-6.3,5.4-9.5,8C2231.1,389.9,2234.2,387.2,2237.4,384.5z"/>
	<path d="M2291.2,335.1L2291.2,335.1c-8.3,8.2-16.5,16-24.7,23.6C2274.6,351.2,2282.9,343.3,2291.2,335.1z"/>
	<path d="M2258.5,58.6c-5.2,0.5-10.3,1.1-15.5,1.6l0,0C2248.2,59.7,2253.4,59.2,2258.5,58.6z"/>
	<path d="M2310,54.5L2310,54.5c-8.9,0.5-17.8,1.2-26.8,1.9C2292.1,55.7,2301.1,55.1,2310,54.5z"/>
	<path d="M2343.5,65.2c5.5,4.4,11.1,9,16.6,13.6C2354.6,74.2,2349.1,69.7,2343.5,65.2z"/>
	<path d="M2386.8,101.5c-1.3-9.5-2.8-18.8-4.3-27.9C2384.1,82.8,2385.5,92.1,2386.8,101.5L2386.8,101.5z"/>
	<path d="M2311.4,299.7c-5.3,0.5-10.6,1-15.9,1.5c-4.5,0.4-9.1,0.8-13.6,1.1c4.5-0.3,9-0.7,13.6-1.1
		C2300.8,300.7,2306.1,300.2,2311.4,299.7z"/>
	<path d="M2184.9,271.3c-1.2-7.6-2.3-15.4-3.3-23.2l0,0C2182.6,256,2183.7,263.7,2184.9,271.3z"/>
	<path d="M2214.8,276.6c4.4,3.7,8.9,7.3,13.3,10.9C2223.7,283.9,2219.3,280.3,2214.8,276.6z"/>
	<path d="M2214.8,276.6c-2.2-1.8-4.4-3.7-6.6-5.5c-4.5-3.8-9-7.6-13.4-11.4c4.4,3.8,8.9,7.6,13.4,11.4
		C2210.4,272.9,2212.6,274.8,2214.8,276.6z"/>
	<path d="M2102.4,97c5.9-1.4,11.9-2.8,17.9-4.2C2114.3,94.1,2108.3,95.5,2102.4,97z"/>
	<path d="M2063,107.5c3.6-1,7.2-2.1,10.9-3.1C2070.2,105.4,2066.6,106.4,2063,107.5z"/>
	<path d="M2097.9,148.5c-4.2-4.7-8.3-9.3-12.3-13.9C2089.6,139.2,2093.7,143.8,2097.9,148.5z"/>
	<path d="M2159.4,140.3L2159.4,140.3c-1.3,1.7-2.6,3.4-3.9,5.2C2156.8,143.7,2158.1,142,2159.4,140.3z"/>
	<path d="M2074,120.9c-2.5-3-5-6-7.4-9C2069,114.9,2071.4,117.9,2074,120.9z"/>
	<path d="M2158.1,98.7c-0.1-4.5-0.1-9.1-0.1-13.6c-12.9,2.4-25.4,4.9-37.6,7.6c12.1-2.7,24.7-5.2,37.6-7.6
		C2157.9,89.7,2158,94.2,2158.1,98.7z"/>
	<path d="M2124.3,292.2c-4.2-0.2-8.3-0.5-12.3-0.8C2116,291.7,2120.2,291.9,2124.3,292.2z"/>
	<path d="M2149.8,293.3c-4.3-0.1-8.6-0.3-12.8-0.5C2141.2,293,2145.4,293.2,2149.8,293.3z"/>
	<path d="M2136.9,292.8c-4.2-0.2-8.4-0.4-12.6-0.6C2128.5,292.4,2132.7,292.6,2136.9,292.8z"/>
	<path d="M2169.5,293.8c-6.7-0.1-13.2-0.2-19.7-0.5C2156.2,293.5,2162.8,293.7,2169.5,293.8z"/>
	<path d="M2088.1,289.3c-3.9-0.4-7.7-0.8-11.5-1.2C2080.4,288.6,2084.2,289,2088.1,289.3z"/>
	<path d="M2167.6,235.6c0.6,5,1.2,9.9,1.9,14.8C2168.9,245.5,2168.2,240.5,2167.6,235.6c-3.2-2.9-6.4-5.8-9.5-8.8
		C2161.2,229.7,2164.4,232.6,2167.6,235.6z"/>
	<path d="M2139.6,209.2c-3-2.9-6-5.9-9-8.8c-1.3,1.9-2.6,3.8-3.9,5.7c1.3-1.9,2.6-3.8,3.9-5.7
		C2133.6,203.4,2136.6,206.3,2139.6,209.2z"/>
	<path d="M2170.2,93.4c0-3.5-0.1-7-0.1-10.4l0,0C2170.2,86.4,2170.2,89.9,2170.2,93.4z"/>
	<path d="M2181.7,112.2c3.6-4.4,7.3-8.8,11-13.2c3.2-3.8,6.4-7.6,9.6-11.3c-3.2,3.7-6.4,7.5-9.6,11.3
		C2189,103.3,2185.4,107.7,2181.7,112.2z"/>
	<path d="M2211.9,76.5c-7.1,1-14.2,2-21.2,3.1C2197.8,78.5,2204.8,77.5,2211.9,76.5L2211.9,76.5z"/>
	<path d="M1926,244.9c-1.3-0.9-2.5-1.8-3.6-2.7C1923.5,243.1,1924.7,244,1926,244.9z"/>
	<path d="M2121.8,191.6L2121.8,191.6c-4.2,6.1-8.4,12.2-12.4,18.3C2113.5,203.8,2117.6,197.7,2121.8,191.6z"/>
	<path d="M1922.3,242.2c-1.7-1.4-3.4-2.7-4.9-4.1C1918.9,239.5,1920.6,240.9,1922.3,242.2z"/>
	<path d="M1941,253.9c-2.4-1.2-4.7-2.5-6.9-3.8C1936.3,251.4,1938.6,252.7,1941,253.9z"/>
	<path d="M1903,209.4c0,1.1,0,2.1,0.1,3.2c0.3,3.2,1.1,6.3,2.4,9.3c-1.3-3.1-2.1-6.2-2.4-9.3C1903,211.5,1903,210.5,1903,209.4z"/>
	<path d="M1905.4,221.9c2.4,5.6,6.4,11,12,16.1C1911.8,232.9,1907.8,227.5,1905.4,221.9z"/>
	<path d="M2151.3,203.5c-4.6-4.4-9.2-8.9-13.6-13.3C2142.2,194.7,2146.7,199.1,2151.3,203.5z"/>
	<path d="M2635.1,194c-1.4,1.1-2.9,2.1-4.5,3.2C2632.2,196.2,2633.7,195.1,2635.1,194z"/>
	<path d="M2643.2,187.6c-2.5,2.2-5.2,4.3-8.1,6.5C2638,191.9,2640.7,189.7,2643.2,187.6z"/>
	<path d="M2661.4,166.5c-0.6,1.1-1.3,2.2-2,3.2C2660.1,168.7,2660.8,167.6,2661.4,166.5z"/>
	<path d="M2648.5,182.7c-1.7,1.6-3.4,3.2-5.3,4.9C2645.1,186,2646.8,184.3,2648.5,182.7z"/>
	<path d="M2665.9,155.3c-0.4,1.6-0.8,3.2-1.4,4.8C2665,158.5,2665.5,156.9,2665.9,155.3z"/>
	<path d="M2663.1,163.3c-0.5,1.1-1.1,2.1-1.7,3.2C2662,165.4,2662.6,164.4,2663.1,163.3z"/>
	<path d="M2478.5,122.3c2.4-3.8,4.7-7.6,7-11.4C2483.2,114.7,2480.9,118.5,2478.5,122.3z"/>
	<path d="M2595.3,217.7c-2.1,1-4.2,2-6.4,3.1C2591,219.7,2593.2,218.7,2595.3,217.7z"/>
	<path d="M2648.5,182.7c1.7-1.6,3.2-3.2,4.7-4.9C2651.7,179.5,2650.2,181.1,2648.5,182.7z"/>
	<path d="M2459.8,151.1c6.5-9.7,12.7-19.3,18.7-28.8C2472.6,131.8,2466.3,141.4,2459.8,151.1z"/>
	<path d="M2625.9,200.4c-1.6,1.1-3.3,2.1-5,3.2C2622.7,202.6,2624.3,201.5,2625.9,200.4z"/>
	<path d="M2620.9,203.6c-1.7,1.1-3.5,2.1-5.3,3.2C2617.5,205.7,2619.2,204.7,2620.9,203.6z"/>
	<path d="M2604.4,213.1c-2,1-4,2.1-6,3.1C2600.4,215.1,2602.4,214.1,2604.4,213.1z"/>
	<path class="st2" d="M2123.8,491.8c0,2.9-0.5,5.8-1.2,8.6l0,0C2123.3,497.6,2123.8,494.7,2123.8,491.8z"/>
	<polygon class="st2" points="2107.5,444.2 2139.8,497.9 2139.8,497.9 	"/>
	<path class="st2" d="M2097.2,457.7L2097.2,457.7c0.5-1.3,1.1-2.6,1.8-3.8C2098.4,455.1,2097.8,456.4,2097.2,457.7z"/>
	<path class="st2" d="M2130,448.2c0-0.6-0.1-1.1-0.1-1.7C2130,447.1,2130,447.7,2130,448.2z"/>
	<path class="st2" d="M2132.8,459.9c0.5,1.1,1,2.1,1.6,3.2C2133.8,462,2133.2,460.9,2132.8,459.9z"/>
	<path class="st2" d="M2130.9,438.2c-0.7-0.1-1.5-0.2-2.2-0.2C2129.4,438,2130.2,438.1,2130.9,438.2L2130.9,438.2z"/>
	<path class="st2" d="M2156.3,479.8L2156.3,479.8c-0.3,0.7-0.5,1.4-0.8,2.1C2155.8,481.2,2156.1,480.5,2156.3,479.8z"/>
	<path class="st2" d="M2131.1,454.9c0.4,1.7,1,3.3,1.7,4.9C2132.1,458.3,2131.5,456.6,2131.1,454.9z"/>
	<path class="st2" d="M2130,448.2c0.1,1.1,0.2,2.3,0.4,3.4C2130.2,450.5,2130.1,449.3,2130,448.2z"/>
	<path class="st2" d="M2138.3,456c-0.3-0.9-0.6-1.8-0.8-2.7C2137.7,454.2,2138,455.1,2138.3,456z"/>
	<path class="st2" d="M2148.2,446.5c1.9,1.8,3.6,3.9,5.1,6.2C2151.8,450.4,2150.1,448.3,2148.2,446.5z"/>
	<path class="st2" d="M2140.1,459.8c-0.5-0.8-0.9-1.7-1.3-2.6C2139.2,458.1,2139.6,459,2140.1,459.8z"/>
	<path class="st2" d="M2099.3,465.2c2.5,1,4.9,2.3,7,4C2104.2,467.5,2101.8,466.2,2099.3,465.2z"/>
	<path class="st2" d="M2111.4,496.8c1.5,0.8,3.1,1.5,4.7,2.1c0.6-2.3,1-4.7,1.1-7c0,2.4-0.4,4.8-1.1,7
		C2114.5,498.3,2113,497.6,2111.4,496.8z"/>
	<polygon class="st2" points="2549,351.6 2552.5,353.5 2562.3,347.7 2552.5,353.5 	"/>
	<path class="st2" d="M2553,328.9l-7.1,2.5c-0.4,1.2-0.8,2.4-1.1,3.7c0.3-1.2,0.7-2.5,1.1-3.7L2553,328.9z"/>
	<path class="st2" d="M2544.1,348c0.1,0.4,0.1,0.8,0.2,1.2l4.7,2.4l-4.7-2.4C2544.2,348.8,2544.2,348.4,2544.1,348z"/>
	<polygon class="st2" points="2556.5,327.7 2565.1,335.4 2556.5,327.7 2553,328.9 	"/>
	<path class="st2" d="M2599.3,370.4c-1.2,0.9-2.4,1.8-3.7,2.5C2596.9,372.2,2598.1,371.3,2599.3,370.4z"/>
	<polygon class="st2" points="2582.5,361.3 2583.1,367.4 2583.6,372.2 2583.1,367.4 	"/>
	<path class="st2" d="M2588.3,375.1l1.2,0.7c0.7-0.2,1.4-0.5,2.1-0.8c-0.7,0.3-1.4,0.6-2.1,0.8L2588.3,375.1z"/>
	<polygon class="st2" points="2602,355.5 2590.9,351.7 2582.2,359.2 2582.2,359.2 2590.9,351.7 	"/>
	<path class="st2" d="M2602.6,367.4c-1,1.1-2.1,2-3.3,3C2600.5,369.5,2601.6,368.5,2602.6,367.4z"/>
	<path class="st2" d="M2569.3,376.5c-1.6-0.4-3.1-0.9-4.5-1.6C2566.3,375.5,2567.8,376.1,2569.3,376.5z"/>
	<polygon class="st2" points="2576.2,366.3 2576.8,372.6 2576.8,372.6 	"/>
	<path class="st2" d="M2562.6,373.9c-1-0.5-1.9-1-2.8-1.6C2560.7,372.9,2561.7,373.4,2562.6,373.9z"/>
	<polygon class="st2" points="2595.7,323.5 2600.4,323.4 2606.1,323.5 2600.4,323.4 2595.7,323.5 2588.5,334.3 	"/>
	<polygon class="st2" points="2605.9,347.6 2608.3,346.2 2612.4,343.8 2608.3,346.2 	"/>
	<path class="st2" d="M2612.2,339.8c0.1,1.3,0.2,2.7,0.2,4C2612.4,342.5,2612.4,341.1,2612.2,339.8z"/>
	<polygon class="st2" points="2560.8,317.6 2560.8,313.6 2560.8,313.6 	"/>
	<path d="M2203,363.3c-1.5-6-2.9-12.2-4.3-18.5C2200.1,351.1,2201.5,357.3,2203,363.3z"/>
	<path d="M2190.8,306.1c2.5,13.3,5.1,26.2,7.9,38.8C2195.9,332.3,2193.2,319.4,2190.8,306.1L2190.8,306.1z"/>
	<path d="M2291.2,335.1c-6.9-4.9-13.8-9.9-20.7-15C2277.4,325.3,2284.3,330.3,2291.2,335.1L2291.2,335.1z"/>
	<path d="M2210.7,392.6c-1.1-3.8-2.1-7.6-3.1-11.5C2208.6,385,2209.6,388.8,2210.7,392.6z"/>
	<path d="M2242.4,481.5c-1-2.2-2-4.5-3.1-6.8C2240.4,477,2241.4,479.3,2242.4,481.5z"/>
	<path d="M2266.2,524.2c6.5,9.4,13,17.1,19.6,23C2279.2,541.3,2272.6,533.6,2266.2,524.2z"/>
	<path d="M2303.8,558.8c-1.1-0.4-2.2-0.9-3.3-1.4C2301.6,557.9,2302.7,558.4,2303.8,558.8z"/>
	<path d="M2307,559.8c-1.1-0.3-2.2-0.7-3.2-1.1C2304.8,559.2,2305.9,559.5,2307,559.8z"/>
	<path d="M2290.7,551.3c-1.6-1.2-3.3-2.6-4.9-4.1C2287.4,548.7,2289.1,550,2290.7,551.3z"/>
	<path d="M2298.9,556.6c-2.7-1.4-5.4-3.2-8.2-5.3C2293.4,553.4,2296.2,555.1,2298.9,556.6z"/>
	<path d="M2266.2,524.2c-1.6-2.3-3.2-4.8-4.8-7.3C2262.9,519.4,2264.6,521.8,2266.2,524.2z"/>
	<path d="M2236.4,467.7c-1.5-3.6-3-7.2-4.5-11C2233.4,460.4,2234.9,464.1,2236.4,467.7z"/>
	<path d="M2226.1,441.2c-1-2.7-1.9-5.3-2.8-8.1C2224.2,435.9,2225.2,438.6,2226.1,441.2z"/>
	<path d="M2259.7,514.3c-4.8-7.9-9.6-16.6-14.2-26.2C2250.2,497.6,2254.9,506.4,2259.7,514.3z"/>
	<path d="M2229,449.1c-1-2.6-1.9-5.2-2.9-7.8C2227.1,443.9,2228,446.5,2229,449.1z"/>
	<path d="M2399.4,265.3c0,3.4,0.1,6.8,0.1,10.2l0,0C2399.5,272,2399.4,268.7,2399.4,265.3z"/>
	<path d="M2358.5,281.8c5.5-6.2,11-12.6,16.4-19C2369.5,269.2,2364,275.5,2358.5,281.8z"/>
	<path d="M2139.6,440.8c1.6,0.7,3,1.5,4.5,2.5C2142.7,442.3,2141.2,441.5,2139.6,440.8z"/>
	<path d="M2155.3,472.6c-0.8-0.3-1.6-0.6-2.4-1C2153.7,472,2154.5,472.4,2155.3,472.6z"/>
	<path d="M2150.5,470.4c-1.1-0.7-2.3-1.4-3.3-2.2C2148.3,469,2149.4,469.8,2150.5,470.4z"/>
	<path d="M2152.9,471.7c-0.8-0.4-1.6-0.8-2.3-1.2C2151.3,470.9,2152.1,471.3,2152.9,471.7z"/>
	<path d="M2136.9,450.6c-0.2-1.4-0.3-2.7-0.3-4.1C2136.5,447.9,2136.7,449.2,2136.9,450.6z"/>
	<path class="st2" d="M2148.2,446.5c-1.3-1.2-2.6-2.3-4.1-3.2s-2.9-1.8-4.5-2.5c-0.8-0.4-1.6-0.7-2.4-1c-0.5,2.2-0.8,4.4-0.8,6.7
		c0,1.4,0.1,2.7,0.3,4.1c0.1,0.9,0.3,1.8,0.6,2.7c0.2,0.9,0.5,1.8,0.8,2.7c0.2,0.4,0.3,0.9,0.5,1.3c0.4,0.9,0.8,1.7,1.3,2.6
		c0.2,0.4,0.5,0.8,0.7,1.3c1.8,2.8,3.9,5.2,6.4,7.1c1.1,0.8,2.2,1.6,3.3,2.2c0.8,0.4,1.5,0.8,2.3,1.2c0.8,0.4,1.6,0.7,2.4,1
		c0.8,0.3,1.7,0.5,2.5,0.8c0.9-7-0.5-14.3-4.6-20.7C2151.8,450.4,2150.1,448.3,2148.2,446.5z"/>
	<path d="M2399.1,307.3c-0.1,4.3-0.2,8.5-0.4,12.7C2398.9,315.8,2399,311.5,2399.1,307.3z"/>
	<path d="M2373,292.1c-8.9,1.3-18,2.6-27.1,3.7c-8.9,9.8-17.8,19.3-26.8,28.5c8.9-9.2,17.9-18.7,26.8-28.5
		C2355,294.7,2364,293.4,2373,292.1z"/>
	<path d="M2397.5,344.6c-0.3,4-0.5,8-0.8,12C2397,352.6,2397.2,348.6,2397.5,344.6z"/>
	<path d="M2389,382.6c1.7,0.9,3.3,1.8,5,2.7c0.6-5.6,1.2-11.3,1.7-17c-0.5,5.8-1.1,11.5-1.7,17
		C2392.3,384.4,2390.7,383.5,2389,382.6z"/>
	<path d="M2049.2,345.1c3-7.2,6.2-14.5,9.8-22.1C2055.5,330.6,2052.2,337.9,2049.2,345.1z"/>
	<path d="M2045,355.7c0.9-2.3,1.8-4.7,2.8-7C2046.8,351,2045.9,353.4,2045,355.7z"/>
	<path d="M2042.4,362.6c0.8-2.3,1.7-4.6,2.6-6.9C2044.1,358,2043.2,360.3,2042.4,362.6z"/>
	<path d="M2179.7,313.2c-0.4-2.4-0.9-4.7-1.3-7.1c-9.6-0.1-19.1-0.2-28.4-0.5c9.3,0.3,18.8,0.5,28.4,0.5
		C2178.8,308.5,2179.2,310.8,2179.7,313.2z"/>
	<path d="M2026.9,434.4c0.1,16.8,4.5,29.4,13.4,36.8c1.9,1.6,4,2.9,6.3,4c-2.3-1.1-4.4-2.5-6.3-4
		C2031.4,463.7,2027,451.1,2026.9,434.4z"/>
	<path d="M2203.5,411.9c-1.2-4-2.4-8.1-3.6-12.2C2201.1,403.8,2202.3,407.9,2203.5,411.9z"/>
	<path d="M2083,301.2c-4.2-0.4-8.4-0.9-12.6-1.4c-4.1,7.9-7.9,15.7-11.4,23.2c3.5-7.6,7.4-15.3,11.4-23.2
		C2074.6,300.3,2078.8,300.7,2083,301.2z"/>
	<path d="M2179.7,313.2c0.9,4.7,1.8,9.4,2.7,14C2181.5,322.6,2180.6,317.9,2179.7,313.2z"/>
	<path d="M2188.3,354.5c3.1,13.4,6.4,26.4,9.8,38.9C2194.7,380.9,2191.4,367.9,2188.3,354.5z"/>
	<path d="M2136.1,305c4.6,0.2,9.2,0.4,13.9,0.5C2145.3,305.4,2140.6,305.2,2136.1,305z"/>
	<path d="M2122.4,304.3c4.5,0.3,9.1,0.5,13.6,0.7C2131.5,304.8,2126.9,304.6,2122.4,304.3z"/>
	<path d="M2183.8,334.2c1,4.6,1.9,9.2,3,13.7C2185.8,343.3,2184.8,338.7,2183.8,334.2z"/>
	<path d="M2083,301.2c12.7,1.3,25.9,2.4,39.4,3.2C2108.9,303.5,2095.7,302.5,2083,301.2z"/>
	<path d="M2086.8,458.5c-0.3,1-0.5,1.9-0.7,2.9C2086.3,460.5,2086.6,459.5,2086.8,458.5z"/>
	<path d="M2452.5,66.7c6.3,0.4,12.4,0.9,18.5,1.4C2465,67.6,2458.8,67.1,2452.5,66.7z"/>
	<path d="M2474.2,106c-2.1,3.5-4.3,6.9-6.5,10.5C2469.9,112.9,2472.1,109.5,2474.2,106z"/>
	<path d="M2494.7,70.5c-7.7-0.9-15.6-1.7-23.7-2.4C2479.1,68.8,2487,69.6,2494.7,70.5L2494.7,70.5z"/>
	<path d="M2420.3,65.1c4.4,0.1,8.8,0.3,13.1,0.5C2429.1,65.4,2424.7,65.3,2420.3,65.1z"/>
	<path d="M2159.4,140.3c-0.5-9.3-0.8-18.6-1.1-27.8C2158.6,121.6,2159,130.9,2159.4,140.3L2159.4,140.3z"/>
	<path d="M2115.2,167.2c4.5,4.7,9.1,9.5,13.7,14.2c8.5-12,17.3-24,26.5-36c-9.2,12-18,24-26.5,36
		C2124.3,176.7,2119.7,171.9,2115.2,167.2z"/>
	<path d="M2114.4,479.1c0.7,1.4,1.2,2.7,1.6,4.2C2115.6,481.8,2115.1,480.5,2114.4,479.1z"/>
	<path d="M2116.4,484.7c0.2,0.9,0.4,1.9,0.5,2.9C2116.8,486.6,2116.7,485.6,2116.4,484.7z"/>
	<path d="M2117,487.5c0.1,1,0.2,1.9,0.2,2.9C2117.2,489.4,2117.1,488.5,2117,487.5z"/>
	<path d="M2117.2,490.4c0,0.5,0,1,0,1.4C2117.2,491.4,2117.2,490.9,2117.2,490.4z"/>
	<path class="st2" d="M2117,487.5c-0.1-1-0.3-1.9-0.5-2.9c-0.1-0.5-0.2-0.9-0.4-1.4c-0.4-1.4-1-2.8-1.6-4.2
		c-0.4-0.9-0.9-1.8-1.5-2.7c-1.8-2.9-4-5.3-6.5-7.2c-2.2-1.7-4.5-3-7-4c-1.3-0.5-2.5-0.9-3.8-1.2c-1.2,7.3,0.1,15.1,4.4,21.8
		c3,4.7,7,8.4,11.5,10.9c1.5,0.8,3.1,1.5,4.7,2.1c0.6-2.3,1-4.7,1.1-7c0-0.5,0-1,0-1.4C2117.2,489.4,2117.1,488.5,2117,487.5z"/>
	<path d="M2115.3,439.9c1.4-0.5,2.9-1,4.4-1.3C2118.2,438.9,2116.7,439.4,2115.3,439.9z"/>
	<path d="M2153.2,478.9c1,0.4,2.1,0.7,3.1,0.9l0,0C2155.3,479.5,2154.2,479.2,2153.2,478.9z"/>
	<path d="M2130.9,438.2L2130.9,438.2c-0.5,2.2-0.8,4.4-0.9,6.6C2130.1,442.6,2130.4,440.4,2130.9,438.2z"/>
	<path d="M2145.9,475.3c0.9,0.6,1.9,1.1,2.8,1.6C2147.7,476.4,2146.8,475.9,2145.9,475.3z"/>
	<path d="M2152.1,487.9c-0.9,1.2-1.9,2.4-3,3.5C2150.1,490.3,2151.2,489.1,2152.1,487.9z"/>
	<path d="M2129.9,446.5c0-0.6,0-1.1,0-1.7C2130,445.4,2129.9,446,2129.9,446.5z"/>
	<path d="M2148.7,476.9c1.5,0.7,3,1.4,4.5,1.9C2151.7,478.3,2150.2,477.7,2148.7,476.9z"/>
	<path class="st2" d="M2148.7,476.9c-1-0.5-1.9-1-2.8-1.6c-4.2-2.7-7.8-6.3-10.6-10.7c-0.3-0.5-0.6-1-0.9-1.6
		c-0.6-1-1.1-2.1-1.6-3.2c-0.7-1.6-1.3-3.3-1.7-4.9c-0.3-1.1-0.5-2.2-0.7-3.4c-0.2-1.1-0.3-2.2-0.4-3.4c0-0.6-0.1-1.1-0.1-1.7
		c0-0.6,0-1.1,0-1.7c0.1-2.2,0.4-4.5,0.9-6.6c-0.7-0.1-1.5-0.2-2.2-0.2c-3-0.2-6,0-9,0.6c-1.5,0.3-3,0.8-4.4,1.3
		c-0.7,0.3-1.4,0.6-2.1,0.9l32.3,53.7c1.3-1,2.5-2,3.6-3.1s2.1-2.3,3-3.5c1.4-1.9,2.5-3.9,3.4-6c0.3-0.7,0.6-1.4,0.8-2.1
		c-1.1-0.3-2.1-0.6-3.1-0.9C2151.7,478.3,2150.2,477.7,2148.7,476.9z"/>
	<path d="M2110.5,464.1c-2.6-2.1-5.5-3.7-8.6-4.9C2105,460.4,2107.9,462,2110.5,464.1z"/>
	<path d="M2097.2,457.7c1.6,0.4,3.2,0.9,4.7,1.5C2100.4,458.6,2098.8,458.1,2097.2,457.7L2097.2,457.7z"/>
	<path d="M2105.8,445.6c-1.1,1-2.1,2-3.1,3.1C2103.7,447.6,2104.7,446.5,2105.8,445.6z"/>
	<path d="M2139.8,497.9L2139.8,497.9c-1.4,0.6-2.8,1.1-4.2,1.6C2137,499,2138.4,498.5,2139.8,497.9z"/>
	<path d="M2122.6,500.4c1.4,0.2,2.9,0.3,4.3,0.3C2125.5,500.7,2124,500.6,2122.6,500.4L2122.6,500.4z"/>
	<path d="M2123.8,490c0,0.6,0,1.2,0,1.8C2123.8,491.2,2123.8,490.6,2123.8,490z"/>
	<path class="st2" d="M2105.8,445.6c-1.1,1-2.1,2-3.1,3.1c-1.4,1.6-2.6,3.4-3.7,5.2c-0.7,1.2-1.3,2.5-1.8,3.8
		c1.6,0.4,3.2,0.9,4.7,1.5c3.1,1.2,5.9,2.9,8.6,4.9c3.1,2.4,5.8,5.4,8,8.8c3.4,5.3,5.1,11.2,5.3,17.1c0,0.6,0,1.2,0,1.8
		c0,2.9-0.5,5.8-1.2,8.6c1.4,0.2,2.9,0.3,4.3,0.3c2.9,0,5.8-0.4,8.7-1.3c1.4-0.4,2.8-0.9,4.2-1.6l-32.3-53.7
		C2106.9,444.6,2106.3,445.1,2105.8,445.6z"/>
	<path d="M2082.3,277.7c2.9-5.3,6-10.6,9.2-16C2088.3,267.1,2085.3,272.4,2082.3,277.7z"/>
	<path d="M2091.5,261.7c2.1-3.6,4.3-7.2,6.5-10.8C2095.7,254.5,2093.6,258.1,2091.5,261.7z"/>
	<path d="M2098,250.8c4.4-7.3,9-14.7,13.8-22.1C2107,236.2,2102.4,243.6,2098,250.8z"/>
	<path d="M2403.2,132.7c0.3,3,0.7,5.9,1,8.9C2403.9,138.6,2403.5,135.7,2403.2,132.7L2403.2,132.7z"/>
	<path d="M2436,164.1L2436,164.1c-4.2,6-8.6,12.1-13,18.2C2427.4,176.2,2431.8,170.1,2436,164.1z"/>
	<path d="M2481.1,211.7c2.8,3.2,5.6,6.4,8.3,9.5C2486.7,218.1,2483.9,214.9,2481.1,211.7z"/>
	<path d="M2436.5,184.5c-2.8,3.9-5.6,7.7-8.5,11.6C2430.9,192.2,2433.7,188.4,2436.5,184.5z"/>
	<path d="M2472.5,202.1c2.9,3.2,5.8,6.4,8.6,9.6C2478.3,208.5,2475.4,205.3,2472.5,202.1z"/>
	<path d="M2489.4,221.2c5.5,6.3,10.7,12.6,15.8,18.7C2500.2,233.8,2494.9,227.5,2489.4,221.2z"/>
	<path d="M2268.4,303.3c5.3,4,10.6,7.9,15.9,11.8C2279,311.2,2273.7,307.3,2268.4,303.3z"/>
	<path d="M2313.6,312.5c-4.5,4.7-9.1,9.3-13.6,13.9C2304.5,321.8,2309,317.2,2313.6,312.5z"/>
	<path d="M2184.9,271.3c1.2,7.6,2.4,15.1,3.7,22.6c11.3,0,22.8-0.2,34.5-0.6c-11.7,0.4-23.2,0.6-34.5,0.6
		C2187.3,286.5,2186.1,278.9,2184.9,271.3z"/>
	<path d="M2181.6,248.1L2181.6,248.1c4.3,3.8,8.7,7.7,13.2,11.5C2190.3,255.8,2185.9,252,2181.6,248.1z"/>
	<path d="M2555.5,363.6l0.2-4.1L2555.5,363.6l-0.6,4.9c1.5,1.4,3.2,2.7,5,3.8c-1.8-1.1-3.5-2.4-5-3.8L2555.5,363.6z"/>
	<polygon points="2571.7,377 2573.4,375.6 2576.8,372.6 2576.8,372.6 2573.4,375.6 	"/>
	<polygon points="2576.2,366.3 2575.7,360 2565.4,353.8 2575.7,360 	"/>
	<path class="st2" d="M2575.7,360l-10.3-6.2l-9.7,5.7l-0.2,4.1l-0.6,4.9c1.5,1.4,3.2,2.7,5,3.8c0.9,0.6,1.8,1.1,2.8,1.6
		c0.7,0.4,1.4,0.7,2.2,1c1.5,0.6,3,1.1,4.5,1.6c0.8,0.2,1.6,0.4,2.4,0.5l1.7-1.4l3.4-3l-0.6-6.3L2575.7,360z"/>
	<polygon points="2582.2,359.2 2582.5,361.3 2582.2,359.2 	"/>
	<polygon points="2583.6,372.2 2587.1,374.4 2588.3,375.1 2587.1,374.4 	"/>
	<path class="st2" d="M2602,355.5l-11.1-3.8l-8.6,7.5l0.3,2l0.6,6.1l0.5,4.9l3.5,2.2l1.2,0.7l1.2,0.7c0.7-0.2,1.4-0.5,2.1-0.8
		c1.4-0.6,2.7-1.3,4-2c1.3-0.8,2.5-1.6,3.7-2.5c1.2-0.9,2.3-1.9,3.3-3c0.5-0.5,1-1.1,1.5-1.6l-1.4-7.1L2602,355.5z"/>
	<path d="M2462.7,417.9c-2.4-0.9-4.8-1.9-7.2-2.9C2457.9,416,2460.3,416.9,2462.7,417.9z"/>
	<path d="M2469.7,420.5c-2.3-0.9-4.7-1.8-7-2.7C2465,418.8,2467.4,419.7,2469.7,420.5z"/>
	<path d="M2535.6,332.9c-0.7,2.9-1.1,5.9-1.2,8.9C2534.5,338.8,2534.9,335.8,2535.6,332.9z"/>
	<path d="M2587.2,409.8c-0.7,3-1.8,5.8-3.1,8.4C2585.4,415.7,2586.4,412.9,2587.2,409.8z"/>
	<path d="M2489.8,427.4c-5.4-1.7-10.9-3.5-16.7-5.6C2478.9,423.9,2484.4,425.7,2489.8,427.4z"/>
	<path d="M2535.8,436.6c-6.6-0.4-13.8-1.4-21.5-3C2522,435.2,2529.2,436.2,2535.8,436.6z"/>
	<path d="M2514.3,433.7c-2.9-0.6-5.8-1.2-8.8-2C2508.5,432.4,2511.4,433.1,2514.3,433.7z"/>
	<path d="M2455.5,415c-3.6-1.5-7.3-3.1-11-4.7C2448.2,411.9,2451.9,413.5,2455.5,415z"/>
	<path d="M2505.5,431.7c-5-1.2-10.2-2.7-15.6-4.3C2495.2,429,2500.4,430.5,2505.5,431.7z"/>
	<path d="M2538.3,436.8c19.5,0.8,34-3.5,42.3-13.3c1.4-1.6,2.5-3.4,3.6-5.3c-1,1.9-2.2,3.7-3.6,5.3
		C2572.3,433.3,2557.7,437.6,2538.3,436.8z"/>
	<path d="M2553.7,307.2L2553.7,307.2c-6.5-10.5-13.8-21.5-22-32.8C2539.9,285.7,2547.2,296.7,2553.7,307.2z"/>
	<path d="M2520.7,259.5c2.5,3.3,4.9,6.5,7.3,9.7C2525.6,266.1,2523.2,262.8,2520.7,259.5z"/>
	<path d="M2411,320.3c0.3-6.8,0.4-13.7,0.6-20.6C2411.4,306.6,2411.2,313.5,2411,320.3z"/>
	<path d="M2444.5,410.3c-2.5-1.1-5-2.2-7.5-3.4C2439.5,408.1,2442,409.2,2444.5,410.3z"/>
	<path d="M2405.6,391.5c10.8,5.6,21.2,10.8,31.4,15.4C2426.9,402.3,2416.4,397.2,2405.6,391.5L2405.6,391.5z"/>
	<path d="M2410,340.5c0.4-6.6,0.7-13.4,1-20.2C2410.7,327.1,2410.4,333.9,2410,340.5z"/>
	<path d="M2538.6,324.6c-0.8,1.8-1.6,3.6-2.2,5.4C2537,328.2,2537.8,326.4,2538.6,324.6z"/>
	<polygon points="2593.2,345.4 2588.5,334.3 2593.2,345.4 2603.5,348.9 2605.9,347.6 2603.5,348.9 	"/>
	<path d="M2610.2,331.1c0.5,1.4,1,2.8,1.3,4.2C2611.1,333.9,2610.7,332.5,2610.2,331.1z"/>
	<path class="st2" d="M2595.7,323.5l-7.2,10.8l4.7,11.1l10.3,3.5l2.4-1.3l2.4-1.3l4.2-2.5c0-1.3-0.1-2.6-0.2-4
		c-0.2-1.5-0.4-3-0.8-4.5c-0.4-1.4-0.8-2.9-1.3-4.2c-1-2.7-2.4-5.3-4.1-7.6l-5.7-0.1L2595.7,323.5z"/>
	<path d="M2543.8,344.8c0,0.7,0.1,1.3,0.2,2c0,0.4,0.1,0.8,0.2,1.2c-0.1-0.4-0.1-0.8-0.2-1.2
		C2543.9,346.2,2543.8,345.5,2543.8,344.8z"/>
	<path class="st2" d="M2553,328.9l-7.1,2.5c-0.4,1.2-0.8,2.4-1.1,3.7c-0.8,3.1-1.1,6.4-0.9,9.8c0,0.7,0.1,1.3,0.2,2
		c0,0.4,0.1,0.8,0.2,1.2s0.1,0.8,0.2,1.2l4.7,2.4l3.4,1.9l9.9-5.8l2.8-12.2l-8.6-7.7L2553,328.9z"/>
	<path d="M2560.8,313.6L2560.8,313.6c1-0.6,2.1-1.1,3.1-1.6C2562.9,312.5,2561.8,313,2560.8,313.6z"/>
	<path d="M2590.3,319.3l-3.2-9c-0.5-0.1-1-0.3-1.5-0.4c0.5,0.1,1,0.2,1.5,0.4L2590.3,319.3z"/>
	<polygon points="2560.8,317.6 2561,322.6 2570.4,331 2561,322.6 	"/>
	<path d="M2582.5,309.3c1.1,0.1,2.1,0.3,3.1,0.6C2584.6,309.6,2583.6,309.5,2582.5,309.3z"/>
	<path class="st2" d="M2561,322.6l9.4,8.4l12.9-1.1l3.5-5.4l3.5-5.2l-3.2-9c-0.5-0.1-1-0.3-1.5-0.4c-1-0.2-2.1-0.4-3.1-0.6
		c-2.6-0.3-5.3-0.4-8.1-0.1c-3.7,0.4-7.3,1.4-10.5,2.8c-1.1,0.5-2.1,1-3.1,1.6l0,4L2561,322.6z"/>
	<path d="M2386.8,101.5L2386.8,101.5c-3.5-3-7-6.1-10.5-9.1C2379.9,95.5,2383.4,98.5,2386.8,101.5z"/>
	<path d="M2382.6,73.6c-0.5-3-1-6.1-1.5-9.1c-6.1,0-12.3,0.1-18.6,0.2c6.2-0.1,12.4-0.2,18.6-0.2
		C2381.6,67.5,2382.1,70.6,2382.6,73.6z"/>
	<path d="M2360.1,78.8c1.8,1.5,3.7,3,5.5,4.6c3.6,3,7.1,6,10.7,9c-3.5-3-7.1-6-10.7-9C2363.8,81.9,2362,80.3,2360.1,78.8z"/>
	<path d="M2160.5,159.1c0.3,5.1,0.7,10.2,1.1,15.3C2161.2,169.3,2160.8,164.2,2160.5,159.1c-2,2.6-3.9,5.2-5.9,7.8
		C2156.5,164.3,2158.5,161.7,2160.5,159.1z"/>
	<path d="M2137.7,190.2c3.6-5.1,7.3-10.3,11.1-15.5C2145.1,179.9,2141.4,185.1,2137.7,190.2z"/>
	<path d="M1923.7,173.2c-1.8,1.7-3.5,3.3-5.1,5C1920.2,176.5,1921.9,174.9,1923.7,173.2z"/>
	<path d="M1991,133c2.3-1,4.7-2,7.2-3C1995.7,131,1993.3,132,1991,133z"/>
	<path d="M1977.4,139.2c3.3-1.6,6.6-3.1,10.1-4.6C1984.1,136.1,1980.7,137.7,1977.4,139.2z"/>
	<path d="M1959,148.7c2.9-1.6,5.8-3.2,8.9-4.8C1964.9,145.5,1961.9,147.1,1959,148.7z"/>
	<path d="M2021,121.1c2.7-1,5.4-1.9,8.1-2.9C2026.4,119.2,2023.7,120.1,2021,121.1z"/>
	<path d="M2005.5,127c3.8-1.5,7.6-3,11.5-4.4C2013.2,124,2009.3,125.5,2005.5,127z"/>
	<path d="M1927.5,169.9c2-1.7,4-3.3,6.2-4.9C1931.5,166.6,1929.5,168.3,1927.5,169.9z"/>
	<path d="M1909.5,189.8c0.7-1.1,1.4-2.2,2.2-3.3C1910.9,187.6,1910.2,188.7,1909.5,189.8z"/>
	<path d="M1948.1,155.2c2.6-1.6,5.3-3.2,8.1-4.8C1953.4,151.9,1950.7,153.5,1948.1,155.2z"/>
	<path d="M1912.9,184.8c1.3-1.7,2.7-3.3,4.2-5C1915.6,181.5,1914.2,183.1,1912.9,184.8z"/>
	<path d="M1923.7,173.2c1.2-1.1,2.5-2.2,3.8-3.3C1926.2,171,1924.9,172.1,1923.7,173.2z"/>
	<path d="M1943,158.4c1.6-1.1,3.3-2.2,5.1-3.3C1946.3,156.2,1944.6,157.3,1943,158.4z"/>
	<path d="M1967.9,143.9c3.1-1.6,6.2-3.2,9.5-4.7C1974.2,140.8,1971,142.3,1967.9,143.9z"/>
	<path d="M2074.9,141c2.9,3.3,5.8,6.7,8.8,10C2080.8,147.7,2077.8,144.3,2074.9,141z"/>
	<path d="M2097.5,166.2c3.1,3.4,6.3,6.8,9.5,10.2C2103.8,173,2100.6,169.6,2097.5,166.2z"/>
	<path d="M1903,209.4c0.1-6.4,2.4-13,6.5-19.6C1905.3,196.4,1903.1,202.9,1903,209.4z"/>
	<path d="M2058.2,121.1c2.7,3.3,5.4,6.6,8.2,9.9C2063.6,127.7,2060.9,124.4,2058.2,121.1z"/>
	<path d="M2121.8,191.6c-5-5.1-10-10.2-14.8-15.3C2111.9,181.4,2116.8,186.5,2121.8,191.6L2121.8,191.6z"/>
	<path d="M2097.7,228c-2.5,4-5,8-7.5,12C2092.7,236,2095.2,232,2097.7,228z"/>
	<path d="M2310,54.5c-6.1-4.6-12.1-9.1-18.1-13.5C2297.8,45.4,2303.9,49.9,2310,54.5L2310,54.5z"/>
	<path d="M2243.1,60.3L2243.1,60.3c5.2-5.6,10.3-11.1,15.4-16.4C2253.4,49.2,2248.2,54.7,2243.1,60.3z"/>
	<path d="M2170.2,83L2170.2,83c3.4-0.6,6.8-1.2,10.2-1.7C2177,81.8,2173.5,82.4,2170.2,83z"/>
	<path d="M2211.9,76.5L2211.9,76.5c-3.2,3.7-6.4,7.4-9.6,11.1C2205.5,83.9,2208.7,80.2,2211.9,76.5z"/>
	<path d="M2181.7,112.2c-3.6,4.4-7.2,8.8-10.7,13.3C2174.6,121,2178.1,116.6,2181.7,112.2z"/>
	<path d="M2660,129c0.7,1,1.3,2,1.9,3C2661.3,131,2660.7,130,2660,129z"/>
	<path d="M2592.6,90c2.1,0.7,4.3,1.4,6.3,2.1C2596.8,91.4,2594.7,90.7,2592.6,90z"/>
	<path d="M2621.6,101.1c2.6,1.2,5.1,2.4,7.4,3.6C2626.7,103.5,2624.2,102.2,2621.6,101.1z"/>
	<path d="M2521.2,240.2c-2.7-3.4-5.4-6.7-8.2-10.1C2515.8,233.5,2518.5,236.9,2521.2,240.2z"/>
	<path d="M2642,112.3c1.9,1.3,3.8,2.7,5.5,4C2645.8,115,2644,113.6,2642,112.3z"/>
	<path d="M2602,93.2c2,0.7,4,1.4,5.9,2.2C2606,94.6,2604,93.9,2602,93.2z"/>
	<path d="M2664.2,136.5c0.4,1,0.8,2,1.1,3.1C2665,138.5,2664.6,137.5,2664.2,136.5z"/>
	<path d="M2656.5,124.7c-2.5-2.9-5.6-5.7-9-8.4C2651,119,2654,121.8,2656.5,124.7z"/>
	<path d="M2495.6,209.6c-3-3.4-6.1-6.9-9.2-10.4C2489.5,202.7,2492.6,206.2,2495.6,209.6z"/>
	<path d="M2508.8,225c-4.3-5.1-8.7-10.2-13.2-15.4C2500.1,214.8,2504.5,219.9,2508.8,225z"/>
	<path d="M2390.8,132.3c-0.5-4.1-1-8.1-1.5-12.2c-2.5-2.3-5.1-4.6-7.7-6.8c2.6,2.3,5.2,4.6,7.7,6.8
		C2389.8,124.2,2390.3,128.2,2390.8,132.3z"/>
	<path d="M2178.1,219.5c-0.7-6.7-1.4-13.5-2.1-20.4C2176.6,206,2177.3,212.8,2178.1,219.5z"/>
	<path d="M2397.8,215.4L2397.8,215.4c-6.5,8.2-13.1,16.5-19.9,24.8C2384.7,231.9,2391.3,223.6,2397.8,215.4z"/>
	<path d="M2171.9,144.2c4.8-6.2,9.8-12.4,14.8-18.6C2181.6,131.8,2176.7,138,2171.9,144.2z"/>
	<path d="M2186.7,125.5c5-6.2,10.2-12.5,15.4-18.7c4.7-5.6,9.4-11.2,14.2-16.6c-4.7,5.5-9.5,11-14.2,16.6
		C2196.9,113.1,2191.7,119.3,2186.7,125.5z"/>
	<path d="M2220.8,265.6c11,9.1,21.9,17.9,32.7,26.4c13.4-0.8,27.1-1.7,40.9-2.9c-13.8,1.2-27.5,2.2-40.9,2.9
		C2242.7,283.5,2231.7,274.7,2220.8,265.6z"/>
</g>
</svg>
