<?xml version="1.0" encoding="utf-8"?>
<!-- Generator: Adobe Illustrator 19.1.0, SVG Export Plug-In . SVG Version: 6.00 Build 0)  -->
<svg version="1.1" id="buttonwoods" xmlns="http://www.w3.org/2000/svg" xmlns:xlink="http://www.w3.org/1999/xlink" x="0px"
	 y="0px" viewBox="22 -166.1 640 1172" style="enable-background:new 22 -166.1 640 1172;" xml:space="preserve">
<style type="text/css">
	.st0{fill:#BFE7F1;}
	.st1{fill:#3A7224;}
	.st2{fill:#111D2A;}
</style>
<g id="wood_x22_s">
	<g>
		<g>
			<polygon class="st0" points="22,-166.1 662,-166.1 662,1005.9 22,1005.9 			"/>
		</g>
		<g>
			<path class="st1" d="M22-38.2c1.4,0.1,2.9,0.2,4.3,0.2c2.2,0,4.4-0.2,6.6-0.5c7.6,9.9,19.5,16.3,32.9,16.3
				c10.7,0,19.3-4.6,25.9-11.3c0,0,2.6-7.8,8.5-7.7l7.2-0.1c20.6-0.1,39-10.7,46.1-30.1c7.1-22.6,4-47-11.8-64.2
				c-1.6-2.1,0.8-5.6,4.3-2.8c20.6,18.2,31.8,43.6,25.9,71.4c-2.8,11.2-13.8,29.1,4.9,34.4c2.4,0.9,4.7,1.7,6.8,2.7
				c19.8,7.4,35.7,27.7,41.1,31.7c19.7,17.6,62.8,25.9,81.3,12.8c4.8-3.9,6.6-8,7.1-12.4c0.5-3.2,2-3,2.9-3c8.4,0,16.2-2.5,22.7-6.8
				c6.8,4.9,15.2,7.8,24.2,7.8c9.6,0,18.5-3.3,25.5-8.8c3.2,0.8,6.5,1.2,9.9,1.2c2.7,0,6.9-0.5,9.4-1c3.9-1.1,3.6,1.8,3.8,3.4
				c1.3,13.3,4.1,21.1,11.4,26.3c16.5,11.6,57.9,14.1,78.3,5.4c16.1-6.9,20.2-13.1,30.9-19.4c8.7-5.1,22.4-2.4,28-7.8
				c10.8-10.5,19.2-23.8,36.7-27.2c25.8-5.2,33.8,19.2,37.2,23.9c3.6,7.5,17.9,11.9,27.9,14.2v-176.5H22V-38.2z"/>
			<g>
				<g>
					<g>
						<g>
							<g>
								<path class="st2" d="M662,17.6c-5.3-0.4-12.2-1.5-19.6-3.9c-24.2-8.1-26.2-26-44.9-20.3c-9.4,2.8-13.3,12.2-14.4,18.1
									c-1.1,5.9-3.4,8.9-9,10c-7.2,1.4-17,3.8-23.7,7.3c-14.3,7.4-9.3,19.5-41.6,31.2c-25.4,8.6-45.6,9.5-70.2,10
									c-12.1,0-17.3-2.6-15.3,18.3l5.3,45.3c0,0,6.2,32,30.1,41.7L614,243.9H79.9c31.1-18.4,57.2-37.2,65.3-44
									c9.7-6.7,17.5-5.2,21.6-4.6c48.4,7,81-20,92.5-32c3.4-3.5,7.4-3.5,9.5-3.6c37.4-1.3,37.6-24.3,38.3-52.3
									c0.6-10.2,0.5-25.5,0.1-38.8c-0.1-3.8-0.6-11.3-15.9-11.3c-17.9-0.7-47.8-5.2-71.2-24.9c-15.8-13.2-25.4-36.6-52.8-49.9
									C141.9-30.4,105.9-30.8,92-33.7c0,0,2.6-7.8,8.5-7.7l7.2-0.1c20.6-0.1,39-10.7,46.1-30.1c7.1-22.6,4-47-11.8-64.2
									c-1.6-2.1,0.9-5.6,4.3-2.8c20.6,18.2,31.8,43.6,25.9,71.4c-2.8,11.2-13.8,29.1,4.9,34.4c2.4,0.9,4.7,1.7,6.8,2.7
									c19.8,7.4,35.7,27.7,41.1,31.7c19.7,17.6,62.8,25.9,81.3,12.8c4.8-3.9,6.6-8,7.1-12.4c0.5-3.2,2-3,2.9-3
									c8.4,0,16.2-2.5,22.7-6.8c6.8,4.9,15.2,7.8,24.2,7.8c9.6,0,18.5-3.3,25.5-8.8c3.2,0.8,6.5,1.2,9.9,1.2c2.7,0,6.9-0.5,9.4-1
									c3.9-1.1,3.6,1.8,3.8,3.4c1.3,13.3,4.1,21.1,11.4,26.3c16.5,11.6,57.9,14.1,78.3,5.4c16.1-6.9,20.2-13.1,30.9-19.4
									c8.7-5.1,22.4-2.4,28-7.8c10.8-10.5,19.2-23.8,36.7-27.2c25.8-5.2,33.8,19.2,37.2,23.9c3.6,7.5,18,11.9,27.9,14.2v7.4H662z"
									/>
							</g>
						</g>
					</g>
				</g>
				<g>
					<path class="st1" d="M576.8,60.9c-4.8-1-10-5.3-16.7-6.1s-12.9,5.6-16.5,10c4.6,2.9,7.9,5.2,14.6,6
						C564.9,71.6,572.9,67.2,576.8,60.9z"/>
				</g>
			</g>
		</g>
		<g>
			<path class="st1" d="M293.6,69.3c-2.6,4.2-8.4,7.6-11.4,13.6c-3.1,6,0.8,14.1,3.7,18.9c4.4-7.8,8.6-5.7,11.7-11.7
				C300.7,84.2,298.2,75.1,293.6,69.3z"/>
		</g>
		<g>
			<path class="st1" d="M193.4,36.4c-15.8-2.9-18.8-15.1-29.7-20.4c-7.2-3.5-16.4-3.1-24.6,2.8c1.8,9.9,3.9,17.8,15.1,22.3
				C165.4,45.5,185.2,42.3,193.4,36.4z"/>
		</g>
	</g>
</g>
</svg>
