<?xml version="1.0" encoding="utf-8"?>
<!-- Generator: Adobe Illustrator 19.1.0, SVG Export Plug-In . SVG Version: 6.00 Build 0)  -->
<svg version="1.1" id="erasmus" xmlns="http://www.w3.org/2000/svg" xmlns:xlink="http://www.w3.org/1999/xlink" x="0px" y="0px"
	 viewBox="0 0 2706 600" style="enable-background:new 0 0 2706 600;" xml:space="preserve">
<style type="text/css">
	.st0{fill:#BD902D;}
	.st1{fill:#111D2A;}
</style>
<g>
	<g>
		<g>
			<polygon class="st0" points="0,0 2706,0 2706,600 0,600 0,0 			"/>
			<path class="st0" d="M1353,300"/>
		</g>
		<g>
			<g>
				<path class="st1" d="M2251.8,66.9c-1.3,0-2.5-0.5-3.4-1.4V34.1c0.9-0.8,2.1-1.3,3.4-1.3c1.5,0,2.8,0.7,3.7,1.7v30.7
					C2254.6,66.3,2253.2,66.9,2251.8,66.9z M2241.9,40.4c0-2.2,1.7-4,3.9-4.5v27.9c-2.3-0.6-3.9-2.3-3.9-4.5V40.4z M2310.9,34.6
					v30.4c-0.9,1.1-2.2,1.9-3.8,1.9c-1.4,0-2.7-0.6-3.6-1.6V34.4c0.9-1,2.1-1.6,3.6-1.6C2308.7,32.8,2310.1,33.5,2310.9,34.6z
					 M2318.5,59.3c0,2.5-2.3,4.6-5.1,4.6V35.7c2.8,0,5.1,2.1,5.1,4.6V59.3z M2261.7,386.3v99l-67.1,0v-99c0-20.9,15-37.9,33.6-37.9
					C2246.7,348.4,2261.7,365.4,2261.7,386.3z M2358.1,386.3v99l-67.1,0v-99c0-20.9,15-37.9,33.6-37.9
					C2343.1,348.4,2358.1,365.4,2358.1,386.3z M1961.7,600c18.4-180.5,34.8-231.8,46.3-269.7c47.9-156.8,212.5-186.7,235.1-191.1
					c15.4-3,25.4,5,28.4,16.3l1.8-91.6h-15.6V35.7h43.5V64h-15.3l1,89.2c4.3-9.3,14.7-16,28.2-13.4c22.6,4.4,185.8,35.7,233.7,192.5
					c11.5,37.8,27.8,88.8,46.1,267.7l-205.4,0c0-40.9,0.4-167.5,1.4-215.4c0.7-34.8,27.6-38.2,41.6-34.5c16.8,4.4,22.2,20,23.9,55.9
					c1.1,24.3,0.5,61.9,2.2,94.5c0.4,8.4,10.8,8.7,10.8-4.9c0-5,0.3-96-7.6-124.3c-8.2-29.4-29.3-31.3-29.3-31.3
					s-2.6-111.4-128.4-153.6c-8.7-2.9-14.2-7.8-17.1-13.3l0,2.3c0,2.6-2.3,4.6-5.2,4.6h-5.6c-2.8,0-5.2-2.1-5.2-4.6l0.1-4
					c-2.4,4.8-7.9,9.3-18.6,13.1c-131,46.7-128.7,152.5-128.7,152.5s-22.4,3.9-29.7,33.3c-7.1,28.4-6.9,118.5-6.9,123.5
					c0,13.6,10.4,13.2,10.8,4.9c1.6-32.6,1.1-70.2,2.2-94.5c1.6-36,12.1-54,29.2-57.4c15.9-3.2,35.5,1.2,36.2,36
					c0.8,37.8-1.4,142-4.9,217.4H1961.7z"/>
			</g>
		</g>
	</g>
</g>
</svg>
