<?xml version="1.0" encoding="utf-8"?>
<!-- Generator: Adobe Illustrator 19.1.0, SVG Export Plug-In . SVG Version: 6.00 Build 0)  -->
<svg version="1.1" id="notebook" xmlns="http://www.w3.org/2000/svg" xmlns:xlink="http://www.w3.org/1999/xlink" x="0px" y="0px"
	 viewBox="0 0 2706 600" style="enable-background:new 0 0 2706 600;" xml:space="preserve">
<style type="text/css">
	.st0{fill:#B51915;}
	.st1{fill:#111D2A;}
	.st2{fill-rule:evenodd;clip-rule:evenodd;fill:none;stroke:#1D1D1B;stroke-width:0.6317;stroke-miterlimit:3.8637;}
	.st3{fill-rule:evenodd;clip-rule:evenodd;fill:#FFFFFF;}
	.st4{fill-rule:evenodd;clip-rule:evenodd;fill:none;stroke:#1D1D1B;stroke-width:0.565;stroke-miterlimit:3.8637;}
	.st5{clip-path:url(#SVGID_2_);}
	.st6{fill-rule:evenodd;clip-rule:evenodd;fill:#1D1D1B;}
</style>
<g>
	<polygon class="st0" points="0,0 2706,0 2706,600 0,600 0,0 	"/>
	<path class="st0" d="M1353,300"/>
</g>
<g>
	<g>
		<g>
			<g>
				<g>
					<path class="st1" d="M2034.3,115.4c0-42.5,27.7-52.4,54-52.4h400.9c20.6,0.3,29.9,10.8,29.9,27.3l10.7,38.5h8.3h23
						c16,0,23.9,8.5,23.9,24.4V600h-551.6L2034.3,115.4z"/>
				</g>
				<g>
					<path class="st2" d="M2511.1,65"/>
				</g>
				<g>
					<path class="st3" d="M2519.1,600c0.4-30.6,0-468.5,0-507.1v-2.6c0,0,4.5,19.8,16.6,35.6c7,9.1,19.3,16.9,19.3,16.9V600H2519.1z
						"/>
				</g>
				<g>
					<g>
						<path class="st4" d="M2326.1,54.6"/>
					</g>
					<g>
						<path class="st3" d="M2332,59h110.5v246l-54-112v-49.6c0-2.4-3.6-2.4-3.6,0v49.6l-53,112V59z"/>
					</g>
					<g>
						<g>
							<defs>
								<circle id="SVGID_1_" cx="2387" cy="345.7" r="33.1"/>
							</defs>
							<use xlink:href="#SVGID_1_"  style="overflow:visible;fill-rule:evenodd;clip-rule:evenodd;fill:#FFFFFF;"/>
							<clipPath id="SVGID_2_">
								<use xlink:href="#SVGID_1_"  style="overflow:visible;"/>
							</clipPath>
							<g class="st5">
								<path class="st6" d="M2384.4,345.6c0.5-1,1.4-1.5,2.4-1.6l4.4-8.2c-0.5-0.9-0.5-2.4,0.3-3c0.3-0.2,1.3-1,1.8-1.8l2.1-2.8
									c0.5-0.9,1.7-0.7,1.1,1.1c0,0-0.8,2.1-1,2.7c-0.2,0.5-0.2,1-0.3,1.5l0,1.1c0,0.9-0.8,1.8-1.9,2l-4.3,8.4l0.3,0.5l12.9,0
									c0.8-1,2.2-1.1,3-0.7l0.9,0.4c0.4,0.1,0.8,0.3,1.3,0.3l3.5,0.3c1.5,0.1,2.9,0.2,3.7,0.4c1.1,0.2,1.3,1.4-0.2,1.4
									c-0.2,0-5.8,0.4-7.1,0.5c-0.5,0.1-1,0.2-1.3,0.3l-0.9,0.4c-0.8,0.3-2.1,0.3-3-0.7l-13,0.1c-0.8,1.3-2.3,1.8-3.6,1.1
									C2384.3,348.6,2383.7,347,2384.4,345.6z"/>
							</g>
						</g>
					</g>
				</g>
			</g>
		</g>
	</g>
</g>
</svg>
