<svg xmlns="http://www.w3.org/2000/svg" xmlns:xlink="http://www.w3.org/1999/xlink" viewBox="459.9 328.2 152.1 135.7">
    <path fill="#111D2A" d="M460.1 354.3c0-9.6 6.3-11.9 12.2-11.9H563c4.7.1 6.8 2.4 6.8 6.2l2.4 8.7h7.1c3.6 0 5.4 1.9 5.4 5.5v101.1H459.9l.2-109.6z"/>
    <path fill="#FFF" d="M569.7 463.8V348.5s1 4.5 3.8 8.1c1.6 2.1 4.4 3.8 4.4 3.8v103.4h-8.2z"/>
    <path fill="#FFF" d="M527.4 341.5h25v55.6l-12.2-25.3v-11.2c0-.5-.8-.5-.8 0v11.2l-12 25.3v-55.6z"/>
    <circle cx="539.9" cy="406.3" r="7.5" fill="#FFF"/>
    <defs>
        <circle id="a" cx="539.9" cy="406.3" r="7.5"/>
    </defs>
    <clipPath id="b">
        <use xlink:href="#a" overflow="visible"/>
    </clipPath>
    <g clip-path="url(#b)">
        <path fill="#1D1D1B" d="M539.3 406.3l.5-.4 1-1.9a.6.6 0 0 1 .1-.7l.4-.4.5-.6c.1-.2.4-.2.2.2l-.2.6-.1.3v.2c0 .2-.2.4-.4.5l-1 1.9.1.1h2.9c.2-.2.5-.2.7-.2l.2.1.3.1.8.1.8.1c.2 0 .3.3 0 .3l-1.6.1-.3.1-.2.1c-.2.1-.5.1-.7-.2h-2.9c-.2.3-.5.4-.8.2-.4.1-.5-.3-.3-.6z"/>
    </g>
</svg>
