<svg xmlns="http://www.w3.org/2000/svg" viewBox="376.4 328.2 235.6 135.7">
    <path fill="#3A7224" d="M377 328.2a13.9 13.9 0 0 0 2.5 12.7 13.8 13.8 0 0 0 8.4 17.1 13.8 13.8 0 0 0 15.9 12.4c2.5 3.3 6.4 5.4 10.9 5.4 3.5 0 6.4-1.5 8.6-3.8 0 0 .9-2.6 2.8-2.6h2.4c6.8 0 12.9-3.6 15.2-10a21.6 21.6 0 0 0-3.9-21.2c-.5-.7.3-1.9 1.4-.9 6.8 6 10.5 14.4 8.6 23.6-.9 3.7-4.6 9.6 1.6 11.4l2.2.9c6.6 2.4 11.8 9.2 13.6 10.5 6.5 5.8 20.8 8.6 26.9 4.3a6 6 0 0 0 2.4-4.1c.2-1.1.7-1 .9-1 2.8 0 5.4-.8 7.5-2.2a13.6 13.6 0 0 0 16.4-.3c1 .2 2.1.4 3.3.4l3.1-.3c1.3-.4 1.2.6 1.3 1.1.5 4.4 1.4 7 3.8 8.7 5.5 3.8 19.2 4.7 25.9 1.8 5.3-2.3 6.7-4.3 10.2-6.4 2.9-1.7 7.4-.8 9.3-2.6 3.6-3.5 6.4-7.9 12.1-9 8.5-1.7 11.2 6.3 12.3 7.9 1.2 2.5 6 3.9 9.3 4.7v-58.4H377z"/>
    <path fill="#111D2A" d="M612 388.9c-1.8-.1-4-.5-6.5-1.3-8-2.7-8.7-8.6-14.9-6.7-3.1.9-4.4 4-4.8 6-.4 1.9-1.1 2.9-3 3.3-2.4.5-5.6 1.3-7.8 2.4-4.7 2.4-3.1 6.5-13.8 10.3a72.7 72.7 0 0 1-23.2 3.3c-4 0-5.7-.9-5.1 6.1l1.8 15s2.1 10.6 10 13.8l51.4 22.7H419.3c10.3-6.1 19-12.3 21.6-14.6 3.2-2.2 5.8-1.7 7.1-1.5 16 2.3 26.8-6.6 30.6-10.6 1.1-1.2 2.5-1.2 3.1-1.2 12.4-.4 12.5-8.1 12.7-17.3.2-3.4.2-8.5 0-12.8 0-1.3-.2-3.8-5.3-3.7a39.6 39.6 0 0 1-23.6-8.2c-5.2-4.4-8.4-12.1-17.5-16.5-8.4-4.3-20.3-4.4-24.9-5.4 0 0 .9-2.6 2.8-2.6h2.4c6.8 0 12.9-3.6 15.2-10a21.6 21.6 0 0 0-3.9-21.2c-.5-.7.3-1.9 1.4-.9 6.8 6 10.5 14.4 8.6 23.6-.9 3.7-4.6 9.6 1.6 11.4l2.2.9c6.6 2.4 11.8 9.2 13.6 10.5 6.5 5.8 20.8 8.6 26.9 4.3a6 6 0 0 0 2.4-4.1c.2-1.1.7-1 .9-1 2.8 0 5.4-.8 7.5-2.2a13.6 13.6 0 0 0 16.4-.3c1 .2 2.1.4 3.3.4l3.1-.3c1.3-.4 1.2.6 1.3 1.1.5 4.4 1.4 7 3.8 8.7 5.5 3.8 19.2 4.7 25.9 1.8 5.3-2.3 6.7-4.3 10.2-6.4 2.9-1.7 7.4-.8 9.3-2.6 3.6-3.5 6.4-7.9 12.1-9 8.5-1.7 11.2 6.3 12.3 7.9 1.2 2.5 6 3.9 9.3 4.7l.3 2.2z"/>
    <path fill="#3A7224" d="M583.8 403.3c-1.6-.3-3.3-1.7-5.5-2-2.2-.3-4.3 1.9-5.5 3.3a10 10 0 0 0 4.8 2c2.2.2 4.9-1.2 6.2-3.3z"/>
    <g>
        <path fill="#3A7224" d="M490.1 406.1c-.9 1.4-2.8 2.5-3.8 4.5s.3 4.7 1.2 6.3c1.5-2.6 2.9-1.9 3.9-3.9s.2-5-1.3-6.9z"/>
    </g>
    <g>
        <path fill="#3A7224" d="M456.9 395.2c-5.2-.9-6.2-5-9.8-6.8a7.8 7.8 0 0 0-8.1.9c.6 3.3 1.3 5.9 5 7.4 3.6 1.5 10.2.4 12.9-1.5z"/>
    </g>
</svg>
