<svg xmlns="http://www.w3.org/2000/svg" xmlns:xlink="http://www.w3.org/1999/xlink" viewBox="423.8 327.9 187.7 135.7">
    <defs>
        <path id="a" d="M59.8 327.7h551.8v136.2H59.8z"/>
    </defs>
    <clipPath id="b">
        <use xlink:href="#a" overflow="visible"/>
    </clipPath>
    <g clip-path="url(#b)">
        <path fill="#E20613" d="M526 363c1.9 7.3 5.5 10.9 8.6 15.2-12.9 16.8-54.8 6.6-58.3 32.6-1.1 7.8 2.1 16 12.2 18.7a30.8 30.8 0 0 0 26.6-6c.1-2 2.3-2.3 3.6-1.5 3.4 3.8 6.2 4.5 11.2 5 3.2.1 1.1 3.7-3.1 3.8a58.3 58.3 0 0 1-32.7 15.4c-26.3 3.4-44.8-5.4-56.6-21.6-13.8-18.9-16.1-44.6-9-77.8a51.8 51.8 0 0 1 30.6-37.5h173.3v171.2l-55.7-2.9c32.6-63.5.8-96.5-30.3-102.3l-.3-2.6c-1.8-16.7-17.7-20-19.7-28.7 0 .1-3.8 6.1-.4 19z"/>
    </g>
    <path fill="#FFF" d="M534.6 397l-2.4 1.7c-.4.3-.7 0-.6-.4l.9-2.8-2.4-1.7c-.4-.3-.2-.7.2-.7h3l.9-2.8c.1-.4.6-.4.7 0l.9 2.8h3c.5 0 .6.4.2.7l-2.4 1.7.9 2.8c.1.4-.2.7-.6.4l-2.3-1.7z"/>
    <g>
        <path fill="#FFF" d="M462.6 351.8l-2.6 1.9c-.4.3-.8 0-.6-.5l1-3.1-2.7-1.9c-.4-.3-.2-.7.2-.7h3.3l1-3.1c.2-.5.6-.5.8 0l1 3.1h3.3c.5 0 .6.5.2.7l-2.7 1.9 1 3.1c.2.5-.2.7-.6.5l-2.6-1.9z"/>
    </g>
    <path fill="#004388" d="M.2 327.9h65.6v135.7H.2V327.9z"/>
</svg>
