<svg xmlns="http://www.w3.org/2000/svg" viewBox="514.3 328.2 97.7 135.7">
    <g fill="#111D2A">
        <path d="M545.7 384.8c-8 .4-19.8.7-27.8 1-4.4-8.5-5-19.9-.2-28.3 19-32.5 80.8-22.9 78.8 18.4-1.3 27.2-24.4 21.8-24.6 41.9h-30.4c0-6-.9-11.7 3.2-18.7 6.4-10.8 22.9-8.2 22.8-23 0-3.2-1.2-6.3-3.5-8.6-1.8-1.8-4.1-3-6.6-3.5v-3.9c-14.7.4-21.4 14.3-11.7 24.7z"/>
        <path d="M555.7 455.4v-4c-3.9-.2-7-1.6-9.5-4a12.6 12.6 0 0 1-3.6-9.1c0-3.8 1.3-7 3.9-9.7 2.6-2.6 5.8-3.9 9.7-3.9a13.2 13.2 0 0 1 13.3 13.6c0 4-1.1 7.8-3.6 11a20 20 0 0 1-10.2 6.1z"/>
    </g>
</svg>
