<?xml version="1.0" encoding="utf-8"?>
<!-- Generator: Adobe Illustrator 17.1.0, SVG Export Plug-In . SVG Version: 6.00 Build 0)  -->
<!DOCTYPE svg PUBLIC "-//W3C//DTD SVG 1.1//EN" "http://www.w3.org/Graphics/SVG/1.1/DTD/svg11.dtd">
<svg version="1.1" id="erasmus" xmlns="http://www.w3.org/2000/svg" xmlns:xlink="http://www.w3.org/1999/xlink" x="0px" y="0px"
	 viewBox="418.5 328.2 193.5 135.7" enable-background="new 418.5 328.2 193.5 135.7" xml:space="preserve">
<g>
	<g>
		<g>
			<path fill="#BD902D" d="M306,396"/>
		</g>
		<g>
			<g>
				<path fill="#111D2A" d="M509.3,343.3c-0.3,0-0.6-0.1-0.8-0.3v-7.1c0.2-0.2,0.5-0.3,0.8-0.3c0.3,0,0.6,0.2,0.8,0.4v6.9
					C509.9,343.1,509.6,343.3,509.3,343.3z M507,337.3c0-0.5,0.4-0.9,0.9-1v6.3c-0.5-0.1-0.9-0.5-0.9-1V337.3z M522.6,336v6.9
					c-0.2,0.2-0.5,0.4-0.9,0.4c-0.3,0-0.6-0.1-0.8-0.4v-7c0.2-0.2,0.5-0.4,0.8-0.4C522.1,335.6,522.5,335.7,522.6,336z M524.4,341.6
					c0,0.6-0.5,1-1.2,1v-6.4c0.6,0,1.2,0.5,1.2,1V341.6z M511.5,415.5v22.4h-15.2v-22.4c0-4.7,3.4-8.6,7.6-8.6
					C508.1,406.9,511.5,410.8,511.5,415.5z M533.3,415.5v22.4h-15.2v-22.4c0-4.7,3.4-8.6,7.6-8.6
					C529.9,406.9,533.3,410.8,533.3,415.5z M443.7,463.8c4.2-40.8,7.9-52.4,10.5-61c10.8-35.5,48.1-42.2,53.2-43.2
					c3.5-0.7,5.7,1.1,6.4,3.7l0.4-20.7h-3.5v-6.4h9.8v6.4H517l0.2,20.2c1-2.1,3.3-3.6,6.4-3c5.1,1,42,8.1,52.9,43.5
					c2.6,8.5,6.3,20.1,10.4,60.5h-46.5c0-9.3,0.1-37.9,0.3-48.7c0.2-7.9,6.2-8.6,9.4-7.8c3.8,1,5,4.5,5.4,12.6
					c0.2,5.5,0.1,14,0.5,21.4c0.1,1.9,2.4,2,2.4-1.1c0-1.1,0.1-21.7-1.7-28.1c-1.9-6.6-6.6-7.1-6.6-7.1s-0.6-25.2-29-34.7
					c-2-0.7-3.2-1.8-3.9-3v0.5c0,0.6-0.5,1-1.2,1h-1.3c-0.6,0-1.2-0.5-1.2-1l0-0.9c-0.5,1.1-1.8,2.1-4.2,3
					c-29.6,10.6-29.1,34.5-29.1,34.5s-5.1,0.9-6.7,7.5c-1.6,6.4-1.6,26.8-1.6,27.9c0,3.1,2.4,3,2.4,1.1c0.4-7.4,0.2-15.9,0.5-21.4
					c0.4-8.1,2.7-12.2,6.6-13c3.6-0.7,8,0.3,8.2,8.1c0.2,8.5-0.3,32.1-1.1,49.2L443.7,463.8L443.7,463.8z"/>
			</g>
		</g>
	</g>
</g>
</svg>
