<?xml version="1.0" encoding="utf-8"?>
<!-- Generator: Adobe Illustrator 17.1.0, SVG Export Plug-In . SVG Version: 6.00 Build 0)  -->
<!DOCTYPE svg PUBLIC "-//W3C//DTD SVG 1.1//EN" "http://www.w3.org/Graphics/SVG/1.1/DTD/svg11.dtd">
<svg version="1.1" id="free_exchange" xmlns="http://www.w3.org/2000/svg" xmlns:xlink="http://www.w3.org/1999/xlink" x="0px"
	 y="0px" viewBox="451.6 328.2 160.4 135.7" enable-background="new 451.6 328.2 160.4 135.7" xml:space="preserve">
<g>
	<g>
		<g>
			<path fill="#111D2A" d="M486,366.2l-18,56.1h12.7h23.5L486,366.2z M577.6,366.2l-18.2,56.1h36.3L577.6,366.2z M520.8,463.8
				c1.2-1.6,5.5-4.3,6.1-9.6c0.7-5.8-2.9-25.9-5.5-44.5c-1.8-13.2-0.5-14.9,2-22.6c1.7-5.2,0.5-22.3-5.7-21.9c-0.3,0-0.7,0-0.9,0.1
				c-5.1,0.7-8.1,2.6-17.1,3.2c-4.9,0.3-8.6-0.3-11.3-1.2l17.7,55h1.3c0,12.3-8.8,22.4-21.2,22.4c-12.3,0-21.4-10-21.4-22.3h1.3
				l18.4-57.2c-3-3.2,3.3-7.6,5-1.3c1.2,0.6,4.7,1.4,8.8,0.9c7.7-0.8,9.3-3,16.9-5.5c4.9-1.6,8.3-2,11.6-2.1c2.4,0,2.6-2,2.1-4.6
				c-0.2-0.9-2.5-0.2-3.4-0.9c-0.9-0.6-1-3.3-0.7-5.5s0.6-7,3.9-8.3c1.9-0.8,3.8-0.5,4.6-0.4c0.5,0.1,1,0.2,1.6,0.4
				c3.3,1.3,3.7,6.1,3.9,8.3c0.2,2.2,0.2,4.9-0.7,5.5c-0.9,0.6-3.2,0-3.4,0.9c-0.5,2.5-0.2,4.5,2.1,4.6c3.3,0.1,6.7,0.5,11.6,2.1
				c7.6,2.5,9.2,4.6,16.9,5.5c4.1,0.5,7.6-0.4,8.8-0.9c1.7-6.3,8-1.9,5,1.3l18.4,57.2h1.3c0,12.3-9.1,22.3-21.4,22.3
				s-21.2-10-21.2-22.4h1.3l17.7-55c-2.6,0.9-6.4,1.6-11.3,1.2c-8.9-0.6-12-2.5-17.1-3.2c-0.3,0-0.6-0.1-0.9-0.1
				c-6.4-0.3-7.4,16.7-5.7,21.9c2.5,7.7,3.8,9.4,2,22.6c-2.6,18.6-6.2,38.7-5.5,44.5c0.6,5.3,4.9,8,6.1,9.6H520.8z"/>
		</g>
		<g>
			<path fill="#29343F" d="M571.7,424c0,1.8,0.2,3.5,0.4,5.1c1.6-0.2,3.1-0.3,4.8-0.3V424C577,424,571.7,424,571.7,424z
				 M589.6,430.2c0.6-1.8,0.9-4.1,1-6.2H585c0,1.7-0.2,3.6-0.4,5.3C586.3,429.5,588,429.8,589.6,430.2z M583.5,441.9
				c1.6-0.5,3.1-1.2,4.5-2.1c-0.5-0.3-1-0.6-1.6-0.8C585.6,440,584.6,441,583.5,441.9z M595.1,431.9c1.2-2.4,1.9-5.1,2-7.9H592
				c-0.1,2.3-0.4,4.5-1,6.6C592.4,430.9,593.8,431.4,595.1,431.9z M584.3,430.6c-0.3,1.7-0.9,4.1-1.4,5.5c1.1,0.3,2.1,0.6,3.1,1
				c1.3-1.7,2.3-3.6,3.1-5.7C587.6,431.1,586,430.9,584.3,430.6z M580.1,442.6c1.9-1.1,3.6-2.5,5.1-4.3c-0.9-0.3-1.7-0.6-2.7-0.8
				C581.8,439.3,581,441,580.1,442.6z M583.2,429.1c0.2-1.7,0.4-3.4,0.4-5.1h-5.2v4.8C580.1,428.8,581.6,428.9,583.2,429.1z
				 M578.3,442.7c1.1-1.7,2.1-3.8,2.8-5.5c-0.8-0.2-1.9-0.2-2.8-0.3V442.7z M578.3,435.6c1.1,0,2.4,0.2,3.2,0.3
				c0.5-1.5,1.1-3.7,1.4-5.4c-1.2-0.2-3.3-0.2-4.6-0.3L578.3,435.6L578.3,435.6z M564.7,424c0,2.1,0.4,4.4,1,6.2
				c1.6-0.4,3.3-0.7,5-0.9c-0.2-1.7-0.4-3.6-0.4-5.3H564.7z M567.2,439.8c1.4,0.9,2.9,1.6,4.5,2.1c-1.1-0.9-2.1-1.9-3-2.9
				C568.3,439.2,567.7,439.5,567.2,439.8z M560.2,431.9c1.4-0.5,2.8-1,4.2-1.4c-0.6-2.1-1-4.3-1-6.6h-5.2
				C558.3,426.8,559,429.5,560.2,431.9z M572.4,436.2c-0.5-1.5-1.1-3.8-1.4-5.5c-1.7,0.2-3.2,0.5-4.8,0.9c0.8,2.1,1.8,4,3.1,5.7
				C570.3,436.8,571.3,436.5,572.4,436.2z M575.2,442.6c-0.9-1.6-1.7-3.3-2.4-5.1c-1,0.2-1.8,0.5-2.7,0.8
				C571.6,440.1,573.3,441.5,575.2,442.6z M574.2,437.2c0.6,1.7,1.7,3.8,2.8,5.5V437C576.1,437,575,437.1,574.2,437.2z M573.7,435.9
				c0.9-0.2,2.2-0.3,3.2-0.3v-5.3c-1.3,0-3.4,0.1-4.6,0.3C572.6,432.2,573.2,434.4,573.7,435.9z M587.3,437.8c0.7,0.3,1.4,0.7,2,1.1
				c1.8-1.4,3.9-3.6,5.2-5.7c-1.3-0.5-2.6-0.9-4-1.3C589.6,434.2,588.6,436.1,587.3,437.8z M567.9,437.8c-1.2-1.7-2.3-3.6-3.1-5.9
				c-1.4,0.4-2.7,0.8-4,1.3c1.3,2.2,3.3,4.4,5.2,5.7C566.6,438.5,567.2,438.1,567.9,437.8z"/>
		</g>
		<g>
			<path fill="#29343F" d="M492,424c0,1.8-0.2,3.5-0.4,5.1c-1.6-0.2-3.1-0.3-4.8-0.3V424C486.7,424,492,424,492,424z M474.1,430.2
				c-0.6-1.8-0.9-4.1-1-6.2h5.6c0,1.7,0.2,3.6,0.4,5.3C477.4,429.5,475.7,429.8,474.1,430.2z M480.2,441.9c-1.6-0.5-3.1-1.2-4.5-2.1
				c0.5-0.3,1-0.6,1.6-0.8C478.1,440,479.1,441,480.2,441.9z M468.6,431.9c-1.2-2.4-1.9-5.1-2-7.9h5.2c0.1,2.3,0.4,4.5,1,6.6
				C471.3,430.9,469.9,431.4,468.6,431.9z M479.4,430.6c0.3,1.7,0.9,4.1,1.4,5.5c-1.1,0.3-2.1,0.6-3.1,1c-1.3-1.7-2.3-3.6-3.1-5.7
				C476.1,431.1,477.7,430.9,479.4,430.6z M483.6,442.6c-1.9-1.1-3.6-2.5-5.1-4.3c0.9-0.3,1.7-0.6,2.7-0.8
				C481.9,439.3,482.7,441,483.6,442.6z M480.5,429.1c-0.2-1.7-0.4-3.4-0.4-5.1h5.2v4.8C483.6,428.8,482.1,428.9,480.5,429.1z
				 M485.4,442.7c-1.1-1.7-2.1-3.8-2.8-5.5c0.8-0.2,1.9-0.2,2.8-0.3V442.7z M485.4,435.6c-1.1,0-2.4,0.2-3.2,0.3
				c-0.5-1.5-1.1-3.7-1.4-5.4c1.2-0.2,3.3-0.2,4.6-0.3L485.4,435.6L485.4,435.6z M499,424c0,2.1-0.4,4.4-1,6.2
				c-1.6-0.4-3.3-0.7-5-0.9c0.2-1.7,0.4-3.6,0.4-5.3H499z M496.5,439.8c-1.4,0.9-2.9,1.6-4.5,2.1c1.1-0.9,2.1-1.9,3-2.9
				C495.4,439.2,496,439.5,496.5,439.8z M503.5,431.9c-1.4-0.5-2.8-1-4.2-1.4c0.6-2.1,1-4.3,1-6.6h5.2
				C505.4,426.8,504.7,429.5,503.5,431.9z M491.3,436.2c0.5-1.5,1.1-3.8,1.4-5.5c1.7,0.2,3.2,0.5,4.8,0.9c-0.8,2.1-1.8,4-3.1,5.7
				C493.5,436.8,492.4,436.5,491.3,436.2z M488.5,442.6c0.9-1.6,1.7-3.3,2.4-5.1c1,0.2,1.8,0.5,2.7,0.8
				C492.1,440.1,490.4,441.5,488.5,442.6z M489.5,437.2c-0.6,1.7-1.7,3.8-2.8,5.5V437C487.6,437,488.7,437.1,489.5,437.2z
				 M490,435.9c-0.9-0.2-2.2-0.3-3.2-0.3v-5.3c1.3,0,3.4,0.1,4.6,0.3C491.1,432.2,490.5,434.4,490,435.9z M476.4,437.8
				c-0.7,0.3-1.4,0.7-2,1.1c-1.8-1.4-3.9-3.6-5.2-5.7c1.3-0.5,2.6-0.9,4-1.3C474.1,434.2,475.1,436.1,476.4,437.8z M495.8,437.8
				c1.2-1.7,2.3-3.6,3.1-5.9c1.4,0.4,2.7,0.8,4,1.3c-1.3,2.2-3.3,4.4-5.2,5.7C497.1,438.5,496.5,438.1,495.8,437.8z"/>
		</g>
		<g>
			<path fill="#D3B02A" d="M574.8,409.2c0.3,0.1,0.4,0.3,0.5,0.6c0,0,1.1,4,1.3,5.3c0.1,0.5,0,0.8-0.3,0.9h2.6
				c-0.3-0.2-0.4-0.4-0.3-0.9c0.3-1.4,1.3-5.3,1.3-5.3c0.1-0.2,0.2-0.5,0.5-0.6H574.8z M563.4,422.3c0-0.1,0-0.2,0-0.3
				c0.3-1.4,1.3-5.3,1.3-5.3c0.1-0.3,0.3-0.6,0.9-0.6h2.5c-0.3-0.2-0.4-0.4-0.3-0.9c0.3-1.4,1.3-5.3,1.3-5.3
				c0.1-0.3,0.3-0.6,0.9-0.6h3.5c-0.4-0.1-0.6-0.4-0.5-1c0.3-1.4,1.3-5.3,1.3-5.3c0.1-0.3,0.3-0.6,0.9-0.6h4.3
				c0.6,0,0.7,0.3,0.9,0.6c0,0,1.1,4,1.3,5.3c0.1,0.6-0.1,0.9-0.5,1h3.8c0.6,0,0.7,0.3,0.9,0.6c0,0,1.1,4,1.3,5.3
				c0.1,0.5,0,0.8-0.3,0.9h2.4c0.6,0,0.7,0.3,0.9,0.6c0,0,1.1,4,1.3,5.3c0,0.1,0,0.2,0,0.3h-8.8c0-0.1,0-0.2,0-0.3
				c0.3-1.4,1.3-5.3,1.3-5.3c0.1-0.2,0.2-0.4,0.3-0.5h-4.3c0.2,0.1,0.2,0.3,0.3,0.5c0,0,1.1,4,1.3,5.3c0,0.1,0,0.2,0,0.3h-8.8
				c0-0.1,0-0.2,0-0.3c0.3-1.4,1.3-5.3,1.3-5.3c0.1-0.2,0.2-0.4,0.3-0.5h-4.3c0.2,0.1,0.2,0.3,0.3,0.5c0,0,1.1,4,1.3,5.3
				c0,0.1,0,0.2,0,0.3H563.4z"/>
		</g>
	</g>
	<g>
		<path fill="#D3B02A" d="M489,409.2c-0.3,0.1-0.4,0.3-0.5,0.6c0,0-1.1,4-1.3,5.3c-0.1,0.5,0,0.8,0.3,0.9h-2.6
			c0.3-0.2,0.4-0.4,0.3-0.9c-0.3-1.4-1.3-5.3-1.3-5.3c-0.1-0.2-0.2-0.5-0.5-0.6H489z M500.3,422.3c0-0.1,0-0.2,0-0.3
			c-0.3-1.4-1.3-5.3-1.3-5.3c-0.1-0.3-0.3-0.6-0.9-0.6h-2.5c0.3-0.2,0.4-0.4,0.3-0.9c-0.3-1.4-1.3-5.3-1.3-5.3
			c-0.1-0.3-0.3-0.6-0.9-0.6h-3.5c0.4-0.1,0.6-0.4,0.5-1c-0.3-1.4-1.3-5.3-1.3-5.3c-0.1-0.3-0.3-0.6-0.9-0.6h-4.3
			c-0.6,0-0.7,0.3-0.9,0.6c0,0-1.1,4-1.3,5.3c-0.1,0.6,0.1,0.9,0.5,1h-3.8c-0.6,0-0.7,0.3-0.9,0.6c0,0-1.1,4-1.3,5.3
			c-0.1,0.5,0,0.8,0.3,0.9h-2.4c-0.6,0-0.7,0.3-0.9,0.6c0,0-1.1,4-1.3,5.3c0,0.1,0,0.2,0,0.3l0,0h8.8c0-0.1,0-0.2,0-0.3
			c-0.3-1.4-1.3-5.3-1.3-5.3c-0.1-0.2-0.2-0.4-0.3-0.5h4.3c-0.2,0.1-0.2,0.3-0.3,0.5c0,0-1.1,4-1.3,5.3c0,0.1,0,0.2,0,0.3l0,0h8.8
			c0-0.1,0-0.2,0-0.3c-0.3-1.4-1.3-5.3-1.3-5.3c-0.1-0.2-0.2-0.4-0.3-0.5h4.3c-0.2,0.1-0.2,0.3-0.3,0.5c0,0-1.1,4-1.3,5.3
			c0,0.1,0,0.2,0,0.3l0,0H500.3z"/>
	</g>
</g>
</svg>
