<?xml version="1.0" encoding="utf-8"?>
<!-- Generator: Adobe Illustrator 17.1.0, SVG Export Plug-In . SVG Version: 6.00 Build 0)  -->
<!DOCTYPE svg PUBLIC "-//W3C//DTD SVG 1.1//EN" "http://www.w3.org/Graphics/SVG/1.1/DTD/svg11.dtd">
<svg version="1.1" id="game_theory" xmlns="http://www.w3.org/2000/svg" xmlns:xlink="http://www.w3.org/1999/xlink" x="0px"
	 y="0px" viewBox="421.5 328.1 190.5 135.7" enable-background="new 421.5 328.1 190.5 135.7" xml:space="preserve">
<g>
	<path fill="#5E9732" d="M306,396"/>
</g>
<g>
	<path d="M516.3,332.5c2.6,1.8,5.2,3.8,7.8,5.7C521.5,336.3,518.9,334.4,516.3,332.5L516.3,332.5z"/>
	<path d="M538,340L538,340c-0.9,0-1.9,0-2.8,0C536.1,340,537.1,340,538,340z"/>
	<path d="M503.1,342.3c-2.1,0.3-4.2,0.5-6.2,0.9C498.9,342.8,501,342.6,503.1,342.3z"/>
	<path d="M535.2,340c-1.9,0-3.8,0.1-5.7,0.1C531.5,340.1,533.3,340,535.2,340z"/>
	<polygon fill="none" points="535.5,328.2 538.4,328.2 538.4,328.2 	"/>
	<polygon fill="none" points="488.7,328.2 491.5,328.2 491.5,328.2 	"/>
	<polygon fill="none" points="571.7,328.2 574.7,328.2 574.7,328.2 	"/>
	<polygon fill="none" points="448.4,328.2 451.4,328.2 451.4,328.2 	"/>
	<polygon fill="none" points="504.8,328.2 509.9,328.2 509.9,328.2 	"/>
	<polygon fill="none" points="516.8,328.2 520.8,328.2 520.8,328.2 	"/>
	<path d="M506.4,338.7c-0.7,0.8-1.5,1.6-2.2,2.4C504.9,340.3,505.7,339.5,506.4,338.7z"/>
	<path d="M427.7,376.5c0.8,9.5,15.8,16.1,37.7,19.1c-9.9,19.4-12.9,35.2-5.7,41.3c3.1,2.6,7.6,3,13,1.7c0.1,0.2,0.2,0.5,0.4,0.7
		c2.7,4.3,8.5,5.7,12.8,3c3.9-2.4,5.4-7.3,3.7-11.4c3.1-1.9,6.4-4.2,9.7-6.6c6.7,20.9,15.8,34.5,25.3,33.7
		c9.6-0.8,16.2-16,19.2-38.1c19.7,10.2,35.9,13.4,42,6.1c2.3-2.7,2.9-6.6,2.1-11.2c3.4-1.9,5.5-5.6,5-9.7c-0.6-5.4-5.4-9.3-10.8-8.8
		c-0.7,0.1-1.3,0.2-1.9,0.4c-2.1-3.4-4.5-6.9-7.2-10.5c20.5-6.7,33.8-15.7,33-25.1c-0.8-9.4-15.6-16-37.3-19
		c2.5-4.8,4.6-9.4,6.2-13.7h-3c-1.6,4.1-3.6,8.6-6.1,13.3c-7.6-0.9-15.9-1.4-24.8-1.5c-0.7-4.1-1.6-8-2.5-11.8h-2.8
		c0.9,3.8,1.7,7.7,2.5,11.8l0,0l0,0l0,0c-0.9,0-1.9,0-2.8,0c-1.9,0-3.8,0.1-5.7,0.1c-0.9,0-1.9,0.1-2.9,0.1c-0.9-0.7-1.7-1.4-2.6-2
		c-2.6-2-5.2-3.9-7.8-5.7l0,0l0,0l0,0c1.5-1.5,3.1-3,4.6-4.4h-4c-0.9,0.9-1.9,1.8-2.8,2.8c-1.4-0.9-2.7-1.9-4.1-2.8h-5.1
		c2.4,1.5,4.7,3.1,7.2,4.7c-1.9,1.9-3.7,3.8-5.6,5.8c-0.7,0.8-1.5,1.6-2.2,2.4c-0.4,0.4-0.7,0.8-1.1,1.2c-2.1,0.3-4.2,0.5-6.2,0.9
		c-1,0.2-2,0.3-3.1,0.5c-1,0.2-2,0.3-3,0.5c1-0.2,2-0.3,3-0.5c-1,0.2-2,0.3-3,0.5c0-5.6,0.3-10.9,0.7-16h-2.8
		c-0.4,5.2-0.6,10.7-0.7,16.4c-8.4,1.5-16.2,3.4-23.3,5.5c-6.3-8.2-10.9-15.7-13.4-22h-3c2.5,6.7,7.2,14.5,13.5,22.8
		C440.6,357.7,426.8,366.9,427.7,376.5z M478.6,441c-0.4-0.1-0.7-0.3-1.1-0.5c-1-0.6-1.9-1.4-2.6-2.5c-1-1.5-1.3-3.3-1-4.9
		c0.3,0.1,0.6,0.2,0.9,0.3c0.6,0.2,1.1,0.5,1.6,0.9c0.6,0.5,1.1,1,1.5,1.6c0.1,0.2,0.2,0.4,0.3,0.6c0.2,0.3,0.3,0.6,0.4,0.9
		c0,0.1,0.1,0.2,0.1,0.3c0,0.2,0.1,0.4,0.1,0.7c0,0.2,0,0.4,0,0.7c0,0.1,0,0.2,0,0.3C478.8,439.9,478.7,440.5,478.6,441z
		 M483.9,440.8c-0.3,0.1-0.6,0.2-0.9,0.4c-0.6,0.2-1.3,0.3-2,0.3c-0.3,0-0.7,0-1-0.1l0,0l0,0c0.2-0.6,0.3-1.3,0.3-1.9
		c0-0.1,0-0.3,0-0.4c0-1.3-0.4-2.7-1.2-3.9c-0.5-0.8-1.1-1.4-1.8-2c-0.6-0.5-1.2-0.8-1.9-1.1c-0.3-0.1-0.7-0.2-1.1-0.3l0,0l0,0
		c0.1-0.3,0.2-0.6,0.4-0.9c0.2-0.4,0.5-0.8,0.8-1.2c0.2-0.2,0.5-0.5,0.7-0.7c0.1-0.1,0.2-0.2,0.4-0.3L483.9,440.8L483.9,440.8
		L483.9,440.8z M487.7,436.7c-0.1,0.2-0.1,0.3-0.2,0.5c-0.2,0.5-0.5,0.9-0.8,1.4c-0.2,0.3-0.4,0.5-0.7,0.8c-0.2,0.2-0.5,0.5-0.8,0.7
		l-7.3-12.1c0.2-0.1,0.3-0.1,0.5-0.2c0.3-0.1,0.7-0.2,1-0.3c0.7-0.1,1.4-0.2,2-0.1c0.2,0,0.3,0,0.5,0l0,0l0,0
		c-0.1,0.5-0.2,1-0.2,1.5c0,0.1,0,0.2,0,0.4s0,0.2,0,0.4c0,0.2,0,0.5,0.1,0.8s0.1,0.5,0.2,0.8c0.1,0.4,0.2,0.7,0.4,1.1
		c0.1,0.2,0.2,0.5,0.4,0.7c0.1,0.1,0.1,0.2,0.2,0.4c0.6,1,1.4,1.8,2.4,2.4c0.2,0.1,0.4,0.2,0.6,0.4c0.3,0.2,0.7,0.3,1,0.4
		C487.2,436.5,487.5,436.6,487.7,436.7L487.7,436.7L487.7,436.7z M488,435.2c-0.2,0-0.4-0.1-0.6-0.2c-0.2-0.1-0.4-0.1-0.5-0.2
		c-0.2-0.1-0.4-0.2-0.5-0.3c-0.2-0.2-0.5-0.3-0.7-0.5c-0.6-0.4-1-1-1.4-1.6c-0.1-0.1-0.1-0.2-0.2-0.3c-0.1-0.2-0.2-0.4-0.3-0.6
		c0-0.1-0.1-0.2-0.1-0.3c-0.1-0.2-0.1-0.4-0.2-0.6s-0.1-0.4-0.1-0.6c0-0.3-0.1-0.6-0.1-0.9c0-0.5,0-1,0.2-1.5
		c0.2,0.1,0.4,0.1,0.5,0.2c0.4,0.2,0.7,0.3,1,0.6c0.3,0.2,0.6,0.5,0.9,0.7c0.4,0.4,0.8,0.9,1.2,1.4C487.9,432,488.2,433.6,488,435.2
		z M497,422.3c-0.9,0.7-1.7,1.3-2.6,1.9c-2.1,1.5-4.3,2.9-6.3,4.2c-1.1-1.3-2.5-2.3-4.1-2.8c-0.4-0.1-0.8-0.2-1.2-0.3
		c-0.1,0-0.3,0-0.4-0.1c-0.4-0.1-0.8-0.1-1.2-0.1c-1.2,0-2.5,0.2-3.7,0.6c-0.3,0.1-0.5,0.2-0.8,0.3c-0.2,0.1-0.5,0.3-0.8,0.4
		c-0.2,0.1-0.4,0.3-0.6,0.4c-0.2,0.1-0.4,0.3-0.6,0.5c-0.1,0.1-0.2,0.2-0.3,0.2c-0.2,0.2-0.5,0.5-0.7,0.7c-0.9,1.1-1.5,2.3-1.9,3.6
		c-0.1,0.2-0.1,0.4-0.2,0.7c-0.2,1.1-0.2,2.3,0,3.4c-0.6,0.1-1.1,0.2-1.7,0.3c-0.3,0-0.5,0.1-0.8,0.1c-1,0.1-2,0.2-2.9,0.1
		c-0.2,0-0.5,0-0.7,0c-0.7-0.1-1.3-0.2-1.8-0.4c-0.4-0.1-0.7-0.3-1.1-0.4c-0.5-0.2-1-0.6-1.4-0.9c-2-1.7-3-4.5-3-8.3
		c0-0.5,0-1,0-1.6c0-0.9,0.2-1.9,0.3-2.9c0.1-0.6,0.2-1.2,0.3-1.9c0-0.2,0.1-0.4,0.1-0.6c0.1-0.7,0.3-1.3,0.5-2
		c0.6-2.3,1.3-4.7,2.3-7.2c0.2-0.5,0.4-1,0.6-1.6s0.4-1.1,0.6-1.6c0.1-0.3,0.2-0.5,0.3-0.8c0.7-1.6,1.4-3.3,2.2-5s1.7-3.5,2.6-5.2
		c0.9,0.1,1.9,0.2,2.8,0.3c2.9,0.3,5.9,0.5,8.9,0.7c1,0.1,2.1,0.1,3.1,0.2c1,0,2.1,0.1,3.1,0.1c2.1,0.1,4.3,0.1,6.4,0.1
		c0.1,0.5,0.2,1.1,0.3,1.6c0.2,1.1,0.4,2.1,0.6,3.2c0.1,0.5,0.2,1,0.3,1.6c0.2,1,0.4,2.1,0.7,3.1c0.1,0.5,0.2,1,0.3,1.5
		c0.7,3,1.4,6,2.2,8.8c0.1,0.5,0.3,0.9,0.4,1.4c0.3,0.9,0.5,1.9,0.8,2.8C497.9,421.6,497.5,422,497,422.3z M493.4,384.3
		c1,0.9,2,1.7,3,2.6c1,0.9,2,1.7,3,2.6c0.5,0.4,1,0.8,1.5,1.2c1,0.8,2,1.7,3,2.5c0.5,0.4,1,0.8,1.5,1.2c-0.9,0-1.8,0.1-2.7,0.1
		c-2.6,0.1-5.2,0.1-7.8,0.1c-0.3-1.7-0.6-3.4-0.8-5.1C493.9,387.8,493.6,386,493.4,384.3L493.4,384.3L493.4,384.3z M500,416.9
		c-0.2-0.9-0.5-1.7-0.7-2.6c-0.3-1.3-0.7-2.7-1-4c-0.3-1.4-0.7-2.8-1-4.2c-0.6-2.8-1.2-5.7-1.8-8.8l0,0l0,0c4.3,0,8.8-0.1,13.3-0.4
		c1.6,1.2,3.1,2.4,4.7,3.6c1.6,1.2,3.1,2.3,4.7,3.4l0,0l0,0c-1.9,1.9-3.7,3.6-5.6,5.3c-0.4,0.3-0.7,0.7-1.1,1
		c-0.7,0.7-1.5,1.3-2.2,2c-0.7,0.7-1.4,1.3-2.2,1.9c-0.4,0.3-0.7,0.6-1.1,0.9c-0.7,0.6-1.4,1.2-2.1,1.8c-1.1,0.9-2.1,1.7-3.2,2.6
		C500.5,418.6,500.2,417.8,500,416.9z M513,396.7c1-0.1,2-0.1,3.1-0.2c1-0.1,2-0.2,3.1-0.2c1.2-0.1,2.4-0.2,3.6-0.3
		c1.2-0.1,2.4-0.2,3.6-0.4c-1,1.1-2.1,2.2-3.1,3.3s-2.1,2.1-3.1,3.1c-1.2-0.8-2.4-1.7-3.6-2.6C515.5,398.5,514.2,397.7,513,396.7z
		 M524.3,455c-0.8,0.1-1.7,0-2.5-0.2c-0.2-0.1-0.5-0.2-0.7-0.2c-0.2-0.1-0.5-0.2-0.7-0.3c-0.1-0.1-0.2-0.1-0.4-0.2
		c-0.6-0.3-1.2-0.7-1.9-1.2c-0.4-0.3-0.7-0.6-1.1-0.9c-1.5-1.3-3-3.1-4.4-5.2c-0.4-0.5-0.7-1.1-1.1-1.7c-0.1-0.2-0.2-0.4-0.4-0.6
		c-1.1-1.8-2.2-3.8-3.2-5.9c-0.2-0.5-0.5-1-0.7-1.5s-0.5-1-0.7-1.5c-0.2-0.5-0.5-1-0.7-1.6c-0.3-0.8-0.7-1.6-1-2.5
		c-0.2-0.6-0.5-1.1-0.7-1.7c-0.2-0.6-0.4-1.2-0.7-1.8c-0.2-0.6-0.4-1.2-0.6-1.8c-0.4-1.2-0.8-2.5-1.2-3.8
		c6.1-4.8,12.5-10.4,18.9-16.8c7.1,4.9,14,9.2,20.6,12.7C538.3,440.2,532,454.3,524.3,455z M542.6,397.7c0,1,0,1.9-0.1,2.9
		c-0.1,1.9-0.2,3.8-0.3,5.6c-0.1,0.9-0.1,1.8-0.2,2.7c-0.1,0.9-0.1,1.8-0.2,2.6c-0.1,1.3-0.2,2.6-0.4,3.8c-0.4-0.2-0.7-0.4-1.1-0.6
		c-1.5-0.8-3.1-1.7-4.6-2.6c-1.2-0.7-2.4-1.4-3.5-2.1c-3.2-2-6.4-4.1-9.7-6.3c0.7-0.7,1.4-1.4,2-2.1c2-2.1,4-4.2,6.1-6.4
		c2.1-0.3,4.1-0.5,6.1-0.8c2-0.3,4-0.6,6-0.9C542.7,394.7,542.6,396.2,542.6,397.7z M542.7,390.4c-1.5,0.3-3,0.5-4.6,0.7
		c-1.5,0.2-3.1,0.5-4.7,0.7c1.2-1.4,2.5-2.8,3.7-4.3c0.4-0.5,0.8-1,1.2-1.4c0.7-0.8,1.4-1.7,2.1-2.5c0.7-0.8,1.4-1.7,2-2.5
		c0.1,2.4,0.1,4.7,0.2,7.1C542.7,388.9,542.7,389.7,542.7,390.4L542.7,390.4L542.7,390.4z M543.5,358.2L543.5,358.2L543.5,358.2
		c0.6,0.6,1.3,1.2,1.9,1.8c1.9,1.8,3.7,3.6,5.5,5.3l0,0l0,0c-0.9,1.4-1.9,2.7-2.9,4.1c-1,1.4-2,2.8-3.1,4.2
		c-0.2-2.4-0.3-4.8-0.5-7.3c-0.2-2-0.4-4.1-0.6-6.1C543.7,359.5,543.6,358.8,543.5,358.2z M551,369.9c0.6-0.9,1.3-1.7,1.9-2.6
		c1.1,1.1,2.2,2.2,3.2,3.3c0.7,0.7,1.4,1.5,2.1,2.2c0.3,0.4,0.7,0.7,1,1.1c0.7,0.7,1.3,1.4,1.9,2.2c0.6,0.7,1.3,1.4,1.9,2.1
		c1.2,1.4,2.4,2.8,3.6,4.2c0.6,0.7,1.1,1.4,1.7,2.1c-0.9,0.2-1.7,0.5-2.6,0.8s-1.8,0.5-2.7,0.7c-0.5,0.1-0.9,0.2-1.4,0.4
		c-0.9,0.2-1.9,0.5-2.8,0.7c-0.5,0.1-0.9,0.2-1.4,0.3c-0.9,0.2-1.9,0.5-2.9,0.7c-2.9,0.7-5.9,1.3-9.1,1.9c0-4-0.1-8.1-0.3-12.2
		c1.4-1.8,2.7-3.5,4-5.3C549.8,371.6,550.4,370.8,551,369.9z M588.6,411.2c-0.2,0.2-0.5,0.5-0.7,0.7c-0.3,0.2-0.5,0.4-0.8,0.6
		c-0.3,0.2-0.6,0.3-0.9,0.5c-0.2,0.1-0.3,0.1-0.5,0.2l-0.3-0.2l-0.3-0.2l-0.8-0.5l-0.1-1.1l-0.1-1.4l-0.1-0.5l0,0l0,0l1.9-1.7
		l2.5,0.9l0.2,0.7l0.3,1.6C588.8,411,588.7,411.1,588.6,411.2z M588.1,401.3l1.3,0c0.4,0.5,0.7,1.1,0.9,1.7c0.1,0.3,0.2,0.6,0.3,0.9
		c0.1,0.3,0.1,0.7,0.2,1c0,0.3,0,0.6,0,0.9l-0.9,0.6l-0.5,0.3l-0.5,0.3l-2.3-0.8l-1.1-2.5l1.6-2.4L588.1,401.3z M579.2,399.1
		c0.2-0.1,0.5-0.2,0.7-0.4c0.7-0.3,1.5-0.5,2.4-0.6c0.6-0.1,1.2,0,1.8,0c0.2,0,0.5,0.1,0.7,0.1c0.1,0,0.2,0,0.3,0.1l0.7,2l-0.8,1.2
		l-0.8,1.2l-2.9,0.2l-2.1-1.9l0-1.1L579.2,399.1L579.2,399.1L579.2,399.1z M582.8,412.4l-0.8,0.7l-0.4,0.3c-0.2,0-0.4-0.1-0.5-0.1
		c-0.4-0.1-0.7-0.2-1-0.4c-0.2-0.1-0.3-0.1-0.5-0.2c-0.2-0.1-0.4-0.2-0.6-0.4c-0.4-0.2-0.8-0.5-1.1-0.9l0.1-1.1l0-0.9l2.2-1.3
		l2.3,1.4l0.1,1.4L582.8,412.4L582.8,412.4L582.8,412.4z M580.1,404l-0.6,2.8l-2.2,1.3l-0.8-0.4l-1.1-0.5c0-0.1,0-0.2,0-0.3
		c0-0.1,0-0.2,0-0.3c0-0.2,0-0.3,0-0.5c0-0.8,0-1.5,0.2-2.2c0.1-0.3,0.2-0.6,0.2-0.8l1.6-0.6l0.8-0.3L580.1,404z M577.6,397.6
		L577.6,397.6L577.6,397.6c-0.9,0.6-1.7,1.4-2.4,2.3c-0.4,0.5-0.7,1.1-1,1.7c-0.2,0.4-0.4,0.8-0.5,1.2c-0.1,0.2-0.1,0.4-0.2,0.6
		c-0.2,0.7-0.2,1.3-0.3,2c0,0.5,0,0.9,0,1.4c0.1,1.2,0.5,2.3,0.9,3.3c0.1,0.3,0.3,0.6,0.5,0.8c0.1,0.1,0.2,0.3,0.3,0.4
		c0.3,0.4,0.6,0.8,0.9,1.1c0.2,0.2,0.4,0.5,0.7,0.7c0.6,0.5,1.2,1,1.9,1.4c0.3,0.2,0.6,0.3,0.9,0.4c0.3,0.1,0.6,0.2,0.9,0.3
		c0.3,0.1,0.6,0.2,0.9,0.2c0.9,0.2,1.9,0.2,3,0.1c0.4,0,0.7-0.1,1.1-0.2c0.1,0.5,0.1,0.9,0.2,1.3c0.1,1.5,0.1,2.9-0.2,4.1
		c-0.2,0.7-0.4,1.3-0.7,1.9c-0.2,0.4-0.5,0.8-0.8,1.2c-1.9,2.2-5.2,3.2-9.6,3c-0.2,0-0.4,0-0.6,0c-1.5-0.1-3.1-0.3-4.9-0.7
		c-0.7-0.1-1.3-0.3-2-0.5c-1.1-0.3-2.3-0.6-3.5-1c-1.2-0.4-2.5-0.8-3.8-1.3c-0.2-0.1-0.5-0.2-0.8-0.3c-0.5-0.2-1.1-0.4-1.6-0.6
		c-0.5-0.2-1.1-0.4-1.6-0.7c-0.8-0.3-1.7-0.7-2.5-1.1c-0.6-0.2-1.1-0.5-1.7-0.8c-2.3-1-4.7-2.2-7.1-3.5l0,0l0,0
		c0.2-1.4,0.3-2.8,0.4-4.2c0.2-2.4,0.4-4.8,0.5-7.3c0.1-1.5,0.2-3,0.2-4.6c0.1-1.5,0.1-3.1,0.1-4.7c0-1,0-2.1,0-3.2
		c5.6-1,10.9-2.2,15.9-3.5c1.5-0.4,3-0.8,4.5-1.2c1.4-0.4,2.9-0.8,4.3-1.3c0.6,0.7,1.1,1.5,1.7,2.2c0.3,0.4,0.6,0.8,0.9,1.2
		C574.4,392.8,576.1,395.3,577.6,397.6z M567.2,344.5c7.4,1,13.8,2.4,19.2,4c0.5,0.2,1,0.3,1.4,0.5c0.2,0.1,0.5,0.2,0.7,0.2
		c0.5,0.2,0.9,0.3,1.3,0.5c1.1,0.4,2.1,0.9,3.1,1.3c0.6,0.3,1.2,0.5,1.7,0.8c1.1,0.6,2.1,1.1,2.9,1.7c0.4,0.3,0.9,0.6,1.2,0.9
		c0.8,0.6,1.5,1.2,2,1.9c0.3,0.3,0.5,0.7,0.8,1c0.2,0.2,0.3,0.5,0.4,0.7c0.2,0.3,0.4,0.7,0.5,1c0.1,0.2,0.2,0.5,0.2,0.7
		c0.1,0.5,0.2,0.9,0.3,1.4c0.1,0.7,0,1.4-0.2,2.1c-0.1,0.4-0.2,0.7-0.3,1.1c-0.1,0.2-0.2,0.5-0.3,0.7c-0.1,0.2-0.2,0.5-0.4,0.7
		s-0.3,0.5-0.5,0.7c-0.4,0.6-0.9,1.2-1.4,1.8c-0.3,0.4-0.7,0.7-1.1,1.1c-0.4,0.4-0.8,0.7-1.2,1.1c-0.6,0.5-1.2,1-1.8,1.5
		c-0.3,0.2-0.7,0.5-1,0.7s-0.7,0.5-1.1,0.7c-0.4,0.2-0.7,0.5-1.1,0.7s-0.8,0.5-1.2,0.7c-0.8,0.5-1.7,0.9-2.6,1.4
		c-0.5,0.2-0.9,0.5-1.4,0.7c-0.2,0.1-0.5,0.2-0.7,0.3c-0.5,0.2-0.9,0.5-1.4,0.7c-4.2,1.9-9,3.8-14.4,5.5c-0.3-0.4-0.6-0.8-0.9-1.1
		c-0.6-0.8-1.2-1.5-1.9-2.3c-0.3-0.4-0.6-0.8-0.9-1.2c-1-1.2-2-2.3-3-3.5c-0.7-0.8-1.4-1.6-2.1-2.4c-2.5-2.7-5.1-5.5-7.8-8.3
		c0.6-0.9,1.2-1.8,1.8-2.6c1.5-2.2,2.9-4.4,4.2-6.5c0.5-0.9,1.1-1.7,1.6-2.6C563.9,350.2,565.6,347.3,567.2,344.5z M547.4,342.9
		c1,0,2,0.1,3,0.1c1.5,0.1,2.9,0.1,4.3,0.2c1.4,0.1,2.8,0.2,4.2,0.3c1.8,0.2,3.6,0.3,5.4,0.5l0,0l0,0c-0.6,1.1-1.2,2.3-1.9,3.4
		c-0.4,0.8-0.9,1.5-1.3,2.3c-0.5,0.8-0.9,1.6-1.4,2.3c-0.5,0.8-1,1.6-1.5,2.4c-1.5,2.4-3.1,4.8-4.7,7.2c-0.3,0.4-0.6,0.8-0.8,1.2
		c-1.5-1.5-3.1-3-4.7-4.5c-0.8-0.7-1.6-1.5-2.4-2.3c-0.8-0.7-1.6-1.5-2.5-2.2c-0.4-2.8-0.8-5.7-1.2-8.4c-0.2-0.9-0.3-1.8-0.5-2.8
		C543.4,342.8,545.4,342.8,547.4,342.9z M534.3,342.8c1.4,0,2.8,0,4.2,0c0.1,0.7,0.2,1.4,0.3,2.1c0.3,2.1,0.7,4.2,1,6.3l0,0l0,0
		c-0.8-0.7-1.6-1.4-2.4-2.1c-0.8-0.7-1.6-1.4-2.4-2c-0.4-0.3-0.8-0.7-1.2-1c-1.2-1-2.5-2.1-3.8-3.1
		C531.5,342.9,532.9,342.8,534.3,342.8z M507.3,341.8c1.2-1.3,2.3-2.5,3.5-3.7s2.3-2.4,3.5-3.6c1.3,0.9,2.7,1.9,4,2.9
		c1.4,1,2.7,2,4.1,3.1l0,0l0,0c-2,0.1-4,0.3-6.1,0.4c-0.7,0-1.4,0.1-2,0.2c-1.2,0.1-2.4,0.2-3.5,0.3
		C509.6,341.5,508.5,341.7,507.3,341.8L507.3,341.8L507.3,341.8z M504.5,344.9c3.3-0.4,6.7-0.8,10.1-1.1c0.9-0.1,1.9-0.2,2.8-0.2
		c1.9-0.2,3.8-0.3,5.6-0.4c0.9,0,1.9-0.1,2.8-0.2c2.5,1.9,5,4,7.5,6.1c1.8,1.5,3.6,3.1,5.4,4.6c0.6,0.5,1.2,1,1.7,1.5
		c0.1,0.9,0.2,1.8,0.3,2.8c0.3,2.8,0.6,5.6,0.9,8.4c0.1,0.9,0.2,1.8,0.2,2.6c0.2,2.6,0.4,5.2,0.5,7.7l0,0l0,0
		c-1.5,1.9-3,3.7-4.5,5.6c-0.5,0.6-1,1.2-1.6,1.9c-0.6,0.7-1.2,1.4-1.8,2.1c-1.8,2.1-3.5,4.1-5.3,6c-3.3,0.4-6.8,0.8-10.3,1.1
		c-3.1,0.3-6.2,0.5-9.3,0.7c-2.5-1.9-4.9-3.9-7.4-6c-0.4-0.3-0.7-0.6-1.1-0.9c-0.7-0.6-1.4-1.2-2.1-1.8c-2.1-1.8-4.2-3.6-6.2-5.5
		c-0.1-0.7-0.2-1.5-0.3-2.3c-0.2-1.5-0.3-3.1-0.5-4.6c-0.1-0.8-0.1-1.6-0.2-2.3c-0.3-3.4-0.5-6.8-0.7-10.1c1.1-1.4,2.2-2.8,3.3-4.2
		c1.1-1.4,2.3-2.8,3.5-4.2c1.1-1.3,2.1-2.5,3.2-3.8S503.4,346.1,504.5,344.9z M490.8,346.9c0.8-0.1,1.5-0.3,2.3-0.4
		c0.8-0.1,1.6-0.2,2.4-0.4c1.6-0.2,3.2-0.5,4.8-0.7l0,0l0,0c-0.7,0.8-1.4,1.7-2.2,2.5c-0.7,0.8-1.4,1.7-2.2,2.6c-0.8,1-1.7,2-2.5,3
		c-0.8,1-1.6,2-2.4,3c-0.1-2.4-0.2-4.9-0.2-7.2C490.8,348.5,490.8,347.7,490.8,346.9L490.8,346.9L490.8,346.9z M490.7,384.8
		c0.5,3.3,0.9,6.6,1.5,9.8c-0.5,0-1,0-1.5,0c-1.5,0-3,0-4.5-0.1c-1,0-1.9-0.1-2.9-0.1c-0.9,0-1.9-0.1-2.8-0.1
		c-0.9,0-1.9-0.1-2.8-0.2c-1.8-0.1-3.6-0.3-5.4-0.5c-0.9-0.1-1.7-0.2-2.6-0.3c0.4-0.8,0.9-1.6,1.3-2.4c0.7-1.2,1.4-2.4,2.1-3.6
		c0.5-0.8,1-1.6,1.5-2.4c1-1.7,2-3.3,3.1-5c1.1-1.7,2.2-3.4,3.4-5.1c0.3-0.4,0.6-0.9,0.9-1.3c0.7,0.7,1.4,1.3,2,2
		c1.4,1.3,2.8,2.6,4.2,4c0.7,0.7,1.4,1.3,2.1,2C490.4,382.5,490.5,383.7,490.7,384.8z M488.9,367.6c0.1,1.2,0.2,2.3,0.3,3.5
		c0.2,2.1,0.4,4.1,0.6,6.1c-1.1-1-2.1-2-3.2-3c-1-1-2.1-2-3.1-3c0.8-1.2,1.7-2.3,2.5-3.5c0.4-0.6,0.9-1.2,1.3-1.8
		c0.4-0.6,0.9-1.2,1.3-1.8C488.7,365.3,488.8,366.4,488.9,367.6z M469,351.7c2.1-0.6,4.2-1.1,6.4-1.7c1.3-0.3,2.7-0.6,4-0.9
		c2.7-0.6,5.6-1.2,8.5-1.7c0,1,0,2,0,3.1c0,1,0,2.1,0.1,3.1c0,2.1,0.1,4.2,0.2,6.3l0,0l0,0c-0.3,0.4-0.6,0.8-0.9,1.2
		c-2.1,2.7-4.1,5.4-6,8.1c-1.1-1.1-2.1-2.1-3.1-3.2c-1.4-1.4-2.7-2.8-3.9-4.2c-0.9-1.1-1.9-2.1-2.8-3.1c-0.9-1-1.8-2.1-2.6-3.1
		c-0.6-0.7-1.1-1.4-1.7-2c-0.3-0.3-0.5-0.7-0.8-1C467.4,352.2,468.2,352,469,351.7z M465.5,355.5c0.6,0.7,1.2,1.5,1.9,2.2
		s1.3,1.5,1.9,2.3c0.7,0.7,1.3,1.5,2,2.3c1,1.1,2.1,2.3,3.1,3.4c0.7,0.8,1.4,1.5,2.1,2.3c1.1,1.2,2.2,2.3,3.3,3.5l0,0l0,0
		c-0.9,1.4-1.9,2.8-2.8,4.1c-0.9,1.4-1.8,2.7-2.6,4.1c-0.6,0.9-1.1,1.8-1.7,2.7c-2.2,3.6-4.2,7.1-6,10.5
		c-11.9-1.6-21.4-4.1-27.7-7.4c-0.5-0.3-1.1-0.6-1.6-0.9c-0.7-0.4-1.3-0.8-1.9-1.2c-0.3-0.2-0.6-0.4-0.8-0.6
		c-0.4-0.3-0.8-0.6-1.1-0.9c-1.3-1.2-2.2-2.4-2.7-3.6c-0.3-0.7-0.5-1.4-0.5-2.1c0-0.2,0-0.5,0-0.7c0-1.4,0.5-2.9,1.5-4.4
		c0.2-0.2,0.3-0.5,0.5-0.7c0.1-0.1,0.2-0.2,0.3-0.4c0.3-0.4,0.6-0.7,0.9-1.1c0.1-0.1,0.2-0.2,0.3-0.4c0.4-0.4,0.7-0.7,1.2-1.1
		c0.3-0.2,0.6-0.5,0.9-0.7c0.5-0.4,0.9-0.7,1.4-1.1c0.7-0.5,1.4-1,2.1-1.5c0.4-0.2,0.7-0.5,1.2-0.7c0.6-0.4,1.2-0.7,1.8-1.1
		c0.2-0.1,0.4-0.2,0.6-0.4c0.7-0.4,1.3-0.7,2-1.1c0.7-0.4,1.4-0.7,2.1-1.1c0.7-0.3,1.5-0.7,2.3-1c0.3-0.1,0.5-0.2,0.8-0.3
		c0.5-0.2,1.1-0.5,1.6-0.7c0.5-0.2,1.1-0.5,1.7-0.7c0.9-0.3,1.7-0.7,2.6-1c0.3-0.1,0.6-0.2,0.9-0.3c0.6-0.2,1.2-0.4,1.8-0.7
		c1.5-0.5,3.1-1.1,4.8-1.6C464.3,354,464.9,354.8,465.5,355.5z"/>
	<path d="M535.7,412c-1.2-0.7-2.4-1.4-3.5-2.1C533.4,410.6,534.5,411.4,535.7,412z"/>
	<path d="M540.4,383.6c-0.7,0.8-1.4,1.7-2.1,2.5c-0.4,0.5-0.8,1-1.2,1.4c0.4-0.5,0.8-1,1.2-1.4C539.1,385.3,539.8,384.5,540.4,383.6
		z"/>
	<path d="M542.7,390.4L542.7,390.4c-1.5,0.3-3,0.5-4.6,0.7C539.7,391,541.2,390.7,542.7,390.4z"/>
	<path d="M564.2,344.1L564.2,344.1c-0.6,1.1-1.2,2.3-1.9,3.4C563,346.3,563.6,345.2,564.2,344.1z"/>
	<path d="M562.3,347.5c-0.4,0.8-0.9,1.5-1.3,2.3C561.4,349,561.9,348.2,562.3,347.5z"/>
	<path d="M547.9,358.4c1.6,1.5,3.1,3,4.7,4.5c0.3-0.4,0.6-0.8,0.8-1.2c-0.3,0.4-0.6,0.8-0.8,1.2C551,361.4,549.5,359.9,547.9,358.4z
		"/>
	<path d="M541.8,345.5c0.5,2.8,0.9,5.6,1.2,8.4c0.8,0.7,1.7,1.5,2.5,2.2c-0.8-0.7-1.6-1.5-2.5-2.2
		C542.6,351.1,542.2,348.3,541.8,345.5z"/>
	<path d="M547.9,358.4c-0.8-0.7-1.6-1.5-2.4-2.3C546.3,356.9,547.1,357.7,547.9,358.4z"/>
	<path d="M543.5,358.2L543.5,358.2c0.6,0.6,1.3,1.2,1.9,1.8C544.8,359.4,544.2,358.8,543.5,358.2z"/>
	<path d="M550.9,365.3c-1.8-1.8-3.6-3.5-5.5-5.3C547.3,361.7,549.2,363.5,550.9,365.3L550.9,365.3z"/>
	<path d="M580.2,415.3c0.3,0.1,0.6,0.2,0.9,0.2C580.8,415.4,580.5,415.4,580.2,415.3z"/>
	<path d="M578.4,414.5c0.3,0.2,0.6,0.3,0.9,0.4C579,414.8,578.7,414.7,578.4,414.5z"/>
	<path d="M579.3,415c0.3,0.1,0.6,0.2,0.9,0.3C579.9,415.2,579.6,415.1,579.3,415z"/>
	<path d="M574.9,411.4c0.3,0.4,0.6,0.8,0.9,1.1C575.5,412.2,575.2,411.8,574.9,411.4z"/>
	<path d="M574.2,410.2c0.1,0.3,0.3,0.6,0.5,0.8C574.5,410.7,574.3,410.5,574.2,410.2z"/>
	<path d="M544.1,416.7L544.1,416.7c0.2-1.4,0.3-2.8,0.4-4.2C544.4,413.9,544.2,415.3,544.1,416.7z"/>
	<path d="M585.4,416.8c0-0.4-0.1-0.9-0.2-1.3c-0.4,0.1-0.7,0.1-1.1,0.2c0.4,0,0.7-0.1,1.1-0.2C585.3,415.9,585.3,416.4,585.4,416.8z
		"/>
	<path d="M571.7,389.1c0.3,0.4,0.6,0.8,0.9,1.2C572.3,389.8,572,389.4,571.7,389.1z"/>
	<path d="M575.2,399.9c0.7-0.9,1.5-1.6,2.4-2.3l0,0C576.6,398.3,575.8,399,575.2,399.9z"/>
	<path d="M576.5,413.2c-0.2-0.2-0.5-0.4-0.7-0.7C576,412.8,576.2,413,576.5,413.2z"/>
	<path d="M561.4,389.3c1.5-0.4,3-0.8,4.5-1.2C564.3,388.5,562.9,388.9,561.4,389.3z"/>
	<path d="M557.4,387.4c-0.9,0.2-1.9,0.5-2.9,0.7C555.5,387.9,556.5,387.7,557.4,387.4z"/>
	<path d="M556.1,370.6c0.7,0.7,1.4,1.5,2.1,2.2C557.5,372,556.8,371.3,556.1,370.6z"/>
	<path d="M561.6,386.4c-0.9,0.2-1.9,0.5-2.8,0.7C559.8,386.8,560.7,386.6,561.6,386.4z"/>
	<path d="M565.7,385.3c-0.9,0.2-1.8,0.5-2.7,0.7C563.9,385.8,564.8,385.5,565.7,385.3z"/>
	<path d="M556.1,370.6c-1-1.1-2.1-2.2-3.2-3.3c-0.6,0.9-1.2,1.7-1.9,2.6c0.6-0.9,1.3-1.7,1.9-2.6C554,368.4,555.1,369.5,556.1,370.6
		z"/>
	<path d="M534.5,386.4c0.6-0.7,1.2-1.4,1.8-2.1c0.5-0.6,1-1.2,1.6-1.9c-0.5,0.6-1,1.2-1.6,1.9C535.6,385,535.1,385.7,534.5,386.4z"
		/>
	<path d="M499.1,385.5c0.7,0.6,1.4,1.2,2.1,1.8c0.4,0.3,0.7,0.6,1.1,0.9c-0.4-0.3-0.7-0.6-1.1-0.9
		C500.5,386.7,499.8,386.1,499.1,385.5z"/>
	<path d="M542.3,376.9c-0.1-2.5-0.3-5.1-0.5-7.7C542,371.8,542.2,374.3,542.3,376.9L542.3,376.9z"/>
	<path d="M517.4,343.6c1.9-0.2,3.8-0.3,5.6-0.4C521.2,343.3,519.3,343.5,517.4,343.6z"/>
	<path d="M459.2,419.4c0.1-0.7,0.3-1.3,0.5-2C459.5,418.1,459.3,418.7,459.2,419.4z"/>
	<path d="M471.8,435.9c-0.6,0.1-1.1,0.2-1.7,0.3C470.7,436.1,471.2,436,471.8,435.9z"/>
	<path d="M465.8,436.4c-0.7-0.1-1.3-0.2-1.8-0.4C464.5,436.2,465.1,436.3,465.8,436.4z"/>
	<path d="M458.4,426.4c0-0.5,0-1,0-1.6C458.4,425.3,458.4,425.9,458.4,426.4z"/>
	<path d="M458.8,421.9c0.1-0.6,0.2-1.2,0.3-1.9C459,420.7,458.8,421.3,458.8,421.9z"/>
	<path d="M475.4,426.8c-0.2,0.1-0.4,0.3-0.6,0.5C475,427.1,475.2,427,475.4,426.8z"/>
	<path d="M484.1,425.5c-0.4-0.1-0.8-0.2-1.2-0.3C483.3,425.3,483.7,425.4,484.1,425.5z"/>
	<path d="M497,422.3c-0.9,0.7-1.7,1.3-2.6,1.9C495.3,423.6,496.1,423,497,422.3z"/>
	<path d="M477.6,425.6c-0.3,0.1-0.5,0.2-0.8,0.3C477,425.9,477.3,425.7,477.6,425.6z"/>
	<path d="M466.4,436.5c0.9,0,1.9,0,2.9-0.1C468.3,436.5,467.3,436.5,466.4,436.5z"/>
	<path d="M482.5,425.1c-0.4-0.1-0.8-0.1-1.2-0.1C481.7,425,482.1,425.1,482.5,425.1z"/>
	<path d="M473.9,428.3c0.2-0.3,0.5-0.5,0.7-0.7C474.3,427.7,474.1,428,473.9,428.3z"/>
	<path d="M511.5,410.3c-0.7,0.7-1.5,1.3-2.2,2C510,411.6,510.7,411,511.5,410.3z"/>
	<path d="M495.5,397.4L495.5,397.4c4.3,0,8.8-0.1,13.3-0.4C504.3,397.2,499.8,397.4,495.5,397.4z"/>
	<path d="M509.3,412.3c-0.7,0.7-1.4,1.3-2.2,1.9C507.8,413.6,508.6,412.9,509.3,412.3z"/>
	<path d="M506,415.1c-0.7,0.6-1.4,1.2-2.1,1.8C504.6,416.3,505.3,415.7,506,415.1z"/>
	<path d="M518.2,403.9L518.2,403.9c-1.9,1.9-3.7,3.6-5.6,5.3C514.4,407.6,516.3,405.8,518.2,403.9z"/>
	<path d="M510.8,341.4c-1.2,0.1-2.3,0.2-3.5,0.4l0,0C508.5,341.7,509.6,341.5,510.8,341.4z"/>
	<path d="M522.4,340.5L522.4,340.5c-2,0.1-4,0.3-6.1,0.4C518.4,340.7,520.4,340.6,522.4,340.5z"/>
	<path d="M530,342.9c1.2,1,2.5,2,3.8,3.1C532.5,344.9,531.3,343.9,530,342.9z"/>
	<path d="M539.8,351.1c-0.3-2.1-0.6-4.3-1-6.3C539.2,346.9,539.5,349,539.8,351.1L539.8,351.1z"/>
	<path d="M522.8,395.9c-1.2,0.1-2.4,0.2-3.6,0.3c-1,0.1-2.1,0.2-3.1,0.2c1-0.1,2-0.2,3.1-0.2C520.4,396.2,521.6,396,522.8,395.9z"/>
	<path d="M494.1,389.5c-0.3-1.7-0.5-3.5-0.7-5.2l0,0C493.6,386,493.9,387.8,494.1,389.5z"/>
	<path d="M500.9,390.7c1,0.8,2,1.7,3,2.5C502.9,392.4,501.9,391.5,500.9,390.7z"/>
	<path d="M500.9,390.7c-0.5-0.4-1-0.8-1.5-1.2c-1-0.9-2-1.7-3-2.6c1,0.9,2,1.7,3,2.6C499.9,389.9,500.4,390.3,500.9,390.7z"/>
	<path d="M475.5,350.1c1.3-0.3,2.7-0.6,4-0.9C478.2,349.4,476.8,349.7,475.5,350.1z"/>
	<path d="M466.6,352.5c0.8-0.2,1.6-0.5,2.5-0.7C468.2,352,467.4,352.2,466.6,352.5z"/>
	<path d="M474.5,361.7c-0.9-1.1-1.9-2.1-2.8-3.1C472.6,359.6,473.5,360.7,474.5,361.7z"/>
	<path d="M488.4,359.9L488.4,359.9c-0.3,0.4-0.6,0.8-0.9,1.2C487.8,360.7,488.1,360.3,488.4,359.9z"/>
	<path d="M469.1,355.5c-0.6-0.7-1.1-1.4-1.7-2C467.9,354.1,468.5,354.8,469.1,355.5z"/>
	<path d="M488.1,350.5c0-1,0-2.1,0-3.1c-2.9,0.5-5.7,1.1-8.5,1.7c2.7-0.6,5.6-1.2,8.5-1.7C488,348.4,488.1,349.5,488.1,350.5z"/>
	<path d="M480.4,394.2c-0.9,0-1.9-0.1-2.8-0.2C478.6,394.1,479.5,394.2,480.4,394.2z"/>
	<path d="M486.2,394.5c-1,0-1.9-0.1-2.9-0.1C484.3,394.4,485.2,394.5,486.2,394.5z"/>
	<path d="M483.3,394.4c-0.9,0-1.9-0.1-2.8-0.1C481.4,394.3,482.3,394.3,483.3,394.4z"/>
	<path d="M490.7,394.6c-1.5,0-3,0-4.5-0.1C487.7,394.5,489.1,394.6,490.7,394.6z"/>
	<path d="M472.3,393.6c-0.9-0.1-1.7-0.2-2.6-0.3C470.5,393.4,471.4,393.5,472.3,393.6z"/>
	<path d="M490.2,381.4c0.1,1.1,0.3,2.2,0.4,3.3C490.5,383.7,490.4,382.5,490.2,381.4c-0.7-0.7-1.4-1.3-2.1-2
		C488.8,380.1,489.5,380.8,490.2,381.4z"/>
	<path d="M483.9,375.5c-0.7-0.7-1.4-1.3-2-2c-0.3,0.4-0.6,0.9-0.9,1.3c0.3-0.4,0.6-0.9,0.9-1.3C482.5,374.2,483.2,374.8,483.9,375.5
		z"/>
	<path d="M490.8,349.3c0-0.8,0-1.6,0-2.4l0,0C490.8,347.7,490.8,348.5,490.8,349.3z"/>
	<path d="M493.4,353.5c0.8-1,1.7-2,2.5-3c0.7-0.9,1.4-1.7,2.2-2.6c-0.7,0.8-1.4,1.7-2.2,2.6C495.1,351.5,494.3,352.5,493.4,353.5z"
		/>
	<path d="M500.3,345.5c-1.6,0.2-3.2,0.5-4.8,0.7C497.1,345.9,498.6,345.7,500.3,345.5L500.3,345.5z"/>
	<path d="M435.6,383.5c-0.3-0.2-0.6-0.4-0.8-0.6C435,383.1,435.3,383.3,435.6,383.5z"/>
	<path d="M479.9,371.5L479.9,371.5c-0.9,1.4-1.9,2.8-2.8,4.1C478,374.2,478.9,372.9,479.9,371.5z"/>
	<path d="M434.8,382.9c-0.4-0.3-0.8-0.6-1.1-0.9C434,382.3,434.4,382.6,434.8,382.9z"/>
	<path d="M439,385.6c-0.5-0.3-1.1-0.6-1.6-0.9C437.9,385,438.4,385.3,439,385.6z"/>
	<path d="M430.4,375.5c0,0.2,0,0.5,0,0.7c0.1,0.7,0.2,1.4,0.5,2.1c-0.3-0.7-0.5-1.4-0.5-2.1C430.4,376,430.4,375.8,430.4,375.5z"/>
	<path d="M430.9,378.3c0.5,1.3,1.4,2.5,2.7,3.6C432.4,380.8,431.5,379.6,430.9,378.3z"/>
	<path d="M486.5,374.2c-1-1-2.1-2-3.1-3C484.5,372.2,485.5,373.2,486.5,374.2z"/>
	<path d="M596,372c-0.3,0.2-0.7,0.5-1,0.7C595.3,372.5,595.6,372.3,596,372z"/>
	<path d="M597.8,370.6c-0.6,0.5-1.2,1-1.8,1.5C596.6,371.6,597.2,371.1,597.8,370.6z"/>
	<path d="M601.9,365.8c-0.1,0.2-0.3,0.5-0.5,0.7C601.6,366.3,601.8,366.1,601.9,365.8z"/>
	<path d="M599,369.5c-0.4,0.4-0.8,0.7-1.2,1.1C598.2,370.2,598.6,369.8,599,369.5z"/>
	<path d="M602.9,363.3c-0.1,0.4-0.2,0.7-0.3,1.1C602.7,364,602.8,363.6,602.9,363.3z"/>
	<path d="M602.3,365.1c-0.1,0.2-0.2,0.5-0.4,0.7C602,365.6,602.2,365.3,602.3,365.1z"/>
	<path d="M560.5,355.8c0.5-0.9,1.1-1.7,1.6-2.6C561.6,354.1,561.1,355,560.5,355.8z"/>
	<path d="M587,377.4c-0.5,0.2-0.9,0.5-1.4,0.7C586,377.8,586.5,377.6,587,377.4z"/>
	<path d="M599,369.5c0.4-0.4,0.7-0.7,1.1-1.1C599.7,368.7,599.4,369.1,599,369.5z"/>
	<path d="M556.3,362.3c1.5-2.2,2.9-4.4,4.2-6.5C559.2,358,557.8,360.1,556.3,362.3z"/>
	<path d="M593.9,373.5c-0.4,0.2-0.7,0.5-1.1,0.7C593.2,374,593.5,373.7,593.9,373.5z"/>
	<path d="M592.8,374.2c-0.4,0.2-0.8,0.5-1.2,0.7C592,374.7,592.4,374.4,592.8,374.2z"/>
	<path d="M589,376.3c-0.5,0.2-0.9,0.5-1.4,0.7C588.1,376.8,588.6,376.6,589,376.3z"/>
	<path fill="#FFFFFF" d="M480.3,439.4c0,0.7-0.1,1.3-0.3,1.9l0,0C480.2,440.7,480.3,440,480.3,439.4z"/>
	<polygon fill="#FFFFFF" points="476.6,428.6 483.9,440.8 483.9,440.8 	"/>
	<path fill="#FFFFFF" d="M474.3,431.7L474.3,431.7c0.1-0.3,0.2-0.6,0.4-0.9C474.6,431.1,474.4,431.4,474.3,431.7z"/>
	<path fill="#FFFFFF" d="M481.7,429.5c0-0.1,0-0.2,0-0.4C481.7,429.3,481.7,429.4,481.7,429.5z"/>
	<path fill="#FFFFFF" d="M482.4,432.2c0.1,0.2,0.2,0.5,0.4,0.7C482.6,432.6,482.5,432.4,482.4,432.2z"/>
	<path fill="#FFFFFF" d="M481.9,427.3c-0.2,0-0.3,0-0.5,0C481.6,427.2,481.8,427.2,481.9,427.3L481.9,427.3z"/>
	<path fill="#FFFFFF" d="M487.7,436.7L487.7,436.7c-0.1,0.2-0.1,0.3-0.2,0.5C487.6,437,487.6,436.8,487.7,436.7z"/>
	<path fill="#FFFFFF" d="M482,431c0.1,0.4,0.2,0.7,0.4,1.1C482.2,431.8,482.1,431.4,482,431z"/>
	<path fill="#FFFFFF" d="M481.7,429.5c0,0.2,0,0.5,0.1,0.8C481.8,430,481.8,429.8,481.7,429.5z"/>
	<path fill="#FFFFFF" d="M483.6,431.3c-0.1-0.2-0.1-0.4-0.2-0.6C483.5,430.9,483.5,431.1,483.6,431.3z"/>
	<path fill="#FFFFFF" d="M485.8,429.1c0.4,0.4,0.8,0.9,1.2,1.4C486.7,430,486.3,429.5,485.8,429.1z"/>
	<path fill="#FFFFFF" d="M484,432.1c-0.1-0.2-0.2-0.4-0.3-0.6C483.8,431.8,483.9,432,484,432.1z"/>
	<path fill="#FFFFFF" d="M474.8,433.4c0.6,0.2,1.1,0.5,1.6,0.9C475.9,433.9,475.4,433.6,474.8,433.4z"/>
	<path fill="#FFFFFF" d="M477.5,440.5c0.3,0.2,0.7,0.3,1.1,0.5c0.1-0.5,0.2-1.1,0.2-1.6c0,0.5-0.1,1.1-0.2,1.6
		C478.2,440.8,477.9,440.7,477.5,440.5z"/>
	<polygon fill="#FFFFFF" points="576.5,407.7 577.3,408.1 579.5,406.8 577.3,408.1 	"/>
	<path fill="#FFFFFF" d="M577.4,402.5l-1.6,0.6c-0.1,0.3-0.2,0.5-0.2,0.8c0.1-0.3,0.2-0.6,0.2-0.8L577.4,402.5z"/>
	<path fill="#FFFFFF" d="M575.4,406.9c0,0.1,0,0.2,0,0.3l1.1,0.5l-1.1-0.5C575.4,407,575.4,406.9,575.4,406.9z"/>
	<polygon fill="#FFFFFF" points="578.2,402.3 580.1,404 578.2,402.3 577.4,402.5 	"/>
	<path fill="#FFFFFF" d="M587.9,411.9c-0.3,0.2-0.5,0.4-0.8,0.6C587.3,412.3,587.6,412.1,587.9,411.9z"/>
	<polygon fill="#FFFFFF" points="584.1,409.9 584.2,411.2 584.3,412.3 584.2,411.2 	"/>
	<path fill="#FFFFFF" d="M585.4,413l0.3,0.2c0.2,0,0.3-0.1,0.5-0.2c-0.2,0.1-0.3,0.1-0.5,0.2L585.4,413z"/>
	<polygon fill="#FFFFFF" points="588.5,408.6 586,407.7 584,409.4 584,409.4 586,407.7 	"/>
	<path fill="#FFFFFF" d="M588.6,411.2c-0.2,0.2-0.5,0.5-0.7,0.7C588.1,411.7,588.4,411.5,588.6,411.2z"/>
	<path fill="#FFFFFF" d="M581.1,413.3c-0.4-0.1-0.7-0.2-1-0.4C580.4,413.1,580.7,413.2,581.1,413.3z"/>
	<polygon fill="#FFFFFF" points="582.6,411 582.8,412.4 582.8,412.4 	"/>
	<path fill="#FFFFFF" d="M579.6,412.7c-0.2-0.1-0.4-0.2-0.6-0.4C579.1,412.5,579.4,412.6,579.6,412.7z"/>
	<polygon fill="#FFFFFF" points="587.1,401.3 588.1,401.3 589.4,401.3 588.1,401.3 587.1,401.3 585.4,403.8 	"/>
	<polygon fill="#FFFFFF" points="589.4,406.8 589.9,406.4 590.8,405.9 589.9,406.4 	"/>
	<path fill="#FFFFFF" d="M590.8,405c0,0.3,0,0.6,0,0.9C590.8,405.6,590.8,405.3,590.8,405z"/>
	<polygon fill="#FFFFFF" points="579.2,400 579.2,399.1 579.2,399.1 	"/>
	<path d="M498.2,410.3c-0.3-1.4-0.7-2.8-1-4.2C497.6,407.6,497.9,409,498.2,410.3z"/>
	<path d="M495.5,397.4c0.6,3,1.2,5.9,1.8,8.8C496.6,403.3,496,400.4,495.5,397.4L495.5,397.4z"/>
	<path d="M518.2,403.9c-1.6-1.1-3.1-2.2-4.7-3.4C515.1,401.7,516.6,402.9,518.2,403.9L518.2,403.9z"/>
	<path d="M500,416.9c-0.2-0.9-0.5-1.7-0.7-2.6C499.5,415.2,499.7,416.1,500,416.9z"/>
	<path d="M507.2,437c-0.2-0.5-0.5-1-0.7-1.5C506.7,436,506.9,436.6,507.2,437z"/>
	<path d="M512.5,446.7c1.5,2.1,2.9,3.9,4.4,5.2C515.5,450.6,514,448.8,512.5,446.7z"/>
	<path d="M521,454.5c-0.2-0.1-0.5-0.2-0.7-0.3C520.5,454.3,520.8,454.4,521,454.5z"/>
	<path d="M521.8,454.8c-0.2-0.1-0.5-0.2-0.7-0.2C521.3,454.6,521.5,454.7,521.8,454.8z"/>
	<path d="M518.1,452.8c-0.4-0.3-0.7-0.6-1.1-0.9C517.3,452.2,517.7,452.5,518.1,452.8z"/>
	<path d="M519.9,454c-0.6-0.3-1.2-0.7-1.9-1.2C518.7,453.3,519.3,453.7,519.9,454z"/>
	<path d="M512.5,446.7c-0.4-0.5-0.7-1.1-1.1-1.7C511.8,445.6,512.2,446.2,512.5,446.7z"/>
	<path d="M505.8,433.9c-0.3-0.8-0.7-1.6-1-2.5C505.1,432.3,505.5,433.1,505.8,433.9z"/>
	<path d="M503.5,427.9c-0.2-0.6-0.4-1.2-0.6-1.8C503,426.7,503.3,427.3,503.5,427.9z"/>
	<path d="M511.1,444.5c-1.1-1.8-2.2-3.8-3.2-5.9C508.9,440.7,510,442.7,511.1,444.5z"/>
	<path d="M504.1,429.7c-0.2-0.6-0.4-1.2-0.7-1.8C503.7,428.5,503.9,429.1,504.1,429.7z"/>
	<path d="M542.7,388.2c0,0.8,0,1.5,0,2.3l0,0C542.7,389.7,542.7,388.9,542.7,388.2z"/>
	<path d="M533.4,391.9c1.2-1.4,2.5-2.8,3.7-4.3C535.9,389,534.7,390.5,533.4,391.9z"/>
	<path d="M483.9,427.8c0.4,0.2,0.7,0.3,1,0.6C484.6,428.2,484.3,428,483.9,427.8z"/>
	<path d="M487.5,435c-0.2-0.1-0.4-0.1-0.5-0.2C487.1,434.9,487.3,435,487.5,435z"/>
	<path d="M486.4,434.5c-0.2-0.2-0.5-0.3-0.7-0.5C485.9,434.2,486.1,434.4,486.4,434.5z"/>
	<path d="M486.9,434.8c-0.2-0.1-0.4-0.2-0.5-0.3C486.5,434.7,486.7,434.7,486.9,434.8z"/>
	<path d="M483.3,430.1c0-0.3-0.1-0.6-0.1-0.9C483.2,429.4,483.2,429.7,483.3,430.1z"/>
	<path fill="#FFFFFF" d="M485.8,429.1c-0.3-0.3-0.6-0.5-0.9-0.7s-0.7-0.4-1-0.6c-0.2-0.1-0.4-0.2-0.5-0.2c-0.1,0.5-0.2,1-0.2,1.5
		c0,0.3,0,0.6,0.1,0.9c0,0.2,0.1,0.4,0.1,0.6c0,0.2,0.1,0.4,0.2,0.6c0,0.1,0.1,0.2,0.1,0.3c0.1,0.2,0.2,0.4,0.3,0.6
		c0,0.1,0.1,0.2,0.2,0.3c0.4,0.6,0.9,1.2,1.4,1.6c0.2,0.2,0.5,0.4,0.7,0.5c0.2,0.1,0.3,0.2,0.5,0.3c0.2,0.1,0.4,0.2,0.5,0.2
		c0.2,0.1,0.4,0.1,0.6,0.2c0.2-1.6-0.1-3.2-1-4.7C486.7,430,486.3,429.5,485.8,429.1z"/>
	<path d="M542.6,397.7c0,1,0,1.9-0.1,2.9C542.5,399.6,542.6,398.6,542.6,397.7z"/>
	<path d="M536.7,394.2c-2,0.3-4.1,0.6-6.1,0.8c-2,2.2-4,4.4-6.1,6.4c2-2.1,4-4.2,6.1-6.4C532.6,394.8,534.7,394.5,536.7,394.2z"/>
	<path d="M542.2,406.1c-0.1,0.9-0.1,1.8-0.2,2.7C542.1,407.9,542.2,407,542.2,406.1z"/>
	<path d="M540.3,414.7c0.4,0.2,0.7,0.4,1.1,0.6c0.1-1.3,0.3-2.6,0.4-3.8c-0.1,1.3-0.2,2.6-0.4,3.8
		C541.1,415.1,540.7,414.9,540.3,414.7z"/>
	<path d="M463.5,406.2c0.7-1.6,1.4-3.3,2.2-5C464.9,402.9,464.1,404.6,463.5,406.2z"/>
	<path d="M462.5,408.6c0.2-0.5,0.4-1.1,0.6-1.6C462.9,407.5,462.7,408.1,462.5,408.6z"/>
	<path d="M461.9,410.2c0.2-0.5,0.4-1,0.6-1.6C462.3,409.1,462.1,409.6,461.9,410.2z"/>
	<path d="M493,399c-0.1-0.5-0.2-1.1-0.3-1.6c-2.2,0-4.3,0-6.4-0.1c2.1,0.1,4.3,0.1,6.4,0.1C492.8,397.9,492.9,398.4,493,399z"/>
	<path d="M458.4,426.4c0,3.8,1,6.6,3,8.3c0.4,0.4,0.9,0.7,1.4,0.9c-0.5-0.2-1-0.6-1.4-0.9C459.4,433,458.4,430.2,458.4,426.4z"/>
	<path d="M498.4,421.3c-0.3-0.9-0.5-1.8-0.8-2.8C497.8,419.5,498.1,420.4,498.4,421.3z"/>
	<path d="M471.1,396.3c-0.9-0.1-1.9-0.2-2.8-0.3c-0.9,1.8-1.8,3.6-2.6,5.2c0.8-1.7,1.7-3.5,2.6-5.2
		C469.2,396.1,470.1,396.2,471.1,396.3z"/>
	<path d="M493,399c0.2,1.1,0.4,2.1,0.6,3.2C493.4,401.1,493.2,400,493,399z"/>
	<path d="M494.9,408.3c0.7,3,1.4,6,2.2,8.8C496.4,414.3,495.6,411.4,494.9,408.3z"/>
	<path d="M483.1,397.1c1,0,2.1,0.1,3.1,0.1C485.2,397.2,484.1,397.2,483.1,397.1z"/>
	<path d="M480,397c1,0.1,2.1,0.1,3.1,0.2C482.1,397.1,481,397,480,397z"/>
	<path d="M493.9,403.7c0.2,1,0.4,2.1,0.7,3.1C494.3,405.8,494.1,404.8,493.9,403.7z"/>
	<path d="M471.1,396.3c2.9,0.3,5.9,0.5,8.9,0.7C477,396.8,474,396.6,471.1,396.3z"/>
	<path d="M472,431.8c-0.1,0.2-0.1,0.4-0.2,0.7C471.8,432.3,471.9,432.1,472,431.8z"/>
	<path d="M554.7,343.2c1.4,0.1,2.8,0.2,4.2,0.3C557.5,343.4,556.1,343.3,554.7,343.2z"/>
	<path d="M559.6,352.1c-0.5,0.8-1,1.6-1.5,2.4C558.6,353.7,559.1,352.9,559.6,352.1z"/>
	<path d="M564.2,344.1c-1.7-0.2-3.5-0.4-5.4-0.5C560.7,343.7,562.5,343.9,564.2,344.1L564.2,344.1z"/>
	<path d="M547.4,342.9c1,0,2,0.1,3,0.1C549.4,342.9,548.4,342.9,547.4,342.9z"/>
	<path d="M488.4,359.9c-0.1-2.1-0.2-4.2-0.2-6.3C488.2,355.7,488.3,357.8,488.4,359.9L488.4,359.9z"/>
	<path d="M478.4,366c1,1.1,2.1,2.1,3.1,3.2c1.9-2.7,3.9-5.4,6-8.1c-2.1,2.7-4.1,5.4-6,8.1C480.4,368.1,479.4,367,478.4,366z"/>
	<path d="M478.2,436.5c0.2,0.3,0.3,0.6,0.4,0.9C478.5,437.1,478.4,436.8,478.2,436.5z"/>
	<path d="M478.7,437.8c0,0.2,0.1,0.4,0.1,0.7C478.7,438.2,478.7,438,478.7,437.8z"/>
	<path d="M478.8,438.4c0,0.2,0,0.4,0,0.7C478.8,438.8,478.8,438.6,478.8,438.4z"/>
	<path d="M478.8,439.1c0,0.1,0,0.2,0,0.3C478.8,439.3,478.8,439.2,478.8,439.1z"/>
	<path fill="#FFFFFF" d="M478.8,438.4c0-0.2-0.1-0.4-0.1-0.7c0-0.1,0-0.2-0.1-0.3c-0.1-0.3-0.2-0.6-0.4-0.9
		c-0.1-0.2-0.2-0.4-0.3-0.6c-0.4-0.7-0.9-1.2-1.5-1.6c-0.5-0.4-1-0.7-1.6-0.9c-0.3-0.1-0.6-0.2-0.9-0.3c-0.3,1.7,0,3.4,1,4.9
		c0.7,1.1,1.6,1.9,2.6,2.5c0.3,0.2,0.7,0.3,1.1,0.5c0.1-0.5,0.2-1.1,0.2-1.6c0-0.1,0-0.2,0-0.3C478.8,438.8,478.8,438.6,478.8,438.4
		z"/>
	<path d="M478.4,427.6c0.3-0.1,0.7-0.2,1-0.3C479.1,427.4,478.7,427.5,478.4,427.6z"/>
	<path d="M487,436.5c0.2,0.1,0.5,0.2,0.7,0.2l0,0C487.5,436.6,487.2,436.5,487,436.5z"/>
	<path d="M481.9,427.3L481.9,427.3c-0.1,0.5-0.2,1-0.2,1.5C481.8,428.3,481.8,427.8,481.9,427.3z"/>
	<path d="M485.3,435.6c0.2,0.1,0.4,0.2,0.6,0.4C485.7,435.9,485.5,435.8,485.3,435.6z"/>
	<path d="M486.7,438.5c-0.2,0.3-0.4,0.5-0.7,0.8C486.3,439,486.5,438.8,486.7,438.5z"/>
	<path d="M481.7,429.1c0-0.1,0-0.2,0-0.4C481.7,428.9,481.7,429,481.7,429.1z"/>
	<path d="M486,436c0.3,0.2,0.7,0.3,1,0.4C486.6,436.3,486.3,436.2,486,436z"/>
	<path fill="#FFFFFF" d="M486,436c-0.2-0.1-0.4-0.2-0.6-0.4c-0.9-0.6-1.8-1.4-2.4-2.4c-0.1-0.1-0.1-0.2-0.2-0.4
		c-0.1-0.2-0.2-0.5-0.4-0.7c-0.2-0.4-0.3-0.7-0.4-1.1c-0.1-0.2-0.1-0.5-0.2-0.8c0-0.2-0.1-0.5-0.1-0.8c0-0.1,0-0.2,0-0.4
		c0-0.1,0-0.2,0-0.4c0-0.5,0.1-1,0.2-1.5c-0.2,0-0.3,0-0.5,0c-0.7,0-1.4,0-2,0.1c-0.3,0.1-0.7,0.2-1,0.3c-0.2,0.1-0.3,0.1-0.5,0.2
		l7.3,12.1c0.3-0.2,0.6-0.5,0.8-0.7s0.5-0.5,0.7-0.8c0.3-0.4,0.6-0.9,0.8-1.4c0.1-0.2,0.1-0.3,0.2-0.5c-0.2-0.1-0.5-0.1-0.7-0.2
		C486.6,436.3,486.3,436.2,486,436z"/>
	<path d="M477.3,433.1c-0.6-0.5-1.2-0.8-1.9-1.1C476.1,432.3,476.7,432.6,477.3,433.1z"/>
	<path d="M474.3,431.7c0.4,0.1,0.7,0.2,1.1,0.3C475,431.9,474.7,431.8,474.3,431.7L474.3,431.7z"/>
	<path d="M476.3,428.9c-0.2,0.2-0.5,0.5-0.7,0.7C475.8,429.4,476,429.1,476.3,428.9z"/>
	<path d="M483.9,440.8L483.9,440.8c-0.3,0.1-0.6,0.2-0.9,0.4C483.3,441,483.6,440.9,483.9,440.8z"/>
	<path d="M480.1,441.3c0.3,0,0.7,0.1,1,0.1C480.7,441.4,480.4,441.4,480.1,441.3L480.1,441.3z"/>
	<path d="M480.3,439c0,0.1,0,0.3,0,0.4C480.3,439.2,480.3,439.1,480.3,439z"/>
	<path fill="#FFFFFF" d="M476.3,428.9c-0.2,0.2-0.5,0.5-0.7,0.7c-0.3,0.4-0.6,0.8-0.8,1.2c-0.2,0.3-0.3,0.6-0.4,0.9
		c0.4,0.1,0.7,0.2,1.1,0.3c0.7,0.3,1.3,0.7,1.9,1.1c0.7,0.5,1.3,1.2,1.8,2c0.8,1.2,1.2,2.5,1.2,3.9c0,0.1,0,0.3,0,0.4
		c0,0.7-0.1,1.3-0.3,1.9c0.3,0,0.7,0.1,1,0.1c0.7,0,1.3-0.1,2-0.3c0.3-0.1,0.6-0.2,0.9-0.4l-7.3-12.1
		C476.5,428.7,476.4,428.8,476.3,428.9z"/>
	<path d="M470.9,391c0.7-1.2,1.4-2.4,2.1-3.6C472.3,388.6,471.6,389.8,470.9,391z"/>
	<path d="M473,387.3c0.5-0.8,1-1.6,1.5-2.4C474,385.7,473.5,386.5,473,387.3z"/>
	<path d="M474.5,384.9c1-1.7,2-3.3,3.1-5C476.5,381.6,475.5,383.2,474.5,384.9z"/>
	<path d="M543.5,358.2c0.1,0.7,0.2,1.3,0.2,2C543.7,359.5,543.6,358.8,543.5,358.2L543.5,358.2z"/>
	<path d="M550.9,365.3L550.9,365.3c-0.9,1.4-1.9,2.7-2.9,4.1C549,368,550,366.6,550.9,365.3z"/>
	<path d="M561.1,376c0.6,0.7,1.3,1.4,1.9,2.1C562.4,377.5,561.8,376.8,561.1,376z"/>
	<path d="M551,369.9c-0.6,0.9-1.3,1.7-1.9,2.6C549.8,371.6,550.4,370.8,551,369.9z"/>
	<path d="M559.2,373.9c0.7,0.7,1.3,1.4,1.9,2.2C560.5,375.3,559.8,374.6,559.2,373.9z"/>
	<path d="M563,378.2c1.2,1.4,2.4,2.8,3.6,4.2C565.5,381,564.3,379.6,563,378.2z"/>
	<path d="M513,396.7c1.2,0.9,2.4,1.8,3.6,2.7C515.4,398.5,514.2,397.7,513,396.7z"/>
	<path d="M523.3,398.8c-1,1.1-2.1,2.1-3.1,3.1C521.2,400.9,522.2,399.9,523.3,398.8z"/>
	<path d="M494.1,389.5c0.3,1.7,0.5,3.4,0.8,5.1c2.6,0,5.2,0,7.8-0.1c-2.6,0.1-5.2,0.1-7.8,0.1C494.7,392.9,494.4,391.2,494.1,389.5z
		"/>
	<path d="M493.4,384.3L493.4,384.3c1,0.9,2,1.7,3,2.6C495.4,386,494.4,385.1,493.4,384.3z"/>
	<path d="M578,410.4l0-0.9L578,410.4l-0.1,1.1c0.3,0.3,0.7,0.6,1.1,0.9c-0.4-0.2-0.8-0.5-1.1-0.9L578,410.4z"/>
	<polygon points="581.6,413.4 582,413.1 582.8,412.4 582.8,412.4 582,413.1 	"/>
	<polygon points="582.6,411 582.5,409.6 580.2,408.2 582.5,409.6 	"/>
	<path fill="#FFFFFF" d="M582.5,409.6l-2.3-1.4l-2.2,1.3l0,0.9l-0.1,1.1c0.3,0.3,0.7,0.6,1.1,0.9c0.2,0.1,0.4,0.2,0.6,0.4
		c0.2,0.1,0.3,0.2,0.5,0.2c0.3,0.1,0.7,0.2,1,0.4c0.2,0,0.4,0.1,0.5,0.1l0.4-0.3l0.8-0.7l-0.1-1.4L582.5,409.6z"/>
	<path d="M584,409.4l0.1,0.5L584,409.4z"/>
	<polygon points="584.3,412.3 585.1,412.8 585.4,413 585.1,412.8 	"/>
	<path fill="#FFFFFF" d="M588.5,408.6l-2.5-0.9l-1.9,1.7l0.1,0.5l0.1,1.4l0.1,1.1l0.8,0.5l0.3,0.2l0.3,0.2c0.2,0,0.3-0.1,0.5-0.2
		c0.3-0.1,0.6-0.3,0.9-0.5c0.3-0.2,0.6-0.4,0.8-0.6c0.3-0.2,0.5-0.4,0.7-0.7c0.1-0.1,0.2-0.2,0.3-0.4l-0.3-1.6L588.5,408.6z"/>
	<path d="M557,422.7c-0.5-0.2-1.1-0.4-1.6-0.7C555.9,422.2,556.4,422.4,557,422.7z"/>
	<path d="M558.6,423.3c-0.5-0.2-1.1-0.4-1.6-0.6C557.5,422.9,558,423.1,558.6,423.3z"/>
	<path d="M573.5,403.4c-0.2,0.7-0.2,1.3-0.3,2C573.2,404.8,573.3,404.1,573.5,403.4z"/>
	<path d="M585.1,420.8c-0.2,0.7-0.4,1.3-0.7,1.9C584.7,422.2,585,421.5,585.1,420.8z"/>
	<path d="M563.1,424.8c-1.2-0.4-2.5-0.8-3.8-1.3C560.6,424,561.9,424.4,563.1,424.8z"/>
	<path d="M573.5,426.9c-1.5-0.1-3.1-0.3-4.9-0.7C570.4,426.6,572,426.8,573.5,426.9z"/>
	<path d="M568.6,426.2c-0.7-0.1-1.3-0.3-2-0.5C567.3,425.9,568,426.1,568.6,426.2z"/>
	<path d="M555.3,422c-0.8-0.3-1.7-0.7-2.5-1.1C553.7,421.3,554.5,421.7,555.3,422z"/>
	<path d="M566.7,425.8c-1.1-0.3-2.3-0.6-3.5-1C564.3,425.2,565.5,425.5,566.7,425.8z"/>
	<path d="M574.1,426.9c4.4,0.2,7.7-0.8,9.6-3c0.3-0.4,0.6-0.8,0.8-1.2c-0.2,0.4-0.5,0.8-0.8,1.2
		C581.8,426.1,578.5,427.1,574.1,426.9z"/>
	<path d="M577.6,397.6L577.6,397.6c-1.5-2.4-3.1-4.9-5-7.4C574.4,392.8,576.1,395.3,577.6,397.6z"/>
	<path d="M570.1,386.8c0.6,0.7,1.1,1.5,1.7,2.2C571.2,388.3,570.7,387.6,570.1,386.8z"/>
	<path d="M545.3,400.6c0.1-1.5,0.1-3.1,0.1-4.7C545.4,397.5,545.3,399.1,545.3,400.6z"/>
	<path d="M552.9,420.9c-0.6-0.2-1.1-0.5-1.7-0.8C551.7,420.4,552.3,420.7,552.9,420.9z"/>
	<path d="M544.1,416.7c2.4,1.3,4.8,2.4,7.1,3.5C548.9,419.1,546.5,418,544.1,416.7L544.1,416.7z"/>
	<path d="M545.1,405.2c0.1-1.5,0.2-3,0.2-4.6C545.2,402.1,545.1,403.7,545.1,405.2z"/>
	<path d="M574.1,401.6c-0.2,0.4-0.4,0.8-0.5,1.2C573.8,402.4,574,402,574.1,401.6z"/>
	<polygon points="586.5,406.3 585.4,403.8 586.5,406.3 588.8,407.1 589.4,406.8 588.8,407.1 	"/>
	<path d="M590.3,403c0.1,0.3,0.2,0.6,0.3,0.9C590.5,403.7,590.4,403.4,590.3,403z"/>
	<path fill="#FFFFFF" d="M587.1,401.3l-1.6,2.4l1.1,2.5l2.3,0.8l0.5-0.3l0.5-0.3l0.9-0.6c0-0.3,0-0.6,0-0.9c0-0.3-0.1-0.7-0.2-1
		c-0.1-0.3-0.2-0.7-0.3-0.9c-0.2-0.6-0.5-1.2-0.9-1.7l-1.3,0L587.1,401.3z"/>
	<path d="M575.3,406.1c0,0.2,0,0.3,0,0.5c0,0.1,0,0.2,0,0.3c0-0.1,0-0.2,0-0.3C575.3,406.4,575.3,406.3,575.3,406.1z"/>
	<path fill="#FFFFFF" d="M577.4,402.5l-1.6,0.6c-0.1,0.3-0.2,0.5-0.2,0.8c-0.2,0.7-0.2,1.4-0.2,2.2c0,0.2,0,0.3,0,0.5
		c0,0.1,0,0.2,0,0.3s0,0.2,0,0.3l1.1,0.5l0.8,0.4l2.2-1.3l0.6-2.8l-1.9-1.7L577.4,402.5z"/>
	<path d="M579.2,399.1L579.2,399.1c0.2-0.1,0.5-0.2,0.7-0.4C579.6,398.8,579.4,398.9,579.2,399.1z"/>
	<path d="M585.8,400.4l-0.7-2c-0.1,0-0.2-0.1-0.3-0.1c0.1,0,0.2,0,0.3,0.1L585.8,400.4z"/>
	<polygon points="579.2,400 579.2,401.1 581.3,403 579.2,401.1 	"/>
	<path d="M584.1,398.1c0.2,0,0.5,0.1,0.7,0.1C584.5,398.2,584.3,398.1,584.1,398.1z"/>
	<path fill="#FFFFFF" d="M579.2,401.1l2.1,1.9l2.9-0.2l0.8-1.2l0.8-1.2l-0.7-2c-0.1,0-0.2-0.1-0.3-0.1c-0.2,0-0.5-0.1-0.7-0.1
		c-0.6-0.1-1.2-0.1-1.8,0c-0.8,0.1-1.7,0.3-2.4,0.6c-0.2,0.1-0.5,0.2-0.7,0.4v0.9L579.2,401.1z"/>
	<path d="M539.8,351.1L539.8,351.1c-0.8-0.7-1.6-1.4-2.4-2.1C538.2,349.7,539,350.4,539.8,351.1z"/>
	<path d="M538.9,344.8c-0.1-0.7-0.2-1.4-0.3-2.1c-1.4,0-2.8,0-4.2,0c1.4,0,2.8,0,4.2,0C538.6,343.4,538.7,344.1,538.9,344.8z"/>
	<path d="M533.8,346c0.4,0.3,0.8,0.7,1.2,1c0.8,0.7,1.6,1.4,2.4,2c-0.8-0.7-1.6-1.4-2.4-2C534.6,346.7,534.2,346.3,533.8,346z"/>
	<path d="M488.6,364.1c0.1,1.2,0.2,2.3,0.2,3.5C488.8,366.4,488.7,365.3,488.6,364.1c-0.5,0.6-0.9,1.2-1.3,1.8
		C487.7,365.3,488.2,364.7,488.6,364.1z"/>
	<path d="M483.5,371.2c0.8-1.2,1.7-2.3,2.5-3.5C485.1,368.8,484.3,370,483.5,371.2z"/>
	<path d="M435.1,367.3c-0.4,0.4-0.8,0.7-1.2,1.1C434.3,368.1,434.7,367.7,435.1,367.3z"/>
	<path d="M450.3,358.2c0.5-0.2,1.1-0.5,1.6-0.7C451.4,357.8,450.8,358,450.3,358.2z"/>
	<path d="M447.2,359.6c0.7-0.4,1.5-0.7,2.3-1C448.7,358.9,448,359.3,447.2,359.6z"/>
	<path d="M443.1,361.8c0.7-0.4,1.3-0.7,2-1.1C444.4,361.1,443.7,361.4,443.1,361.8z"/>
	<path d="M457.1,355.5c0.6-0.2,1.2-0.4,1.8-0.7C458.3,355.1,457.7,355.3,457.1,355.5z"/>
	<path d="M453.6,356.9c0.9-0.3,1.7-0.7,2.6-1C455.3,356.2,454.4,356.5,453.6,356.9z"/>
	<path d="M435.9,366.6c0.5-0.4,0.9-0.7,1.4-1.1C436.8,365.8,436.4,366.2,435.9,366.6z"/>
	<path d="M431.9,371.1c0.2-0.2,0.3-0.5,0.5-0.7C432.2,370.6,432,370.8,431.9,371.1z"/>
	<path d="M440.6,363.3c0.6-0.4,1.2-0.7,1.8-1.1C441.8,362.5,441.2,362.9,440.6,363.3z"/>
	<path d="M432.6,369.9c0.3-0.4,0.6-0.7,0.9-1.1C433.2,369.2,432.9,369.6,432.6,369.9z"/>
	<path d="M435.1,367.3c0.3-0.2,0.6-0.5,0.9-0.7C435.6,366.8,435.3,367.1,435.1,367.3z"/>
	<path d="M439.4,364c0.4-0.2,0.7-0.5,1.2-0.7C440.2,363.5,439.8,363.7,439.4,364z"/>
	<path d="M445.1,360.7c0.7-0.4,1.4-0.7,2.1-1.1C446.5,360,445.8,360.3,445.1,360.7z"/>
	<path d="M469.3,360c0.7,0.7,1.3,1.5,2,2.3C470.6,361.6,469.9,360.8,469.3,360z"/>
	<path d="M474.4,365.7c0.7,0.8,1.4,1.5,2.1,2.3C475.8,367.3,475.1,366.5,474.4,365.7z"/>
	<path d="M430.4,375.5c0-1.4,0.5-2.9,1.5-4.4C430.9,372.6,430.4,374,430.4,375.5z"/>
	<path d="M465.5,355.5c0.6,0.7,1.2,1.5,1.9,2.2C466.7,357,466.1,356.3,465.5,355.5z"/>
	<path d="M479.9,371.5c-1.1-1.2-2.3-2.3-3.3-3.5C477.6,369.2,478.7,370.3,479.9,371.5L479.9,371.5z"/>
	<path d="M474.4,379.7c-0.6,0.9-1.1,1.8-1.7,2.7C473.3,381.5,473.9,380.6,474.4,379.7z"/>
	<path d="M522.4,340.5c-1.4-1-2.7-2.1-4.1-3.1C519.7,338.4,521.1,339.4,522.4,340.5L522.4,340.5z"/>
	<path d="M507.3,341.8L507.3,341.8c1.2-1.3,2.3-2.5,3.5-3.7C509.6,339.3,508.5,340.5,507.3,341.8z"/>
	<path d="M490.8,346.9L490.8,346.9c0.8-0.1,1.5-0.3,2.3-0.4C492.4,346.7,491.6,346.8,490.8,346.9z"/>
	<path d="M500.3,345.5L500.3,345.5c-0.7,0.8-1.4,1.7-2.2,2.5C498.8,347.1,499.5,346.3,500.3,345.5z"/>
	<path d="M493.4,353.5c-0.8,1-1.6,2-2.4,3C491.8,355.5,492.6,354.5,493.4,353.5z"/>
	<path d="M601.6,357.3c0.2,0.2,0.3,0.5,0.4,0.7C601.9,357.8,601.8,357.6,601.6,357.3z"/>
	<path d="M586.4,348.5c0.5,0.2,1,0.3,1.4,0.5C587.3,348.8,586.8,348.7,586.4,348.5z"/>
	<path d="M592.9,351c0.6,0.3,1.2,0.5,1.7,0.8C594.1,351.6,593.5,351.3,592.9,351z"/>
	<path d="M570.2,382.5c-0.6-0.8-1.2-1.5-1.9-2.3C569,381,569.6,381.7,570.2,382.5z"/>
	<path d="M597.5,353.5c0.4,0.3,0.9,0.6,1.2,0.9C598.4,354.2,598,353.8,597.5,353.5z"/>
	<path d="M588.5,349.2c0.5,0.2,0.9,0.3,1.3,0.5C589.4,349.5,588.9,349.4,588.5,349.2z"/>
	<path d="M602.5,359c0.1,0.2,0.2,0.5,0.2,0.7C602.7,359.5,602.6,359.2,602.5,359z"/>
	<path d="M600.8,356.4c-0.6-0.7-1.3-1.3-2-1.9C599.6,355.1,600.2,355.7,600.8,356.4z"/>
	<path d="M564.4,375.6c-0.7-0.8-1.4-1.6-2.1-2.4C563,374,563.7,374.8,564.4,375.6z"/>
	<path d="M567.4,379c-1-1.2-2-2.3-3-3.5C565.4,376.7,566.4,377.9,567.4,379z"/>
	<path d="M540.7,358.1c-0.1-0.9-0.2-1.8-0.3-2.8c-0.6-0.5-1.2-1-1.7-1.5c0.6,0.5,1.2,1,1.7,1.5C540.5,356.2,540.6,357.1,540.7,358.1
		z"/>
	<path d="M492.6,377.8c-0.2-1.5-0.3-3.1-0.5-4.6C492.3,374.7,492.4,376.3,492.6,377.8z"/>
	<path d="M542.3,376.9L542.3,376.9c-1.5,1.9-3,3.7-4.5,5.6C539.3,380.6,540.8,378.7,542.3,376.9z"/>
	<path d="M491.2,360.8c1.1-1.4,2.2-2.8,3.3-4.2C493.4,358,492.3,359.4,491.2,360.8z"/>
	<path d="M494.6,356.5c1.1-1.4,2.3-2.8,3.5-4.2c1.1-1.3,2.1-2.5,3.2-3.8c-1.1,1.2-2.1,2.5-3.2,3.8
		C496.9,353.7,495.7,355.1,494.6,356.5z"/>
	<path d="M502.3,388.2c2.5,2.1,5,4,7.4,6c3-0.2,6.1-0.4,9.3-0.7c-3.1,0.3-6.2,0.5-9.3,0.7C507.2,392.3,504.7,390.3,502.3,388.2z"/>
</g>
</svg>
