<?xml version="1.0" encoding="utf-8"?>
<!-- Generator: Adobe Illustrator 17.1.0, SVG Export Plug-In . SVG Version: 6.00 Build 0)  -->
<!DOCTYPE svg PUBLIC "-//W3C//DTD SVG 1.1//EN" "http://www.w3.org/Graphics/SVG/1.1/DTD/svg11.dtd">
<svg version="1.1" id="graphic_detail" xmlns="http://www.w3.org/2000/svg" xmlns:xlink="http://www.w3.org/1999/xlink" x="0px"
	 y="0px" viewBox="433 328.2 179 135.7" enable-background="new 433 328.2 179 135.7" xml:space="preserve">
<g>
	<g>
		<g>
			<g>
				<g>
					<polygon fill="#FFFFFF" points="550.6,463.8 527.4,463.8 527.4,369.4 537.5,374.8 537.5,408.3 550.6,408.3 					"/>
					<polygon fill="#111D2A" points="612,365 612,463.8 597.7,463.8 597.7,352.6 					"/>
					<rect x="457.6" y="432.6" fill="#111D2A" width="22.7" height="31.2"/>
					<rect x="480.3" y="400.8" fill="#FFFFFF" width="23.3" height="63"/>
					<polygon fill="#111D2A" points="527.4,369.4 527.4,463.8 503.6,463.8 503.6,369.4 					"/>
					<polygon fill="#111D2A" points="573.9,381.9 573.9,463.8 550.6,463.8 550.6,381.9 					"/>
					<polygon fill="#FFFFFF" points="597.7,352.6 597.7,463.8 573.9,463.8 573.9,352.6 					"/>
				</g>
			</g>
		</g>
	</g>
	<g>
		<g>
			<g>
				<polygon fill="#5F95B8" points="483.5,405.2 486.3,405.2 486.3,408 483.5,408 				"/>
				<path fill="#5F95B8" d="M484.9,406.6"/>
			</g>
		</g>
		<g>
			<g>
				<polygon fill="#5F95B8" points="489.2,405.2 492,405.2 492,408 489.2,408 				"/>
				<path fill="#5F95B8" d="M490.6,406.6"/>
			</g>
		</g>
		<g>
			<g>
				<polygon fill="#5F95B8" points="483.5,410.7 486.3,410.7 486.3,413.5 483.5,413.5 				"/>
				<path fill="#5F95B8" d="M484.9,412.1"/>
			</g>
		</g>
		<g>
			<g>
				<polygon fill="#5F95B8" points="489.2,410.7 492,410.7 492,413.5 489.2,413.5 				"/>
				<path fill="#5F95B8" d="M490.6,412.1"/>
			</g>
		</g>
		<g>
			<g>
				<polygon fill="#5F95B8" points="483.6,416.4 486.4,416.4 486.4,419.2 483.6,419.2 				"/>
				<path fill="#5F95B8" d="M485,417.8"/>
			</g>
		</g>
	</g>
	<g>
		<g>
			<g>
				<polygon fill="#5F95B8" points="506.6,372.9 509.4,372.9 509.4,375.7 506.6,375.7 				"/>
				<path fill="#5F95B8" d="M508,374.3"/>
			</g>
		</g>
		<g>
			<g>
				<polygon fill="#5F95B8" points="506.6,378.3 509.4,378.3 509.4,381.1 506.6,381.1 				"/>
				<path fill="#5F95B8" d="M508,379.7"/>
			</g>
		</g>
	</g>
	<g>
		<g>
			<g>
				<polygon fill="#5F95B8" points="530.4,412.1 533.2,412.1 533.2,414.8 530.4,414.8 				"/>
				<path fill="#5F95B8" d="M531.8,413.5"/>
			</g>
		</g>
		<g>
			<g>
				<polygon fill="#5F95B8" points="530.4,417.5 533.2,417.5 533.2,420.3 530.4,420.3 				"/>
				<path fill="#5F95B8" d="M531.8,418.9"/>
			</g>
		</g>
	</g>
	<g>
		<g>
			<g>
				<polygon fill="#5F95B8" points="530.4,426.7 533.2,426.7 533.2,429.5 530.4,429.5 				"/>
				<path fill="#5F95B8" d="M531.8,428.1"/>
			</g>
		</g>
	</g>
	<g>
		<g>
			<g>
				<g>
					<polygon fill="#5F95B8" points="554.3,386 557.1,386 557.1,388.8 554.3,388.8 					"/>
					<path fill="#5F95B8" d="M555.7,387.4"/>
				</g>
			</g>
			<g>
				<g>
					<polygon fill="#5F95B8" points="560,386 562.8,386 562.8,388.8 560,388.8 					"/>
					<path fill="#5F95B8" d="M561.4,387.4"/>
				</g>
			</g>
			<g>
				<g>
					<polygon fill="#5F95B8" points="554.3,392 557.1,392 557.1,394.8 554.3,394.8 					"/>
					<path fill="#5F95B8" d="M555.7,393.4"/>
				</g>
			</g>
			<g>
				<g>
					<polygon fill="#5F95B8" points="560,392 562.8,392 562.8,394.8 560,394.8 					"/>
					<path fill="#5F95B8" d="M561.4,393.4"/>
				</g>
			</g>
			<g>
				<g>
					<polygon fill="#5F95B8" points="554.3,398 557.1,398 557.1,400.8 554.3,400.8 					"/>
					<path fill="#5F95B8" d="M555.7,399.4"/>
				</g>
			</g>
		</g>
		<g>
			<g>
				<polygon fill="#5F95B8" points="565.7,386 568.5,386 568.5,388.8 565.7,388.8 				"/>
				<path fill="#5F95B8" d="M567.1,387.4"/>
			</g>
		</g>
	</g>
	<g>
		<g>
			<g>
				<g>
					<polygon fill="#5F95B8" points="578.1,356.6 580.9,356.6 580.9,359.4 578.1,359.4 					"/>
					<path fill="#5F95B8" d="M579.5,358"/>
				</g>
			</g>
			<g>
				<g>
					<polygon fill="#5F95B8" points="583.8,356.6 586.6,356.6 586.6,359.4 583.8,359.4 					"/>
					<path fill="#5F95B8" d="M585.2,358"/>
				</g>
			</g>
			<g>
				<g>
					<polygon fill="#5F95B8" points="578.1,362.6 580.9,362.6 580.9,365.4 578.1,365.4 					"/>
					<path fill="#5F95B8" d="M579.5,364"/>
				</g>
			</g>
			<g>
				<g>
					<polygon fill="#5F95B8" points="578.1,368.6 580.9,368.6 580.9,371.4 578.1,371.4 					"/>
					<path fill="#5F95B8" d="M579.5,370"/>
				</g>
			</g>
		</g>
	</g>
	<g>
		<g>
			<g>
				<g>
					<polygon fill="#5F95B8" points="578.1,374.1 580.9,374.1 580.9,376.9 578.1,376.9 					"/>
					<path fill="#5F95B8" d="M579.5,375.5"/>
				</g>
			</g>
			<g>
				<g>
					<polygon fill="#5F95B8" points="583.8,374.1 586.6,374.1 586.6,376.9 583.8,376.9 					"/>
					<path fill="#5F95B8" d="M585.2,375.5"/>
				</g>
			</g>
			<g>
				<g>
					<polygon fill="#5F95B8" points="578.1,380.1 580.9,380.1 580.9,382.9 578.1,382.9 					"/>
					<path fill="#5F95B8" d="M579.5,381.5"/>
				</g>
			</g>
			<g>
				<g>
					<polygon fill="#5F95B8" points="578.1,386.1 580.9,386.1 580.9,388.9 578.1,388.9 					"/>
					<path fill="#5F95B8" d="M579.5,387.5"/>
				</g>
			</g>
		</g>
	</g>
	<g>
		<g>
			<g>
				<polygon fill="#5F95B8" points="460.5,436.3 463.3,436.3 463.3,439.2 460.5,439.2 				"/>
				<path fill="#5F95B8" d="M461.9,437.7"/>
			</g>
		</g>
		<g>
			<g>
				<polygon fill="#5F95B8" points="466.2,436.3 469,436.3 469,439.2 466.2,439.2 				"/>
				<path fill="#5F95B8" d="M467.6,437.7"/>
			</g>
		</g>
		<g>
			<g>
				<polygon fill="#5F95B8" points="460.5,441.8 463.3,441.8 463.3,444.6 460.5,444.6 				"/>
				<path fill="#5F95B8" d="M461.9,443.2"/>
			</g>
		</g>
		<g>
			<g>
				<polygon fill="#5F95B8" points="466.2,441.8 469,441.8 469,444.6 466.2,444.6 				"/>
				<path fill="#5F95B8" d="M467.6,443.2"/>
			</g>
		</g>
		<g>
			<g>
				<polygon fill="#5F95B8" points="460.5,447.4 463.3,447.4 463.3,450.2 460.5,450.2 				"/>
				<path fill="#5F95B8" d="M461.9,448.8"/>
			</g>
		</g>
	</g>
</g>
<g>
	<circle fill="#F6B51D" cx="454.6" cy="362.1" r="21.6"/>
	<path fill="#F6B51D" d="M454.6,362.1"/>
</g>
<path fill="#F3913E" d="M454.6,340.5c-11.9,0-21.6,9.7-21.6,21.6l0,0l0,0h21.6l-11.1,18.5c3.2,1.9,7,3.1,11.1,3.1
	c11.9,0,21.6-9.7,21.6-21.6S466.5,340.5,454.6,340.5z"/>
<path fill="#F5E100" d="M454.6,362.1H433c0-7.9,4.2-14.8,10.5-18.5"/>
</svg>
