<?xml version="1.0" encoding="utf-8"?>
<!-- Generator: Adobe Illustrator 17.1.0, SVG Export Plug-In . SVG Version: 6.00 Build 0)  -->
<!DOCTYPE svg PUBLIC "-//W3C//DTD SVG 1.1//EN" "http://www.w3.org/Graphics/SVG/1.1/DTD/svg11.dtd">
<svg version="1.1" id="gulliver" xmlns="http://www.w3.org/2000/svg" xmlns:xlink="http://www.w3.org/1999/xlink" x="0px" y="0px"
	 viewBox="482.7 328.2 127.9 135.7" enable-background="new 482.7 328.2 127.9 135.7" xml:space="preserve">
<g>
	<g>
		<path fill="#5AC5C4" d="M306,396"/>
	</g>
	<g>
		<g>
			<g>
				<g>
					<path fill="#111D2A" d="M538.1,338.9l7.9,4l8-4.1l7.6,7.1l-9,9.3l5.9,82.4c0,0,0,0.2-0.1,0.2l-11.4,17.4
						c-0.2,0.3-0.5,0.3-0.7,0l-12.1-16.7c0,0-0.1-0.2-0.1-0.2l5.2-83.1l-8.7-9.5L538.1,338.9z"/>
				</g>
				<g>
					<path fill="none" stroke="#1D1D1B" stroke-width="0.5141" stroke-miterlimit="3.8637" d="M580.1,356.4"/>
				</g>
				<g>
					<path fill="#FFFFFF" d="M574,328.2v27.5c0,0.8-0.8,1.1-1.3,0.6l-26.6-24.8c-1.7,1.6-7.3,6.9-12.9,12.1
						c-3.3,3.1-13,11.8-13.2,11.9c-0.1,0.1-0.2,0.2-0.3,0.2c-0.9,0.5-1.2-0.4-1.2-0.7c0-0.6-0.1-19.2-0.2-26.8L574,328.2z"/>
				</g>
			</g>
		</g>
	</g>
</g>
<g>
	<path fill="#087678" d="M536.1,409.6L498,377.3c-0.1-0.1-0.3-0.4-0.3-0.6v-10.8c0-0.6,0.6-1,1.1-0.7l38.8,18.3L536.1,409.6z"/>
</g>
<g>
	<path fill="#087678" d="M554.7,384.9l39.7-18.7c0.6-0.3,1.1,0.1,1.1,0.7v10.8c0,0.2-0.2,0.5-0.3,0.6l-38.7,32.8L554.7,384.9z"/>
</g>
</svg>
