<?xml version="1.0" encoding="utf-8"?>
<!-- Generator: Adobe Illustrator 17.1.0, SVG Export Plug-In . SVG Version: 6.00 Build 0)  -->
<!DOCTYPE svg PUBLIC "-//W3C//DTD SVG 1.1//EN" "http://www.w3.org/Graphics/SVG/1.1/DTD/svg11.dtd">
<svg version="1.1" id="Layer_10" xmlns="http://www.w3.org/2000/svg" xmlns:xlink="http://www.w3.org/1999/xlink" x="0px" y="0px"
	 viewBox="485.8 328.2 126.2 135.7" enable-background="new 485.8 328.2 126.2 135.7" xml:space="preserve">
<g>
	<path fill="#B51915" d="M546.2,400.5c0-1.4,0.9-2.7,2.3-3.1v-69.3h1.8v69.2c1.4,0.3,2.4,1.6,2.4,3.1c0,1.8-1.5,3.2-3.3,3.2
		C547.7,403.8,546.2,402.3,546.2,400.5z"/>
	<path fill="#B51915" d="M550.3,328.2l1.7,6.9c5.4,18.3,17.3,43.8,31.4,63.5c-12.3,27.7-11.9,58.6-11.9,58.6s1.8,1.6,4.9,0
		c0.8,0,1.7,0,1.7,0c4,2.3,7.9,0,7.9,0h1.7c3.7,2.8,7.9,0,7.9,0l1.7,0c3.6,3.3,7.8,0,7.8,0l1.7,0c1.1,1.1,3.1,1.5,5.1,0.4V328.2
		H550.3z"/>
	<path fill="#E30613" d="M485.8,457.1c0,0,2.7,1.8,5.8,0c0,0,1.2,0,1.7,0c2.5,1.2,5.1,1.2,7.9,0c0,0,1.2,0,1.7,0c2.9,3,7.9,0,7.9,0
		s1,0,1.7,0c4.1,2.6,7.9,0,7.9,0s1,0,1.7,0c2.2,1.8,4.9,0,4.9,0s0.4-30.9-11.9-58.6c14.5-20.1,26.6-45.8,31.9-64.3l1.6-6.2h-62.6
		V457.1z"/>
	<line fill="none" stroke="#B51C18" stroke-miterlimit="10" x1="492.5" y1="328.2" x2="492.5" y2="457.1"/>
	<g>
		<g>
			<path fill="none" stroke="#B81917" stroke-width="1.222" stroke-miterlimit="3.8637" d="M502,457.1"/>
			<path fill="none" stroke="#B81917" stroke-width="1.222" stroke-miterlimit="3.8637" d="M506.6,328.2"/>
		</g>
		<g>
			<path fill="none" stroke="#BB1A18" stroke-width="1.222" stroke-miterlimit="3.8637" d="M511.7,457.1"/>
			<path fill="none" stroke="#BB1A18" stroke-width="1.222" stroke-miterlimit="3.8637" d="M521.1,328.2"/>
		</g>
	</g>
	<path fill="#B51915" d="M515.1,398.5h-29.3v6.3h31.8C516.8,402.8,516,400.5,515.1,398.5z"/>
	<path fill="#B51915" d="M515.1,398.5h-29.3v6.3h31.8C516.8,402.8,516,400.5,515.1,398.5z"/>
	<g>
		<g>
			<line fill="none" stroke="#E30613" stroke-miterlimit="3.8637" x1="606" y1="328.2" x2="606" y2="457.1"/>
			<path fill="none" stroke="#E30613" stroke-width="1.222" stroke-miterlimit="3.8637" d="M591.9,328.2c1.6,15.6,5.2,52,9,72.3
				c-3.1,18.3-4.3,47.1-4.5,56.7"/>
			<path fill="none" stroke="#E30613" stroke-width="1.222" stroke-miterlimit="3.8637" d="M577.4,328.2
				c3.1,18.7,10.4,52.5,18.5,71.5c-6.4,20.2-8.8,47-9.1,57.4"/>
			<path fill="none" stroke="#E30613" stroke-width="1.222" stroke-miterlimit="3.8637" d="M562.7,328.2
				c4.3,23.6,15.7,53.5,28.2,70.8c-9.8,22.1-13.4,46-13.6,58.1"/>
		</g>
	</g>
	<path fill="#E30613" d="M552,335c1.4,0.9,2.9,1.4,4.5,1.4c3.2,0,5.9-1.9,7.1-4.7c1.2,2.8,3.9,4.7,7.1,4.7s6.4-2,7.6-4.7
		c1.2,2.8,4.3,4.4,7.5,4.4c3.2,0,5.5-1.7,6.6-4.4c1.2,2.8,4,4.6,7.2,4.6h0.2c3.2,0,4.8-1.7,6-4.5c1,2.3,3.5,4,6.2,4.5v-8.1h-61.7
		L552,335z"/>
	<path fill="none" stroke="#B81917" stroke-width="1.222" stroke-miterlimit="3.8637" d="M506.6,328.2c-1.6,15.6-5.2,52-9,72.3
		c3.1,18.3,4.3,47.1,4.5,56.7"/>
	<path fill="none" stroke="#BB1A18" stroke-width="1.222" stroke-miterlimit="3.8637" d="M521.1,328.2
		c-3.1,18.7-10.4,52.5-18.5,71.5c6.4,20.2,8.8,47.1,9.1,57.4"/>
	<path fill="none" stroke="#BE1A1A" stroke-width="1.222" stroke-miterlimit="3.8637" d="M535.8,328.2
		c-4.3,23.6-15.7,53.5-28.2,70.8c9.8,22.1,13.4,46,13.6,58.1"/>
	<path fill="#B51915" d="M546.9,334.3l1.5-6.2h-62.6v8.9c3.2-0.1,5.6-1.9,6.7-4.6c1.2,2.7,3.8,4.6,6.9,4.6c3.1,0,5.2-1.9,6.3-4.6
		c1.2,2.7,4.4,4.6,7.6,4.6c3.1,0,5.8-1.9,6.9-4.6c1.2,2.7,3.8,4.6,7.1,4.6c3.1,0,6.6-1.9,7.7-4.6c1.2,2.7,2.9,4.5,6.1,4.5h0
		C543.4,336.9,545.5,335.9,546.9,334.3l1.5-6.2"/>
	<g>
		<path fill="#E30613" d="M583.4,398.5C583.4,398.5,583.4,398.5,583.4,398.5c-0.9,2.1-1.7,4.2-2.5,6.3H612v-6.3H583.4L583.4,398.5z"
			/>
	</g>
</g>
</svg>
