<svg xmlns="http://www.w3.org/2000/svg" xmlns:xlink="http://www.w3.org/1999/xlink" viewBox="71.8 80 432.5 277.1">
    <path fill="#111D2A" d="M161.1 133.3c0-19.7 12.8-24.2 24.9-24.2h185.2c9.5.1 13.8 5 13.8 12.6l4.9 17.8h14.5c7.4 0 11.1 3.9 11.1 11.3v206.3H160.7l.4-223.8z"/>
    <path fill="#FFF" d="M385 357.1c.2-14.1 0-216.4 0-234.2v-1.2s2.1 9.1 7.7 16.4a40 40 0 0 0 8.9 7.8V357H385z"/>
    <path fill="#FFF" d="M298.5 107.2h51v113.6l-24.9-51.7v-23c0-1.1-1.6-1.1-1.6 0V169l-24.5 51.8V107.2z"/>
    <circle cx="324" cy="239.7" r="15.3" fill="#FFF"/>
    <defs>
        <circle id="a" cx="324" cy="239.7" r="15.3"/>
    </defs>
    <clipPath id="b">
        <use xlink:href="#a" overflow="visible"/>
    </clipPath>
    <g clip-path="url(#b)">
        <path fill="#1D1D1B" d="M322.8 239.5c.2-.5.7-.7 1.1-.7l2-3.8c-.2-.4-.2-1.1.1-1.4.1-.1.6-.5.8-.9l.9-1.3c.3-.4.7-.3.5.5l-.5 1.3-.1.7v.5c0 .4-.3.8-.9.9l-2 3.9.1.3h5.9c.4-.5 1-.5 1.4-.3l.4.1.6.1 1.6.1 1.8.2c.5.1.6.6-.1.7l-3.2.3-.6.1-.4.1c-.4.1-.9.1-1.4-.3h-6c-.3.6-1.1.8-1.7.5-.4-.1-.6-.9-.3-1.6z"/>
    </g>
</svg>
