<svg xmlns="http://www.w3.org/2000/svg" viewBox="81.8 23.9 432.6 277.1">
    <path fill="#3A7224" d="M81.8 110.3l2.9.1 4.5-.3c5.1 6.7 13.2 11 22.2 11 7.2 0 13-3.1 17.5-7.6 0 0 1.8-5.3 5.7-5.2l4.9-.1c13.9-.1 26.4-7.2 31.2-20.3a43.8 43.8 0 0 0-8-43.4c-1.1-1.4.5-3.8 2.9-1.9a49.7 49.7 0 0 1 17.5 48.2c-1.9 7.6-9.3 19.7 3.3 23.2 1.6.6 3.2 1.1 4.6 1.8 13.4 5 24.1 18.7 27.8 21.4 13.3 11.9 42.4 17.5 54.9 8.6a12 12 0 0 0 4.8-8.4c.3-2.2 1.4-2 2-2 5.7 0 10.9-1.7 15.3-4.6a28.2 28.2 0 0 0 33.6-.6 30 30 0 0 0 13.1.1c2.6-.7 2.4 1.2 2.6 2.3.9 9 2.8 14.3 7.7 17.8 11.2 7.8 39.1 9.5 52.9 3.6 10.9-4.7 13.7-8.9 20.9-13.1 5.9-3.4 15.1-1.6 18.9-5.3 7.3-7.1 13-16.1 24.8-18.4 17.4-3.5 22.8 13 25.1 16.2 2.4 5.1 12.1 8 18.9 9.6V23.9H81.8v86.4z"/>
    <path fill="#111D2A" d="M514.2 148c-3.6-.3-8.2-1-13.2-2.6-16.4-5.5-17.7-17.6-30.3-13.7-6.4 1.9-9 8.2-9.7 12.2-.7 4-2.3 6-6.1 6.8-4.9.9-11.5 2.6-16 4.9-9.7 5-6.3 13.2-28.1 21.1a146.2 146.2 0 0 1-47.4 6.8c-8.2 0-11.7-1.8-10.3 12.4l3.6 30.6s4.2 21.6 20.3 28.2L481.8 301H120.9c21-12.4 38.7-25.1 44.1-29.7 6.6-4.5 11.8-3.5 14.6-3.1a72.7 72.7 0 0 0 62.5-21.6c2.3-2.4 5-2.4 6.4-2.4 25.3-.9 25.4-16.4 25.9-35.3.4-6.9.3-17.2.1-26.2-.1-2.6-.4-7.6-10.7-7.6a80.7 80.7 0 0 1-48.1-16.8c-10.7-8.9-17.2-24.7-35.7-33.7-17.2-8.7-41.5-9-50.9-10.9 0 0 1.8-5.3 5.7-5.2l4.9-.1c13.9-.1 26.4-7.2 31.2-20.3a43.8 43.8 0 0 0-8-43.4c-1.1-1.4.6-3.8 2.9-1.9A49.7 49.7 0 0 1 183.3 91c-1.9 7.6-9.3 19.7 3.3 23.2 1.6.6 3.2 1.1 4.6 1.8 13.4 5 24.1 18.7 27.8 21.4 13.3 11.9 42.4 17.5 54.9 8.6a12 12 0 0 0 4.8-8.4c.3-2.2 1.4-2 2-2 5.7 0 10.9-1.7 15.3-4.6a28.2 28.2 0 0 0 33.6-.6 30 30 0 0 0 13.1.1c2.6-.7 2.4 1.2 2.6 2.3.9 9 2.8 14.3 7.7 17.8 11.2 7.8 39.1 9.5 52.9 3.6 10.9-4.7 13.7-8.9 20.9-13.1 5.9-3.4 15.1-1.6 18.9-5.3 7.3-7.1 13-16.1 24.8-18.4 17.4-3.5 22.8 13 25.1 16.2 2.4 5.1 12.2 8 18.9 9.6v5c-.1-.2-.3-.2-.3-.2z"/>
    <path fill="#3A7224" d="M456.7 177.3c-3.2-.7-6.8-3.6-11.3-4.1-4.5-.5-8.7 3.8-11.2 6.8 3.1 2 5.3 3.5 9.9 4.1 4.5.4 9.9-2.5 12.6-6.8z"/>
    <g>
        <path fill="#3A7224" d="M265.3 183c-1.8 2.8-5.7 5.1-7.7 9.2-2.1 4.1.5 9.5 2.5 12.8 3-5.3 5.8-3.9 7.9-7.9 2.1-4.1.4-10.2-2.7-14.1z"/>
    </g>
    <g>
        <path fill="#3A7224" d="M197.6 160.7c-10.7-2-12.7-10.2-20.1-13.8a16 16 0 0 0-16.6 1.9c1.2 6.7 2.6 12 10.2 15.1 7.6 3 20.9.8 26.5-3.2z"/>
    </g>
</svg>
