<svg xmlns="http://www.w3.org/2000/svg" xmlns:xlink="http://www.w3.org/1999/xlink" viewBox="89.8 0 431.5 277.1">
    <defs>
        <path id="a" d="M-601.1-1h1123v277.1h-1123V-1z"/>
    </defs>
    <clipPath id="b">
        <use xlink:href="#a" overflow="visible"/>
    </clipPath>
    <g clip-path="url(#b)">
        <path fill="#E20613" d="M347.7 70.9c3.9 14.9 11.2 22.2 17.6 31-26.3 34.1-111.5 13.5-118.6 66.2-2.2 15.8 4.3 32.5 24.8 38a63.2 63.2 0 0 0 54.2-12.3c.1-4.1 4.7-4.7 7.4-3.1 7 7.6 12.6 9.3 22.8 10.2 6.5.2 2.2 7.6-6.2 7.8a118.2 118.2 0 0 1-66.6 31.4c-53.6 6.9-91.1-10.9-115.2-44-27.9-38.2-32.7-90.6-18.3-158.2C160-11.7 194-29.5 211.9-38.4h352.6V310l-113.3-6c66.3-129.2 1.7-196.4-61.8-208.2l-.7-5.2c-3.6-33.9-36-40.6-40-58.3 0-.1-7.9 12.2-1 38.6z"/>
    </g>
    <path fill="#FFF" d="M370.3 141l-4.9 3.6c-.7.5-1.4 0-1.1-.8l1.9-5.7-4.9-3.6c-.7-.5-.5-1.4.5-1.4h6.1l1.9-5.7c.3-.9 1.1-.9 1.4 0l1.9 5.7h6.1c.9 0 1.1.8.5 1.4l-4.9 3.6 1.9 5.7c.3.9-.4 1.4-1.1.8l-5.3-3.6z"/>
    <g>
        <path fill="#FFF" d="M223.8 49.1l-5.4 3.9c-.8.6-1.6 0-1.3-.9l2.1-6.4-5.4-3.9c-.8-.6-.5-1.5.5-1.5h6.7l2-6.4c.3-.9 1.3-.9 1.6 0l2 6.4h6.7c1 0 1.3.9.5 1.5l-5.4 3.9 2.1 6.4c.3.9-.5 1.5-1.3.9l-5.4-3.9z"/>
    </g>
</svg>
