<svg xmlns="http://www.w3.org/2000/svg" viewBox="0 0 432.4 266.4">
    <g fill="#111D2A">
        <path d="M194.8 118.5c-17.7.9-43.7 1.6-61.4 2.1a61 61 0 0 1-.3-59.3c41.8-68 178.1-48 173.7 38.5-2.8 56.9-53.9 45.5-54.3 87.8h-67c0-12.5-2-24.5 7-39.1 14.1-22.6 50.5-17.2 50.3-48.3a25 25 0 0 0-7.6-18c-3.9-3.7-9-6.2-14.5-7.3v-8.2c-32.4 1.1-47.3 30-25.9 51.8z"/>
        <path d="M216.9 266.4V258a31.7 31.7 0 0 1-20.8-8.4c-5.4-5.1-8-11.5-8-19.1 0-8 2.9-14.7 8.7-20.2a29.8 29.8 0 0 1 21.3-8.1 28.6 28.6 0 0 1 29.2 28.5c0 8.4-2.5 16.4-8 22.9a44.1 44.1 0 0 1-22.4 12.8z"/>
    </g>
</svg>
