<?xml version="1.0" encoding="utf-8"?>
<!-- Generator: Adobe Illustrator 17.1.0, SVG Export Plug-In . SVG Version: 6.00 Build 0)  -->
<!DOCTYPE svg PUBLIC "-//W3C//DTD SVG 1.1//EN" "http://www.w3.org/Graphics/SVG/1.1/DTD/svg11.dtd">
<svg version="1.1" id="Layer_7" xmlns="http://www.w3.org/2000/svg" xmlns:xlink="http://www.w3.org/1999/xlink" x="0px" y="0px"
	 viewBox="81.8 43.9 432.5 277.6" enable-background="new 81.8 43.9 432.5 277.6" xml:space="preserve">
<g id="erasmus">
	<g>
		<g>
			<g>
				<path fill="#BD902D" d="M286.8,445"/>
			</g>
			<g>
				<g>
					<path fill="#111D2A" d="M286.2,75.3c-0.6,0-1.1-0.3-1.6-0.7V60.2c0.4-0.4,0.9-0.6,1.6-0.6c0.7,0,1.3,0.3,1.7,0.8v14.2
						C287.5,75,286.9,75.3,286.2,75.3z M281.6,63c0-1,0.7-1.8,1.8-2.1v12.9c-1.1-0.3-1.8-1.1-1.8-2V63z M313.5,60.4v14.1
						c-0.4,0.5-1,0.9-1.8,0.9c-0.7,0-1.2-0.3-1.6-0.7V60.3c0.4-0.5,1-0.7,1.6-0.7C312.5,59.6,313.1,59.9,313.5,60.4z M317.1,71.8
						c0,1.1-1.1,2.1-2.4,2.2v-13c1.3,0,2.4,0.9,2.4,2.2V71.8z M290.8,222.8v45.7h-31v-45.7c0-9.7,7-17.5,15.5-17.5
						C283.9,205.3,290.8,213.1,290.8,222.8z M335.4,222.8v45.7h-31v-45.7c0-9.7,7-17.5,15.5-17.5
						C328.4,205.3,335.4,213.1,335.4,222.8z M152.2,321.5c8.5-83.3,16.1-107,21.4-124.5c22.1-72.4,98.2-86.2,108.6-88.3
						c7.2-1.4,11.8,2.3,13.1,7.5l0.8-42.3H289v-13h20.1v13H302l0.5,41.2c2-4.3,6.8-7.4,13-6.2c10.5,2,85.8,16.5,108,88.9
						c5.3,17.4,12.8,41,21.3,123.6h-94.9c0-18.9,0.2-77.3,0.7-99.5c0.3-16.1,12.8-17.6,19.2-15.9c7.8,2,10.3,9.2,11,25.8
						c0.5,11.2,0.3,28.6,1,43.7c0.2,3.9,5,4.1,5-2.2c0-2.3,0.1-44.3-3.5-57.4c-3.8-13.6-13.5-14.5-13.5-14.5s-1.2-51.4-59.3-71
						c-4-1.4-6.6-3.6-7.9-6.1v1c0,1.2-1.1,2.2-2.4,2.2h-2.6c-1.3,0-2.4-0.9-2.4-2.2l0.1-1.9c-1.1,2.2-3.6,4.3-8.6,6.1
						c-60.5,21.6-59.5,70.4-59.5,70.4s-10.3,1.8-13.7,15.3c-3.2,13.1-3.2,54.7-3.2,57c0,6.3,4.8,6.1,5,2.2c0.7-15.1,0.5-32.4,1-43.7
						c0.7-16.6,5.6-24.9,13.5-26.5c7.4-1.5,16.4,0.5,16.8,16.6c0.3,17.4-0.6,65.5-2.2,100.4L152.2,321.5L152.2,321.5z"/>
				</g>
			</g>
		</g>
	</g>
</g>
</svg>
