<?xml version="1.0" encoding="utf-8"?>
<!-- Generator: Adobe Illustrator 17.1.0, SVG Export Plug-In . SVG Version: 6.00 Build 0)  -->
<!DOCTYPE svg PUBLIC "-//W3C//DTD SVG 1.1//EN" "http://www.w3.org/Graphics/SVG/1.1/DTD/svg11.dtd">
<svg version="1.1" id="Layer_8" xmlns="http://www.w3.org/2000/svg" xmlns:xlink="http://www.w3.org/1999/xlink" x="0px" y="0px"
	 viewBox="111.8 23.9 432.5 277.1" enable-background="new 111.8 23.9 432.5 277.1" xml:space="preserve">
<g id="free_exchange">
	<g>
		<g>
			<g>
				<path fill="#111D2A" d="M234.8,101.7L198,216.2h26h48L234.8,101.7z M421.9,101.7l-37.2,114.5h74L421.9,101.7z M305.8,301
					c2.5-3.3,11.2-8.7,12.4-19.6c1.4-11.8-5.9-52.8-11.2-90.8c-3.7-26.9-1.1-30.4,4-46.1c3.4-10.6,1-45.5-11.6-44.7
					c-0.7,0.1-1.4,0.1-1.9,0.2c-10.4,1.4-16.6,5.3-34.8,6.6c-10.1,0.7-17.6-0.6-23-2.5l36.2,112.2h2.6c0,25.2-18,45.6-43.2,45.6
					s-43.8-20.4-43.8-45.6h2.8l37.6-116.8c-6.2-6.5,6.7-15.5,10.2-2.6c2.6,1.2,9.7,2.8,18,2c15.7-1.7,19-6.1,34.5-11.2
					c9.9-3.2,16.9-4.1,23.6-4.3c4.8-0.1,5.2-4.1,4.3-9.3c-0.3-1.9-5.1-0.5-6.9-1.8s-2-6.8-1.5-11.3c0.5-4.5,1.2-14.2,8-17
					c3.9-1.6,7.8-1.1,9.3-0.9c0.9,0.1,2,0.4,3.2,0.9c6.8,2.8,7.5,12.5,8,17c0.5,4.5,0.3,9.9-1.5,11.3c-1.8,1.3-6.6-0.1-6.9,1.8
					c-0.9,5.2-0.5,9.2,4.3,9.3c6.7,0.3,13.7,1.1,23.6,4.3c15.5,5.1,18.8,9.5,34.5,11.2c8.4,0.9,15.5-0.7,18-2
					c3.5-12.8,16.4-3.9,10.2,2.6l37.5,116.7h2.8c0,25.2-18.6,45.6-43.8,45.6c-25.2,0-43.2-20.4-43.2-45.6h2.6l36.2-112.2
					c-5.4,2-13,3.2-23,2.5c-18.2-1.2-24.4-5.1-34.8-6.6c-0.5-0.1-1.2-0.1-1.9-0.2c-13-0.6-15,34.1-11.6,44.7
					c5.1,15.7,7.7,19.2,4,46.1c-5.3,38-12.6,79.1-11.2,90.8c1.3,10.9,9.9,16.3,12.4,19.6L305.8,301z"/>
			</g>
			<g>
				<path fill="#29343F" d="M409.8,219.5c0.1,3.6,0.3,7.1,0.8,10.5c3.3-0.3,6.4-0.5,9.9-0.6v-9.9H409.8z M446.2,232.2
					c1.1-3.7,2-8.4,2-12.7h-11.4c0,3.4-0.3,7.2-0.8,10.8C439.5,230.8,442.9,231.4,446.2,232.2z M433.8,256.1c3.3-1,6.4-2.5,9.3-4.3
					c-1-0.6-2.1-1.2-3.2-1.7C438,252.3,436,254.3,433.8,256.1z M457.5,235.8c2.5-4.9,3.9-10.4,4.1-16.2h-10.5
					c-0.1,4.7-0.9,9.2-2.1,13.4C451.9,233.8,454.8,234.7,457.5,235.8z M435.5,233.2c-0.5,3.4-1.8,8.3-2.8,11.4
					c2.2,0.5,4.3,1.2,6.4,2.1c2.6-3.4,4.7-7.4,6.3-11.6C442.1,234.2,438.9,233.6,435.5,233.2z M426.8,257.6
					c3.9-2.2,7.4-5.2,10.3-8.6c-1.8-0.7-3.4-1.2-5.4-1.7C430.3,250.9,428.7,254.3,426.8,257.6z M433.1,230c0.5-3.4,0.7-6.9,0.8-10.5
					h-10.7v9.9C426.8,229.5,429.8,229.7,433.1,230z M423.3,257.9c2.2-3.4,4.3-7.8,5.6-11.2c-1.7-0.3-3.9-0.5-5.6-0.5V257.9z
					 M423.3,243.2c2.2,0,4.8,0.3,6.6,0.7c1.1-3,2.2-7.5,2.8-11.1c-2.4-0.3-6.8-0.5-9.4-0.5L423.3,243.2L423.3,243.2z M395.5,219.5
					c0.1,4.3,0.9,9,2,12.7c3.3-0.8,6.7-1.4,10.3-1.9c-0.5-3.5-0.8-7.4-0.8-10.8C407,219.5,395.5,219.5,395.5,219.5z M400.6,251.8
					c2.8,1.8,5.9,3.2,9.3,4.3c-2.2-1.8-4.2-3.8-6-6C402.7,250.6,401.6,251.2,400.6,251.8z M386.2,235.8c2.8-1,5.6-2,8.6-2.8
					c-1.3-4.3-2-8.7-2.1-13.4h-10.5C382.3,225.3,383.8,230.8,386.2,235.8z M411.1,244.5c-1.1-3-2.3-7.8-2.8-11.4
					c-3.4,0.5-6.6,1-9.8,1.8c1.6,4.3,3.7,8.2,6.3,11.6C406.7,245.8,408.8,245,411.1,244.5z M416.9,257.6c-1.9-3.2-3.5-6.6-4.9-10.4
					c-2.1,0.5-3.6,1-5.4,1.7C409.6,252.4,413,255.3,416.9,257.6z M414.8,246.6c1.3,3.4,3.4,7.8,5.6,11.2v-11.8
					C418.8,246.1,416.5,246.3,414.8,246.6z M413.8,243.9c1.8-0.3,4.5-0.7,6.6-0.7v-10.9c-2.6,0-7,0.2-9.4,0.5
					C411.6,236.4,412.7,240.8,413.8,243.9z M441.7,247.8c1.4,0.7,2.8,1.5,4,2.2c3.7-2.8,8-7.2,10.5-11.8c-2.6-1-5.2-1.8-8.1-2.6
					C446.3,240.4,444.2,244.4,441.7,247.8z M402.1,247.8c-2.5-3.4-4.7-7.4-6.4-12.1c-2.8,0.7-5.5,1.6-8.1,2.6
					c2.6,4.5,6.8,9,10.5,11.8C399.2,249.3,400.6,248.5,402.1,247.8z"/>
			</g>
			<g>
				<path fill="#29343F" d="M246.9,219.5c-0.1,3.6-0.3,7.1-0.8,10.5c-3.3-0.3-6.4-0.5-9.9-0.6v-9.9H246.9z M210.5,232.2
					c-1.1-3.7-2-8.4-2-12.7h11.4c0,3.4,0.3,7.2,0.8,10.8C217.2,230.8,213.8,231.4,210.5,232.2z M222.9,256.1c-3.3-1-6.4-2.5-9.3-4.3
					c1-0.6,2.1-1.2,3.2-1.7C218.7,252.3,220.7,254.3,222.9,256.1z M199.2,235.8c-2.5-4.9-3.9-10.4-4.1-16.2h10.5
					c0.1,4.7,0.9,9.2,2.1,13.4C204.7,233.8,201.9,234.7,199.2,235.8z M221.2,233.2c0.5,3.4,1.8,8.3,2.8,11.4
					c-2.2,0.5-4.3,1.2-6.4,2.1c-2.6-3.4-4.7-7.4-6.3-11.6C214.5,234.2,217.8,233.6,221.2,233.2z M229.9,257.6
					c-3.9-2.2-7.4-5.2-10.3-8.6c1.8-0.7,3.4-1.2,5.4-1.7C226.4,250.9,228,254.3,229.9,257.6z M223.5,230c-0.5-3.4-0.7-6.9-0.8-10.5
					h10.7v9.9C229.9,229.5,226.8,229.7,223.5,230z M233.4,257.9c-2.2-3.4-4.3-7.8-5.6-11.2c1.7-0.3,3.9-0.5,5.6-0.5V257.9z
					 M233.4,243.2c-2.2,0-4.8,0.3-6.6,0.7c-1.1-3-2.2-7.5-2.8-11.1c2.4-0.3,6.8-0.5,9.4-0.5L233.4,243.2L233.4,243.2z M261.2,219.5
					c-0.1,4.3-0.9,9-2,12.7c-3.3-0.8-6.7-1.4-10.3-1.9c0.5-3.5,0.8-7.4,0.8-10.8C249.7,219.5,261.2,219.5,261.2,219.5z M256,251.8
					c-2.8,1.8-5.9,3.2-9.3,4.3c2.2-1.8,4.2-3.8,6-6C253.9,250.6,255.1,251.2,256,251.8z M270.5,235.8c-2.8-1-5.6-2-8.6-2.8
					c1.3-4.3,2-8.7,2.1-13.4h10.5C274.3,225.3,272.9,230.8,270.5,235.8z M245.6,244.5c1.1-3,2.3-7.8,2.8-11.4c3.4,0.5,6.6,1,9.8,1.8
					c-1.6,4.3-3.7,8.2-6.3,11.6C249.9,245.8,247.9,245,245.6,244.5z M239.7,257.6c1.9-3.2,3.5-6.6,4.9-10.4c2.1,0.5,3.6,1,5.4,1.7
					C247.1,252.4,243.7,255.3,239.7,257.6z M241.8,246.6c-1.3,3.4-3.4,7.8-5.6,11.2v-11.8C237.9,246.1,240.2,246.3,241.8,246.6z
					 M242.9,243.9c-1.8-0.3-4.5-0.7-6.6-0.7v-10.9c2.6,0,7,0.2,9.4,0.5C245.1,236.4,243.9,240.8,242.9,243.9z M215,247.8
					c-1.4,0.7-2.8,1.5-4,2.2c-3.7-2.8-8-7.2-10.5-11.8c2.6-1,5.2-1.8,8.1-2.6C210.3,240.4,212.5,244.4,215,247.8z M254.6,247.8
					c2.5-3.4,4.7-7.4,6.4-12.1c2.8,0.7,5.5,1.6,8.1,2.6c-2.6,4.5-6.8,9-10.5,11.8C257.4,249.3,256,248.5,254.6,247.8z"/>
			</g>
			<g>
				<path fill="#D3B02A" d="M415.9,189.4c0.6,0.2,0.8,0.7,1,1.1c0,0,2.2,8.1,2.7,10.9c0.2,1-0.1,1.6-0.6,2h5.3
					c-0.5-0.3-0.8-0.9-0.6-2c0.5-2.8,2.7-10.9,2.7-10.9c0.2-0.5,0.5-0.9,1-1.1H415.9L415.9,189.4z M392.7,216.2c0-0.2,0-0.4,0.1-0.6
					c0.5-2.8,2.7-10.9,2.7-10.9c0.3-0.7,0.6-1.3,1.8-1.3h5.1c-0.5-0.3-0.8-0.9-0.6-2c0.5-2.8,2.7-10.9,2.7-10.9
					c0.3-0.7,0.6-1.3,1.8-1.3h7.2c-0.7-0.2-1.3-0.8-1-2.1c0.5-2.8,2.7-10.9,2.7-10.9c0.3-0.7,0.6-1.3,1.8-1.3h8.9
					c1.1,0,1.5,0.6,1.8,1.3c0,0,2.2,8.1,2.7,10.9c0.3,1.3-0.3,1.9-1,2.1h7.7c1.1,0,1.5,0.6,1.8,1.3c0,0,2.2,8.1,2.7,10.9
					c0.2,1-0.1,1.6-0.6,2h4.9c1.1,0,1.5,0.6,1.8,1.3c0,0,2.2,8.1,2.7,10.9c0.1,0.2,0.1,0.4,0.1,0.6h-18c0-0.2,0-0.4,0.1-0.6
					c0.5-2.8,2.7-10.9,2.7-10.9c0.1-0.4,0.3-0.7,0.7-1h-8.8c0.3,0.3,0.5,0.6,0.7,1c0,0,2.2,8.1,2.7,10.9c0.1,0.2,0.1,0.4,0.1,0.6
					h-18c0-0.2,0-0.4,0.1-0.6c0.5-2.8,2.7-10.9,2.7-10.9c0.1-0.4,0.3-0.7,0.7-1h-8.8c0.3,0.3,0.5,0.6,0.7,1c0,0,2.2,8.1,2.7,10.9
					c0.1,0.2,0.1,0.4,0.1,0.6H392.7z"/>
			</g>
		</g>
		<g>
			<path fill="#D3B02A" d="M240.4,189.4c-0.6,0.2-0.8,0.7-1,1.1c0,0-2.2,8.1-2.7,10.9c-0.2,1,0.1,1.6,0.6,2H232
				c0.5-0.3,0.8-0.9,0.6-2c-0.5-2.8-2.7-10.9-2.7-10.9c-0.2-0.5-0.5-0.9-1-1.1H240.4L240.4,189.4z M263.6,216.2c0-0.2,0-0.4-0.1-0.6
				c-0.5-2.8-2.7-10.9-2.7-10.9c-0.3-0.7-0.6-1.3-1.8-1.3h-5.1c0.5-0.3,0.8-0.9,0.6-2c-0.5-2.8-2.7-10.9-2.7-10.9
				c-0.3-0.7-0.6-1.3-1.8-1.3h-7.2c0.7-0.2,1.3-0.8,1-2.1c-0.5-2.8-2.7-10.9-2.7-10.9c-0.3-0.7-0.6-1.3-1.8-1.3h-8.9
				c-1.1,0-1.5,0.6-1.8,1.3c0,0-2.2,8.1-2.7,10.9c-0.3,1.3,0.3,1.9,1,2.1h-7.7c-1.1,0-1.5,0.6-1.8,1.3c0,0-2.2,8.1-2.7,10.9
				c-0.2,1,0.1,1.6,0.6,2h-4.9c-1.1,0-1.5,0.6-1.8,1.3c0,0-2.2,8.1-2.7,10.9c-0.1,0.2-0.1,0.4-0.1,0.6l0,0h18c0-0.2,0-0.4-0.1-0.6
				c-0.5-2.8-2.7-10.9-2.7-10.9c-0.1-0.4-0.3-0.7-0.7-1h8.8c-0.3,0.3-0.5,0.6-0.7,1c0,0-2.2,8.1-2.7,10.9c-0.1,0.2-0.1,0.4-0.1,0.6
				l0,0h18c0-0.2,0-0.4-0.1-0.6c-0.5-2.8-2.7-10.9-2.7-10.9c-0.1-0.4-0.3-0.7-0.7-1h8.8c-0.3,0.3-0.5,0.6-0.7,1
				c0,0-2.2,8.1-2.7,10.9c-0.1,0.2-0.1,0.4-0.1,0.6l0,0H263.6z"/>
		</g>
	</g>
</g>
</svg>
