<?xml version="1.0" encoding="utf-8"?>
<!-- Generator: Adobe Illustrator 17.1.0, SVG Export Plug-In . SVG Version: 6.00 Build 0)  -->
<!DOCTYPE svg PUBLIC "-//W3C//DTD SVG 1.1//EN" "http://www.w3.org/Graphics/SVG/1.1/DTD/svg11.dtd">
<svg version="1.1" id="Layer_11" xmlns="http://www.w3.org/2000/svg" xmlns:xlink="http://www.w3.org/1999/xlink" x="0px" y="0px"
	 viewBox="82 43.9 432.5 263.5" enable-background="new 82 43.9 432.5 263.5" xml:space="preserve">
<g id="game_theory">
	<g>
		<path fill="#5E9732" d="M298.2,439.9"/>
	</g>
	<g>
		<path d="M297.3,52.8c5.3,3.7,10.5,7.6,15.9,11.6C307.8,60.4,302.5,56.5,297.3,52.8L297.3,52.8z"/>
		<path d="M341.4,68L341.4,68c-1.9,0-3.8,0-5.7,0.1C337.7,68,339.6,68,341.4,68z"/>
		<path d="M270.4,72.6c-4.3,0.5-8.4,1.1-12.6,1.8C262,73.7,266.2,73.2,270.4,72.6z"/>
		<path d="M335.7,68c-3.8,0.1-7.6,0.1-11.5,0.3C328.1,68.2,331.9,68,335.7,68z"/>
		<polygon fill="none" points="336.3,43.9 342.1,43.9 342.1,43.9 		"/>
		<polygon fill="none" points="241.2,43.9 246.9,43.9 246.9,43.9 		"/>
		<polygon fill="none" points="409.9,43.9 415.9,43.9 415.9,43.9 		"/>
		<polygon fill="none" points="159.3,43.9 165.3,43.9 165.3,43.9 		"/>
		<polygon fill="none" points="273.9,43.9 284.3,43.9 284.3,43.9 		"/>
		<polygon fill="none" points="298.3,43.9 306.5,43.9 306.5,43.9 		"/>
		<path d="M277.2,65.3c-1.5,1.6-3,3.2-4.5,4.9C274.2,68.5,275.7,66.9,277.2,65.3z"/>
		<path d="M117.2,142.1c1.7,19.3,32.1,32.7,76.6,38.8c-20.1,39.4-26.2,71.5-11.6,83.9c6.2,5.3,15.3,6.1,26.5,3.4
			c0.3,0.5,0.5,0.9,0.8,1.4c5.5,8.9,17.2,11.6,26.1,6c7.9-4.9,10.9-14.8,7.4-23.1c6.4-3.9,12.9-8.4,19.7-13.5
			c13.7,42.6,32.2,70.1,51.4,68.4c19.4-1.7,32.9-32.6,38.9-77.5c40.1,20.7,72.9,27.2,85.4,12.4c4.7-5.5,5.9-13.4,4.2-22.8
			c6.8-3.8,11.1-11.4,10.2-19.6c-1.1-11-11-19-22-17.8c-1.4,0.1-2.6,0.4-3.9,0.8c-4.2-6.8-9.1-14-14.6-21.3
			c41.8-13.7,68.6-31.9,67-51c-1.7-19.2-31.8-32.6-75.8-38.7c5.1-9.8,9.3-19.1,12.5-27.8h-6c-3.2,8.4-7.4,17.4-12.4,27
			c-15.4-1.9-32.4-2.9-50.3-3c-1.5-8.2-3.2-16.3-5-24.1h-5.8c1.8,7.6,3.5,15.7,5.1,24.1l0,0l0,0l0,0c-1.9,0-3.8,0-5.7,0.1
			c-3.8,0.1-7.6,0.1-11.5,0.3c-2,0.1-3.9,0.1-5.8,0.2c-1.8-1.4-3.5-2.7-5.3-4.1c-5.3-4.1-10.6-7.9-15.9-11.6l0,0l0,0l0,0
			c3.1-3,6.2-6,9.3-8.9h-8.2c-1.9,1.8-3.9,3.7-5.8,5.6c-2.8-1.9-5.5-3.8-8.3-5.6H274c4.8,3,9.7,6.3,14.6,9.7
			c-3.8,3.8-7.6,7.7-11.3,11.8c-1.5,1.6-3,3.2-4.5,4.9c-0.7,0.8-1.5,1.6-2.2,2.5c-4.3,0.5-8.4,1.1-12.6,1.8
			c-2.1,0.3-4.1,0.6-6.2,0.9c-2,0.3-4.1,0.7-6.1,1c2-0.3,4.1-0.7,6.1-1c-2,0.3-4.1,0.7-6.1,1c0.1-11.4,0.5-22.2,1.4-32.4h-5.7
			c-0.8,10.6-1.3,21.8-1.4,33.5c-17,3-32.9,6.8-47.4,11.1c-12.8-16.6-22-31.9-27.2-44.6h-6c5.1,13.6,14.6,29.5,27.4,46.4
			C143.5,104,115.5,122.6,117.2,142.1z M220.7,273.1c-0.7-0.3-1.5-0.6-2.2-0.9c-2.1-1.1-3.9-2.8-5.3-5c-2-3.1-2.6-6.7-2-10.1
			c0.6,0.1,1.2,0.3,1.8,0.5c1.1,0.5,2.2,1.1,3.2,1.8c1.1,0.9,2.2,2,3,3.3c0.3,0.4,0.5,0.8,0.7,1.2c0.3,0.6,0.5,1.3,0.7,1.9
			c0.1,0.2,0.1,0.4,0.2,0.7c0.1,0.4,0.2,0.9,0.3,1.3c0.1,0.5,0.1,0.9,0.1,1.4c0,0.2,0,0.5,0,0.7C221.2,271,221,272.1,220.7,273.1z
			 M231.6,272.6c-0.6,0.3-1.3,0.5-2,0.7c-1.3,0.4-2.6,0.5-4,0.6c-0.7,0-1.4-0.1-2-0.1l0,0l0,0c0.3-1.3,0.5-2.6,0.5-4
			c0-0.3,0-0.5,0-0.8c-0.1-2.7-0.9-5.4-2.4-7.8c-1-1.6-2.2-3-3.6-4.1c-1.2-0.9-2.6-1.7-3.9-2.2c-0.7-0.3-1.4-0.5-2.2-0.7l0,0l0,0
			c0.2-0.6,0.5-1.2,0.8-1.8c0.5-0.9,1-1.6,1.7-2.4c0.4-0.5,0.9-0.9,1.4-1.4c0.3-0.2,0.5-0.4,0.8-0.6L231.6,272.6L231.6,272.6
			L231.6,272.6z M239.1,264.4c-0.1,0.3-0.3,0.7-0.4,0.9c-0.4,0.9-0.9,1.9-1.6,2.8c-0.4,0.5-0.9,1.1-1.4,1.6c-0.5,0.5-1.1,1-1.7,1.4
			l-14.9-24.7c0.3-0.1,0.7-0.3,1-0.4c0.7-0.3,1.4-0.5,2-0.6c1.4-0.3,2.8-0.4,4.1-0.3c0.3,0,0.7,0.1,1,0.1l0,0l0,0
			c-0.3,1-0.4,2-0.4,3c0,0.3,0,0.5,0,0.7s0,0.5,0,0.7c0,0.5,0.1,1,0.1,1.6c0.1,0.5,0.2,1,0.3,1.6c0.2,0.7,0.5,1.6,0.8,2.3
			c0.2,0.5,0.5,1,0.7,1.5c0.1,0.3,0.3,0.5,0.4,0.7c1.3,2,3,3.7,4.9,4.9c0.4,0.3,0.9,0.5,1.3,0.7c0.7,0.3,1.4,0.6,2.1,0.9
			C238.2,264.1,238.7,264.3,239.1,264.4L239.1,264.4L239.1,264.4z M239.9,261.4c-0.4-0.1-0.7-0.2-1.1-0.3s-0.7-0.3-1.1-0.5
			c-0.3-0.1-0.7-0.3-1.1-0.5c-0.5-0.3-1-0.7-1.5-1c-1.1-0.9-2.2-2-2.9-3.2c-0.1-0.2-0.2-0.4-0.3-0.6c-0.2-0.4-0.4-0.8-0.6-1.1
			c-0.1-0.2-0.1-0.4-0.3-0.6c-0.1-0.4-0.3-0.8-0.4-1.2c-0.1-0.4-0.2-0.8-0.3-1.2c-0.1-0.6-0.1-1.3-0.1-1.9c0-1,0.1-2.1,0.3-3.1
			c0.3,0.1,0.7,0.3,1.1,0.5c0.7,0.3,1.4,0.7,2,1.1s1.3,0.9,1.9,1.5c0.9,0.8,1.7,1.8,2.4,2.8C239.6,254.9,240.3,258.3,239.9,261.4z
			 M258.1,235.2c-1.8,1.4-3.6,2.6-5.3,3.9c-4.4,3.1-8.6,5.9-12.8,8.5c-2.2-2.7-5.1-4.7-8.2-5.8c-0.8-0.3-1.6-0.5-2.4-0.7
			c-0.3-0.1-0.5-0.1-0.8-0.1c-0.8-0.1-1.7-0.2-2.5-0.3c-2.5-0.1-5.1,0.3-7.5,1.3c-0.5,0.2-1.1,0.5-1.6,0.7c-0.5,0.3-1,0.5-1.6,0.9
			c-0.4,0.3-0.8,0.5-1.2,0.8c-0.4,0.3-0.7,0.6-1.1,0.9c-0.2,0.1-0.3,0.3-0.5,0.5c-0.5,0.5-1,1-1.5,1.6c-1.8,2.2-3.1,4.7-3.9,7.3
			c-0.1,0.5-0.2,0.9-0.3,1.4c-0.4,2.2-0.5,4.6-0.1,6.9c-1.1,0.3-2.2,0.5-3.4,0.7c-0.5,0.1-1.1,0.2-1.6,0.3c-2.1,0.3-4.1,0.3-5.9,0.3
			c-0.5,0-0.9-0.1-1.4-0.1c-1.4-0.1-2.6-0.4-3.7-0.7c-0.7-0.3-1.5-0.5-2.2-0.9c-1.1-0.5-2-1.1-2.9-1.9c-4.1-3.4-6.1-9.2-6.1-16.9
			c0-1.1,0-2.2,0.1-3.2c0.1-1.9,0.3-3.9,0.6-5.9c0.2-1.2,0.4-2.5,0.7-3.8c0.1-0.4,0.2-0.9,0.3-1.3c0.3-1.3,0.6-2.6,0.9-4.1
			c1.1-4.6,2.7-9.5,4.6-14.7c0.4-1,0.7-2.1,1.2-3.2c0.4-1.1,0.8-2.2,1.3-3.2c0.2-0.5,0.5-1.1,0.7-1.6c1.4-3.3,2.8-6.7,4.5-10.1
			c1.6-3.4,3.4-7,5.3-10.7c1.9,0.2,3.9,0.5,5.7,0.6c5.8,0.6,11.9,1.1,18.1,1.4c2.1,0.1,4.2,0.2,6.3,0.3c2.1,0.1,4.3,0.2,6.4,0.3
			c4.3,0.1,8.6,0.2,13,0.3c0.2,1.1,0.4,2.2,0.6,3.2c0.4,2.2,0.8,4.3,1.3,6.4c0.2,1.1,0.4,2.1,0.7,3.2c0.5,2.1,0.9,4.2,1.4,6.3
			c0.2,1,0.5,2.1,0.7,3.1c1.4,6.1,2.9,12.1,4.5,17.9c0.3,0.9,0.5,1.9,0.8,2.8c0.5,1.9,1.1,3.8,1.6,5.6
			C260,233.9,259,234.5,258.1,235.2z M250.8,157.9c2,1.8,4,3.5,6.1,5.3c2,1.8,4.1,3.5,6.1,5.3c1,0.9,2,1.7,3,2.6
			c2,1.7,4.1,3.4,6.1,5c1,0.8,2,1.6,3,2.4c-1.8,0.1-3.6,0.1-5.4,0.2c-5.4,0.2-10.7,0.3-15.8,0.3c-0.6-3.4-1.1-6.9-1.7-10.3
			C251.8,165.1,251.2,161.5,250.8,157.9L250.8,157.9L250.8,157.9z M264.1,224.3c-0.5-1.8-0.9-3.5-1.4-5.3c-0.7-2.7-1.4-5.4-2.1-8.2
			c-0.7-2.8-1.4-5.6-2-8.5c-1.3-5.7-2.5-11.7-3.6-17.8l0,0l0,0c8.9-0.1,17.8-0.3,27-0.7c3.2,2.4,6.4,4.9,9.5,7.2s6.4,4.7,9.5,6.9
			l0,0l0,0c-3.8,3.8-7.6,7.4-11.4,10.8c-0.7,0.7-1.5,1.4-2.2,2.1c-1.5,1.4-3,2.7-4.5,4.1c-1.5,1.3-3,2.6-4.5,3.9
			c-0.7,0.6-1.5,1.3-2.2,1.9c-1.5,1.2-2.9,2.4-4.4,3.6c-2.2,1.8-4.3,3.5-6.4,5.2C265.1,227.8,264.6,226.1,264.1,224.3z M290.6,183.2
			c2.1-0.1,4.1-0.3,6.2-0.5c2.1-0.1,4.2-0.3,6.2-0.5c2.4-0.2,4.9-0.5,7.3-0.7c2.4-0.3,4.9-0.5,7.2-0.7c-2.1,2.2-4.2,4.5-6.3,6.6
			c-2.1,2.2-4.2,4.3-6.2,6.4c-2.4-1.7-4.8-3.4-7.2-5.2C295.5,186.9,293.1,185.1,290.6,183.2z M313.5,301.6c-1.7,0.1-3.4,0-5.1-0.5
			c-0.5-0.1-1-0.3-1.5-0.5c-0.5-0.2-1-0.4-1.5-0.6c-0.3-0.1-0.5-0.3-0.7-0.4c-1.2-0.7-2.5-1.5-3.8-2.4c-0.7-0.5-1.5-1.2-2.2-1.9
			c-3-2.7-6-6.3-9-10.6c-0.7-1.1-1.5-2.2-2.2-3.4c-0.3-0.4-0.5-0.8-0.7-1.2c-2.2-3.6-4.4-7.6-6.6-12c-0.5-1-0.9-2-1.4-3
			s-0.9-2-1.4-3.1c-0.5-1.1-0.9-2.2-1.4-3.2c-0.7-1.6-1.4-3.3-2-5.1c-0.5-1.1-0.9-2.3-1.4-3.5c-0.5-1.2-0.9-2.4-1.4-3.6
			c-0.4-1.2-0.9-2.4-1.3-3.7c-0.9-2.5-1.7-5.1-2.6-7.7c12.4-9.7,25.4-21.2,38.5-34.1c14.3,9.9,28.4,18.6,41.8,25.8
			C341.9,271.6,329.2,300.3,313.5,301.6z M350.7,185.1c-0.1,2-0.1,3.9-0.2,5.8c-0.1,3.9-0.3,7.6-0.5,11.4c-0.1,1.8-0.3,3.6-0.4,5.5
			s-0.3,3.6-0.5,5.4c-0.3,2.6-0.5,5.3-0.8,7.8c-0.7-0.4-1.6-0.8-2.3-1.3c-3-1.7-6.1-3.5-9.3-5.3c-2.4-1.4-4.7-2.8-7.2-4.3
			c-6.4-4-13-8.2-19.7-12.9c1.4-1.4,2.8-2.8,4.1-4.2c4.1-4.3,8.2-8.6,12.3-13.1c4.2-0.5,8.3-1.1,12.4-1.7c4.1-0.6,8.2-1.3,12.2-2
			C350.8,179.2,350.8,182.2,350.7,185.1z M350.9,170.5c-3,0.5-6.1,1-9.3,1.6c-3.1,0.5-6.4,0.9-9.5,1.4c2.5-2.8,5.1-5.7,7.6-8.7
			c0.8-1,1.7-2,2.5-3c1.4-1.7,2.8-3.4,4.3-5.1c1.4-1.7,2.8-3.4,4.1-5.1c0.2,4.9,0.3,9.6,0.3,14.3
			C350.8,167.4,350.9,168.9,350.9,170.5L350.9,170.5L350.9,170.5z M352.6,104.9L352.6,104.9L352.6,104.9c1.3,1.2,2.6,2.4,3.9,3.6
			c3.9,3.6,7.6,7.2,11.2,10.8l0,0l0,0c-2,2.8-3.9,5.5-6,8.4c-2,2.8-4.1,5.6-6.3,8.4c-0.3-4.9-0.7-9.8-1.1-14.7
			c-0.3-4.1-0.7-8.2-1.2-12.4C352.9,107.6,352.7,106.3,352.6,104.9z M367.9,128.7c1.3-1.8,2.6-3.6,3.8-5.3c2.2,2.2,4.4,4.5,6.5,6.8
			c1.4,1.5,2.8,3,4.2,4.5c0.7,0.7,1.4,1.5,2,2.2c1.4,1.5,2.7,3,4,4.4c1.3,1.5,2.6,2.9,3.9,4.4c2.5,2.9,4.9,5.7,7.2,8.6
			c1.1,1.4,2.3,2.8,3.4,4.3c-1.8,0.5-3.5,1-5.3,1.6c-1.8,0.5-3.6,1-5.5,1.5c-0.9,0.3-1.8,0.5-2.8,0.7c-1.9,0.5-3.8,0.9-5.7,1.4
			c-0.9,0.2-1.9,0.5-2.9,0.7c-2,0.5-3.9,0.9-5.9,1.4c-5.9,1.4-12.1,2.6-18.4,3.8c-0.1-8.1-0.3-16.4-0.7-24.7
			c2.8-3.6,5.5-7.2,8.1-10.7C365.3,132.2,366.6,130.5,367.9,128.7z M444.2,212.8c-0.5,0.5-1,0.9-1.6,1.4c-0.5,0.4-1.1,0.8-1.7,1.1
			c-0.6,0.3-1.2,0.7-1.8,0.9c-0.3,0.1-0.7,0.3-1,0.4l-0.5-0.3l-0.5-0.3l-1.6-1l-0.2-2.2l-0.3-2.8l-0.1-0.9l0,0l0,0l4-3.4l5.1,1.8
			l0.3,1.5l0.7,3.2C444.7,212.2,444.4,212.5,444.2,212.8z M443.2,192.5h2.6c0.7,1.1,1.4,2.2,1.9,3.5c0.3,0.6,0.5,1.3,0.6,2
			c0.1,0.7,0.3,1.4,0.3,2c0.1,0.6,0.1,1.2,0.1,1.8l-1.9,1.1l-1.1,0.6l-1.1,0.6l-4.7-1.6l-2.2-5.1l3.3-4.9L443.2,192.5z M425,188
			c0.5-0.3,0.9-0.5,1.4-0.7c1.5-0.7,3.1-1.1,4.8-1.3c1.3-0.1,2.5-0.1,3.7,0.1c0.5,0.1,0.9,0.1,1.4,0.3c0.2,0.1,0.5,0.1,0.7,0.2
			l1.4,4.1l-1.6,2.4l-1.6,2.5l-5.9,0.5l-4.3-3.9l0.1-2.4L425,188L425,188L425,188z M432.4,215.1l-1.6,1.4l-0.8,0.7
			c-0.3-0.1-0.7-0.1-1.1-0.3c-0.7-0.2-1.4-0.4-2.1-0.7c-0.3-0.1-0.7-0.3-1-0.5c-0.5-0.2-0.9-0.5-1.3-0.7c-0.8-0.5-1.6-1.1-2.3-1.8
			l0.3-2.2l0.1-1.9l4.5-2.6l4.7,2.8l0.3,2.9L432.4,215.1L432.4,215.1L432.4,215.1z M427,198l-1.3,5.6l-4.5,2.7l-1.6-0.9l-2.2-1.1
			c0-0.2-0.1-0.3-0.1-0.5c0-0.2-0.1-0.3-0.1-0.5c0-0.3-0.1-0.6-0.1-0.9c-0.1-1.6,0.1-3,0.4-4.5c0.1-0.5,0.3-1.1,0.5-1.7l3.2-1.1
			l1.6-0.5L427,198z M421.7,185.1L421.7,185.1L421.7,185.1c-1.9,1.2-3.5,2.8-4.9,4.6c-0.8,1.1-1.5,2.2-2.1,3.4
			c-0.4,0.8-0.7,1.6-1,2.5c-0.1,0.4-0.3,0.9-0.4,1.3c-0.3,1.4-0.5,2.7-0.5,4.1c0,0.9,0,1.9,0.1,2.8c0.3,2.4,0.9,4.7,2,6.7
			c0.3,0.6,0.6,1.1,0.9,1.7c0.2,0.3,0.3,0.5,0.5,0.8c0.5,0.8,1.1,1.6,1.8,2.2c0.4,0.5,0.9,0.9,1.4,1.4c1.2,1.1,2.5,2,3.9,2.8
			c0.5,0.3,1.1,0.6,1.8,0.8c0.6,0.2,1.2,0.5,1.8,0.7c0.6,0.2,1.3,0.3,1.9,0.5c2,0.4,3.9,0.5,6,0.3c0.7-0.1,1.6-0.2,2.3-0.3
			c0.1,0.9,0.3,1.8,0.3,2.7c0.3,3,0.1,5.8-0.5,8.2c-0.3,1.4-0.8,2.7-1.4,3.9c-0.5,0.9-1,1.7-1.6,2.4c-3.8,4.5-10.5,6.5-19.4,6.1
			c-0.4,0-0.7-0.1-1.1-0.1c-3-0.2-6.4-0.7-9.9-1.4c-1.4-0.3-2.7-0.5-4.1-0.9c-2.3-0.5-4.7-1.2-7.2-2c-2.5-0.7-5-1.6-7.6-2.6
			c-0.5-0.2-1.1-0.4-1.6-0.6c-1.1-0.4-2.2-0.8-3.2-1.2c-1.1-0.4-2.2-0.9-3.3-1.4c-1.7-0.7-3.4-1.4-5.1-2.2c-1.1-0.5-2.3-1-3.4-1.6
			c-4.7-2.1-9.5-4.5-14.4-7.1l0,0l0,0c0.3-2.8,0.6-5.7,0.9-8.6c0.5-4.9,0.8-9.8,1.1-14.9c0.2-3,0.3-6.1,0.5-9.3s0.2-6.3,0.3-9.5
			c0.1-2.2,0.1-4.3,0.1-6.4c11.3-2.1,22.1-4.4,32.4-7c3-0.8,6.1-1.6,9.1-2.4c3-0.8,5.9-1.7,8.7-2.6c1.1,1.5,2.2,3,3.4,4.5
			c0.6,0.8,1.1,1.6,1.8,2.4C415.4,175.2,418.8,180.3,421.7,185.1z M400.6,77c15,2,28.1,4.8,39,8.2c1,0.3,2,0.6,2.9,0.9
			c0.5,0.1,0.9,0.3,1.4,0.5c0.9,0.3,1.8,0.7,2.7,1c2.2,0.9,4.3,1.8,6.3,2.6c1.2,0.5,2.3,1.1,3.4,1.7c2.2,1.1,4.2,2.3,5.9,3.5
			c0.9,0.6,1.8,1.2,2.5,1.8c1.6,1.2,3,2.5,4.1,3.9c0.6,0.7,1.1,1.4,1.6,2c0.3,0.5,0.6,0.9,0.9,1.4c0.4,0.7,0.7,1.4,1.1,2.1
			c0.2,0.5,0.3,0.9,0.5,1.4c0.3,0.9,0.5,1.9,0.5,2.8c0.1,1.4,0,2.9-0.3,4.3c-0.1,0.7-0.4,1.5-0.7,2.2c-0.2,0.5-0.4,1-0.6,1.5
			c-0.2,0.5-0.5,1-0.7,1.5c-0.3,0.5-0.6,1-0.9,1.5c-0.8,1.2-1.8,2.5-2.9,3.7c-0.7,0.7-1.4,1.5-2.2,2.2c-0.7,0.7-1.6,1.5-2.4,2.2
			c-1.1,1-2.4,2-3.7,3c-0.7,0.5-1.4,1-2,1.5c-0.7,0.5-1.4,1-2.2,1.5s-1.5,0.9-2.3,1.5c-0.8,0.5-1.6,0.9-2.4,1.5
			c-1.6,0.9-3.4,2-5.2,2.9c-0.9,0.5-1.8,0.9-2.8,1.4c-0.5,0.2-0.9,0.5-1.4,0.7c-0.9,0.5-2,0.9-2.9,1.4c-8.5,4-18.3,7.8-29.3,11.3
			c-0.6-0.7-1.2-1.6-1.8-2.3c-1.2-1.6-2.5-3.1-3.8-4.7c-0.6-0.8-1.3-1.6-2-2.4c-2-2.4-4-4.7-6.1-7.1c-1.4-1.6-2.8-3.2-4.2-4.7
			c-5-5.5-10.3-11.2-15.9-16.8c1.2-1.8,2.4-3.6,3.6-5.3c3-4.5,5.9-8.9,8.6-13.2c1.1-1.8,2.2-3.5,3.2-5.2
			C394.1,88.8,397.5,82.8,400.6,77z M360.5,73.8c2,0.1,4.1,0.1,6,0.2c3,0.1,5.9,0.3,8.8,0.5c2.9,0.2,5.7,0.4,8.5,0.7
			c3.7,0.3,7.4,0.7,10.9,1.1l0,0l0,0c-1.2,2.3-2.5,4.6-3.9,6.9c-0.9,1.6-1.8,3.1-2.7,4.7c-0.9,1.6-1.9,3.2-2.8,4.7
			c-0.9,1.6-2,3.2-3,4.8c-3,4.8-6.2,9.7-9.6,14.7c-0.5,0.8-1.1,1.7-1.7,2.5c-3.1-3-6.3-6.1-9.5-9.2c-1.6-1.6-3.2-3-4.9-4.6
			c-1.6-1.6-3.3-3-5-4.6c-0.7-5.8-1.6-11.5-2.5-17.2c-0.3-1.9-0.6-3.7-0.9-5.6C352.3,73.6,356.5,73.7,360.5,73.8z M333.9,73.6
			c2.8-0.1,5.7-0.1,8.5-0.1c0.3,1.4,0.5,2.8,0.7,4.2c0.7,4.2,1.4,8.5,2,12.8l0,0l0,0c-1.6-1.4-3.2-2.8-4.8-4.2
			c-1.6-1.4-3.2-2.8-4.9-4.2c-0.9-0.7-1.7-1.4-2.6-2.1c-2.6-2.1-5.1-4.2-7.6-6.2C328.1,73.8,331,73.7,333.9,73.6z M279,71.6
			c2.4-2.6,4.7-5.1,7.1-7.6c2.4-2.4,4.7-4.9,7.1-7.2c2.7,1.9,5.5,3.9,8.2,5.9c2.8,2,5.5,4.1,8.3,6.2l0,0l0,0
			c-4.1,0.3-8.2,0.5-12.3,0.9c-1.4,0.1-2.8,0.2-4.1,0.3c-2.4,0.2-4.8,0.4-7.2,0.7C283.7,71.1,281.4,71.3,279,71.6L279,71.6L279,71.6
			z M273.3,78c6.7-0.8,13.6-1.6,20.5-2.2c2-0.2,3.9-0.3,5.7-0.5c3.9-0.3,7.6-0.5,11.4-0.8c1.9-0.1,3.8-0.2,5.6-0.3
			c5,3.9,10.1,8,15.1,12.3c3.7,3.1,7.4,6.3,10.9,9.4c1.2,1,2.4,2.1,3.5,3.1c0.2,1.8,0.5,3.7,0.7,5.6c0.7,5.6,1.2,11.4,1.8,17.2
			c0.1,1.8,0.3,3.6,0.5,5.3c0.4,5.3,0.7,10.5,1,15.7l0,0l0,0c-3,3.8-6,7.6-9.2,11.4c-1,1.3-2.1,2.6-3.2,3.8
			c-1.2,1.4-2.4,2.8-3.6,4.2c-3.6,4.2-7.2,8.2-10.7,12.2c-6.8,0.8-13.8,1.6-20.9,2.2c-6.4,0.5-12.6,1-18.8,1.4
			c-5-3.9-10-7.9-15.1-12.1c-0.7-0.6-1.4-1.2-2.2-1.8c-1.5-1.2-2.9-2.4-4.3-3.6c-4.3-3.7-8.5-7.4-12.6-11.1c-0.2-1.6-0.3-3-0.5-4.6
			c-0.3-3.1-0.7-6.2-0.9-9.4c-0.1-1.6-0.3-3.2-0.4-4.7c-0.6-7-1.1-13.8-1.4-20.5c2.2-2.8,4.5-5.7,6.8-8.6c2.3-2.8,4.7-5.7,7.1-8.6
			c2.2-2.6,4.3-5.1,6.5-7.6C268.9,82.8,271,80.4,273.3,78z M245.5,82c1.6-0.3,3.1-0.5,4.7-0.8c1.6-0.3,3.2-0.5,4.8-0.7
			c3.2-0.5,6.4-0.9,9.7-1.4l0,0l0,0c-1.5,1.7-3,3.4-4.5,5.1c-1.5,1.7-3,3.4-4.4,5.2c-1.7,2-3.4,4.1-5.1,6.1c-1.7,2-3.3,4.1-4.9,6.1
			c-0.2-5-0.3-9.9-0.3-14.7C245.5,85.2,245.5,83.6,245.5,82L245.5,82L245.5,82z M245.2,159c0.9,6.8,2,13.4,3,19.9c-1,0-2,0-3-0.1
			c-3-0.1-6.1-0.1-9.1-0.2c-2-0.1-4-0.1-5.9-0.2c-2-0.1-3.9-0.2-5.8-0.3c-1.9-0.1-3.8-0.2-5.7-0.3c-3.7-0.3-7.4-0.6-10.9-0.9
			c-1.8-0.2-3.6-0.3-5.3-0.5c0.9-1.6,1.8-3.2,2.6-4.8c1.4-2.4,2.8-4.9,4.2-7.4c0.9-1.6,2-3.3,3-5c2-3.3,4.1-6.8,6.4-10.1
			c2.2-3.4,4.5-6.9,6.9-10.4c0.6-0.9,1.2-1.8,1.8-2.6c1.4,1.4,2.7,2.7,4.1,4.1c2.8,2.7,5.6,5.4,8.5,8.1c1.4,1.4,2.9,2.7,4.4,4.1
			C244.6,154.5,244.9,156.7,245.2,159z M241.6,124c0.2,2.4,0.3,4.7,0.6,7.1c0.3,4.2,0.7,8.3,1.2,12.4c-2.2-2-4.4-4.1-6.5-6.1
			c-2.1-2-4.2-4.1-6.3-6.1c1.7-2.4,3.4-4.7,5.1-7.1c0.9-1.2,1.8-2.4,2.6-3.6c0.9-1.2,1.8-2.4,2.7-3.6
			C241.2,119.3,241.4,121.7,241.6,124z M201.3,91.9c4.3-1.1,8.6-2.3,13.1-3.4c2.7-0.7,5.5-1.3,8.2-1.9c5.6-1.2,11.4-2.4,17.3-3.5
			c0,2.1,0,4.1,0.1,6.2c0,2.1,0.1,4.2,0.1,6.3c0.1,4.2,0.3,8.5,0.5,12.8l0,0l0,0c-0.6,0.8-1.2,1.6-1.8,2.4
			c-4.2,5.5-8.3,11-12.2,16.6c-2.2-2.2-4.3-4.4-6.3-6.6c-2.8-2.9-5.4-5.7-8-8.6c-2-2.2-3.8-4.3-5.7-6.4c-1.8-2.1-3.6-4.2-5.3-6.3
			c-1.1-1.4-2.3-2.8-3.4-4.1c-0.5-0.7-1.1-1.4-1.6-2C197.9,92.8,199.6,92.4,201.3,91.9z M194.1,99.5c1.2,1.5,2.5,3,3.8,4.5
			c1.3,1.6,2.6,3,3.9,4.6c1.4,1.6,2.7,3,4.1,4.6c2,2.3,4.2,4.7,6.4,7c1.4,1.6,2.9,3.1,4.4,4.7c2.2,2.4,4.5,4.7,6.8,7l0,0l0,0
			c-2,2.8-3.9,5.6-5.7,8.4s-3.6,5.5-5.4,8.3c-1.1,1.8-2.3,3.6-3.4,5.5c-4.5,7.3-8.6,14.5-12.3,21.4c-24.1-3.2-43.5-8.4-56.3-15
			c-1.1-0.5-2.2-1.1-3.2-1.8c-1.4-0.8-2.6-1.6-3.8-2.4c-0.6-0.4-1.1-0.8-1.7-1.2c-0.8-0.6-1.6-1.3-2.2-1.9c-2.6-2.4-4.4-4.9-5.5-7.4
			c-0.6-1.4-0.9-2.8-1.1-4.3c-0.1-0.5-0.1-1-0.1-1.5c0.1-3,1.1-5.9,3-9c0.3-0.5,0.7-1,1-1.5c0.2-0.3,0.4-0.5,0.5-0.7
			c0.6-0.7,1.2-1.6,1.9-2.3c0.2-0.3,0.5-0.5,0.7-0.7c0.7-0.7,1.5-1.6,2.4-2.3c0.5-0.5,1.1-1,1.8-1.5c0.9-0.7,1.8-1.5,2.8-2.3
			c1.4-1,2.8-2,4.3-3c0.7-0.5,1.6-1,2.3-1.5c1.2-0.7,2.4-1.5,3.7-2.2c0.4-0.3,0.9-0.5,1.3-0.7c1.4-0.7,2.7-1.5,4.1-2.2
			c1.4-0.7,2.8-1.4,4.4-2.2c1.6-0.7,3-1.4,4.7-2.2c0.5-0.2,1.1-0.5,1.6-0.7c1.1-0.5,2.2-0.9,3.3-1.4c1.1-0.5,2.2-0.9,3.4-1.4
			c1.8-0.7,3.5-1.4,5.3-2c0.6-0.2,1.2-0.5,1.8-0.7c1.2-0.5,2.4-0.9,3.7-1.4c3.2-1.1,6.4-2.2,9.7-3.2C191.6,96.5,192.9,98,194.1,99.5
			z"/>
		<path d="M336.7,214.3c-2.4-1.4-4.7-2.8-7.2-4.3C332,211.5,334.4,212.9,336.7,214.3z"/>
		<path d="M346.3,156.6c-1.4,1.7-2.8,3.4-4.3,5.1c-0.8,1-1.7,2-2.5,3c0.8-1,1.7-2,2.5-3C343.5,160,345,158.3,346.3,156.6z"/>
		<path d="M350.9,170.5L350.9,170.5c-3,0.5-6.1,1-9.3,1.6C344.8,171.5,347.8,171,350.9,170.5z"/>
		<path d="M394.6,76.3L394.6,76.3c-1.2,2.3-2.5,4.6-3.9,6.9C392.1,80.9,393.4,78.6,394.6,76.3z"/>
		<path d="M390.8,83.2c-0.9,1.6-1.8,3.1-2.7,4.7C389,86.3,389.9,84.7,390.8,83.2z"/>
		<path d="M361.5,105.5c3.2,3,6.4,6.1,9.5,9.2c0.5-0.8,1.1-1.7,1.7-2.5c-0.5,0.8-1.1,1.7-1.7,2.5
			C367.9,111.5,364.7,108.5,361.5,105.5z"/>
		<path d="M349.1,79.2c0.9,5.6,1.8,11.4,2.5,17.2c1.7,1.5,3.4,3,5,4.6c-1.6-1.6-3.3-3-5-4.6C350.8,90.5,350,84.8,349.1,79.2z"/>
		<path d="M361.5,105.5c-1.6-1.6-3.2-3-4.9-4.6C358.2,102.4,359.8,103.9,361.5,105.5z"/>
		<path d="M352.6,104.9L352.6,104.9c1.3,1.2,2.6,2.4,3.9,3.6C355.2,107.3,353.9,106.1,352.6,104.9z"/>
		<path d="M367.7,119.3c-3.6-3.6-7.4-7.2-11.2-10.8C360.3,112.2,364.1,115.7,367.7,119.3L367.7,119.3z"/>
		<path d="M427.1,220.9c0.6,0.2,1.3,0.3,1.9,0.5C428.4,221.2,427.7,221.1,427.1,220.9z"/>
		<path d="M423.5,219.4c0.5,0.3,1.1,0.6,1.8,0.8C424.6,220,424.1,219.7,423.5,219.4z"/>
		<path d="M425.2,220.3c0.6,0.3,1.2,0.5,1.8,0.7C426.5,220.7,425.9,220.5,425.2,220.3z"/>
		<path d="M416.4,213c0.5,0.8,1.1,1.6,1.8,2.2C417.5,214.6,416.9,213.9,416.4,213z"/>
		<path d="M414.9,210.5c0.3,0.6,0.6,1.1,0.9,1.7C415.5,211.7,415.2,211.2,414.9,210.5z"/>
		<path d="M353.7,223.8L353.7,223.8c0.3-2.8,0.6-5.7,0.9-8.6C354.4,218.2,354,221,353.7,223.8z"/>
		<path d="M437.6,224c-0.1-0.9-0.2-1.8-0.3-2.7c-0.7,0.1-1.5,0.3-2.3,0.3c0.7-0.1,1.6-0.2,2.3-0.3
			C437.4,222.2,437.5,223.1,437.6,224z"/>
		<path d="M409.9,167.6c0.6,0.8,1.1,1.6,1.8,2.4C411.1,169.3,410.5,168.4,409.9,167.6z"/>
		<path d="M416.9,189.7c1.4-1.8,3-3.3,4.9-4.6l0,0C419.9,186.4,418.2,187.9,416.9,189.7z"/>
		<path d="M419.6,216.7c-0.5-0.4-0.9-0.9-1.4-1.4C418.6,215.8,419.1,216.2,419.6,216.7z"/>
		<path d="M388.8,168.1c3-0.8,6.1-1.6,9.1-2.4C394.9,166.6,391.9,167.4,388.8,168.1z"/>
		<path d="M380.8,164.3c-2,0.5-3.9,0.9-5.9,1.4C376.9,165.3,378.9,164.8,380.8,164.3z"/>
		<path d="M378.2,130.1c1.4,1.5,2.8,3,4.2,4.5C381.1,133.1,379.6,131.6,378.2,130.1z"/>
		<path d="M389.4,162.2c-1.9,0.5-3.8,0.9-5.7,1.4C385.6,163.2,387.5,162.7,389.4,162.2z"/>
		<path d="M397.6,159.9c-1.8,0.5-3.6,1-5.5,1.5C394,160.9,395.8,160.5,397.6,159.9z"/>
		<path d="M378.2,130.1c-2.1-2.2-4.3-4.5-6.5-6.8c-1.3,1.8-2.5,3.5-3.8,5.3c1.3-1.8,2.6-3.6,3.8-5.3
			C374,125.6,376.1,127.8,378.2,130.1z"/>
		<path d="M334.2,162.3c1.2-1.4,2.4-2.8,3.6-4.2c1.1-1.3,2.1-2.6,3.2-3.8c-1,1.3-2.1,2.6-3.2,3.8
			C336.6,159.5,335.4,160.9,334.2,162.3z"/>
		<path d="M262.3,160.5c1.4,1.2,2.9,2.4,4.3,3.6c0.7,0.6,1.4,1.2,2.2,1.8c-0.7-0.6-1.4-1.2-2.2-1.8
			C265.2,162.9,263.7,161.7,262.3,160.5z"/>
		<path d="M350.1,142.9c-0.3-5.1-0.6-10.4-1-15.7C349.5,132.5,349.8,137.7,350.1,142.9L350.1,142.9z"/>
		<path d="M299.6,75.3c3.9-0.3,7.6-0.5,11.4-0.8C307.2,74.8,303.4,75.1,299.6,75.3z"/>
		<path d="M181.3,229.3c0.3-1.3,0.6-2.6,0.9-4.1C181.9,226.6,181.6,228,181.3,229.3z"/>
		<path d="M206.8,262.8c-1.1,0.3-2.2,0.5-3.4,0.7C204.6,263.3,205.7,263.1,206.8,262.8z"/>
		<path d="M194.7,263.9c-1.4-0.1-2.6-0.4-3.7-0.7C192.1,263.5,193.3,263.7,194.7,263.9z"/>
		<path d="M179.7,243.5c0-1.1,0-2.2,0.1-3.2C179.7,241.4,179.7,242.4,179.7,243.5z"/>
		<path d="M180.3,234.3c0.2-1.2,0.4-2.5,0.7-3.8C180.8,231.9,180.6,233.1,180.3,234.3z"/>
		<path d="M214.2,244.3c-0.4,0.3-0.7,0.6-1.1,0.9C213.5,244.9,213.8,244.7,214.2,244.3z"/>
		<path d="M231.8,241.8c-0.8-0.3-1.6-0.5-2.4-0.7C230.2,241.3,231,241.5,231.8,241.8z"/>
		<path d="M258.1,235.2c-1.8,1.4-3.6,2.6-5.3,3.9C254.6,237.8,256.4,236.6,258.1,235.2z"/>
		<path d="M218.6,242c-0.5,0.2-1.1,0.5-1.6,0.7C217.5,242.4,218.1,242.2,218.6,242z"/>
		<path d="M196,264c1.8,0.1,3.8,0,5.9-0.3C199.8,264,197.9,264.1,196,264z"/>
		<path d="M228.6,241c-0.8-0.1-1.7-0.2-2.5-0.3C226.9,240.8,227.7,240.8,228.6,241z"/>
		<path d="M211.1,247.3c0.5-0.5,0.9-1.1,1.5-1.6C212,246.2,211.5,246.8,211.1,247.3z"/>
		<path d="M287.5,210.8c-1.5,1.4-3,2.7-4.5,4.1C284.6,213.5,286,212.2,287.5,210.8z"/>
		<path d="M255,184.5L255,184.5c8.9-0.1,17.8-0.3,27-0.7C272.9,184.3,263.8,184.5,255,184.5z"/>
		<path d="M283.1,214.8c-1.5,1.3-3,2.6-4.5,3.9C280.1,217.4,281.6,216.2,283.1,214.8z"/>
		<path d="M276.4,220.6c-1.5,1.2-2.9,2.4-4.4,3.6C273.5,223,275,221.8,276.4,220.6z"/>
		<path d="M301.1,197.9L301.1,197.9c-3.8,3.8-7.6,7.4-11.4,10.8C293.5,205.3,297.3,201.6,301.1,197.9z"/>
		<path d="M286.1,70.9c-2.4,0.3-4.7,0.5-7.1,0.7l0,0C281.4,71.3,283.7,71.1,286.1,70.9z"/>
		<path d="M309.8,69L309.8,69c-4.1,0.3-8.2,0.5-12.3,0.9C301.6,69.5,305.7,69.2,309.8,69z"/>
		<path d="M325.2,73.9c2.6,2,5.1,4.1,7.6,6.2C330.3,78,327.7,75.9,325.2,73.9z"/>
		<path d="M345.1,90.6c-0.6-4.3-1.3-8.6-2-12.8C343.8,81.9,344.5,86.2,345.1,90.6L345.1,90.6z"/>
		<path d="M310.4,181.6c-2.4,0.3-4.9,0.5-7.3,0.7c-2.1,0.2-4.2,0.3-6.2,0.5c2.1-0.1,4.2-0.3,6.2-0.5
			C305.6,182.1,308,181.9,310.4,181.6z"/>
		<path d="M252.3,168.6c-0.5-3.5-1.1-7-1.6-10.7l0,0C251.2,161.5,251.8,165.1,252.3,168.6z"/>
		<path d="M266,171c2,1.7,4.1,3.4,6.1,5C270.2,174.4,268.1,172.7,266,171z"/>
		<path d="M266,171c-1-0.8-2-1.7-3-2.6c-2.1-1.8-4.1-3.5-6.1-5.3c2,1.8,4.1,3.5,6.1,5.3C264,169.3,265,170.1,266,171z"/>
		<path d="M214.4,88.4c2.7-0.7,5.5-1.3,8.2-1.9C219.8,87.1,217.1,87.8,214.4,88.4z"/>
		<path d="M196.2,93.3c1.6-0.5,3.3-0.9,5-1.4C199.6,92.4,197.9,92.8,196.2,93.3z"/>
		<path d="M212.3,112.2c-2-2.2-3.8-4.3-5.7-6.4C208.5,107.8,210.4,110,212.3,112.2z"/>
		<path d="M240.6,108.4L240.6,108.4c-0.6,0.8-1.2,1.6-1.8,2.4C239.3,109.9,240,109.2,240.6,108.4z"/>
		<path d="M201.3,99.4c-1.1-1.4-2.3-2.8-3.4-4.1C199,96.7,200.1,98.1,201.3,99.4z"/>
		<path d="M240,89.2c0-2.1-0.1-4.2-0.1-6.2c-5.9,1.1-11.7,2.3-17.3,3.5c5.6-1.2,11.4-2.4,17.3-3.5C239.9,85.1,240,87.2,240,89.2z"/>
		<path d="M224.5,178.2c-1.9-0.1-3.8-0.2-5.7-0.3C220.6,177.9,222.5,178,224.5,178.2z"/>
		<path d="M236.2,178.6c-2-0.1-4-0.1-5.9-0.2C232.2,178.5,234.1,178.6,236.2,178.6z"/>
		<path d="M230.2,178.4c-2-0.1-3.9-0.2-5.8-0.3C226.4,178.2,228.3,178.4,230.2,178.4z"/>
		<path d="M245.2,178.9c-3-0.1-6.1-0.1-9.1-0.2C239.1,178.8,242.1,178.9,245.2,178.9z"/>
		<path d="M207.8,176.9c-1.8-0.2-3.6-0.3-5.3-0.5C204.3,176.5,206,176.7,207.8,176.9z"/>
		<path d="M244.3,152.2c0.3,2.3,0.5,4.5,0.9,6.8C244.9,156.7,244.6,154.5,244.3,152.2c-1.5-1.4-2.9-2.7-4.4-4.1
			C241.4,149.5,242.9,150.8,244.3,152.2z"/>
		<path d="M231.5,140.1c-1.4-1.4-2.8-2.7-4.1-4.1c-0.6,0.9-1.2,1.8-1.8,2.6c0.6-0.9,1.2-1.8,1.8-2.6
			C228.7,137.4,230.1,138.7,231.5,140.1z"/>
		<path d="M245.6,86.8c0-1.6,0-3.2-0.1-4.8l0,0C245.5,83.6,245.5,85.2,245.6,86.8z"/>
		<path d="M250.8,95.5c1.7-2,3.3-4.1,5.1-6.1c1.5-1.8,2.9-3.4,4.4-5.2c-1.5,1.7-3,3.4-4.4,5.2C254.2,91.4,252.5,93.4,250.8,95.5z"/>
		<path d="M264.7,79c-3.3,0.5-6.6,0.9-9.7,1.4C258.2,80,261.4,79.5,264.7,79L264.7,79z"/>
		<path d="M133.3,156.4c-0.6-0.4-1.1-0.8-1.7-1.2C132.2,155.6,132.7,156,133.3,156.4z"/>
		<path d="M223.3,132L223.3,132c-2,2.8-3.9,5.6-5.7,8.4C219.5,137.6,221.4,134.8,223.3,132z"/>
		<path d="M131.6,155.2c-0.8-0.6-1.6-1.3-2.2-1.9C130.1,153.9,130.8,154.6,131.6,155.2z"/>
		<path d="M140.2,160.6c-1.1-0.5-2.2-1.1-3.2-1.8C138,159.5,139.1,160,140.2,160.6z"/>
		<path d="M122.7,140.1c0,0.5,0,1,0.1,1.5c0.1,1.5,0.5,2.9,1.1,4.3c-0.6-1.4-0.9-2.8-1.1-4.3C122.8,141.1,122.7,140.6,122.7,140.1z"
			/>
		<path d="M123.9,145.9c1.1,2.6,2.9,5.1,5.5,7.4C126.8,150.9,124.9,148.4,123.9,145.9z"/>
		<path d="M236.8,137.4c-2.1-2-4.2-4.1-6.3-6.1C232.7,133.4,234.7,135.4,236.8,137.4z"/>
		<path d="M459.2,133c-0.7,0.5-1.4,1-2,1.5C457.8,134,458.5,133.6,459.2,133z"/>
		<path d="M462.9,130.1c-1.1,1-2.4,2-3.7,3C460.5,132.1,461.7,131.1,462.9,130.1z"/>
		<path d="M471.3,120.4c-0.3,0.5-0.6,1-0.9,1.5C470.7,121.4,471,120.9,471.3,120.4z"/>
		<path d="M465.3,127.9c-0.7,0.7-1.6,1.5-2.4,2.2C463.8,129.4,464.6,128.6,465.3,127.9z"/>
		<path d="M473.3,115.3c-0.1,0.7-0.4,1.5-0.7,2.2C473,116.7,473.2,116,473.3,115.3z"/>
		<path d="M472,118.9c-0.2,0.5-0.5,1-0.7,1.5C471.5,119.9,471.8,119.5,472,118.9z"/>
		<path d="M387.2,100.1c1.1-1.8,2.2-3.5,3.2-5.2C389.4,96.6,388.3,98.4,387.2,100.1z"/>
		<path d="M440.9,143.9c-0.9,0.5-2,0.9-2.9,1.4C438.9,144.9,439.9,144.4,440.9,143.9z"/>
		<path d="M465.3,127.9c0.7-0.7,1.5-1.5,2.2-2.2C466.8,126.4,466.1,127.2,465.3,127.9z"/>
		<path d="M378.6,113.3c3-4.5,5.9-8.9,8.6-13.2C384.5,104.4,381.6,108.9,378.6,113.3z"/>
		<path d="M455,136c-0.7,0.5-1.5,0.9-2.3,1.5C453.4,137,454.2,136.5,455,136z"/>
		<path d="M452.7,137.5c-0.8,0.5-1.6,0.9-2.4,1.5C451.1,138.4,451.9,138,452.7,137.5z"/>
		<path d="M445,141.8c-0.9,0.5-1.8,0.9-2.8,1.4C443.2,142.8,444.2,142.3,445,141.8z"/>
		<path fill="#FFFFFF" d="M224.2,269.9c0,1.4-0.2,2.7-0.5,4l0,0C224,272.6,224.2,271.2,224.2,269.9z"/>
		<polygon fill="#FFFFFF" points="216.7,248 231.6,272.6 231.6,272.6 		"/>
		<path fill="#FFFFFF" d="M212,254.2L212,254.2c0.2-0.6,0.5-1.2,0.8-1.8C212.5,253.1,212.2,253.6,212,254.2z"/>
		<path fill="#FFFFFF" d="M227,249.9c0-0.3,0-0.5,0-0.7C227,249.3,227,249.6,227,249.9z"/>
		<path fill="#FFFFFF" d="M228.3,255.2c0.2,0.5,0.5,1,0.7,1.5C228.8,256.2,228.5,255.7,228.3,255.2z"/>
		<path fill="#FFFFFF" d="M227.4,245.3c-0.3-0.1-0.7-0.1-1-0.1C226.8,245.1,227.1,245.2,227.4,245.3L227.4,245.3z"/>
		<path fill="#FFFFFF" d="M239.1,264.4L239.1,264.4c-0.1,0.3-0.3,0.7-0.4,0.9C238.9,265,239.1,264.7,239.1,264.4z"/>
		<path fill="#FFFFFF" d="M227.5,253c0.2,0.7,0.5,1.6,0.8,2.3C228,254.5,227.7,253.7,227.5,253z"/>
		<path fill="#FFFFFF" d="M227,249.9c0,0.5,0.1,1,0.1,1.6C227.1,250.9,227.1,250.4,227,249.9z"/>
		<path fill="#FFFFFF" d="M230.9,253.5c-0.1-0.4-0.3-0.8-0.4-1.2C230.6,252.6,230.7,253.1,230.9,253.5z"/>
		<path fill="#FFFFFF" d="M235.4,249.1c0.9,0.8,1.7,1.8,2.4,2.8C237,250.9,236.3,249.9,235.4,249.1z"/>
		<path fill="#FFFFFF" d="M231.7,255.2c-0.2-0.4-0.4-0.8-0.6-1.1C231.3,254.4,231.5,254.8,231.7,255.2z"/>
		<path fill="#FFFFFF" d="M213,257.6c1.1,0.5,2.2,1.1,3.2,1.8C215.2,258.7,214.1,258.1,213,257.6z"/>
		<path fill="#FFFFFF" d="M218.5,272.2c0.7,0.4,1.4,0.7,2.2,0.9c0.3-1.1,0.5-2.2,0.5-3.2c0,1.1-0.2,2.2-0.5,3.2
			C219.9,272.9,219.2,272.6,218.5,272.2z"/>
		<polygon fill="#FFFFFF" points="419.6,205.5 421.2,206.4 425.7,203.7 421.2,206.4 		"/>
		<path fill="#FFFFFF" d="M421.4,195l-3.2,1.1c-0.2,0.5-0.4,1.1-0.5,1.7c0.1-0.5,0.3-1.1,0.5-1.7L421.4,195z"/>
		<path fill="#FFFFFF" d="M417.3,203.9c0,0.2,0.1,0.3,0.1,0.5l2.2,1.1l-2.2-1.1C417.4,204.2,417.4,204,417.3,203.9z"/>
		<polygon fill="#FFFFFF" points="423,194.5 427,198 423,194.5 421.4,195 		"/>
		<path fill="#FFFFFF" d="M442.7,214.1c-0.5,0.4-1.1,0.8-1.7,1.1C441.6,214.9,442.1,214.5,442.7,214.1z"/>
		<polygon fill="#FFFFFF" points="435,209.9 435.3,212.7 435.5,214.9 435.3,212.7 		"/>
		<path fill="#FFFFFF" d="M437.6,216.3l0.5,0.3c0.3-0.1,0.7-0.3,1-0.4c-0.3,0.1-0.7,0.3-1,0.4L437.6,216.3z"/>
		<polygon fill="#FFFFFF" points="444,207.2 438.8,205.5 434.8,209 434.8,209 438.8,205.5 		"/>
		<path fill="#FFFFFF" d="M444.2,212.8c-0.5,0.5-1,0.9-1.6,1.4C443.2,213.7,443.8,213.2,444.2,212.8z"/>
		<path fill="#FFFFFF" d="M429,216.9c-0.7-0.2-1.4-0.4-2.1-0.7C427.5,216.5,428.2,216.7,429,216.9z"/>
		<polygon fill="#FFFFFF" points="432.1,212.2 432.4,215.1 432.4,215.1 		"/>
		<path fill="#FFFFFF" d="M425.9,215.7c-0.5-0.2-0.9-0.5-1.3-0.7C425,215.3,425.4,215.5,425.9,215.7z"/>
		<polygon fill="#FFFFFF" points="441.1,192.6 443.2,192.5 445.8,192.6 443.2,192.5 441.1,192.6 437.7,197.5 		"/>
		<polygon fill="#FFFFFF" points="445.7,203.6 446.8,203 448.8,201.9 446.8,203 		"/>
		<path fill="#FFFFFF" d="M448.6,200.1c0.1,0.6,0.1,1.2,0.1,1.8C448.8,201.3,448.7,200.7,448.6,200.1z"/>
		<polygon fill="#FFFFFF" points="425,189.9 425,188 425,188 		"/>
		<path d="M260.6,210.9c-0.7-2.8-1.4-5.6-2-8.5C259.3,205.3,260,208,260.6,210.9z"/>
		<path d="M255,184.5c1.1,6.1,2.4,12,3.6,17.8C257.3,196.6,256.1,190.7,255,184.5L255,184.5z"/>
		<path d="M301.1,197.9c-3.2-2.2-6.4-4.5-9.5-6.9C294.8,193.4,297.9,195.7,301.1,197.9L301.1,197.9z"/>
		<path d="M264.1,224.3c-0.5-1.8-0.9-3.5-1.4-5.3C263.1,220.8,263.7,222.6,264.1,224.3z"/>
		<path d="M278.7,265.1c-0.5-1-0.9-2-1.4-3.1C277.8,263.1,278.3,264.1,278.7,265.1z"/>
		<path d="M289.6,284.7c3,4.3,6,7.8,9,10.6C295.6,292.7,292.6,289.1,289.6,284.7z"/>
		<path d="M306.9,300.7c-0.5-0.2-1-0.4-1.5-0.6C305.9,300.3,306.4,300.5,306.9,300.7z"/>
		<path d="M308.4,301.2c-0.5-0.1-1-0.3-1.5-0.5C307.4,300.8,307.9,301,308.4,301.2z"/>
		<path d="M300.9,297.2c-0.7-0.5-1.5-1.2-2.2-1.9C299.4,296,300.2,296.6,300.9,297.2z"/>
		<path d="M304.7,299.7c-1.2-0.7-2.5-1.5-3.8-2.4C302.2,298.2,303.4,299,304.7,299.7z"/>
		<path d="M289.6,284.7c-0.7-1.1-1.5-2.2-2.2-3.4C288.1,282.6,288.9,283.7,289.6,284.7z"/>
		<path d="M276,258.8c-0.7-1.6-1.4-3.3-2-5.1C274.6,255.5,275.2,257.2,276,258.8z"/>
		<path d="M271.2,246.6c-0.4-1.2-0.9-2.4-1.3-3.7C270.4,244.2,270.8,245.4,271.2,246.6z"/>
		<path d="M286.6,280.2c-2.2-3.6-4.4-7.6-6.6-12C282.3,272.6,284.5,276.6,286.6,280.2z"/>
		<path d="M272.5,250.3c-0.5-1.2-0.9-2.4-1.4-3.6C271.6,247.8,272.1,249.1,272.5,250.3z"/>
		<path d="M350.8,165.8c0,1.6,0,3.1,0.1,4.7l0,0C350.9,168.9,350.8,167.4,350.8,165.8z"/>
		<path d="M332.1,173.4c2.5-2.8,5.1-5.7,7.6-8.7C337.1,167.6,334.6,170.5,332.1,173.4z"/>
		<path d="M231.5,246.4c0.7,0.3,1.4,0.7,2,1.1C232.9,247.2,232.2,246.8,231.5,246.4z"/>
		<path d="M238.7,261.1c-0.4-0.1-0.7-0.3-1.1-0.5C237.9,260.8,238.3,261,238.7,261.1z"/>
		<path d="M236.5,260.1c-0.5-0.3-1-0.7-1.5-1C235.5,259.4,236,259.8,236.5,260.1z"/>
		<path d="M237.6,260.6c-0.3-0.1-0.7-0.3-1.1-0.5C236.8,260.3,237.2,260.5,237.6,260.6z"/>
		<path d="M230.2,251c-0.1-0.6-0.1-1.3-0.1-1.9C230.1,249.7,230.1,250.3,230.2,251z"/>
		<path fill="#FFFFFF" d="M235.4,249.1c-0.6-0.5-1.2-1.1-1.9-1.5s-1.4-0.8-2-1.1c-0.3-0.1-0.7-0.3-1.1-0.5c-0.3,1-0.3,2-0.3,3.1
			c0,0.6,0.1,1.3,0.1,1.9c0.1,0.4,0.1,0.8,0.3,1.2c0.1,0.4,0.3,0.8,0.4,1.2c0.1,0.2,0.1,0.4,0.3,0.6c0.2,0.4,0.3,0.8,0.6,1.1
			c0.1,0.2,0.2,0.4,0.3,0.6c0.8,1.3,1.8,2.4,2.9,3.2c0.5,0.4,1,0.7,1.5,1c0.3,0.2,0.7,0.4,1.1,0.5c0.3,0.1,0.7,0.3,1.1,0.5
			s0.7,0.3,1.1,0.3c0.4-3.2-0.3-6.6-2.1-9.5C237,250.9,236.3,249.9,235.4,249.1z"/>
		<path d="M350.7,185.1c-0.1,2-0.1,3.9-0.2,5.8C350.6,189,350.7,187.1,350.7,185.1z"/>
		<path d="M338.7,178.1c-4.1,0.6-8.2,1.2-12.4,1.7c-4.1,4.5-8.2,8.9-12.3,13.1c4.1-4.3,8.2-8.6,12.3-13.1
			C330.4,179.3,334.6,178.7,338.7,178.1z"/>
		<path d="M350,202.2c-0.1,1.8-0.3,3.6-0.4,5.5C349.7,205.9,349.8,204.1,350,202.2z"/>
		<path d="M346,219.7c0.7,0.4,1.6,0.9,2.3,1.3c0.3-2.6,0.5-5.2,0.8-7.8c-0.3,2.6-0.5,5.3-0.8,7.8C347.6,220.5,346.9,220.1,346,219.7
			z"/>
		<path d="M189.9,202.5c1.4-3.3,2.8-6.7,4.5-10.1C192.8,195.8,191.3,199.2,189.9,202.5z"/>
		<path d="M188,207.4c0.4-1.1,0.8-2.2,1.3-3.2C188.9,205.2,188.4,206.3,188,207.4z"/>
		<path d="M186.8,210.5c0.4-1,0.7-2.1,1.2-3.2C187.6,208.4,187.2,209.5,186.8,210.5z"/>
		<path d="M249.9,187.8c-0.2-1.1-0.4-2.2-0.6-3.2c-4.4,0-8.8-0.1-13-0.3c4.3,0.1,8.6,0.2,13,0.3
			C249.5,185.7,249.7,186.8,249.9,187.8z"/>
		<path d="M179.7,243.5c0.1,7.7,2.1,13.5,6.1,16.9c0.9,0.7,1.8,1.4,2.9,1.9c-1.1-0.5-2-1.1-2.9-1.9
			C181.8,257,179.7,251.2,179.7,243.5z"/>
		<path d="M260.8,233.2c-0.5-1.8-1.1-3.7-1.6-5.6C259.8,229.5,260.3,231.4,260.8,233.2z"/>
		<path d="M205.5,182.3c-2-0.2-3.9-0.4-5.7-0.6c-1.9,3.6-3.6,7.2-5.3,10.7c1.6-3.4,3.4-7,5.3-10.7
			C201.6,181.9,203.5,182.1,205.5,182.3z"/>
		<path d="M249.9,187.8c0.4,2.2,0.8,4.3,1.3,6.4C250.7,192.2,250.3,190,249.9,187.8z"/>
		<path d="M253.9,206.8c1.4,6.1,2.9,12.1,4.5,17.9C256.8,218.9,255.3,213,253.9,206.8z"/>
		<path d="M229.8,184.1c2.1,0.1,4.3,0.2,6.4,0.3C234.1,184.3,232,184.2,229.8,184.1z"/>
		<path d="M223.6,183.7c2.1,0.1,4.2,0.2,6.3,0.3C227.7,184,225.6,183.9,223.6,183.7z"/>
		<path d="M251.8,197.4c0.5,2.1,0.9,4.2,1.4,6.3C252.7,201.6,252.3,199.5,251.8,197.4z"/>
		<path d="M205.5,182.3c5.8,0.6,11.9,1.1,18.1,1.4C217.4,183.4,211.3,182.9,205.5,182.3z"/>
		<path d="M207.2,254.6c-0.1,0.5-0.2,0.9-0.3,1.4C207,255.5,207.1,255,207.2,254.6z"/>
		<path d="M375.2,74.5c2.9,0.2,5.7,0.4,8.5,0.7C381,74.9,378.1,74.7,375.2,74.5z"/>
		<path d="M385.2,92.6c-0.9,1.6-2,3.2-3,4.8C383.3,95.8,384.2,94.2,385.2,92.6z"/>
		<path d="M394.6,76.3c-3.5-0.4-7.2-0.7-10.9-1.1C387.5,75.5,391.1,75.9,394.6,76.3L394.6,76.3z"/>
		<path d="M360.5,73.8c2,0.1,4.1,0.1,6,0.2C364.5,74,362.5,73.9,360.5,73.8z"/>
		<path d="M240.6,108.4c-0.2-4.3-0.4-8.6-0.5-12.8C240.2,99.8,240.4,104,240.6,108.4L240.6,108.4z"/>
		<path d="M220.3,120.7c2,2.2,4.2,4.3,6.3,6.6c3.9-5.5,8-11,12.2-16.6c-4.2,5.5-8.3,11-12.2,16.6
			C224.4,125.1,222.3,122.9,220.3,120.7z"/>
		<path d="M219.9,264.1c0.3,0.6,0.5,1.3,0.7,1.9C220.4,265.3,220.2,264.7,219.9,264.1z"/>
		<path d="M220.8,266.6c0.1,0.4,0.2,0.9,0.3,1.3C221,267.5,221,267,220.8,266.6z"/>
		<path d="M221.1,267.9c0.1,0.5,0.1,0.9,0.1,1.4C221.2,268.8,221.2,268.4,221.1,267.9z"/>
		<path d="M221.2,269.3c0,0.2,0,0.5,0,0.7C221.2,269.7,221.2,269.5,221.2,269.3z"/>
		<path fill="#FFFFFF" d="M221.1,267.9c-0.1-0.5-0.1-0.9-0.3-1.3c-0.1-0.2-0.1-0.4-0.2-0.7c-0.2-0.7-0.5-1.3-0.7-1.9
			c-0.2-0.4-0.4-0.8-0.7-1.2c-0.8-1.3-1.8-2.4-3-3.3c-1-0.7-2.1-1.4-3.2-1.8c-0.6-0.2-1.1-0.4-1.8-0.5c-0.5,3.4,0.1,6.9,2,10.1
			c1.4,2.2,3.2,3.9,5.3,5c0.7,0.4,1.4,0.7,2.2,0.9c0.3-1.1,0.5-2.2,0.5-3.2c0-0.2,0-0.5,0-0.7C221.2,268.8,221.2,268.4,221.1,267.9z
			"/>
		<path d="M220.3,246c0.7-0.3,1.4-0.5,2-0.6C221.6,245.6,221,245.8,220.3,246z"/>
		<path d="M237.7,263.9c0.5,0.1,0.9,0.3,1.4,0.4l0,0C238.7,264.3,238.2,264.1,237.7,263.9z"/>
		<path d="M227.4,245.3L227.4,245.3c-0.3,1-0.4,2-0.4,3C227.1,247.3,227.2,246.3,227.4,245.3z"/>
		<path d="M234.3,262.3c0.4,0.3,0.9,0.5,1.3,0.7C235.2,262.8,234.7,262.6,234.3,262.3z"/>
		<path d="M237.2,268.1c-0.4,0.5-0.9,1.1-1.4,1.6C236.3,269.2,236.8,268.7,237.2,268.1z"/>
		<path d="M227,249.1c0-0.3,0-0.5,0-0.7C227,248.6,227,248.9,227,249.1z"/>
		<path d="M235.6,263.1c0.7,0.3,1.4,0.6,2.1,0.9C237,263.7,236.3,263.4,235.6,263.1z"/>
		<path fill="#FFFFFF" d="M235.6,263.1c-0.5-0.2-0.9-0.5-1.3-0.7c-1.9-1.2-3.6-2.9-4.9-4.9c-0.1-0.2-0.3-0.5-0.4-0.7
			c-0.3-0.5-0.5-0.9-0.7-1.5c-0.3-0.7-0.6-1.5-0.8-2.3c-0.1-0.5-0.3-1-0.3-1.6s-0.1-1-0.1-1.6c0-0.3,0-0.5,0-0.7c0-0.3,0-0.5,0-0.7
			c0.1-1,0.2-2,0.4-3c-0.3-0.1-0.7-0.1-1-0.1c-1.4-0.1-2.8,0-4.1,0.3c-0.7,0.1-1.4,0.3-2,0.6c-0.3,0.1-0.7,0.3-1,0.4l14.9,24.7
			c0.6-0.4,1.1-0.9,1.7-1.4c0.5-0.5,0.9-1.1,1.4-1.6c0.6-0.9,1.1-1.8,1.6-2.8c0.1-0.3,0.3-0.7,0.4-0.9c-0.5-0.1-0.9-0.3-1.4-0.4
			C237,263.7,236.3,263.4,235.6,263.1z"/>
		<path d="M218.1,257.2c-1.2-0.9-2.6-1.7-3.9-2.2C215.6,255.5,216.9,256.2,218.1,257.2z"/>
		<path d="M212,254.2c0.7,0.2,1.4,0.4,2.2,0.7C213.5,254.6,212.7,254.4,212,254.2L212,254.2z"/>
		<path d="M216,248.7c-0.5,0.5-0.9,0.9-1.4,1.4C214.9,249.5,215.4,249.1,216,248.7z"/>
		<path d="M231.6,272.6L231.6,272.6c-0.6,0.3-1.3,0.5-2,0.7C230.3,273.2,230.9,273,231.6,272.6z"/>
		<path d="M223.7,273.9c0.7,0.1,1.4,0.1,2,0.1C224.9,274,224.3,273.9,223.7,273.9L223.7,273.9z"/>
		<path d="M224.2,269.1c0,0.3,0,0.5,0,0.8C224.2,269.6,224.2,269.3,224.2,269.1z"/>
		<path fill="#FFFFFF" d="M216,248.7c-0.5,0.5-0.9,0.9-1.4,1.4c-0.7,0.7-1.2,1.6-1.7,2.4c-0.3,0.5-0.6,1.1-0.8,1.8
			c0.7,0.2,1.4,0.4,2.2,0.7c1.4,0.5,2.7,1.3,3.9,2.2c1.4,1.1,2.6,2.4,3.6,4.1c1.6,2.4,2.4,5.1,2.4,7.8c0,0.3,0,0.5,0,0.8
			c0,1.4-0.2,2.7-0.5,4c0.7,0.1,1.4,0.1,2,0.1c1.4,0,2.7-0.2,4-0.6c0.7-0.2,1.3-0.4,2-0.7L216.7,248
			C216.4,248.3,216.2,248.5,216,248.7z"/>
		<path d="M205.1,171.5c1.4-2.4,2.8-4.9,4.2-7.4C207.9,166.6,206.5,169.1,205.1,171.5z"/>
		<path d="M209.3,164.2c0.9-1.6,2-3.3,3-5C211.3,160.8,210.4,162.5,209.3,164.2z"/>
		<path d="M212.3,159.2c2-3.3,4.1-6.8,6.4-10.1C216.5,152.4,214.3,155.8,212.3,159.2z"/>
		<path d="M352.6,104.9c0.1,1.4,0.3,2.7,0.5,4.1C352.9,107.6,352.7,106.3,352.6,104.9L352.6,104.9z"/>
		<path d="M367.7,119.3L367.7,119.3c-2,2.8-3.9,5.5-6,8.4C363.8,124.9,365.7,122.1,367.7,119.3z"/>
		<path d="M388.4,141.2c1.3,1.5,2.6,2.9,3.9,4.4C391,144.1,389.7,142.6,388.4,141.2z"/>
		<path d="M367.9,128.7c-1.3,1.8-2.6,3.6-3.9,5.3C365.3,132.2,366.6,130.5,367.9,128.7z"/>
		<path d="M384.4,136.8c1.4,1.5,2.7,3,4,4.4C387.1,139.7,385.8,138.2,384.4,136.8z"/>
		<path d="M392.2,145.5c2.5,2.9,4.9,5.7,7.2,8.6C397.1,151.3,394.8,148.4,392.2,145.5z"/>
		<path d="M290.6,183.2c2.4,1.8,4.9,3.6,7.3,5.4C295.5,186.9,293.1,185.1,290.6,183.2z"/>
		<path d="M311.4,187.5c-2.1,2.2-4.2,4.3-6.2,6.4C307.3,191.8,309.4,189.7,311.4,187.5z"/>
		<path d="M252.3,168.6c0.5,3.5,1.1,7,1.7,10.3c5.2,0,10.5-0.1,15.8-0.3c-5.4,0.2-10.7,0.3-15.8,0.3
			C253.4,175.5,252.9,172.1,252.3,168.6z"/>
		<path d="M250.8,157.9L250.8,157.9c2,1.8,4,3.5,6.1,5.3C254.8,161.5,252.8,159.7,250.8,157.9z"/>
		<path d="M422.5,211l0.1-1.9L422.5,211l-0.3,2.2c0.7,0.7,1.5,1.2,2.3,1.8c-0.8-0.5-1.6-1.1-2.3-1.8L422.5,211z"/>
		<polygon points="430,217.2 430.8,216.5 432.4,215.1 432.4,215.1 430.8,216.5 		"/>
		<polygon points="432.1,212.2 431.9,209.3 427.1,206.5 431.9,209.3 		"/>
		<path fill="#FFFFFF" d="M431.9,209.3l-4.7-2.8l-4.5,2.6l-0.1,1.9l-0.3,2.2c0.7,0.7,1.5,1.2,2.3,1.8c0.4,0.3,0.8,0.5,1.3,0.7
			c0.3,0.1,0.7,0.3,1,0.5c0.7,0.3,1.4,0.5,2.1,0.7c0.3,0.1,0.7,0.2,1.1,0.3l0.8-0.7l1.6-1.4l-0.3-2.9L431.9,209.3z"/>
		<path d="M434.8,209l0.1,0.9L434.8,209z"/>
		<polygon points="435.5,214.9 437.1,216 437.6,216.3 437.1,216 		"/>
		<path fill="#FFFFFF" d="M444,207.2l-5.1-1.8l-4,3.4l0.1,0.9l0.3,2.8l0.2,2.2l1.6,1l0.5,0.3l0.5,0.3c0.3-0.1,0.7-0.3,1-0.4
			c0.7-0.3,1.3-0.6,1.8-0.9c0.6-0.3,1.1-0.7,1.7-1.1c0.5-0.4,1-0.9,1.6-1.4c0.3-0.3,0.5-0.5,0.7-0.7l-0.7-3.2L444,207.2z"/>
		<path d="M379.9,235.9c-1.1-0.4-2.2-0.9-3.3-1.4C377.7,235.1,378.8,235.5,379.9,235.9z"/>
		<path d="M383.1,237.2c-1.1-0.4-2.2-0.8-3.2-1.2C381.1,236.4,382.1,236.8,383.1,237.2z"/>
		<path d="M413.4,196.9c-0.3,1.4-0.5,2.7-0.5,4.1C412.9,199.6,413.2,198.2,413.4,196.9z"/>
		<path d="M437.1,232.2c-0.3,1.4-0.8,2.7-1.4,3.9C436.3,234.9,436.8,233.7,437.1,232.2z"/>
		<path d="M392.4,240.3c-2.5-0.7-5-1.6-7.6-2.6C387.4,238.7,389.9,239.5,392.4,240.3z"/>
		<path d="M413.6,244.5c-3-0.2-6.4-0.7-9.9-1.4C407.2,243.9,410.4,244.3,413.6,244.5z"/>
		<path d="M403.6,243.2c-1.4-0.3-2.7-0.5-4.1-0.9C401,242.6,402.3,242.9,403.6,243.2z"/>
		<path d="M376.7,234.6c-1.7-0.7-3.4-1.4-5.1-2.2C373.3,233.2,375,233.9,376.7,234.6z"/>
		<path d="M399.6,242.3c-2.3-0.5-4.7-1.2-7.2-2C394.9,241.1,397.3,241.7,399.6,242.3z"/>
		<path d="M414.6,244.6c9,0.4,15.6-1.6,19.4-6.1c0.6-0.7,1.1-1.6,1.6-2.4c-0.5,0.9-1,1.7-1.6,2.4C430.3,243,423.6,245,414.6,244.6z"
			/>
		<path d="M421.7,185.1L421.7,185.1c-3-4.9-6.4-9.9-10.1-15.1C415.4,175.2,418.8,180.3,421.7,185.1z"/>
		<path d="M406.6,163.2c1.1,1.5,2.2,3,3.4,4.5C408.8,166.1,407.7,164.7,406.6,163.2z"/>
		<path d="M356.2,191.1c0.1-3.1,0.2-6.3,0.3-9.5C356.4,184.8,356.3,188,356.2,191.1z"/>
		<path d="M371.6,232.4c-1.1-0.5-2.3-1-3.4-1.6C369.3,231.4,370.4,232,371.6,232.4z"/>
		<path d="M353.7,223.8c4.9,2.6,9.7,4.9,14.4,7.1C363.5,228.8,358.7,226.4,353.7,223.8L353.7,223.8z"/>
		<path d="M355.7,200.3c0.2-3,0.3-6.1,0.5-9.3C356,194.3,355.9,197.3,355.7,200.3z"/>
		<path d="M414.8,193.1c-0.4,0.8-0.7,1.6-1,2.5C414.1,194.7,414.4,193.9,414.8,193.1z"/>
		<polygon points="439.9,202.6 437.7,197.5 439.9,202.6 444.6,204.2 445.7,203.6 444.6,204.2 		"/>
		<path d="M447.7,196.1c0.3,0.6,0.5,1.3,0.6,2C448.2,197.3,448,196.7,447.7,196.1z"/>
		<path fill="#FFFFFF" d="M441.1,192.6l-3.3,4.9l2.2,5.1l4.7,1.6l1.1-0.6l1.1-0.6l1.9-1.1c0-0.6,0-1.2-0.1-1.8
			c-0.1-0.7-0.2-1.4-0.3-2c-0.1-0.7-0.3-1.3-0.6-2c-0.5-1.3-1.1-2.4-1.9-3.5h-2.6L441.1,192.6z"/>
		<path d="M417.2,202.4c0,0.3,0.1,0.6,0.1,0.9c0,0.2,0.1,0.3,0.1,0.5c0-0.2-0.1-0.3-0.1-0.5C417.3,203,417.2,202.6,417.2,202.4z"/>
		<path fill="#FFFFFF" d="M421.4,195l-3.2,1.1c-0.2,0.5-0.4,1.1-0.5,1.7c-0.3,1.4-0.5,3-0.4,4.5c0,0.3,0.1,0.6,0.1,0.9
			c0,0.2,0.1,0.3,0.1,0.5s0.1,0.3,0.1,0.5l2.2,1.1l1.6,0.9l4.5-2.7l1.3-5.6l-4-3.6L421.4,195z"/>
		<path d="M425,188L425,188c0.5-0.3,0.9-0.5,1.4-0.7C426,187.5,425.5,187.8,425,188z"/>
		<path d="M438.6,190.6l-1.4-4.1c-0.2-0.1-0.5-0.1-0.7-0.2c0.2,0.1,0.5,0.1,0.7,0.2L438.6,190.6z"/>
		<polygon points="425,189.9 425.1,192.2 429.4,196 425.1,192.2 		"/>
		<path d="M435,186c0.5,0.1,0.9,0.1,1.4,0.3C436,186.2,435.5,186.1,435,186z"/>
		<path fill="#FFFFFF" d="M425.1,192.2l4.3,3.9l5.9-0.5l1.6-2.5l1.6-2.4l-1.4-4.1c-0.2-0.1-0.5-0.1-0.7-0.2
			c-0.5-0.1-0.9-0.2-1.4-0.3c-1.2-0.1-2.4-0.2-3.7-0.1c-1.7,0.2-3.3,0.6-4.8,1.3c-0.5,0.2-0.9,0.5-1.4,0.7v1.8L425.1,192.2z"/>
		<path d="M345.1,90.6L345.1,90.6c-1.6-1.4-3.2-2.8-4.8-4.2C341.9,87.8,343.5,89.2,345.1,90.6z"/>
		<path d="M343.1,77.8c-0.2-1.4-0.5-2.8-0.7-4.2c-2.8,0-5.7,0.1-8.5,0.1c2.8-0.1,5.7-0.1,8.5-0.1C342.7,74.9,342.9,76.3,343.1,77.8z
			"/>
		<path d="M332.8,80.1c0.9,0.7,1.7,1.4,2.6,2.1c1.6,1.4,3.3,2.8,4.9,4.2c-1.6-1.4-3.2-2.8-4.9-4.2C334.5,81.5,333.7,80.8,332.8,80.1
			z"/>
		<path d="M241,117c0.1,2.4,0.3,4.7,0.5,7C241.4,121.7,241.2,119.3,241,117c-0.9,1.2-1.8,2.4-2.7,3.6
			C239.3,119.4,240.2,118.2,241,117z"/>
		<path d="M230.6,131.3c1.7-2.4,3.4-4.7,5.1-7.1C234,126.5,232.3,129,230.6,131.3z"/>
		<path d="M132.3,123.5c-0.8,0.7-1.6,1.6-2.4,2.3C130.7,125,131.4,124.2,132.3,123.5z"/>
		<path d="M163.2,105.1c1.1-0.5,2.2-0.9,3.3-1.4C165.3,104.1,164.3,104.6,163.2,105.1z"/>
		<path d="M157,107.9c1.5-0.7,3-1.4,4.7-2.2C160,106.5,158.5,107.2,157,107.9z"/>
		<path d="M148.5,112.2c1.4-0.7,2.7-1.5,4.1-2.2C151.2,110.7,149.8,111.5,148.5,112.2z"/>
		<path d="M177,99.6c1.2-0.5,2.4-0.9,3.7-1.4C179.5,98.6,178.2,99.1,177,99.6z"/>
		<path d="M169.9,102.3c1.8-0.7,3.5-1.4,5.3-2C173.4,100.9,171.6,101.5,169.9,102.3z"/>
		<path d="M134,122c0.9-0.7,1.8-1.5,2.8-2.3C135.9,120.5,134.9,121.2,134,122z"/>
		<path d="M125.7,131.1c0.3-0.5,0.7-1,1-1.5C126.4,130.1,126,130.6,125.7,131.1z"/>
		<path d="M143.5,115.2c1.2-0.7,2.4-1.5,3.7-2.2C145.9,113.7,144.7,114.5,143.5,115.2z"/>
		<path d="M127.3,128.8c0.6-0.7,1.2-1.6,1.9-2.3C128.5,127.3,127.9,128,127.3,128.8z"/>
		<path d="M132.3,123.5c0.5-0.5,1.1-1,1.8-1.5C133.4,122.5,132.8,123,132.3,123.5z"/>
		<path d="M141.2,116.7c0.7-0.5,1.6-1,2.3-1.5C142.6,115.7,141.9,116.2,141.2,116.7z"/>
		<path d="M152.6,110.1c1.4-0.7,2.8-1.4,4.4-2.2C155.5,108.6,154,109.3,152.6,110.1z"/>
		<path d="M201.8,108.7c1.4,1.6,2.7,3,4.1,4.6C204.4,111.7,203.1,110.2,201.8,108.7z"/>
		<path d="M212.1,120.3c1.4,1.6,2.9,3.1,4.4,4.7C215,123.4,213.6,121.8,212.1,120.3z"/>
		<path d="M122.7,140.1c0.1-3,1.1-5.9,3-9C123.8,134.1,122.8,137.2,122.7,140.1z"/>
		<path d="M194.1,99.5c1.2,1.5,2.5,3,3.8,4.5C196.6,102.6,195.3,101.1,194.1,99.5z"/>
		<path d="M223.3,132c-2.3-2.4-4.6-4.7-6.8-7C218.7,127.3,221,129.6,223.3,132L223.3,132z"/>
		<path d="M212.2,148.6c-1.1,1.8-2.3,3.6-3.4,5.5C209.9,152.4,211,150.5,212.2,148.6z"/>
		<path d="M309.8,69c-2.8-2.1-5.5-4.2-8.3-6.2C304.2,64.8,307,66.9,309.8,69L309.8,69z"/>
		<path d="M279,71.6L279,71.6c2.4-2.6,4.7-5.1,7.1-7.6C283.7,66.5,281.4,69,279,71.6z"/>
		<path d="M245.5,82L245.5,82c1.6-0.3,3.1-0.5,4.7-0.8C248.7,81.5,247,81.7,245.5,82z"/>
		<path d="M264.7,79L264.7,79c-1.5,1.7-3,3.4-4.5,5.1C261.8,82.4,263.3,80.7,264.7,79z"/>
		<path d="M250.8,95.5c-1.7,2-3.3,4.1-4.9,6.1C247.5,99.5,249.2,97.5,250.8,95.5z"/>
		<path d="M470.6,103.2c0.3,0.5,0.6,0.9,0.9,1.4C471.2,104.1,470.9,103.6,470.6,103.2z"/>
		<path d="M439.6,85.3c1,0.3,2,0.6,2.9,0.9C441.6,85.9,440.6,85.6,439.6,85.3z"/>
		<path d="M453,90.3c1.2,0.5,2.3,1.1,3.4,1.7C455.3,91.4,454.2,90.9,453,90.3z"/>
		<path d="M406.8,154.3c-1.2-1.6-2.5-3.1-3.8-4.7C404.3,151.2,405.6,152.8,406.8,154.3z"/>
		<path d="M462.3,95.5c0.9,0.6,1.8,1.2,2.5,1.8C464.1,96.7,463.2,96.1,462.3,95.5z"/>
		<path d="M444,86.7c0.9,0.3,1.8,0.7,2.7,1C445.8,87.4,444.8,87,444,86.7z"/>
		<path d="M472.6,106.6c0.2,0.5,0.3,0.9,0.5,1.4C472.9,107.6,472.8,107.1,472.6,106.6z"/>
		<path d="M469,101.2c-1.1-1.3-2.6-2.6-4.1-3.9C466.5,98.6,467.8,99.9,469,101.2z"/>
		<path d="M395,140.2c-1.4-1.6-2.8-3.2-4.2-4.7C392.3,137,393.7,138.6,395,140.2z"/>
		<path d="M401.1,147.3c-2-2.4-4-4.7-6.1-7.1C397.1,142.6,399.2,144.9,401.1,147.3z"/>
		<path d="M346.9,104.7c-0.2-1.9-0.5-3.7-0.7-5.6c-1.1-1-2.4-2.1-3.5-3.1c1.2,1,2.4,2.1,3.5,3.1
			C346.5,100.9,346.7,102.8,346.9,104.7z"/>
		<path d="M249.1,144.8c-0.3-3.1-0.7-6.2-0.9-9.4C248.5,138.6,248.8,141.7,249.1,144.8z"/>
		<path d="M350.1,142.9L350.1,142.9c-3,3.8-6,7.6-9.2,11.4C344.1,150.5,347.1,146.7,350.1,142.9z"/>
		<path d="M246.3,110.1c2.2-2.8,4.5-5.7,6.8-8.6C250.8,104.4,248.5,107.3,246.3,110.1z"/>
		<path d="M253.1,101.6c2.3-2.8,4.7-5.7,7.1-8.6c2.2-2.6,4.3-5.1,6.5-7.6c-2.2,2.5-4.3,5.1-6.5,7.6
			C257.8,95.9,255.4,98.7,253.1,101.6z"/>
		<path d="M268.8,165.9c5.1,4.2,10.1,8.2,15.1,12.1c6.1-0.3,12.4-0.8,18.8-1.4c-6.4,0.5-12.6,1-18.8,1.4
			C278.8,174.2,273.8,170.1,268.8,165.9z"/>
	</g>
</g>
</svg>
