<?xml version="1.0" encoding="utf-8"?>
<!-- Generator: Adobe Illustrator 17.1.0, SVG Export Plug-In . SVG Version: 6.00 Build 0)  -->
<!DOCTYPE svg PUBLIC "-//W3C//DTD SVG 1.1//EN" "http://www.w3.org/Graphics/SVG/1.1/DTD/svg11.dtd">
<svg version="1.1" id="Layer_10_1_" xmlns="http://www.w3.org/2000/svg" xmlns:xlink="http://www.w3.org/1999/xlink" x="0px"
	 y="0px" viewBox="54.1 47.4 432.2 277.1" enable-background="new 54.1 47.4 432.2 277.1" xml:space="preserve">
<g id="graphic_detail">
	<g>
		<g>
			<g>
				<g>
					<g>
						<g>
							<g>
								<polygon fill="#FFFFFF" points="360.8,324.5 313.5,324.5 313.5,131.8 334.1,142.7 334.1,211.2 360.8,211.2 								"/>
								<polygon fill="#111D2A" points="486.3,122.7 486.3,324.5 457,324.5 457,97.4 								"/>
								<rect x="171" y="260.8" fill="#111D2A" width="46.3" height="63.7"/>
								<rect x="217.2" y="195.8" fill="#FFFFFF" width="47.5" height="128.7"/>
								<polygon fill="#111D2A" points="313.5,131.8 313.5,324.5 264.8,324.5 264.8,131.8 								"/>
								<polygon fill="#111D2A" points="408.6,157.3 408.6,324.5 360.8,324.5 360.8,157.3 								"/>
								<polygon fill="#FFFFFF" points="457,97.4 457,324.5 408.6,324.5 408.6,97.4 								"/>
							</g>
						</g>
					</g>
				</g>
				<g>
					<g>
						<g>
							<polygon fill="#5F95B8" points="223.7,204.8 229.5,204.8 229.5,210.6 223.7,210.6 							"/>
							<path fill="#5F95B8" d="M226.6,207.7"/>
						</g>
					</g>
					<g>
						<g>
							<polygon fill="#5F95B8" points="235.4,204.8 241.1,204.8 241.1,210.6 235.4,210.6 							"/>
							<path fill="#5F95B8" d="M238.3,207.7"/>
						</g>
					</g>
					<g>
						<g>
							<polygon fill="#5F95B8" points="223.7,216 229.5,216 229.5,221.7 223.7,221.7 							"/>
							<path fill="#5F95B8" d="M226.6,218.9"/>
						</g>
					</g>
					<g>
						<g>
							<polygon fill="#5F95B8" points="235.4,216 241.1,216 241.1,221.7 235.4,221.7 							"/>
							<path fill="#5F95B8" d="M238.3,218.9"/>
						</g>
					</g>
					<g>
						<g>
							<polygon fill="#5F95B8" points="223.9,227.6 229.7,227.6 229.7,233.3 223.9,233.3 							"/>
							<path fill="#5F95B8" d="M226.8,230.4"/>
						</g>
					</g>
				</g>
				<g>
					<g>
						<g>
							<polygon fill="#5F95B8" points="270.9,138.8 276.6,138.8 276.6,144.5 270.9,144.5 							"/>
							<path fill="#5F95B8" d="M273.7,141.6"/>
						</g>
					</g>
					<g>
						<g>
							<polygon fill="#5F95B8" points="270.9,150 276.6,150 276.6,155.6 270.9,155.6 							"/>
							<path fill="#5F95B8" d="M273.7,152.8"/>
						</g>
					</g>
				</g>
				<g>
					<g>
						<g>
							<polygon fill="#5F95B8" points="319.5,218.7 325.2,218.7 325.2,224.5 319.5,224.5 							"/>
							<path fill="#5F95B8" d="M322.3,221.6"/>
						</g>
					</g>
					<g>
						<g>
							<polygon fill="#5F95B8" points="319.5,229.9 325.2,229.9 325.2,235.6 319.5,235.6 							"/>
							<path fill="#5F95B8" d="M322.3,232.8"/>
						</g>
					</g>
				</g>
				<g>
					<g>
						<g>
							<polygon fill="#5F95B8" points="319.5,248.8 325.2,248.8 325.2,254.5 319.5,254.5 							"/>
							<path fill="#5F95B8" d="M322.3,251.6"/>
						</g>
					</g>
				</g>
				<g>
					<g>
						<g>
							<g>
								<polygon fill="#5F95B8" points="368.4,165.6 374.2,165.6 374.2,171.3 368.4,171.3 								"/>
								<path fill="#5F95B8" d="M371.2,168.4"/>
							</g>
						</g>
						<g>
							<g>
								<polygon fill="#5F95B8" points="380,165.6 385.7,165.6 385.7,171.3 380,171.3 								"/>
								<path fill="#5F95B8" d="M382.9,168.4"/>
							</g>
						</g>
						<g>
							<g>
								<polygon fill="#5F95B8" points="368.4,177.8 374.2,177.8 374.2,183.5 368.4,183.5 								"/>
								<path fill="#5F95B8" d="M371.2,180.6"/>
							</g>
						</g>
						<g>
							<g>
								<polygon fill="#5F95B8" points="380,177.8 385.7,177.8 385.7,183.5 380,183.5 								"/>
								<path fill="#5F95B8" d="M382.9,180.6"/>
							</g>
						</g>
						<g>
							<g>
								<polygon fill="#5F95B8" points="368.4,190 374.2,190 374.2,195.7 368.4,195.7 								"/>
								<path fill="#5F95B8" d="M371.2,192.9"/>
							</g>
						</g>
					</g>
					<g>
						<g>
							<polygon fill="#5F95B8" points="391.7,165.6 397.5,165.6 397.5,171.3 391.7,171.3 							"/>
							<path fill="#5F95B8" d="M394.6,168.4"/>
						</g>
					</g>
				</g>
				<g>
					<g>
						<g>
							<g>
								<polygon fill="#5F95B8" points="417,105.6 422.7,105.6 422.7,111.3 417,111.3 								"/>
								<path fill="#5F95B8" d="M419.8,108.5"/>
							</g>
						</g>
						<g>
							<g>
								<polygon fill="#5F95B8" points="428.6,105.6 434.3,105.6 434.3,111.3 428.6,111.3 								"/>
								<path fill="#5F95B8" d="M431.5,108.5"/>
							</g>
						</g>
						<g>
							<g>
								<polygon fill="#5F95B8" points="417,117.8 422.7,117.8 422.7,123.5 417,123.5 								"/>
								<path fill="#5F95B8" d="M419.8,120.7"/>
							</g>
						</g>
						<g>
							<g>
								<polygon fill="#5F95B8" points="417,130 422.7,130 422.7,135.8 417,135.8 								"/>
								<path fill="#5F95B8" d="M419.8,132.9"/>
							</g>
						</g>
					</g>
				</g>
				<g>
					<g>
						<g>
							<g>
								<polygon fill="#5F95B8" points="417,141.3 422.7,141.3 422.7,147 417,147 								"/>
								<path fill="#5F95B8" d="M419.8,144.1"/>
							</g>
						</g>
						<g>
							<g>
								<polygon fill="#5F95B8" points="428.6,141.3 434.3,141.3 434.3,147 428.6,147 								"/>
								<path fill="#5F95B8" d="M431.5,144.1"/>
							</g>
						</g>
						<g>
							<g>
								<polygon fill="#5F95B8" points="417,153.5 422.7,153.5 422.7,159.2 417,159.2 								"/>
								<path fill="#5F95B8" d="M419.8,156.4"/>
							</g>
						</g>
						<g>
							<g>
								<polygon fill="#5F95B8" points="417,165.8 422.7,165.8 422.7,171.4 417,171.4 								"/>
								<path fill="#5F95B8" d="M419.8,168.6"/>
							</g>
						</g>
					</g>
				</g>
				<g>
					<g>
						<g>
							<polygon fill="#5F95B8" points="176.8,268.4 182.6,268.4 182.6,274.1 176.8,274.1 							"/>
							<path fill="#5F95B8" d="M179.7,271.3"/>
						</g>
					</g>
					<g>
						<g>
							<polygon fill="#5F95B8" points="188.5,268.4 194.1,268.4 194.1,274.1 188.5,274.1 							"/>
							<path fill="#5F95B8" d="M191.3,271.3"/>
						</g>
					</g>
					<g>
						<g>
							<polygon fill="#5F95B8" points="176.8,279.6 182.6,279.6 182.6,285.2 176.8,285.2 							"/>
							<path fill="#5F95B8" d="M179.7,282.4"/>
						</g>
					</g>
					<g>
						<g>
							<polygon fill="#5F95B8" points="188.5,279.6 194.1,279.6 194.1,285.2 188.5,285.2 							"/>
							<path fill="#5F95B8" d="M191.3,282.4"/>
						</g>
					</g>
					<g>
						<g>
							<polygon fill="#5F95B8" points="176.8,290.9 182.6,290.9 182.6,296.7 176.8,296.7 							"/>
							<path fill="#5F95B8" d="M179.7,293.8"/>
						</g>
					</g>
				</g>
			</g>
			<g>
				<ellipse fill="#F6B51D" cx="128.2" cy="118.1" rx="44.1" ry="44.1"/>
				<path fill="#F6B51D" d="M128.2,118.1"/>
			</g>
			<path fill="#F3913E" d="M128.1,74c-24.3,0-44.3,19.7-44.3,44.1V118v0.2h44.4L105.6,156c6.6,4,14.4,6.2,22.6,6.2
				c24.3,0,44.1-19.7,44.1-44.1S152.4,74,128.1,74z"/>
			<path fill="#F5E100" d="M128.2,118.1H84.1c0-16.1,8.6-30.1,21.5-37.8"/>
		</g>
	</g>
</g>
</svg>
