<?xml version="1.0" encoding="utf-8"?>
<!-- Generator: Adobe Illustrator 17.1.0, SVG Export Plug-In . SVG Version: 6.00 Build 0)  -->
<!DOCTYPE svg PUBLIC "-//W3C//DTD SVG 1.1//EN" "http://www.w3.org/Graphics/SVG/1.1/DTD/svg11.dtd">
<svg version="1.1" id="Layer_9" xmlns="http://www.w3.org/2000/svg" xmlns:xlink="http://www.w3.org/1999/xlink" x="0px" y="0px"
	 viewBox="111.9 98 432.5 259.5" enable-background="new 111.9 98 432.5 259.5" xml:space="preserve">
<g id="gulliver_1_">
	<g>
		<g>
			<path fill="#5AC5C4" d="M328.1,494"/>
		</g>
		<g>
			<g>
				<g>
					<g>
						<g>
							<path fill="#111D2A" d="M310.7,120l16.2,8.2l16.4-8.4l15.5,14.5l-18.4,18.9l12.1,168.1c0,0.1-0.1,0.5-0.1,0.5L329,357.5
								c-0.3,0.5-0.9,0.5-1.4,0L303,323.4c-0.1-0.1-0.1-0.5-0.1-0.5l10.6-169.7l-17.7-19.3L310.7,120z"/>
						</g>
						<g>
							<path fill="#FFFFFF" d="M384,98v56.2c0,1.6-1.6,2.3-2.7,1.2L327,104.8c-3.5,3.3-14.9,14.1-26.3,24.6
								c-6.8,6.4-26.5,24-26.9,24.3c-0.2,0.1-0.5,0.3-0.7,0.5c-1.8,0.9-2.5-0.7-2.5-1.4c0-1.2-0.3-39.3-0.3-54.7L384,98z"/>
						</g>
					</g>
				</g>
			</g>
			<g>
				<path fill="#087678" d="M306.5,264.2l-77.7-65.8c-0.3-0.2-0.5-0.9-0.5-1.2V175c0-1.3,1.1-2,2.3-1.5l79.3,37.3L306.5,264.2z"/>
			</g>
			<g>
				<path fill="#087678" d="M344.6,213.9l81.2-38.2c1.1-0.5,2.3,0.2,2.3,1.5v22.2c0,0.3-0.3,1-0.5,1.2l-79.1,66.9L344.6,213.9z"/>
			</g>
		</g>
	</g>
</g>
</svg>
