<?xml version="1.0" encoding="utf-8"?>
<!-- Generator: Adobe Illustrator 17.1.0, SVG Export Plug-In . SVG Version: 6.00 Build 0)  -->
<!DOCTYPE svg PUBLIC "-//W3C//DTD SVG 1.1//EN" "http://www.w3.org/Graphics/SVG/1.1/DTD/svg11.dtd">
<svg version="1.1" id="prospero" xmlns="http://www.w3.org/2000/svg" xmlns:xlink="http://www.w3.org/1999/xlink" x="0px" y="0px"
	 viewBox="62.4 43.9 431.8 266.5" enable-background="new 62.4 43.9 431.8 266.5" xml:space="preserve">
<g id="Layer_10">
	<g>
		<path fill="#B51915" d="M272.5,191.7c0-3,1.8-5.5,4.5-6.3V43.9h3.4v141.4c3.4,0.7,5.2,3.3,5.2,6.4c0,3.6-2.9,6.6-6.6,6.6
			C275.4,198.2,272.5,195.3,272.5,191.7z"/>
		<path fill="#B51915" d="M280.8,43.9l3.6,14.1c10.9,37.4,35.2,89.5,64.1,129.7c-25.1,56.5-24.3,119.5-24.3,119.5s3.6,3.2,10,0
			c1.7,0,3.5,0,3.5,0c8,4.7,16.2-0.1,16.2-0.1h3.4c7.4,5.7,16.1,0.1,16.1,0.1l3.5,0.1c7.4,6.7,16,0,16,0l3.4-0.1
			c2.3,2.3,6.4,3,10.4,0.8V43.9L280.8,43.9L280.8,43.9z"/>
		<path fill="#E30613" d="M149.5,307.2c0,0,5.4,3.7,11.8,0c0,0,2.6,0,3.4,0c5.1,2.4,10.5,2.4,16.1,0c0,0,2.4,0,3.4,0
			c5.9,6.1,16.2,0.1,16.2,0.1s2.1,0,3.4-0.1c8.4,5.3,16.2,0.1,16.2,0.1s2,0,3.4,0c4.5,3.6,10,0,10,0s0.8-63-24.3-119.5
			c29.5-41.1,54.3-93.6,65-131.2l3.1-12.6H149.5V307.2z"/>
		<line fill="none" stroke="#B51C18" stroke-miterlimit="10" x1="162.6" y1="43.9" x2="162.6" y2="306.8"/>
		<g>
			<g>
				<path fill="none" stroke="#B81917" stroke-width="1.222" stroke-miterlimit="3.8637" d="M182.5,307.2"/>
				<path fill="none" stroke="#B81917" stroke-width="1.222" stroke-miterlimit="3.8637" d="M191.8,43.9"/>
			</g>
			<g>
				<path fill="none" stroke="#BB1A18" stroke-width="1.222" stroke-miterlimit="3.8637" d="M202.1,307.2"/>
				<path fill="none" stroke="#BB1A18" stroke-width="1.222" stroke-miterlimit="3.8637" d="M221.4,43.9"/>
			</g>
		</g>
		<path fill="#B51915" d="M209.1,187.8h-59.7v12.8h64.8C212.7,196.6,211,191.9,209.1,187.8z"/>
		<path fill="#B51915" d="M209.1,187.8h-59.7v12.8h64.8C212.7,196.6,211,191.9,209.1,187.8z"/>
		<g>
			<g>
				<line fill="none" stroke="#E30613" stroke-miterlimit="3.8637" x1="394" y1="43.9" x2="394" y2="306.8"/>
				<path fill="none" stroke="#E30613" stroke-width="1.222" stroke-miterlimit="3.8637" d="M365.8,43.9
					c3.4,31.8,10.6,106.2,18.4,147.5c-6.2,37.4-8.8,96.2-9.2,115.8"/>
				<path fill="none" stroke="#E30613" stroke-width="1.222" stroke-miterlimit="3.8637" d="M336.3,43.9
					c6.2,38.2,21.3,107.3,37.7,146.1c-13,41.2-17.9,96-18.5,117.1"/>
				<path fill="none" stroke="#E30613" stroke-width="1.222" stroke-miterlimit="3.8637" d="M306.2,43.9
					c8.8,48.1,32,109.3,57.4,144.6c-20.1,45-27.2,94-27.8,118.7"/>
			</g>
		</g>
		<path fill="#E30613" d="M284.4,58c2.8,1.8,6,2.9,9.3,2.9c6.5,0,12.1-3.9,14.5-9.6c2.4,5.6,8,9.5,14.5,9.5c6.5,0,13.1-4.1,15.5-9.7
			c2.4,5.6,8.8,9.1,15.3,9.1s11.2-3.4,13.6-9.1c2.4,5.6,8.2,9.3,14.7,9.3h0.3c6.5,0,9.8-3.5,12.2-9.2c2,4.7,7.1,8.2,12.6,9.2V43.9
			H280.8L284.4,58z"/>
		<path fill="none" stroke="#B81917" stroke-width="1.222" stroke-miterlimit="3.8637" d="M191.8,43.9
			c-3.4,31.8-10.6,106.2-18.4,147.5c6.2,37.4,8.7,96.2,9.2,115.8"/>
		<path fill="none" stroke="#BB1A18" stroke-width="1.222" stroke-miterlimit="3.8637" d="M221.4,43.9
			c-6.2,38.2-21.2,107.3-37.7,146.1c13,41.3,17.9,96.2,18.5,117.2"/>
		<path fill="none" stroke="#BE1A1A" stroke-width="1.222" stroke-miterlimit="3.8637" d="M251.3,43.9
			c-8.8,48.1-32,109.3-57.4,144.6c20.1,45,27.2,94,27.8,118.7"/>
		<path fill="#B51915" d="M274,56.5l3.1-12.6H149.5v18.2c6.1-0.2,11.5-4,13.7-9.3c2.4,5.5,7.8,9.3,14.1,9.3c6.4,0,10.5-3.9,12.8-9.3
			c2.4,5.5,9.1,9.3,15.4,9.3c6.4,0,11.8-3.9,14.1-9.3c2.4,5.5,7.8,9.3,14.4,9.3c6.4,0,13.4-3.7,15.8-9.2c2.4,5.5,6,9.3,12.4,9.3h0.1
			C266.9,62.1,271.2,59.9,274,56.5l3.2-12.5"/>
		<g>
			<path fill="#E30613" d="M348.3,187.5c0.1,0.1,0.1,0.1,0.1,0.1c-1.9,4.3-3.6,8.5-5.2,12.8h63.5v-12.9h-58.3H348.3L348.3,187.5z"/>
		</g>
	</g>
</g>
</svg>
